<svg xmlns="http://www.w3.org/2000/svg" width="1313" height="22" viewBox="0 0 1313 22"><g fill="#E8E6EE" fill-rule="evenodd"><path d="M503.485 18.164c-4.007 4.007-10.505 4.007-14.512 0-4.008-4.008-4.008-10.505 0-14.512 4.007-4.008 10.505-4.008 14.512 0 4.007 4.007 4.007 10.504 0 14.512"/><path d="M486.15 17.917c-3.871 3.871-10.147 3.871-14.019 0a9.912 9.912 0 0 1 0-14.019c3.872-3.871 10.148-3.871 14.02 0 3.87 3.872 3.87 10.147 0 14.02"/><path d="M468.816 17.67a9.566 9.566 0 0 1-13.527-13.526 9.565 9.565 0 0 1 13.527 13.526"/><path d="M451.481 17.424A9.216 9.216 0 1 1 438.448 4.39a9.216 9.216 0 0 1 13.033 13.033"/><path d="M434.146 17.177a8.867 8.867 0 1 1-12.54-12.541 8.867 8.867 0 0 1 12.54 12.541"/><path d="M416.811 16.93a8.518 8.518 0 1 1-12.046-12.048 8.518 8.518 0 0 1 12.046 12.048"/><path d="M399.476 16.684a8.168 8.168 0 0 1-11.552 0 8.167 8.167 0 0 1 0-11.552 8.167 8.167 0 0 1 11.552 0 8.168 8.168 0 0 1 0 11.552m-17.334-.247a7.82 7.82 0 1 1-11.058-11.059 7.82 7.82 0 0 1 11.058 11.059m-17.335-.247a7.47 7.47 0 0 1-10.566 0 7.47 7.47 0 1 1 10.566-10.565 7.47 7.47 0 0 1 0 10.565m-17.335-.246a7.121 7.121 0 0 1-10.072 0 7.122 7.122 0 0 1 0-10.072 7.121 7.121 0 0 1 10.072 0 7.12 7.12 0 0 1 0 10.072m-17.334-.247a6.773 6.773 0 0 1-9.58 0 6.773 6.773 0 1 1 9.58-9.58 6.773 6.773 0 0 1 0 9.58m-17.335-.247a6.424 6.424 0 0 1-9.086 0 6.423 6.423 0 0 1 0-9.085 6.424 6.424 0 1 1 9.086 9.085m-17.335-.246a6.076 6.076 0 1 1-8.592-8.593 6.076 6.076 0 0 1 8.592 8.593m-17.334-.247a5.728 5.728 0 0 1-8.1-8.1 5.728 5.728 0 0 1 8.1 8.1m-17.335-.246a5.378 5.378 0 1 1-7.606-7.606 5.378 5.378 0 0 1 7.606 7.606m-17.335-.247a5.029 5.029 0 1 1-7.113-7.113 5.029 5.029 0 1 1 7.113 7.113m-17.335-.247a4.68 4.68 0 1 1-6.62-6.619 4.68 4.68 0 0 1 6.62 6.62m-17.334-.247a4.332 4.332 0 1 1-6.127-6.128 4.332 4.332 0 0 1 6.127 6.128m-17.335-.247a3.984 3.984 0 0 1-5.633-5.633 3.983 3.983 0 1 1 5.633 5.633m-17.335-.247a3.635 3.635 0 1 1-5.14-5.14 3.635 3.635 0 0 1 5.14 5.14m-17.334-.247a3.286 3.286 0 1 1-4.647-4.647 3.286 3.286 0 0 1 4.647 4.647m-17.335-.246a2.936 2.936 0 1 1-4.153-4.153 2.936 2.936 0 0 1 4.153 4.153m-17.335-.247a2.587 2.587 0 1 1-3.66-3.657 2.587 2.587 0 0 1 3.66 3.657m-17.335-.247a2.238 2.238 0 1 1-3.166-3.164 2.238 2.238 0 0 1 3.166 3.164m-17.335-.246A1.89 1.89 0 1 1 84.78 9.57a1.89 1.89 0 0 1 2.672 2.675m-17.334-.246a1.542 1.542 0 1 1-2.18-2.181 1.542 1.542 0 0 1 2.18 2.18m-17.335-.246a1.193 1.193 0 1 1-1.686-1.689 1.193 1.193 0 0 1 1.686 1.689m-17.335-.247a.844.844 0 1 1-1.193-1.194.844.844 0 0 1 1.193 1.194m-17.334-.247a.495.495 0 1 1-.7-.698.495.495 0 0 1 .7.698M.778 11.011a.146.146 0 1 1-.206-.207.146.146 0 1 1 .206.207m808.737-7.175c4.007-4.007 10.505-4.007 14.512 0 4.008 4.008 4.008 10.505 0 14.512-4.007 4.008-10.505 4.008-14.512 0-4.007-4.007-4.007-10.504 0-14.512"/><path d="M826.85 4.083c3.871-3.871 10.147-3.871 14.019 0a9.912 9.912 0 0 1 0 14.019c-3.872 3.871-10.148 3.871-14.02 0-3.87-3.872-3.87-10.147 0-14.02"/><path d="M844.184 4.33a9.566 9.566 0 0 1 13.527 13.526A9.565 9.565 0 0 1 844.184 4.33"/><path d="M861.519 4.576a9.216 9.216 0 1 1 13.033 13.033 9.216 9.216 0 0 1-13.033-13.033"/><path d="M878.854 4.823a8.867 8.867 0 1 1 12.54 12.541 8.867 8.867 0 0 1-12.54-12.541"/><path d="M896.189 5.07a8.518 8.518 0 1 1 12.046 12.048A8.518 8.518 0 0 1 896.189 5.07"/><path d="M913.524 5.316a8.168 8.168 0 0 1 11.552 0 8.167 8.167 0 0 1 0 11.552 8.167 8.167 0 0 1-11.552 0 8.168 8.168 0 0 1 0-11.552m17.334.247a7.82 7.82 0 1 1 11.058 11.059 7.82 7.82 0 0 1-11.058-11.059m17.335.247a7.47 7.47 0 0 1 10.566 0 7.47 7.47 0 1 1-10.566 10.565 7.47 7.47 0 0 1 0-10.565m17.335.246a7.121 7.121 0 0 1 10.072 0 7.122 7.122 0 0 1 0 10.072 7.121 7.121 0 0 1-10.072 0 7.12 7.12 0 0 1 0-10.072m17.334.247a6.773 6.773 0 0 1 9.58 0 6.773 6.773 0 1 1-9.58 9.58 6.773 6.773 0 0 1 0-9.58m17.335.247a6.424 6.424 0 0 1 9.086 0 6.423 6.423 0 0 1 0 9.085 6.424 6.424 0 1 1-9.086-9.085m17.335.246a6.076 6.076 0 1 1 8.592 8.593 6.076 6.076 0 0 1-8.592-8.593m17.334.247a5.728 5.728 0 0 1 8.1 8.1 5.728 5.728 0 0 1-8.1-8.1m17.335.246a5.378 5.378 0 1 1 7.606 7.606 5.378 5.378 0 0 1-7.606-7.606m17.335.247a5.029 5.029 0 1 1 7.113 7.113 5.029 5.029 0 1 1-7.113-7.113m17.335.247a4.68 4.68 0 1 1 6.62 6.619 4.68 4.68 0 0 1-6.62-6.62m17.334.247a4.332 4.332 0 1 1 6.127 6.128 4.332 4.332 0 0 1-6.127-6.128m17.335.247a3.984 3.984 0 0 1 5.633 5.633 3.983 3.983 0 1 1-5.633-5.633m17.335.247a3.635 3.635 0 1 1 5.14 5.14 3.635 3.635 0 0 1-5.14-5.14m17.334.247a3.286 3.286 0 1 1 4.647 4.647 3.286 3.286 0 0 1-4.647-4.647m17.335.246a2.936 2.936 0 1 1 4.153 4.153 2.936 2.936 0 0 1-4.153-4.153m17.335.247a2.587 2.587 0 1 1 3.66 3.657 2.587 2.587 0 0 1-3.66-3.657m17.335.247a2.238 2.238 0 1 1 3.166 3.164 2.238 2.238 0 0 1-3.166-3.164m17.335.246a1.89 1.89 0 1 1 2.672 2.675 1.89 1.89 0 0 1-2.672-2.675m17.334.246a1.542 1.542 0 1 1 2.18 2.181 1.542 1.542 0 0 1-2.18-2.18m17.335.246a1.193 1.193 0 1 1 1.686 1.689 1.193 1.193 0 0 1-1.686-1.689m17.335.247a.844.844 0 1 1 1.193 1.194.844.844 0 0 1-1.193-1.194m17.334.247a.495.495 0 1 1 .7.698.495.495 0 0 1-.7-.698m17.335.246a.146.146 0 1 1 .206.207.146.146 0 1 1-.206-.207"/></g></svg>