<svg xmlns="http://www.w3.org/2000/svg" width="21" height="506" viewBox="0 0 21 506"><g fill="#E8E6EE" fill-rule="evenodd"><path d="M3.336 502.985c-4.007-4.007-4.007-10.505 0-14.512 4.008-4.008 10.505-4.008 14.512 0 4.008 4.007 4.008 10.505 0 14.512-4.007 4.007-10.504 4.007-14.512 0"/><path d="M3.583 485.65c-3.871-3.871-3.871-10.147 0-14.019a9.912 9.912 0 0 1 14.019 0c3.871 3.872 3.871 10.148 0 14.02-3.872 3.87-10.147 3.87-14.02 0"/><path d="M3.83 468.316a9.566 9.566 0 0 1 13.526-13.527A9.565 9.565 0 0 1 3.83 468.316"/><path d="M4.076 450.981a9.216 9.216 0 1 1 13.033-13.033 9.216 9.216 0 0 1-13.033 13.033"/><path d="M4.323 433.646a8.867 8.867 0 1 1 12.541-12.54 8.867 8.867 0 0 1-12.541 12.54"/><path d="M4.57 416.311a8.518 8.518 0 1 1 12.048-12.046A8.518 8.518 0 0 1 4.57 416.311"/><path d="M4.816 398.976a8.168 8.168 0 0 1 0-11.552 8.167 8.167 0 0 1 11.552 0 8.167 8.167 0 0 1 0 11.552 8.168 8.168 0 0 1-11.552 0m.247-17.334a7.82 7.82 0 1 1 11.059-11.058 7.82 7.82 0 0 1-11.059 11.058m.247-17.335a7.47 7.47 0 0 1 0-10.566 7.47 7.47 0 1 1 10.565 10.566 7.47 7.47 0 0 1-10.565 0m.246-17.335a7.121 7.121 0 0 1 0-10.072 7.122 7.122 0 0 1 10.072 0 7.121 7.121 0 0 1 0 10.072 7.12 7.12 0 0 1-10.072 0m.247-17.334a6.773 6.773 0 0 1 0-9.58 6.773 6.773 0 1 1 9.58 9.58 6.773 6.773 0 0 1-9.58 0m.247-17.335a6.424 6.424 0 0 1 0-9.086 6.423 6.423 0 0 1 9.085 0 6.424 6.424 0 1 1-9.085 9.086m.246-17.335a6.076 6.076 0 1 1 8.593-8.592 6.076 6.076 0 0 1-8.593 8.592m.247-17.334a5.728 5.728 0 0 1 8.1-8.1 5.728 5.728 0 0 1-8.1 8.1m.246-17.335a5.378 5.378 0 1 1 7.606-7.606 5.378 5.378 0 0 1-7.606 7.606m.247-17.335a5.029 5.029 0 1 1 7.113-7.113 5.029 5.029 0 1 1-7.113 7.113m.247-17.335a4.68 4.68 0 1 1 6.619-6.62 4.68 4.68 0 0 1-6.62 6.62m.247-17.334a4.332 4.332 0 1 1 6.128-6.127 4.332 4.332 0 0 1-6.128 6.127m.247-17.335a3.984 3.984 0 0 1 5.633-5.633 3.983 3.983 0 1 1-5.633 5.633m.247-17.335a3.635 3.635 0 1 1 5.14-5.14 3.635 3.635 0 0 1-5.14 5.14m.247-17.334a3.286 3.286 0 1 1 4.647-4.647 3.286 3.286 0 0 1-4.647 4.647m.246-17.335a2.936 2.936 0 1 1 4.153-4.153 2.936 2.936 0 0 1-4.153 4.153m.247-17.335a2.587 2.587 0 1 1 3.657-3.66 2.587 2.587 0 0 1-3.657 3.66m.247-17.335a2.238 2.238 0 1 1 3.164-3.166 2.238 2.238 0 0 1-3.164 3.166m.246-17.335a1.89 1.89 0 1 1 2.675-2.672 1.89 1.89 0 0 1-2.675 2.672m.246-17.334a1.542 1.542 0 1 1 2.181-2.18 1.542 1.542 0 0 1-2.18 2.18m.246-17.335a1.193 1.193 0 1 1 1.689-1.686 1.193 1.193 0 0 1-1.689 1.686m.247-17.335a.844.844 0 1 1 1.194-1.193.844.844 0 0 1-1.194 1.193m.247-17.334a.495.495 0 1 1 .698-.7.495.495 0 0 1-.698.7M10.489.278a.146.146 0 1 1 .207-.206.146.146 0 1 1-.207.206"/></g></svg>