<svg xmlns="http://www.w3.org/2000/svg" width="14" height="14" viewBox="0 0 14 14"><g fill="none" fill-rule="evenodd"><path d="M0 0h14v14H0z"/><path fill="#000349" fill-rule="nonzero" d="M13.063 3.488c-.625-.768-1.474-1.375-2.547-1.82C9.443 1.223 8.27 1 7 1a9.29 9.29 0 0 0-2.719.395c-.864.262-1.609.618-2.234 1.066A5.33 5.33 0 0 0 .555 4.059 3.721 3.721 0 0 0 0 5.999c0 .782.236 1.514.707 2.196.471.683 1.116 1.256 1.934 1.72a4.965 4.965 0 0 1-.204.593 6.078 6.078 0 0 1-.21.46c-.063.12-.148.254-.254.4a4.06 4.06 0 0 1-.243.308l-.27.297a27.72 27.72 0 0 0-.304.34l-.054.066-.047.07c-.026.04-.038.064-.036.074a.208.208 0 0 1-.015.078c-.013.042-.012.073.004.094v.008c.02.094.066.17.136.226.07.058.15.081.239.07a5.8 5.8 0 0 0 .89-.171 8.539 8.539 0 0 0 3.594-1.89c.39.04.768.062 1.133.062 1.27 0 2.443-.223 3.516-.668 1.073-.446 1.921-1.053 2.546-1.82C13.688 7.743 14 6.905 14 6c0-.906-.312-1.744-.937-2.512z"/></g></svg>