<svg xmlns="http://www.w3.org/2000/svg" width="14" height="14" viewBox="0 0 14 14"><g fill="none" fill-rule="evenodd"><path d="M0 0h14v14H0z"/><path fill="#000349" d="M12.313 11.719V5.938h-1.22c.126.375.188.77.188 1.187 0 .75-.187 1.437-.562 2.063a4.474 4.474 0 0 1-1.563 1.5A4.216 4.216 0 0 1 7 11.25c-1.167 0-2.167-.406-3-1.219-.833-.812-1.25-1.781-1.25-2.906 0-.417.062-.812.188-1.188H1.655v5.782a.55.55 0 0 0 .157.406c.145.104.28.156.406.156h9.531c.125 0 .26-.052.406-.156a.55.55 0 0 0 .156-.406zM9.78 6.969c0-.75-.27-1.375-.812-1.875C8.427 4.573 7.77 4.312 7 4.312s-1.417.26-1.938.782c-.541.5-.812 1.125-.812 1.875 0 .729.27 1.364.813 1.906.562.52 1.208.781 1.937.781.73 0 1.385-.26 1.969-.781.541-.542.812-1.177.812-1.906zm2.531-3.219V2.281a.6.6 0 0 0-.187-.437.6.6 0 0 0-.438-.188h-1.562a.6.6 0 0 0-.438.188c-.104.104-.156.25-.156.437V3.75c0 .188.052.333.156.438a.6.6 0 0 0 .438.187h1.563a.6.6 0 0 0 .437-.188.6.6 0 0 0 .188-.437zm1.532-1.844v10.188c0 .5-.167.916-.5 1.25-.334.333-.75.5-1.25.5H1.906c-.5 0-.916-.167-1.25-.5-.333-.334-.5-.75-.5-1.25V1.906c0-.5.167-.916.5-1.25.334-.333.75-.5 1.25-.5h10.188c.5 0 .916.167 1.25.5.333.334.5.75.5 1.25z"/></g></svg>