<svg xmlns="http://www.w3.org/2000/svg" width="54" height="59" viewBox="0 0 54 59" xmlns:xlink="http://www.w3.org/1999/xlink">
  <defs>
    <circle id="b" cx="21" cy="19" r="10"/>
    <filter id="a" x="-5%" y="-5%" filterUnits="objectBoundingBox">
      <feOffset dx="2" dy="2" in="SourceAlpha" result="shadowOffsetOuter1"/>
      <feColorMatrix values="0 0 0 0 0.409727697 0 0 0 0 0.507732781 0 0 0 0 0.152886786 0 0 0 1 0" in="shadowOffsetOuter1"/>
    </filter>
    <path id="d" d="M41.9365291,48.107367 L33.3774527,30.8150288 L38.647165,28.0291357 C39.7404938,27.449956 40.2678512,26.1788407 39.9048793,24.99793 L38.0491991,18.9646702 L39.9048793,12.9319603 C40.2678512,11.7515997 39.7404938,10.4793843 38.647165,9.90075462 L33.055853,6.94435277 L30.0891919,1.3687164 C29.5088781,0.27856041 28.2335118,-0.248916682 27.0502675,0.114651991 L21,1.96604708 L14.9491809,0.114651991 C13.7648333,-0.250016739 12.4905702,0.27856041 11.9102565,1.3687164 L8.9452503,6.94435277 L3.35448985,9.90075462 C2.26005781,10.4793843 1.73214881,11.7510497 2.09512072,12.9319603 L3.95190412,18.9646702 L2.09512072,24.99793 C1.73214881,26.1782907 2.26005781,27.449956 3.35448985,28.0291357 L8.62365057,30.8150288 L0.0634709205,48.107367 C-0.046303261,48.3284783 -0.0115506307,48.594142 0.15117994,48.7800515 C0.31446214,48.9659611 0.573176166,49.0363647 0.808170142,48.9582607 L7.81220423,46.6255909 L10.2145488,53.5872984 C10.2686084,53.7429564 10.3811407,53.8678128 10.5240127,53.9371164 C10.5957244,53.9728682 10.6735041,53.9937693 10.7556969,53.9987196 C11.0039299,54.0146704 11.2356141,53.8804635 11.3459399,53.6593521 L19.9447336,36.2861598 C19.9447336,36.2861598 20.0694018,35.9638433 21.0005516,35.9638433 C21.9317015,35.9638433 22.0569213,36.2872599 22.0569213,36.2872599 L30.6546117,53.6593521 C30.7649375,53.8804635 30.9971733,54.0146704 31.2437515,53.9987196 C31.3264959,53.9932193 31.4053788,53.9728682 31.476539,53.9371164 C31.6188593,53.8678128 31.7313916,53.7429564 31.7860029,53.5872984 L34.1883474,46.6255909 L41.1918299,48.9582607 C41.4273755,49.0363647 41.6860895,48.9659611 41.8488201,48.7800515 C42.0115506,48.594142 42.0463033,48.3284783 41.9365291,48.107367 Z M6.65985114,18.9646702 C6.65985114,11.0673645 13.0797101,4.66668579 21,4.66668579 C28.9191867,4.66668579 35.3407005,11.0679146 35.3407005,18.9646702 C35.3407005,26.8614257 28.9191867,33.2632045 21,33.2632045 C13.0797101,33.2632045 6.65985114,26.8614257 6.65985114,18.9646702 Z"/>
    <filter id="c" width="109.5%" height="107.4%" x="-2.4%" y="-1.9%" filterUnits="objectBoundingBox">
      <feOffset dx="2" dy="2" in="SourceAlpha" result="shadowOffsetOuter1"/>
      <feColorMatrix values="0 0 0 0 0.409727697 0 0 0 0 0.507732781 0 0 0 0 0.152886786 0 0 0 1 0" in="shadowOffsetOuter1"/>
    </filter>
  </defs>
  <g fill="none" transform="rotate(-20 25.336 18.993)">
    <use fill="black" filter="url(#a)" xlink:href="#b"/>
    <use fill="#FFFFFF" fill-rule="evenodd" xlink:href="#b"/>
    <g>
      <use fill="black" filter="url(#c)" xlink:href="#d"/>
      <use fill="#FFFFFF" fill-rule="evenodd" xlink:href="#d"/>
    </g>
  </g>
</svg>
