<svg xmlns="http://www.w3.org/2000/svg" width="54" height="59" viewBox="0 0 54 59"><g fill="none" transform="rotate(-20 25.336 18.993)"><circle cx="22.195" cy="21.563" r="10" fill="#688127"/><circle cx="21" cy="19" r="10" fill="#FFF"/><path fill="#688127" d="M43.132 50.67l-8.56-17.292 5.27-2.785A2.574 2.574 0 0 0 41.1 27.56l-1.855-6.033 1.855-6.033a2.574 2.574 0 0 0-1.257-3.03L34.25 9.507l-2.966-5.576a2.584 2.584 0 0 0-3.04-1.254l-6.05 1.851-6.05-1.85a2.582 2.582 0 0 0-3.04 1.253L10.14 9.507l-5.591 2.956a2.573 2.573 0 0 0-1.26 3.031l1.857 6.033-1.857 6.033a2.574 2.574 0 0 0 1.26 3.032l5.269 2.785-8.56 17.293a.61.61 0 0 0 .088.672.616.616 0 0 0 .657.179l7.004-2.333 2.402 6.962a.61.61 0 0 0 .541.411.615.615 0 0 0 .59-.34l8.6-17.372s.124-.323 1.055-.323c.931 0 1.056.324 1.056.324l8.598 17.372a.615.615 0 0 0 1.131-.072l2.403-6.962 7.003 2.333a.615.615 0 0 0 .657-.179.61.61 0 0 0 .088-.672zM7.855 21.529c0-7.897 6.42-14.298 14.34-14.298s14.341 6.401 14.341 14.298-6.421 14.299-14.34 14.299c-7.92 0-14.34-6.402-14.34-14.299z"/><path fill="#FFF" d="M41.937 48.107l-8.56-17.292 5.27-2.786a2.574 2.574 0 0 0 1.258-3.031l-1.856-6.033 1.856-6.033a2.574 2.574 0 0 0-1.258-3.031l-5.591-2.957-2.967-5.575A2.584 2.584 0 0 0 27.05.115L21 1.966 14.95.115a2.582 2.582 0 0 0-3.04 1.254L8.945 6.944l-5.59 2.957a2.573 2.573 0 0 0-1.26 3.031l1.857 6.033-1.857 6.033a2.574 2.574 0 0 0 1.26 3.031l5.269 2.786-8.56 17.292a.61.61 0 0 0 .087.673.616.616 0 0 0 .657.178l7.004-2.332 2.403 6.961a.61.61 0 0 0 .54.412.615.615 0 0 0 .59-.34l8.6-17.373s.124-.322 1.056-.322c.93 0 1.056.323 1.056.323l8.598 17.372a.615.615 0 0 0 1.131-.072l2.402-6.961 7.004 2.332a.615.615 0 0 0 .657-.178.61.61 0 0 0 .088-.673zM6.66 18.965c0-7.898 6.42-14.298 14.34-14.298s14.34 6.4 14.34 14.298c0 7.896-6.42 14.298-14.34 14.298S6.66 26.861 6.66 18.965z"/></g></svg>