<svg xmlns="http://www.w3.org/2000/svg" width="16" height="15" viewBox="0 0 16 15"><g fill="none" fill-rule="evenodd"><path stroke="#680A0A" d="M2.185 14.492l13.125-2.376" stroke-linecap="square"/><path fill="#99140C" d="M1.646 11.19c-.59-.77-.885-1.94-.885-3.511 0-1.571.322-2.852.966-3.842.644-.99 1.402-1.486 2.275-1.486.874 0 1.6.387 2.181 1.162.581.774.871 1.94.871 3.497 0 1.558-.324 2.836-.972 3.835-.648 1-1.402 1.5-2.262 1.5-.86 0-1.584-.385-2.174-1.155zm1.345-6.185c-.288.698-.432 1.575-.432 2.633s.123 1.841.371 2.35c.248.509.556.763.925.763.37 0 .696-.351.98-1.053.283-.703.425-1.583.425-2.64 0-1.058-.12-1.84-.358-2.344-.239-.504-.534-.756-.885-.756-.396 0-.738.35-1.026 1.047zm5.07 5.713c.117-2.16.176-4.087.176-5.78 0-1.692-.005-2.804-.014-3.335a7.154 7.154 0 0 1 3.093-.702c.792 0 1.456.252 1.992.756.535.504.803 1.215.803 2.134 0 1.062-.752 2.084-2.255 3.065a62.828 62.828 0 0 1 2.512 3.39l-1.297.959c-.567-.856-1.584-2.251-3.052-4.187a157.078 157.078 0 0 1-.121 3.903l-1.837-.203zm3.394-5.768c.468-.463.702-.884.702-1.262s-.11-.67-.33-.878c-.221-.207-.512-.31-.872-.31s-.756.076-1.188.229c0 1.521-.005 2.651-.014 3.39a6.092 6.092 0 0 0 1.702-1.169z"/></g></svg>