<svg xmlns="http://www.w3.org/2000/svg" width="16" height="15" viewBox="0 0 16 15">
  <g fill="none" fill-rule="evenodd" transform="translate(-.57 -.013)">
    <path stroke="#680A0A" d="M2.75534211,14.5046453 L15.880226,12.1290646" stroke-linecap="square"/>
    <path fill="#99140C" d="M1.54573905,10.105887 C1.09867651,9.24544119 1.01154669,8.04167267 1.28434697,6.49454538 C1.55714726,4.9474181 2.09648381,3.74212818 2.90237282,2.87863946 C3.70826183,2.01515074 4.5411977,1.659233 5.40120542,1.81087557 C6.26121314,1.96251813 6.90991467,2.46998958 7.34732949,3.33330514 C7.78474431,4.1966207 7.86822282,5.3951746 7.59776752,6.92900279 C7.32731223,8.46283099 6.78615001,9.66551361 5.97426465,10.5370867 C5.16237929,11.4086598 4.33309473,11.7697922 3.4863861,11.6204946 C2.63967747,11.471197 1.99280159,10.9663329 1.54573905,10.105887 Z M3.9441634,4.24836273 C3.5392918,4.88545588 3.24501504,5.72487083 3.06132431,6.76663276 C2.87763357,7.80839468 2.86353278,8.60122564 3.01902152,9.14514942 C3.17451025,9.6890732 3.43400494,9.9930787 3.79751336,10.057175 C4.16102177,10.1212714 4.54338036,9.83216997 4.9446006,9.18986212 C5.34582084,8.54755427 5.63827194,7.70553202 5.82196268,6.66377009 C6.00565341,5.62200816 6.02379634,4.83217534 5.876392,4.29424791 C5.72898766,3.75632049 5.48240104,3.45687642 5.13662474,3.39590673 C4.74651815,3.32712041 4.34903501,3.61126957 3.9441634,4.24836273 Z M7.94550738,10.7556068 C8.43596424,8.64807593 8.82813938,6.76092924 9.12204456,5.09411015 C9.41594973,3.42729107 9.60458456,2.33156756 9.6879547,1.80690676 C10.7445141,1.51783749 11.8003085,1.46632149 12.8553695,1.65235721 C13.6355827,1.78992985 14.2456723,2.15346929 14.6856566,2.74298646 C15.1256408,3.33250362 15.2659013,4.07942 15.1064421,4.98375802 C14.9219697,6.02995297 14.0042301,6.90569985 12.3531958,7.61102494 C12.9817881,8.76401827 13.6101248,10.0220791 14.2382248,11.385245 L12.7950254,12.1043579 C12.3849796,11.1635928 11.6254417,9.61272113 10.5163891,7.45169641 C10.2490388,8.81237951 9.983245,10.086471 9.71899972,11.274009 L7.94550738,10.7556068 Z M12.2889604,5.66451883 C12.8305067,5.28920972 13.1341052,4.91537353 13.1997648,4.54299905 C13.2654245,4.17062458 13.2076242,3.86333153 13.0263623,3.62111071 C12.8451003,3.37888988 12.5771522,3.22651524 12.2225098,3.16398222 C11.8678675,3.10144921 11.4644786,3.10802429 11.0123313,3.18370768 C10.7481293,4.68207164 10.5475019,5.79396369 10.4104432,6.5194172 C11.1212479,6.32479122 11.7474141,6.03982795 12.2889604,5.66451883 Z" transform="rotate(-10 8.15 6.824)"/>
  </g>
</svg>
