<svg xmlns="http://www.w3.org/2000/svg" width="164" height="99" viewBox="0 0 164 99" xmlns:xlink="http://www.w3.org/1999/xlink"><title>Psst, Save This Date!</title><defs><path id="b" d="M85.85 79C127.767 79 143 60.144 143 38.329 143 16.514 127.766 0 85.85 0 61.585 0 34.098 8.836 25.657 23.792c-2.996.91-11.284 1.622-24.865 2.136 3.147 4.99 9.937 10.277 20.371 15.86C21.162 63.602 43.935 79 85.851 79z"/><filter id="a" width="125%" height="143%" x="-7.8%" y="-12%" filterUnits="objectBoundingBox"><feMorphology radius="2" operator="dilate" in="SourceAlpha" result="shadowSpreadOuter1"/><feOffset dx="15" dy="15" in="shadowSpreadOuter1" result="shadowOffsetOuter1"/><feComposite in="shadowOffsetOuter1" in2="SourceAlpha" operator="out" result="shadowOffsetOuter1"/><feColorMatrix values="0 0 0 0 0.0431372549 0 0 0 0 0 0 0 0 0 0.294117647 0 0 0 0.190613678 0" in="shadowOffsetOuter1"/></filter></defs><g fill="none" fill-rule="evenodd" transform="translate(3 2)"><use fill="#000" filter="url(#a)" xlink:href="#b"/><use fill="#9AB83C" xlink:href="#b"/><path stroke="#688127" stroke-width="2" d="M20.168 42.388C9.889 36.834 3.15 31.545-.054 26.461l-.925-1.467 1.733-.065c12.936-.49 21.063-1.164 24.24-1.99C33.386 8.677 59.611-1 85.85-1 124.987-1 144 13.406 144 38.329 144 63.909 124.433 80 85.85 80c-40.63 0-65.262-14.606-65.682-37.612z"/><path stroke="#C4DE95" stroke-width="5" d="M5.855 28.219c3.511 3.554 9.01 7.364 16.487 11.364l1.32.707v1.497c0 20.946 22.887 34.713 62.189 34.713 36.783 0 54.649-14.693 54.649-38.171C140.5 15.584 123.232 2.5 85.85 2.5c-25.33 0-50.617 9.41-58.017 22.52l-.492.873-.959.29c-2.876.874-9.63 1.533-20.527 2.036z"/><path fill="#688127" d="M40.62 41.578a160.003 160.003 0 0 1-.082-5.528c0-2.151.068-5.026.203-8.623a10.023 10.023 0 0 1 3.504-.631c1.199 0 2.269.445 3.21 1.334.941.889 1.412 2.009 1.412 3.36 0 1.35-.512 2.517-1.534 3.501-1.022.985-2.36 1.707-4.012 2.169 0 1.52.02 3.081.061 4.683l-2.762-.265zm5.062-9.942c0-.719-.186-1.303-.558-1.75-.373-.449-.789-.673-1.25-.673-.121 0-.399.034-.832.102a200.134 200.134 0 0 0-.122 5.559c.853-.272 1.527-.7 2.021-1.283.494-.584.741-1.235.741-1.955zm8.982-.813c.176-.665.264-1.222.264-1.67 0-.448-.122-.817-.366-1.11a1.174 1.174 0 0 0-.944-.437c-.386 0-.708.19-.965.57a2.27 2.27 0 0 0-.386 1.303c0 .95.542 1.765 1.625 2.444 1.083.705 1.821 1.214 2.214 1.527.393.312.67.597.833.855.406.665.61 1.35.61 2.056 0 1.222-.41 2.196-1.23 2.922-.819.726-1.743 1.09-2.772 1.09-1.219 0-2.241-.516-3.067-1.548-.596-.747-1.145-1.676-1.646-2.79l1.97-.956c.312.814.701 1.503 1.168 2.066.468.564.965.845 1.493.845.339 0 .644-.108.915-.326.27-.217.406-.546.406-.987 0-.441-.17-.852-.508-1.232-.339-.38-.792-.767-1.361-1.16a23.667 23.667 0 0 1-1.32-.968 11.49 11.49 0 0 1-1.036-.967c-.718-.76-1.077-1.734-1.077-2.922 0-1.187.413-2.185 1.24-2.993.825-.808 1.807-1.211 2.945-1.211 1.137 0 2.095.44 2.874 1.323.779.882 1.168 1.789 1.168 2.718 0 .93-.176 1.728-.528 2.393l-2.52-.835zm9.502-1.675c.176-.666.264-1.222.264-1.67 0-.448-.122-.818-.366-1.11a1.174 1.174 0 0 0-.944-.438c-.386 0-.708.19-.965.57a2.27 2.27 0 0 0-.386 1.304c0 .95.542 1.764 1.625 2.443 1.083.706 1.821 1.215 2.214 1.527.393.312.67.597.833.855.406.666.61 1.351.61 2.057 0 1.222-.41 2.196-1.23 2.922-.819.726-1.743 1.09-2.772 1.09-1.22 0-2.241-.517-3.068-1.548-.595-.747-1.144-1.677-1.645-2.79l1.97-.957c.312.815.701 1.503 1.168 2.067.468.563.965.845 1.493.845.339 0 .644-.109.915-.326.27-.217.406-.546.406-.988 0-.44-.17-.851-.508-1.231-.339-.38-.792-.767-1.361-1.161a23.667 23.667 0 0 1-1.32-.967 11.49 11.49 0 0 1-1.036-.967c-.718-.76-1.077-1.734-1.077-2.922 0-1.188.413-2.186 1.24-2.993.825-.808 1.807-1.212 2.945-1.212 1.137 0 2.095.441 2.874 1.324.779.882 1.168 1.788 1.168 2.718 0 .93-.176 1.727-.528 2.392l-2.52-.834zm6.285 7.395a113.5 113.5 0 0 1-.203-6.282c0-1.785.04-3.648.122-5.589l-2.478.346-.447-2.362c1.327-.23 2.64-.4 3.94-.509l3.799-.203.386 2.26a78.9 78.9 0 0 0-2.519.183 130.239 130.239 0 0 0-.122 5.376c0 1.629.027 3.963.082 7.004l-2.56-.224zm6.347-5.059l2.702.896c-.135 1.235-.664 3.088-1.584 5.559l-1.87-.143c.366-2.226.617-4.33.752-6.312zm13.553-6.954c.176-.665.264-1.221.264-1.67 0-.447-.121-.817-.365-1.109a1.174 1.174 0 0 0-.945-.438c-.386 0-.707.19-.965.57a2.27 2.27 0 0 0-.386 1.304c0 .95.542 1.764 1.625 2.443 1.084.706 1.822 1.215 2.215 1.527.392.312.67.597.832.855.407.665.61 1.35.61 2.057 0 1.221-.41 2.195-1.23 2.922-.818.726-1.743 1.089-2.772 1.089-1.219 0-2.241-.516-3.067-1.548-.596-.746-1.144-1.676-1.645-2.79l1.97-.956c.311.814.7 1.503 1.168 2.067.467.563.965.845 1.493.845.338 0 .643-.109.914-.326.27-.217.406-.547.406-.988 0-.44-.169-.851-.508-1.232-.338-.38-.792-.767-1.36-1.16a23.667 23.667 0 0 1-1.32-.967 11.49 11.49 0 0 1-1.037-.968c-.718-.76-1.076-1.734-1.076-2.921 0-1.188.413-2.186 1.239-2.994.826-.807 1.808-1.211 2.945-1.211 1.138 0 2.096.441 2.874 1.323.779.883 1.168 1.789 1.168 2.719 0 .93-.176 1.727-.528 2.392l-2.519-.835zm10.591 6.954l-.467-2.83-3.026.122-.772 3.828-2.844-.244 3.636-14.762 3.758.325 2.66 13.806-2.945-.245zm-2.08-11.22l-1.28 6.332 2.276-.081-.995-6.251zm5.545-4.257l2.62.244c.515 3.38 1.158 6.631 1.93 9.753l.081-.02a123.697 123.697 0 0 0 2.296-10.71l2.681.224c-.907 4.67-2.255 9.495-4.042 14.477l-2.336-.204c-1.381-4.9-2.458-9.488-3.23-13.764zm10.672 12.27a241.713 241.713 0 0 1-.081-6.088c0-1.914.108-4.405.325-7.472a45.001 45.001 0 0 1 6.784-.53v2.505c-1.53 0-2.952.047-4.266.142-.054 1.52-.088 2.688-.101 3.502 1.03-.149 2.248-.237 3.656-.264l.386 2.24c-.907.013-2.268.115-4.083.305 0 1.629.007 2.803.02 3.522 1.179-.095 2.587-.298 4.226-.61l.345 2.24c-1.151.529-2.512.793-4.083.793l-3.128-.285zM46.418 65.764a113.5 113.5 0 0 1-.204-6.282c0-1.785.041-3.648.122-5.589l-2.478.346-.447-2.362c1.327-.23 2.641-.4 3.941-.509l3.798-.203.386 2.26a78.9 78.9 0 0 0-2.518.183 130.238 130.238 0 0 0-.122 5.375c0 1.63.027 3.964.081 7.005l-2.56-.224zm8.836-11.895l.02 2.342 3.047-.184c0-2.117.034-4.364.102-6.74l2.68.245a124.93 124.93 0 0 0-.182 7.015c0 2.518.074 5.046.223 7.584l-2.6-.224c-.121-1.167-.196-3.04-.223-5.62l-2.986.184c.04 1.927.102 3.889.183 5.884l-2.763-.244a152.99 152.99 0 0 1-.223-7.9c0-2.403.054-4.48.162-6.23l2.682.243a54.3 54.3 0 0 0-.122 3.645zm11.526-5.386a128.936 128.936 0 0 0-.183 7.249c0 2.687.088 5.137.264 7.35l-2.742-.244c-.176-2.77-.264-5.27-.264-7.503 0-2.233.061-4.599.183-7.096l2.742.244zm7.16 3.924c.175-.665.263-1.221.263-1.67 0-.447-.121-.817-.365-1.11a1.174 1.174 0 0 0-.945-.437c-.386 0-.707.19-.965.57a2.27 2.27 0 0 0-.386 1.303c0 .95.542 1.765 1.626 2.444 1.083.706 1.82 1.215 2.214 1.527.392.312.67.597.832.855.407.665.61 1.35.61 2.057 0 1.221-.41 2.195-1.23 2.921-.818.727-1.743 1.09-2.772 1.09-1.219 0-2.241-.516-3.067-1.548-.596-.746-1.144-1.676-1.645-2.79l1.97-.956c.311.814.7 1.503 1.168 2.066.467.564.965.845 1.493.845.338 0 .643-.108.914-.325.27-.218.406-.547.406-.988 0-.441-.169-.852-.508-1.232-.338-.38-.792-.767-1.36-1.16a23.667 23.667 0 0 1-1.32-.968 11.49 11.49 0 0 1-1.037-.967c-.717-.76-1.076-1.734-1.076-2.922 0-1.187.413-2.185 1.239-2.993.826-.807 1.808-1.211 2.945-1.211 1.138 0 2.096.441 2.874 1.323.779.883 1.168 1.789 1.168 2.719 0 .93-.176 1.727-.528 2.392l-2.519-.835zm13.02-8.027c1.584 0 2.807.625 3.666 1.873.86 1.25 1.29 2.763 1.29 4.541a11.46 11.46 0 0 1-.65 3.879c-.433 1.215-1.11 2.233-2.031 3.054a4.7 4.7 0 0 1-3.23 1.232c-.243 0-1.164-.095-2.762-.285.19-2.919.284-5.335.284-7.249 0-1.914-.06-4.031-.183-6.352 1.314-.462 2.52-.693 3.616-.693zm1.406 10.415c.616-1.107.925-2.301.925-3.584s-.22-2.338-.66-3.166c-.44-.828-.965-1.242-1.575-1.242-.325 0-.63.054-.914.163.054 2.009.081 3.695.081 5.06 0 1.364-.04 2.786-.122 4.265.095.109.23.163.407.163.623 0 1.242-.553 1.858-1.66zm11.047 1.942l-.468-2.83-3.026.122-.772 3.828-2.844-.245L95.94 42.85l3.758.326 2.66 13.805-2.944-.244zm-2.08-11.22l-1.28 6.332 2.275-.082-.995-6.25zm7.556 9.936a113.5 113.5 0 0 1-.203-6.281c0-1.785.04-3.648.122-5.59l-2.479.347-.446-2.362c1.327-.23 2.64-.4 3.94-.51l3.799-.203.386 2.26a78.9 78.9 0 0 0-2.52.184 130.239 130.239 0 0 0-.121 5.375c0 1.629.027 3.964.081 7.004l-2.56-.224zm6.36-1.518a241.713 241.713 0 0 1-.082-6.088c0-1.914.109-4.404.325-7.472a45.001 45.001 0 0 1 6.785-.53v2.505c-1.53 0-2.952.047-4.266.142-.054 1.52-.088 2.688-.101 3.503 1.029-.15 2.247-.238 3.656-.265l.386 2.24c-.908.013-2.268.115-4.083.305 0 1.629.007 2.803.02 3.523 1.178-.096 2.587-.3 4.225-.611l.346 2.24c-1.151.529-2.512.794-4.083.794l-3.128-.286zm8.92-5.286c-.245-2.022-.367-3.865-.367-5.528 0-1.663.13-3.451.386-5.365l2.966.57c-.677 2.633-1.13 6.142-1.36 10.527l-1.626-.204zm3.34 1.232c.15.271.224.746.224 1.425s-.108 1.269-.325 1.771l-2.417-.468a6.036 6.036 0 0 0 .203-1.578c0-.55-.014-1.015-.04-1.395l2.356.245z"/><path fill="#FFF" d="M38.62 39.578a160.003 160.003 0 0 1-.082-5.528c0-2.151.068-5.026.203-8.623a10.023 10.023 0 0 1 3.504-.631c1.199 0 2.269.445 3.21 1.334.941.889 1.412 2.009 1.412 3.36 0 1.35-.512 2.517-1.534 3.501-1.022.985-2.36 1.707-4.012 2.169 0 1.52.02 3.081.061 4.683l-2.762-.265zm5.062-9.942c0-.719-.186-1.303-.558-1.75-.373-.449-.789-.673-1.25-.673-.121 0-.399.034-.832.102a200.134 200.134 0 0 0-.122 5.559c.853-.272 1.527-.7 2.021-1.283.494-.584.741-1.235.741-1.955zm8.982-.813c.176-.665.264-1.222.264-1.67 0-.448-.122-.817-.366-1.11a1.174 1.174 0 0 0-.944-.437c-.386 0-.708.19-.965.57a2.27 2.27 0 0 0-.386 1.303c0 .95.542 1.765 1.625 2.444 1.083.705 1.821 1.214 2.214 1.527.393.312.67.597.833.855.406.665.61 1.35.61 2.056 0 1.222-.41 2.196-1.23 2.922-.819.726-1.743 1.09-2.772 1.09-1.219 0-2.241-.516-3.067-1.548-.596-.747-1.145-1.676-1.646-2.79l1.97-.956c.312.814.701 1.503 1.168 2.066.468.564.965.845 1.493.845.339 0 .644-.108.915-.326.27-.217.406-.546.406-.987 0-.441-.17-.852-.508-1.232-.339-.38-.792-.767-1.361-1.16a23.667 23.667 0 0 1-1.32-.968 11.49 11.49 0 0 1-1.036-.967c-.718-.76-1.077-1.734-1.077-2.922 0-1.187.413-2.185 1.24-2.993.825-.808 1.807-1.211 2.945-1.211 1.137 0 2.095.44 2.874 1.323.779.882 1.168 1.789 1.168 2.718 0 .93-.176 1.728-.528 2.393l-2.52-.835zm9.502-1.675c.176-.666.264-1.222.264-1.67 0-.448-.122-.818-.366-1.11a1.174 1.174 0 0 0-.944-.438c-.386 0-.708.19-.965.57a2.27 2.27 0 0 0-.386 1.304c0 .95.542 1.764 1.625 2.443 1.083.706 1.821 1.215 2.214 1.527.393.312.67.597.833.855.406.666.61 1.351.61 2.057 0 1.222-.41 2.196-1.23 2.922-.819.726-1.743 1.09-2.772 1.09-1.22 0-2.241-.517-3.068-1.548-.595-.747-1.144-1.677-1.645-2.79l1.97-.957c.312.815.701 1.503 1.168 2.067.468.563.965.845 1.493.845.339 0 .644-.109.915-.326.27-.217.406-.546.406-.988 0-.44-.17-.851-.508-1.231-.339-.38-.792-.767-1.361-1.161a23.667 23.667 0 0 1-1.32-.967 11.49 11.49 0 0 1-1.036-.967c-.718-.76-1.077-1.734-1.077-2.922 0-1.188.413-2.186 1.24-2.993.825-.808 1.807-1.212 2.945-1.212 1.137 0 2.095.441 2.874 1.324.779.882 1.168 1.788 1.168 2.718 0 .93-.176 1.727-.528 2.392l-2.52-.834zm6.285 7.395a113.5 113.5 0 0 1-.203-6.282c0-1.785.04-3.648.122-5.589l-2.478.346-.447-2.362c1.327-.23 2.64-.4 3.94-.509l3.799-.203.386 2.26a78.9 78.9 0 0 0-2.519.183 130.239 130.239 0 0 0-.122 5.376c0 1.629.027 3.963.082 7.004l-2.56-.224zm6.347-5.059l2.702.896c-.135 1.235-.664 3.088-1.584 5.559l-1.87-.143c.366-2.226.617-4.33.752-6.312zm13.553-6.954c.176-.665.264-1.221.264-1.67 0-.447-.121-.817-.365-1.109a1.174 1.174 0 0 0-.945-.438c-.386 0-.707.19-.965.57a2.27 2.27 0 0 0-.386 1.304c0 .95.542 1.764 1.625 2.443 1.084.706 1.822 1.215 2.215 1.527.392.312.67.597.832.855.407.665.61 1.35.61 2.057 0 1.221-.41 2.195-1.23 2.922-.818.726-1.743 1.089-2.772 1.089-1.219 0-2.241-.516-3.067-1.548-.596-.746-1.144-1.676-1.645-2.79l1.97-.956c.311.814.7 1.503 1.168 2.067.467.563.965.845 1.493.845.338 0 .643-.109.914-.326.27-.217.406-.547.406-.988 0-.44-.169-.851-.508-1.232-.338-.38-.792-.767-1.36-1.16a23.667 23.667 0 0 1-1.32-.967 11.49 11.49 0 0 1-1.037-.968c-.718-.76-1.076-1.734-1.076-2.921 0-1.188.413-2.186 1.239-2.994.826-.807 1.808-1.211 2.945-1.211 1.138 0 2.096.441 2.874 1.323.779.883 1.168 1.789 1.168 2.719 0 .93-.176 1.727-.528 2.392l-2.519-.835zm10.591 6.954l-.467-2.83-3.026.122-.772 3.828-2.844-.244 3.636-14.762 3.758.325 2.66 13.806-2.945-.245zm-2.08-11.22l-1.28 6.332 2.276-.081-.995-6.251zm5.545-4.257l2.62.244c.515 3.38 1.158 6.631 1.93 9.753l.081-.02a123.697 123.697 0 0 0 2.296-10.71l2.681.224c-.907 4.67-2.255 9.495-4.042 14.477l-2.336-.204c-1.381-4.9-2.458-9.488-3.23-13.764zm10.672 12.27a241.713 241.713 0 0 1-.081-6.088c0-1.914.108-4.405.325-7.472a45.001 45.001 0 0 1 6.784-.53v2.505c-1.53 0-2.952.047-4.266.142-.054 1.52-.088 2.688-.101 3.502 1.03-.149 2.248-.237 3.656-.264l.386 2.24c-.907.013-2.268.115-4.083.305 0 1.629.007 2.803.02 3.522 1.179-.095 2.587-.298 4.226-.61l.345 2.24c-1.151.529-2.512.793-4.083.793l-3.128-.285zM44.418 63.764a113.5 113.5 0 0 1-.204-6.282c0-1.785.041-3.648.122-5.589l-2.478.346-.447-2.362c1.327-.23 2.641-.4 3.941-.509l3.798-.203.386 2.26a78.9 78.9 0 0 0-2.518.183 130.238 130.238 0 0 0-.122 5.375c0 1.63.027 3.964.081 7.005l-2.56-.224zm8.836-11.895l.02 2.342 3.047-.184c0-2.117.034-4.364.102-6.74l2.68.245a124.93 124.93 0 0 0-.182 7.015c0 2.518.074 5.046.223 7.584l-2.6-.224c-.121-1.167-.196-3.04-.223-5.62l-2.986.184c.04 1.927.102 3.889.183 5.884l-2.763-.244a152.99 152.99 0 0 1-.223-7.9c0-2.403.054-4.48.162-6.23l2.682.243a54.3 54.3 0 0 0-.122 3.645zm11.526-5.386a128.936 128.936 0 0 0-.183 7.249c0 2.687.088 5.137.264 7.35l-2.742-.244c-.176-2.77-.264-5.27-.264-7.503 0-2.233.061-4.599.183-7.096l2.742.244zm7.16 3.924c.175-.665.263-1.221.263-1.67 0-.447-.121-.817-.365-1.11a1.174 1.174 0 0 0-.945-.437c-.386 0-.707.19-.965.57a2.27 2.27 0 0 0-.386 1.303c0 .95.542 1.765 1.626 2.444 1.083.706 1.82 1.215 2.214 1.527.392.312.67.597.832.855.407.665.61 1.35.61 2.057 0 1.221-.41 2.195-1.23 2.921-.818.727-1.743 1.09-2.772 1.09-1.219 0-2.241-.516-3.067-1.548-.596-.746-1.144-1.676-1.645-2.79l1.97-.956c.311.814.7 1.503 1.168 2.066.467.564.965.845 1.493.845.338 0 .643-.108.914-.325.27-.218.406-.547.406-.988 0-.441-.169-.852-.508-1.232-.338-.38-.792-.767-1.36-1.16a23.667 23.667 0 0 1-1.32-.968 11.49 11.49 0 0 1-1.037-.967c-.717-.76-1.076-1.734-1.076-2.922 0-1.187.413-2.185 1.239-2.993.826-.807 1.808-1.211 2.945-1.211 1.138 0 2.096.441 2.874 1.323.779.883 1.168 1.789 1.168 2.719 0 .93-.176 1.727-.528 2.392l-2.519-.835zm13.02-8.027c1.584 0 2.807.625 3.666 1.873.86 1.25 1.29 2.763 1.29 4.541a11.46 11.46 0 0 1-.65 3.879c-.433 1.215-1.11 2.233-2.031 3.054a4.7 4.7 0 0 1-3.23 1.232c-.243 0-1.164-.095-2.762-.285.19-2.919.284-5.335.284-7.249 0-1.914-.06-4.031-.183-6.352 1.314-.462 2.52-.693 3.616-.693zm1.406 10.415c.616-1.107.925-2.301.925-3.584s-.22-2.338-.66-3.166c-.44-.828-.965-1.242-1.575-1.242-.325 0-.63.054-.914.163.054 2.009.081 3.695.081 5.06 0 1.364-.04 2.786-.122 4.265.095.109.23.163.407.163.623 0 1.242-.553 1.858-1.66zm11.047 1.942l-.468-2.83-3.026.122-.772 3.828-2.844-.245L93.94 40.85l3.758.326 2.66 13.805-2.944-.244zm-2.08-11.22l-1.28 6.332 2.275-.082-.995-6.25zm7.556 9.936a113.5 113.5 0 0 1-.203-6.281c0-1.785.04-3.648.122-5.59l-2.479.347-.446-2.362c1.327-.23 2.64-.4 3.94-.51l3.799-.203.386 2.26a78.9 78.9 0 0 0-2.52.184 130.239 130.239 0 0 0-.121 5.375c0 1.629.027 3.964.081 7.004l-2.56-.224zm6.36-1.518a241.713 241.713 0 0 1-.082-6.088c0-1.914.109-4.404.325-7.472a45.001 45.001 0 0 1 6.785-.53v2.505c-1.53 0-2.952.047-4.266.142-.054 1.52-.088 2.688-.101 3.503 1.029-.15 2.247-.238 3.656-.265l.386 2.24c-.908.013-2.268.115-4.083.305 0 1.629.007 2.803.02 3.523 1.178-.096 2.587-.3 4.225-.611l.346 2.24c-1.151.529-2.512.794-4.083.794l-3.128-.286zm8.92-5.286c-.245-2.022-.367-3.865-.367-5.528 0-1.663.13-3.451.386-5.365l2.966.57c-.677 2.633-1.13 6.142-1.36 10.527l-1.626-.204zm3.34 1.232c.15.271.224.746.224 1.425s-.108 1.269-.325 1.771l-2.417-.468a6.036 6.036 0 0 0 .203-1.578c0-.55-.014-1.015-.04-1.395l2.356.245z"/></g></svg>