<svg xmlns="http://www.w3.org/2000/svg" width="164" height="99" viewBox="0 0 164 99" xmlns:xlink="http://www.w3.org/1999/xlink"><defs><path id="b" d="M85.85 79C127.767 79 143 60.144 143 38.329 143 16.514 127.766 0 85.85 0 61.585 0 34.098 8.836 25.657 23.792c-2.996.91-11.284 1.622-24.865 2.136 3.147 4.99 9.937 10.277 20.371 15.86C21.162 63.602 43.935 79 85.851 79z"/><filter id="a" width="125%" height="143%" x="-7.8%" y="-12%" filterUnits="objectBoundingBox"><feMorphology radius="2" operator="dilate" in="SourceAlpha" result="shadowSpreadOuter1"/><feOffset dx="15" dy="15" in="shadowSpreadOuter1" result="shadowOffsetOuter1"/><feComposite in="shadowOffsetOuter1" in2="SourceAlpha" operator="out" result="shadowOffsetOuter1"/><feColorMatrix values="0 0 0 0 0.0431372549 0 0 0 0 0 0 0 0 0 0.294117647 0 0 0 0.190613678 0" in="shadowOffsetOuter1"/></filter><path id="d" d="M38.997 32.108c.213-1.52.506-3.34.88-5.458.374-2.119.94-4.938 1.697-8.457a10.023 10.023 0 0 1 3.56-.013c1.18.208 2.157.832 2.93 1.87.772 1.04 1.041 2.224.807 3.555-.235 1.33-.941 2.39-2.119 3.182-1.178.792-2.62 1.272-4.327 1.44a184.792 184.792 0 0 0-.753 4.622l-2.675-.74zm6.712-8.911c.125-.709.043-1.316-.246-1.822s-.66-.799-1.113-.879a7.54 7.54 0 0 0-.838-.044c-.4 1.873-.761 3.69-1.085 5.453.887-.12 1.625-.423 2.213-.912.588-.49.944-1.088 1.07-1.796zm8.987.758c.288-.624.472-1.157.55-1.598.077-.441.022-.827-.168-1.157a1.174 1.174 0 0 0-.854-.595c-.38-.067-.73.065-1.05.394a2.27 2.27 0 0 0-.606 1.216c-.165.936.227 1.832 1.176 2.689.945.883 1.583 1.513 1.916 1.888.332.376.556.705.671.987.285.726.366 1.436.243 2.131-.212 1.203-.784 2.091-1.717 2.664s-1.906.77-2.92.592c-1.2-.212-2.117-.898-2.752-2.057-.457-.839-.836-1.85-1.136-3.033l2.107-.6c.165.856.429 1.602.791 2.238.362.636.804 1 1.324 1.091.333.06.652.005.957-.162.304-.167.494-.467.571-.902.077-.434-.019-.868-.286-1.301-.268-.433-.647-.893-1.139-1.38-.492-.486-.87-.88-1.132-1.181a11.49 11.49 0 0 1-.852-1.132c-.575-.874-.76-1.895-.553-3.065.206-1.17.786-2.08 1.74-2.732.953-.652 1.99-.88 3.11-.682 1.12.197 1.988.798 2.601 1.802.614 1.005.84 1.965.679 2.88-.162.916-.474 1.67-.936 2.265l-2.335-1.26zm9.648 0c.289-.624.472-1.157.55-1.598.078-.441.022-.827-.167-1.157a1.174 1.174 0 0 0-.854-.595c-.38-.067-.73.065-1.05.394a2.27 2.27 0 0 0-.606 1.216c-.165.936.227 1.832 1.176 2.689.944.883 1.583 1.513 1.915 1.888.333.376.557.705.672.987.285.726.366 1.436.243 2.131-.212 1.203-.785 2.091-1.718 2.664-.933.573-1.906.77-2.92.592-1.2-.212-2.117-.898-2.751-2.057-.457-.839-.836-1.85-1.136-3.033l2.106-.6c.166.856.43 1.602.792 2.238.362.636.803 1 1.323 1.091.334.06.653.005.957-.162.305-.167.495-.467.572-.902.076-.434-.02-.868-.287-1.301-.267-.433-.647-.893-1.138-1.38-.492-.486-.87-.88-1.133-1.181a11.49 11.49 0 0 1-.852-1.132c-.575-.874-.759-1.895-.553-3.065.207-1.17.787-2.08 1.74-2.732.954-.652 1.991-.88 3.111-.682 1.12.197 1.987.798 2.601 1.802.614 1.005.84 1.965.678 2.88-.161.916-.473 1.67-.935 2.265l-2.336-1.26zm4.906 8.375c.284-2.39.58-4.464.89-6.222.31-1.758.674-3.585 1.091-5.483l-2.5-.09-.03-2.403c1.346.003 2.67.064 3.969.183l3.776.46-.013 2.292a78.9 78.9 0 0 0-2.512-.257c-.42 1.91-.77 3.668-1.053 5.273a422.932 422.932 0 0 0-1.137 6.912l-2.481-.665zm7.129-3.88l2.505 1.351c-.348 1.193-1.19 2.926-2.526 5.2l-1.815-.465a67.412 67.412 0 0 0 1.836-6.086zm14.555-4.495c.288-.624.472-1.157.55-1.598.077-.441.022-.827-.168-1.157a1.174 1.174 0 0 0-.854-.595c-.38-.067-.73.065-1.05.394a2.27 2.27 0 0 0-.606 1.216c-.165.936.227 1.832 1.176 2.689.945.883 1.583 1.513 1.916 1.888.332.376.556.705.671.987.285.726.366 1.436.243 2.131-.212 1.203-.784 2.091-1.717 2.664s-1.906.77-2.92.592c-1.2-.212-2.117-.898-2.752-2.057-.457-.839-.836-1.85-1.136-3.033l2.107-.6c.165.856.429 1.602.791 2.238.362.636.804 1 1.324 1.091.333.06.652.005.957-.162.304-.167.494-.467.571-.902.077-.434-.019-.868-.286-1.301-.268-.433-.647-.893-1.139-1.38-.492-.486-.87-.88-1.132-1.181a11.49 11.49 0 0 1-.852-1.132c-.575-.874-.76-1.895-.553-3.065.206-1.17.786-2.08 1.74-2.732.953-.652 1.99-.88 3.11-.682 1.12.197 1.988.798 2.601 1.802.614 1.005.84 1.965.679 2.88-.162.916-.474 1.67-.936 2.265l-2.335-1.26zm9.222 8.687l.032-2.868-3.002-.405-1.425 3.636-2.758-.735 6.144-13.906 3.644.973.223 14.057-2.858-.752zm-.1-11.41l-2.36 6.013 2.255.315.105-6.329zm6.2-3.23l2.538.696a109.03 109.03 0 0 0 .207 9.94l.083-.006a123.697 123.697 0 0 0 4.12-10.15l2.602.687c-1.704 4.441-3.869 8.96-6.494 13.555l-2.266-.606c-.509-5.066-.772-9.771-.79-14.116zm8.379 13.937c.319-2.122.645-4.125.977-6.01.332-1.885.872-4.319 1.618-7.302 2.341.054 4.6.273 6.773.656l-.435 2.467a59.348 59.348 0 0 0-4.226-.6 198.457 198.457 0 0 0-.708 3.43c1.04.032 2.255.157 3.647.375l-.009 2.273c-.896-.144-2.254-.28-4.074-.408-.283 1.604-.48 2.761-.591 3.472 1.176.111 2.599.155 4.267.132l-.05 2.266c-1.225.321-2.611.346-4.158.073l-3.031-.824zM40.507 56.933c.284-2.39.58-4.463.89-6.221.31-1.758.674-3.586 1.091-5.484l-2.5-.089-.03-2.404c1.347.004 2.67.065 3.97.183l3.775.46-.012 2.292a78.9 78.9 0 0 0-2.512-.257c-.42 1.911-.771 3.669-1.054 5.273a422.932 422.932 0 0 0-1.136 6.912l-2.482-.665zm10.768-10.18l-.387 2.31 3.032.349c.368-2.086.792-4.292 1.27-6.62l2.599.706a124.93 124.93 0 0 0-1.398 6.876c-.438 2.48-.803 4.983-1.097 7.509l-2.522-.672c.083-1.171.335-3.029.756-5.574l-2.973-.338a300.084 300.084 0 0 0-.841 5.827l-2.678-.72c.35-2.847.734-5.453 1.151-7.82.418-2.365.832-4.401 1.242-6.107l2.598.706a54.3 54.3 0 0 0-.752 3.569zm12.286-3.302a129.41 129.41 0 0 0-1.439 7.107c-.466 2.646-.805 5.075-1.016 7.284l-2.658-.717a118.8 118.8 0 0 1 1.043-7.435 144.53 144.53 0 0 1 1.412-6.956l2.658.717zm6.37 5.108c.288-.625.471-1.158.55-1.599.077-.441.021-.826-.168-1.156a1.174 1.174 0 0 0-.854-.595c-.38-.067-.73.064-1.05.394a2.27 2.27 0 0 0-.606 1.216c-.165.936.227 1.832 1.176 2.688.944.884 1.583 1.513 1.915 1.889.333.375.557.704.672.987.285.725.366 1.435.243 2.13-.212 1.204-.785 2.092-1.718 2.665-.933.573-1.906.77-2.92.591-1.2-.212-2.117-.897-2.751-2.057-.457-.838-.836-1.85-1.136-3.032l2.106-.6c.166.855.43 1.601.792 2.237.362.636.803 1 1.323 1.092.334.059.653.005.957-.162.305-.167.495-.468.572-.902.076-.435-.02-.869-.287-1.302-.267-.433-.647-.892-1.138-1.379a23.11 23.11 0 0 1-1.133-1.182 11.49 11.49 0 0 1-.852-1.132c-.575-.873-.759-1.895-.553-3.064.207-1.17.787-2.081 1.74-2.733.954-.652 1.991-.88 3.111-.682 1.12.198 1.987.799 2.601 1.803.614 1.004.84 1.964.678 2.88-.161.915-.473 1.67-.935 2.264l-2.336-1.26zm14.217-5.644c1.56.275 2.655 1.102 3.285 2.481.63 1.38.79 2.945.482 4.696a11.46 11.46 0 0 1-1.314 3.707c-.637 1.121-1.481 2.006-2.53 2.655a4.7 4.7 0 0 1-3.395.652c-.24-.042-1.13-.296-2.671-.76.693-2.841 1.206-5.205 1.539-7.09.332-1.884.64-3.98.923-6.287 1.374-.227 2.6-.245 3.68-.054zm-.424 10.5a7.246 7.246 0 0 0 1.533-3.369c.223-1.263.19-2.34-.1-3.232-.29-.892-.735-1.391-1.335-1.497a2.54 2.54 0 0 0-.929.002 193.077 193.077 0 0 1-.798 4.997 77.884 77.884 0 0 1-.861 4.18c.074.123.198.2.372.23.613.109 1.32-.328 2.118-1.311zm10.541 3.83l.032-2.868-3.002-.405-1.425 3.636-2.758-.734 6.144-13.907 3.644.974.224 14.057-2.859-.752zm-.1-11.41l-2.36 6.014 2.255.315.106-6.33zm5.716 11.098c.284-2.39.581-4.463.891-6.221.31-1.758.674-3.586 1.09-5.484l-2.5-.089-.03-2.404c1.347.004 2.67.065 3.97.183l3.775.46-.012 2.292a78.9 78.9 0 0 0-2.512-.257c-.42 1.911-.77 3.669-1.054 5.273a422.939 422.939 0 0 0-1.136 6.912l-2.482-.665zm6.527-.39c.32-2.122.645-4.125.977-6.01.333-1.885.872-4.32 1.618-7.303 2.342.055 4.6.273 6.773.657l-.435 2.466a59.348 59.348 0 0 0-4.225-.6 198.455 198.455 0 0 0-.708 3.431c1.04.032 2.255.157 3.646.374l-.009 2.273c-.895-.144-2.253-.28-4.073-.408-.283 1.604-.48 2.762-.592 3.472 1.177.112 2.599.156 4.267.133l-.049 2.265c-1.225.322-2.612.346-4.159.073l-3.03-.824zm9.702-3.658c.111-2.034.311-3.87.6-5.507.289-1.638.726-3.377 1.312-5.217l2.821 1.076c-1.124 2.476-2.18 5.853-3.168 10.131l-1.565-.483zm3.077 1.793c.1.293.09.774-.027 1.443-.118.668-.328 1.23-.628 1.688l-2.3-.881c.221-.471.38-.978.475-1.519.095-.541.163-1.002.202-1.38l2.278.65z"/><filter id="c" width="123.5%" height="145%" x="-5.9%" y="-12.5%" filterUnits="objectBoundingBox"><feOffset dx="6" dy="4" in="SourceAlpha" result="shadowOffsetOuter1"/><feGaussianBlur stdDeviation="2" in="shadowOffsetOuter1" result="shadowBlurOuter1"/><feColorMatrix values="0 0 0 0 0.235294118 0 0 0 0 0.525490196 0 0 0 0 0.580392157 0 0 0 1 0" in="shadowBlurOuter1"/></filter></defs><g fill="none" fill-rule="evenodd" transform="translate(3.375 2)"><use fill="#000" filter="url(#a)" xlink:href="#b"/><use fill="#63B8C8" xlink:href="#b"/><path stroke="#3C8694" stroke-width="2" d="M20.168 42.388C9.889 36.834 3.15 31.545-.054 26.461l-.925-1.467 1.733-.065c12.936-.49 21.063-1.164 24.24-1.99C33.386 8.677 59.611-1 85.85-1 124.987-1 144 13.406 144 38.329 144 63.909 124.433 80 85.85 80c-40.63 0-65.262-14.606-65.682-37.612z"/><path stroke="#A5E0EA" stroke-width="5" d="M5.855 28.219c3.511 3.554 9.01 7.364 16.487 11.364l1.32.707v1.497c0 20.946 22.887 34.713 62.189 34.713 36.783 0 54.649-14.693 54.649-38.171C140.5 15.584 123.232 2.5 85.85 2.5c-25.33 0-50.617 9.41-58.017 22.52l-.492.873-.959.29c-2.876.874-9.63 1.533-20.527 2.036z"/><g transform="rotate(-10 81.5 38)"><use fill="#000" filter="url(#c)" xlink:href="#d"/><use fill="#FFF" xlink:href="#d"/></g></g></svg>