<svg xmlns="http://www.w3.org/2000/svg" width="164" height="99" viewBox="0 0 164 99" xmlns:xlink="http://www.w3.org/1999/xlink">
  <defs>
    <path id="b7" d="M85.8505345,79 C127.765841,79 143,60.1442056 143,38.328958 C143,16.5137104 127.765841,0 85.8505345,0 C61.5844307,0 34.0968544,8.83622301 25.6558615,23.7916805 C22.6601521,24.701444 14.3720256,25.4135419 0.791481862,25.9279744 C3.93805008,30.9185222 10.7283219,36.2050261 21.1622974,41.7874859 C21.1622974,63.6027335 43.9352277,79 85.8505345,79 Z"/>
    <filter id="a7" width="125%" height="143%" x="-7.8%" y="-12%" filterUnits="objectBoundingBox">
      <feMorphology radius="2" operator="dilate" in="SourceAlpha" result="shadowSpreadOuter1"/>
      <feOffset dx="15" dy="15" in="shadowSpreadOuter1" result="shadowOffsetOuter1"/>
      <feComposite in="shadowOffsetOuter1" in2="SourceAlpha" operator="out" result="shadowOffsetOuter1"/>
      <feColorMatrix values="0 0 0 0 0.0431372549 0 0 0 0 0 0 0 0 0 0.294117647 0 0 0 0.190613678 0" in="shadowOffsetOuter1"/>
    </filter>
    <path id="d7" d="M38.9969786,32.1083398 C39.2099934,30.5883334 39.5033017,28.7689322 39.8769123,26.6500814 C40.2505229,24.5312306 40.8163248,21.7123261 41.5743352,18.1932833 C42.7676467,17.9763993 43.9544108,17.9720125 45.134663,18.1801228 C46.3149152,18.3882331 47.2912619,19.0118013 48.0637324,20.050846 C48.8362028,21.0898906 49.1051651,22.2744603 48.8706273,23.6045906 C48.6360894,24.9347209 47.9299429,25.9955952 46.7521667,26.7872451 C45.5743904,27.5788951 44.131945,28.0585281 42.424787,28.2261584 C42.1607846,29.7233905 41.9097187,31.2642312 41.6715819,32.8487268 L38.9969786,32.1083398 Z M45.7093036,23.1965308 C45.8342333,22.4880192 45.7522201,21.8808646 45.4632614,21.3750488 C45.1743028,20.869233 44.803114,20.5763536 44.3496837,20.4964016 C44.2296581,20.4752378 43.9503776,20.4604521 43.5118339,20.4520438 C43.1127928,22.3251945 42.7510368,24.1428642 42.4265549,25.9051077 C43.3138777,25.7858911 44.0515924,25.4817877 44.6397212,24.9927883 C45.22785,24.503789 45.5843738,23.9050424 45.7093036,23.1965308 Z M54.6955793,23.9551256 C54.9844508,23.3306564 55.167777,22.7978555 55.2455634,22.3567067 C55.3233498,21.915558 55.2675577,21.5301181 55.0781855,21.2003755 C54.8888132,20.8706329 54.6040907,20.6722553 54.2240095,20.6052367 C53.8439283,20.5382181 53.4941989,20.6695214 53.1748108,20.9991503 C52.8554227,21.3287793 52.6533027,21.7342143 52.5684448,22.2154675 C52.4034433,23.1512375 52.7954549,24.0473739 53.7444913,24.9039034 C54.6888134,25.7871691 55.3272322,26.4166234 55.6597667,26.7922851 C55.9923013,27.1679467 56.2161892,27.4968791 56.3314373,27.7790922 C56.6160217,28.5046771 56.6970264,29.2150306 56.5744539,29.9101741 C56.3623091,31.113307 55.7897716,32.0013243 54.8568242,32.5742525 C53.9238768,33.1471807 52.9506428,33.3442837 51.9370929,33.1655675 C50.7368364,32.9539299 49.8195405,32.2684103 49.1851779,31.1089881 C48.7280298,30.2702729 48.3493859,29.2593333 48.0492346,28.076139 L50.1558188,27.4758353 C50.3211211,28.3320091 50.5849063,29.0780376 50.9471823,29.7139434 C51.3094583,30.3498491 51.7506453,30.7136513 52.2707564,30.8053609 C52.604161,30.8641491 52.9230777,30.8101142 53.227516,30.6432545 C53.5319543,30.4763948 53.7224745,30.1757371 53.7990823,29.7412724 C53.8756902,29.3068077 53.7802935,28.8730338 53.5128896,28.4399375 C53.2454856,28.0068413 52.8659083,27.5470799 52.3741464,27.0606395 C51.8823845,26.5741991 51.5049468,26.1802869 51.2418222,25.8788911 C50.9786975,25.5774953 50.6946117,25.2000435 50.3895564,24.7465245 C49.8147399,23.8732775 49.6304603,22.851813 49.8367122,21.6821004 C50.0429641,20.5123878 50.6229606,19.6015646 51.576719,18.9496033 C52.5304775,18.297642 53.5674608,18.070429 54.6877002,18.2679574 C55.8079396,18.4654858 56.6748537,19.0663122 57.2884686,20.0704544 C57.9020834,21.0745967 58.1281546,22.0345123 57.9666888,22.9502302 C57.8052231,23.865948 57.493374,24.6207452 57.0311321,25.2146445 L54.6955793,23.9551256 Z M64.3441458,23.9551256 C64.6330172,23.3306564 64.8163434,22.7978555 64.8941298,22.3567067 C64.9719163,21.915558 64.9161242,21.5301181 64.7267519,21.2003755 C64.5373796,20.8706329 64.2526572,20.6722553 63.872576,20.6052367 C63.4924947,20.5382181 63.1427653,20.6695214 62.8233772,20.9991503 C62.5039892,21.3287793 62.3018692,21.7342143 62.2170113,22.2154675 C62.0520098,23.1512375 62.4440213,24.0473739 63.3930578,24.9039034 C64.3373799,25.7871691 64.9757986,26.4166234 65.3083332,26.7922851 C65.6408677,27.1679467 65.8647556,27.4968791 65.9800037,27.7790922 C66.2645882,28.5046771 66.3455929,29.2150306 66.2230203,29.9101741 C66.0108755,31.113307 65.438338,32.0013243 64.5053907,32.5742525 C63.5724433,33.1471807 62.5992092,33.3442837 61.5856593,33.1655675 C60.3854028,32.9539299 59.468107,32.2684103 58.8337443,31.1089881 C58.3765963,30.2702729 57.9979523,29.2593333 57.697801,28.076139 L59.8043852,27.4758353 C59.9696876,28.3320091 60.2334728,29.0780376 60.5957488,29.7139434 C60.9580248,30.3498491 61.3992117,30.7136513 61.9193229,30.8053609 C62.2527275,30.8641491 62.5716441,30.8101142 62.8760824,30.6432545 C63.1805207,30.4763948 63.3710409,30.1757371 63.4476488,29.7412724 C63.5242566,29.3068077 63.42886,28.8730338 63.161456,28.4399375 C62.894052,28.0068413 62.5144748,27.5470799 62.0227128,27.0606395 C61.5309509,26.5741991 61.1535133,26.1802869 60.8903886,25.8788911 C60.6272639,25.5774953 60.3431782,25.2000435 60.0381228,24.7465245 C59.4633063,23.8732775 59.2790268,22.851813 59.4852786,21.6821004 C59.6915305,20.5123878 60.271527,19.6015646 61.2252855,18.9496033 C62.1790439,18.297642 63.2160273,18.070429 64.3362667,18.2679574 C65.4565061,18.4654858 66.3234202,19.0663122 66.937035,20.0704544 C67.5506499,21.0745967 67.776721,22.0345123 67.6152553,22.9502302 C67.4537895,23.865948 67.1419404,24.6207452 66.6796986,25.2146445 L64.3441458,23.9551256 Z M69.249715,32.3295648 C69.5335712,29.9398881 69.8304785,27.8661254 70.1404456,26.1082145 C70.4504127,24.3503036 70.8139366,22.5226079 71.2310283,20.6250725 L68.7304115,20.5356308 L68.7004642,18.1319854 C70.047482,18.1351768 71.3705365,18.1961724 72.6696674,18.314974 L76.4458054,18.7740534 L76.4334188,21.0668564 C75.6928572,20.9776268 74.8554192,20.8919899 73.9210795,20.8099433 C73.5016308,22.7208468 73.1504818,24.4783608 72.867622,26.082538 C72.5847623,27.6867153 72.2060081,29.9907045 71.731348,32.9945748 L69.249715,32.3295648 Z M76.3789521,28.4499705 L78.8839352,29.8013913 C78.5360715,30.994377 77.69422,32.727393 76.3583556,35.0004912 L74.5427216,34.535617 C75.2893735,32.4067327 75.9014442,30.3782042 76.3789521,28.4499705 Z M90.9335636,23.9551256 C91.2224351,23.3306564 91.4057612,22.7978555 91.4835477,22.3567067 C91.5613341,21.915558 91.505542,21.5301181 91.3161697,21.2003755 C91.1267975,20.8706329 90.842075,20.6722553 90.4619938,20.6052367 C90.0819126,20.5382181 89.7321832,20.6695214 89.4127951,20.9991503 C89.093407,21.3287793 88.891287,21.7342143 88.8064291,22.2154675 C88.6414276,23.1512375 89.0334392,24.0473739 89.9824756,24.9039034 C90.9267977,25.7871691 91.5652165,26.4166234 91.897751,26.7922851 C92.2302855,27.1679467 92.4541735,27.4968791 92.5694216,27.7790922 C92.854006,28.5046771 92.9350107,29.2150306 92.8124382,29.9101741 C92.6002934,31.113307 92.0277559,32.0013243 91.0948085,32.5742525 C90.1618611,33.1471807 89.1886271,33.3442837 88.1750771,33.1655675 C86.9748206,32.9539299 86.0575248,32.2684103 85.4231621,31.1089881 C84.9660141,30.2702729 84.5873701,29.2593333 84.2872188,28.076139 L86.3938031,27.4758353 C86.5591054,28.3320091 86.8228906,29.0780376 87.1851666,29.7139434 C87.5474426,30.3498491 87.9886296,30.7136513 88.5087407,30.8053609 C88.8421453,30.8641491 89.161062,30.8101142 89.4655002,30.6432545 C89.7699385,30.4763948 89.9604588,30.1757371 90.0370666,29.7412724 C90.1136744,29.3068077 90.0182778,28.8730338 89.7508738,28.4399375 C89.4834699,28.0068413 89.1038926,27.5470799 88.6121307,27.0606395 C88.1203687,26.5741991 87.7429311,26.1802869 87.4798064,25.8788911 C87.2166818,25.5774953 86.932596,25.2000435 86.6275406,24.7465245 C86.0527241,23.8732775 85.8684446,22.851813 86.0746965,21.6821004 C86.2809484,20.5123878 86.8609448,19.6015646 87.8147033,18.9496033 C88.7684618,18.297642 89.8054451,18.070429 90.9256845,18.2679574 C92.0459239,18.4654858 92.912838,19.0663122 93.5264529,20.0704544 C94.1400677,21.0745967 94.3661389,22.0345123 94.2046731,22.9502302 C94.0432073,23.865948 93.7313582,24.6207452 93.2691164,25.2146445 L90.9335636,23.9551256 Z M100.156172,32.6424102 L100.187543,29.7740389 L97.1857063,29.3687875 L95.7608306,33.0045487 L93.0026749,32.2701047 L99.1468256,18.3637035 L102.791026,19.3370833 L103.014349,33.3944906 L100.156172,32.6424102 Z M100.056376,21.2314743 L97.6965016,27.2454638 L99.9511121,27.5603102 L100.056376,21.2314743 Z M106.2559,18.0020025 L108.794009,18.6976464 C108.71385,22.1156723 108.782777,25.4289906 109.000792,28.6377008 L109.084344,28.6317578 C110.651954,25.2003342 112.025362,21.8174245 113.204609,18.4829273 L115.806267,19.169101 C114.101879,23.61019 111.936989,28.1285202 109.311533,32.7242271 L107.046411,32.1180692 C106.537056,27.0523134 106.273555,22.3470049 106.2559,18.0020025 Z M114.634807,31.9389998 C114.953894,29.817427 115.279613,27.8142165 115.611973,25.9293083 C115.944334,24.0444 116.483555,21.6101944 117.229653,18.6266184 C119.571426,18.6811581 121.829178,18.9000743 124.002976,19.2833735 L123.568081,21.7497837 C122.061093,21.4840609 120.652565,21.2839419 119.342455,21.1494206 C119.025108,22.6372465 118.789054,23.7810109 118.634288,24.580748 C119.673767,24.6124146 120.889327,24.7371574 122.281004,24.9549801 L122.272153,27.2277311 C121.376272,27.0835468 120.018327,26.9474812 118.198278,26.8195304 C117.915419,28.4237076 117.718195,29.5812104 117.606601,30.2920736 C118.78335,30.4030796 120.205649,30.4471158 121.873542,30.4241835 L121.824682,32.6898798 C120.599178,33.0113575 119.212947,33.0357073 117.66595,32.7629299 L114.634807,31.9389998 Z M40.5071434,56.9329853 C40.7909996,54.5433086 41.0879069,52.4695459 41.397874,50.711635 C41.7078411,48.9537241 42.071365,47.1260284 42.4884566,45.228493 L39.9878399,45.1390513 L39.9578926,42.7354059 C41.3049104,42.7385973 42.6279649,42.7995929 43.9270958,42.9183945 L47.7032338,43.3774739 L47.6908472,45.6702769 C46.9502856,45.5810473 46.1128476,45.4954104 45.1785079,45.4133638 C44.7590591,47.3242673 44.4079102,49.0817813 44.1250504,50.6859585 C43.8421907,52.2901358 43.4634365,54.594125 42.9887764,57.5979953 L40.5071434,56.9329853 Z M51.2745176,46.7535155 L50.887913,49.063036 L53.9203608,49.4116583 C54.2880784,47.3262279 54.7115232,45.119712 55.1907079,42.7920445 L57.7888303,43.4982703 C57.2940155,45.6026414 56.8279881,47.8946879 56.3907341,50.3744785 C55.9534801,52.8542692 55.5878127,55.3569818 55.293721,57.8826915 L52.7720796,57.2106269 C52.8547701,56.0398028 53.106706,54.1820935 53.5278949,51.6374431 L50.5554596,51.2994026 C50.2607508,53.2047336 49.9801576,55.1469831 49.7136715,57.1262094 L47.0355325,56.4058745 C47.3861962,53.5593294 47.7701313,50.9530152 48.1873494,48.5868538 C48.6045675,46.2206923 49.0185522,44.184803 49.4293159,42.4791247 L52.0274382,43.1853505 C51.7376334,44.3610061 51.4866624,45.5503825 51.2745176,46.7535155 Z M63.5611016,43.4507023 C63.068644,45.5417052 62.5890631,47.9106174 62.1223445,50.5575098 C61.655626,53.2044023 61.3168481,55.6326007 61.1060007,57.842178 L58.4478658,57.1253704 C58.755357,54.3676992 59.1029741,51.889371 59.4907276,49.6903114 C59.8784812,47.4912517 60.3492228,45.1724694 60.9029668,42.7338947 L63.5611016,43.4507023 Z M69.9301579,48.5585461 C70.2190294,47.9340769 70.4023556,47.401276 70.480142,46.9601272 C70.5579284,46.5189785 70.5021363,46.1335386 70.3127641,45.803796 C70.1233918,45.4740534 69.8386693,45.2756758 69.4585881,45.2086572 C69.0785069,45.1416386 68.7287775,45.2729419 68.4093894,45.6025708 C68.0900013,45.9321998 67.8878813,46.3376348 67.8030234,46.818888 C67.6380219,47.754658 68.0300335,48.6507944 68.9790699,49.5073239 C69.923392,50.3905896 70.5618108,51.0200439 70.8943453,51.3957056 C71.2268798,51.7713672 71.4507678,52.1002996 71.5660159,52.3825127 C71.8506003,53.1080976 71.931605,53.8184511 71.8090325,54.5135946 C71.5968877,55.7167275 71.0243502,56.6047448 70.0914028,57.177673 C69.1584554,57.7506012 68.1852214,57.9477042 67.1716714,57.768988 C65.971415,57.5573504 65.0541191,56.8718308 64.4197565,55.7124086 C63.9626084,54.8736934 63.5839645,53.8627538 63.2838132,52.6795595 L65.3903974,52.0792558 C65.5556997,52.9354296 65.8194849,53.6814581 66.1817609,54.3173639 C66.5440369,54.9532696 66.9852239,55.3170718 67.505335,55.4087814 C67.8387396,55.4675696 68.1576563,55.4135347 68.4620946,55.246675 C68.7665329,55.0798153 68.9570531,54.7791576 69.0336609,54.3446929 C69.1102688,53.9102282 69.0148721,53.4764543 68.7474681,53.043358 C68.4800642,52.6102618 68.1004869,52.1505004 67.608725,51.66406 C67.1169631,51.1776196 66.7395254,50.7837074 66.4764007,50.4823116 C66.2132761,50.1809158 65.9291903,49.803464 65.624135,49.3499451 C65.0493184,48.476698 64.8650389,47.4552335 65.0712908,46.2855209 C65.2775427,45.1158083 65.8575391,44.2049851 66.8112976,43.5530238 C67.7650561,42.9010625 68.8020394,42.6738495 69.9222788,42.8713779 C71.0425182,43.0689063 71.9094323,43.6697327 72.5230472,44.6738749 C73.136662,45.6780172 73.3627332,46.6379328 73.2012674,47.5536507 C73.0398017,48.4693685 72.7279525,49.2241657 72.2657107,49.818065 L69.9301579,48.5585461 Z M84.147774,42.9146594 C85.7081075,43.1897883 86.803252,44.0169359 87.4332405,45.3961273 C88.063229,46.7753186 88.2238266,48.3405041 87.9150381,50.091731 C87.6769644,51.4419135 87.2390722,52.6775862 86.6013481,53.7987861 C85.963624,54.919986 85.1200402,55.8050071 84.0705713,56.4538758 C83.0211024,57.1027445 81.8895886,57.3201811 80.6759959,57.1061919 C80.4359446,57.0638644 79.5455976,56.8103872 78.0049283,56.3457528 C78.6984252,53.5045233 79.2113461,51.1414899 79.5437063,49.2565817 C79.8760664,47.3716734 80.1837666,45.2756925 80.4668161,42.9685762 C81.8405695,42.7421576 83.0675432,42.7241855 84.147774,42.9146594 Z M83.7243189,53.4150411 C84.5232242,52.432532 85.0340451,51.3096495 85.2567972,50.0463599 C85.4795492,48.7830703 85.4461063,47.7055009 85.1564674,46.8136195 C84.8668284,45.921738 84.4219515,45.4228954 83.8218233,45.3170766 C83.5017549,45.2606399 83.1922667,45.2612031 82.8933496,45.3187661 C82.597834,47.3066575 82.3316327,48.9723274 82.0947376,50.3158258 C81.8578426,51.6593243 81.5709254,53.0525619 81.2339774,54.4955803 C81.3084733,54.6189862 81.4324046,54.6959729 81.605775,54.7265428 C82.2192395,54.8347131 82.9254137,54.3975503 83.7243189,53.4150411 Z M94.2654687,57.2458307 L94.296839,54.3774594 L91.2950025,53.972208 L89.8701269,57.6079692 L87.1119711,56.8735252 L93.2561219,42.967124 L96.9003226,43.9405038 L97.1236453,57.9979111 L94.2654687,57.2458307 Z M94.1656726,45.8348948 L91.8057979,51.8488843 L94.0604084,52.1637307 L94.1656726,45.8348948 Z M99.8813743,56.9329853 C100.165231,54.5433086 100.462138,52.4695459 100.772105,50.711635 C101.082072,48.9537241 101.445596,47.1260284 101.862688,45.228493 L99.3620709,45.1390513 L99.3321236,42.7354059 C100.679141,42.7385973 102.002196,42.7995929 103.301327,42.9183945 L107.077465,43.3774739 L107.065078,45.6702769 C106.324517,45.5810473 105.487079,45.4954104 104.552739,45.4133638 C104.13329,47.3242673 103.782141,49.0817813 103.499281,50.6859585 C103.216422,52.2901358 102.837667,54.594125 102.363007,57.5979953 L99.8813743,56.9329853 Z M106.408135,56.5424203 C106.727222,54.4208475 107.052941,52.417637 107.385301,50.5327288 C107.717661,48.6478205 108.256882,46.2136149 109.00298,43.2300389 C111.344754,43.2845786 113.602506,43.5034948 115.776304,43.886794 L115.341409,46.3532042 C113.83442,46.0874814 112.425892,45.8873624 111.115782,45.7528411 C110.798435,47.240667 110.562382,48.3844314 110.407616,49.1841685 C111.447095,49.2158351 112.662655,49.3405779 114.054332,49.5584006 L114.045481,51.8311516 C113.1496,51.6869673 111.791655,51.5509017 109.971606,51.4229509 C109.688746,53.0271281 109.491523,54.1846309 109.379929,54.8954941 C110.556677,55.0065001 111.978976,55.0505363 113.646869,55.027604 L113.59801,57.2933003 C112.372505,57.614778 110.986275,57.6391278 109.439277,57.3663504 L106.408135,56.5424203 Z M116.110115,52.8853219 C116.221282,50.8511409 116.421238,49.0152792 116.709991,47.3776816 C116.998743,45.740084 117.435987,44.0011967 118.021734,42.1609675 L120.843344,43.237409 C119.719245,45.7132524 118.663171,49.0900907 117.675092,53.3680251 L116.110115,52.8853219 Z M119.186958,54.6781599 C119.286512,54.9713895 119.277361,55.4522008 119.159502,56.120608 C119.041644,56.7890151 118.832421,57.3517087 118.531827,57.8087056 L116.232652,56.9277611 C116.453229,56.4566551 116.611248,55.9504047 116.706713,55.4089949 C116.802178,54.8675851 116.869574,54.4073816 116.908902,54.0283705 L119.186958,54.6781599 Z"/>
    <filter id="c7" width="123.5%" height="145%" x="-5.9%" y="-12.5%" filterUnits="objectBoundingBox">
      <feOffset dx="6" dy="4" in="SourceAlpha" result="shadowOffsetOuter1"/>
      <feGaussianBlur stdDeviation="2" in="shadowOffsetOuter1" result="shadowBlurOuter1"/>
      <feColorMatrix values="0 0 0 0 0.235294118 0 0 0 0 0.525490196 0 0 0 0 0.580392157 0 0 0 1 0" in="shadowBlurOuter1"/>
    </filter>
  </defs>
  <g fill="none" fill-rule="evenodd" transform="translate(3.375 2)">
    <use fill="black" filter="url(#a7)" xlink:href="#b7"/>
    <use fill="#63B8C8" xlink:href="#b7"/>
    <path stroke="#3C8694" stroke-width="2" d="M20.1677744,42.3881327 C9.88902547,36.8338301 3.15087412,31.5450018 -0.0544167278,26.4613181 L-0.979356672,24.9943367 L0.753628902,24.928691 C13.6898985,24.4386638 21.8168717,23.7653351 24.9930874,22.9391846 C33.3874374,8.67699814 59.6117437,-1 85.8505345,-1 C124.986557,-1 144,13.4058544 144,38.328958 C144,63.908158 124.432593,80 85.8505345,80 C45.2193261,80 20.5884541,65.3942043 20.1677744,42.3881327 Z"/>
    <path stroke="#A5E0EA" stroke-width="5" d="M5.85521969,28.2186909 C9.36643425,31.7730684 14.8646812,35.582762 22.3416738,39.5831557 L23.6622974,40.2897252 L23.6622974,41.7874859 C23.6622974,62.7333536 46.5486686,76.5 85.8505345,76.5 C122.634169,76.5 140.5,61.8075 140.5,38.328958 C140.5,15.5835853 123.231742,2.5 85.8505345,2.5 C60.5201927,2.5 35.2327969,11.909826 27.8330223,25.0204894 L27.3407091,25.8927527 L26.3823226,26.1838039 C23.5059499,27.0573261 16.7525883,27.7164444 5.85521969,28.2186909 Z"/>
    <g transform="rotate(-10 81.5 38)">
      <use fill="black" filter="url(#c7)" xlink:href="#d7"/>
      <use fill="#FFFFFF" xlink:href="#d7"/>
    </g>
  </g>
</svg>
