<svg xmlns="http://www.w3.org/2000/svg" aria-labelledby="savedateSVG" width="164" height="99" viewBox="0 0 164 99" xmlns:xlink="http://www.w3.org/1999/xlink">
  <title id="savedateSVG">Psst, Save This Date!</title>
  <defs>
    <path id="b7" d="M85.8505345,79 C127.765841,79 143,60.1442056 143,38.328958 C143,16.5137104 127.765841,0 85.8505345,0 C61.5844307,0 34.0968544,8.83622301 25.6558615,23.7916805 C22.6601521,24.701444 14.3720256,25.4135419 0.791481862,25.9279744 C3.93805008,30.9185222 10.7283219,36.2050261 21.1622974,41.7874859 C21.1622974,63.6027335 43.9352277,79 85.8505345,79 Z"/>
    <filter id="a7" width="125%" height="143%" x="-7.8%" y="-12%" filterUnits="objectBoundingBox">
      <feMorphology radius="2" operator="dilate" in="SourceAlpha" result="shadowSpreadOuter1"/>
      <feOffset dx="15" dy="15" in="shadowSpreadOuter1" result="shadowOffsetOuter1"/>
      <feComposite in="shadowOffsetOuter1" in2="SourceAlpha" operator="out" result="shadowOffsetOuter1"/>
      <feColorMatrix values="0 0 0 0 0.0431372549 0 0 0 0 0 0 0 0 0 0.294117647 0 0 0 0.190613678 0" in="shadowOffsetOuter1"/>
    </filter>
  </defs>
  <g fill="none" fill-rule="evenodd" transform="translate(3 2)">
    <use fill="black" filter="url(#a7)" xlink:href="#b7"/>
    <use fill="#E98B3B" xlink:href="#b7"/>
    <path stroke="#C27811" stroke-width="2" d="M20.1677744,42.3881327 C9.88902547,36.8338301 3.15087412,31.5450018 -0.0544167278,26.4613181 L-0.979356672,24.9943367 L0.753628902,24.928691 C13.6898985,24.4386638 21.8168717,23.7653351 24.9930874,22.9391846 C33.3874374,8.67699814 59.6117437,-1 85.8505345,-1 C124.986557,-1 144,13.4058544 144,38.328958 C144,63.908158 124.432593,80 85.8505345,80 C45.2193261,80 20.5884541,65.3942043 20.1677744,42.3881327 Z"/>
    <path stroke="#EDC57B" stroke-width="5" d="M5.85521969,28.2186909 C9.36643425,31.7730684 14.8646812,35.582762 22.3416738,39.5831557 L23.6622974,40.2897252 L23.6622974,41.7874859 C23.6622974,62.7333536 46.5486686,76.5 85.8505345,76.5 C122.634169,76.5 140.5,61.8075 140.5,38.328958 C140.5,15.5835853 123.231742,2.5 85.8505345,2.5 C60.5201927,2.5 35.2327969,11.909826 27.8330223,25.0204894 L27.3407091,25.8927527 L26.3823226,26.1838039 C23.5059499,27.0573261 16.7525883,27.7164444 5.85521969,28.2186909 Z"/>
    <path fill="#C27811" d="M40.9969786,34.1083398 C41.2099934,32.5883334 41.5033017,30.7689322 41.8769123,28.6500814 C42.2505229,26.5312306 42.8163248,23.7123261 43.5743352,20.1932833 C44.7676467,19.9763993 45.9544108,19.9720125 47.134663,20.1801228 C48.3149152,20.3882331 49.2912619,21.0118013 50.0637324,22.050846 C50.8362028,23.0898906 51.1051651,24.2744603 50.8706273,25.6045906 C50.6360894,26.9347209 49.9299429,27.9955952 48.7521667,28.7872451 C47.5743904,29.5788951 46.131945,30.0585281 44.424787,30.2261584 C44.1607846,31.7233905 43.9097187,33.2642312 43.6715819,34.8487268 L40.9969786,34.1083398 Z M47.7093036,25.1965308 C47.8342333,24.4880192 47.7522201,23.8808646 47.4632614,23.3750488 C47.1743028,22.869233 46.803114,22.5763536 46.3496837,22.4964016 C46.2296581,22.4752378 45.9503776,22.4604521 45.5118339,22.4520438 C45.1127928,24.3251945 44.7510368,26.1428642 44.4265549,27.9051077 C45.3138777,27.7858911 46.0515924,27.4817877 46.6397212,26.9927883 C47.22785,26.503789 47.5843738,25.9050424 47.7093036,25.1965308 Z M56.6955793,25.9551256 C56.9844508,25.3306564 57.167777,24.7978555 57.2455634,24.3567067 C57.3233498,23.915558 57.2675577,23.5301181 57.0781855,23.2003755 C56.8888132,22.8706329 56.6040907,22.6722553 56.2240095,22.6052367 C55.8439283,22.5382181 55.4941989,22.6695214 55.1748108,22.9991503 C54.8554227,23.3287793 54.6533027,23.7342143 54.5684448,24.2154675 C54.4034433,25.1512375 54.7954549,26.0473739 55.7444913,26.9039034 C56.6888134,27.7871691 57.3272322,28.4166234 57.6597667,28.7922851 C57.9923013,29.1679467 58.2161892,29.4968791 58.3314373,29.7790922 C58.6160217,30.5046771 58.6970264,31.2150306 58.5744539,31.9101741 C58.3623091,33.113307 57.7897716,34.0013243 56.8568242,34.5742525 C55.9238768,35.1471807 54.9506428,35.3442837 53.9370929,35.1655675 C52.7368364,34.9539299 51.8195405,34.2684103 51.1851779,33.1089881 C50.7280298,32.2702729 50.3493859,31.2593333 50.0492346,30.076139 L52.1558188,29.4758353 C52.3211211,30.3320091 52.5849063,31.0780376 52.9471823,31.7139434 C53.3094583,32.3498491 53.7506453,32.7136513 54.2707564,32.8053609 C54.604161,32.8641491 54.9230777,32.8101142 55.227516,32.6432545 C55.5319543,32.4763948 55.7224745,32.1757371 55.7990823,31.7412724 C55.8756902,31.3068077 55.7802935,30.8730338 55.5128896,30.4399375 C55.2454856,30.0068413 54.8659083,29.5470799 54.3741464,29.0606395 C53.8823845,28.5741991 53.5049468,28.1802869 53.2418222,27.8788911 C52.9786975,27.5774953 52.6946117,27.2000435 52.3895564,26.7465245 C51.8147399,25.8732775 51.6304603,24.851813 51.8367122,23.6821004 C52.0429641,22.5123878 52.6229606,21.6015646 53.576719,20.9496033 C54.5304775,20.297642 55.5674608,20.070429 56.6877002,20.2679574 C57.8079396,20.4654858 58.6748537,21.0663122 59.2884686,22.0704544 C59.9020834,23.0745967 60.1281546,24.0345123 59.9666888,24.9502302 C59.8052231,25.865948 59.493374,26.6207452 59.0311321,27.2146445 L56.6955793,25.9551256 Z M66.3441458,25.9551256 C66.6330172,25.3306564 66.8163434,24.7978555 66.8941298,24.3567067 C66.9719163,23.915558 66.9161242,23.5301181 66.7267519,23.2003755 C66.5373796,22.8706329 66.2526572,22.6722553 65.872576,22.6052367 C65.4924947,22.5382181 65.1427653,22.6695214 64.8233772,22.9991503 C64.5039892,23.3287793 64.3018692,23.7342143 64.2170113,24.2154675 C64.0520098,25.1512375 64.4440213,26.0473739 65.3930578,26.9039034 C66.3373799,27.7871691 66.9757986,28.4166234 67.3083332,28.7922851 C67.6408677,29.1679467 67.8647556,29.4968791 67.9800037,29.7790922 C68.2645882,30.5046771 68.3455929,31.2150306 68.2230203,31.9101741 C68.0108755,33.113307 67.438338,34.0013243 66.5053907,34.5742525 C65.5724433,35.1471807 64.5992092,35.3442837 63.5856593,35.1655675 C62.3854028,34.9539299 61.468107,34.2684103 60.8337443,33.1089881 C60.3765963,32.2702729 59.9979523,31.2593333 59.697801,30.076139 L61.8043852,29.4758353 C61.9696876,30.3320091 62.2334728,31.0780376 62.5957488,31.7139434 C62.9580248,32.3498491 63.3992117,32.7136513 63.9193229,32.8053609 C64.2527275,32.8641491 64.5716441,32.8101142 64.8760824,32.6432545 C65.1805207,32.4763948 65.3710409,32.1757371 65.4476488,31.7412724 C65.5242566,31.3068077 65.42886,30.8730338 65.161456,30.4399375 C64.894052,30.0068413 64.5144748,29.5470799 64.0227128,29.0606395 C63.5309509,28.5741991 63.1535133,28.1802869 62.8903886,27.8788911 C62.6272639,27.5774953 62.3431782,27.2000435 62.0381228,26.7465245 C61.4633063,25.8732775 61.2790268,24.851813 61.4852786,23.6821004 C61.6915305,22.5123878 62.271527,21.6015646 63.2252855,20.9496033 C64.1790439,20.297642 65.2160273,20.070429 66.3362667,20.2679574 C67.4565061,20.4654858 68.3234202,21.0663122 68.937035,22.0704544 C69.5506499,23.0745967 69.776721,24.0345123 69.6152553,24.9502302 C69.4537895,25.865948 69.1419404,26.6207452 68.6796986,27.2146445 L66.3441458,25.9551256 Z M71.249715,34.3295648 C71.5335712,31.9398881 71.8304785,29.8661254 72.1404456,28.1082145 C72.4504127,26.3503036 72.8139366,24.5226079 73.2310283,22.6250725 L70.7304115,22.5356308 L70.7004642,20.1319854 C72.047482,20.1351768 73.3705365,20.1961724 74.6696674,20.314974 L78.4458054,20.7740534 L78.4334188,23.0668564 C77.6928572,22.9776268 76.8554192,22.8919899 75.9210795,22.8099433 C75.5016308,24.7208468 75.1504818,26.4783608 74.867622,28.082538 C74.5847623,29.6867153 74.2060081,31.9907045 73.731348,34.9945748 L71.249715,34.3295648 Z M78.3789521,30.4499705 L80.8839352,31.8013913 C80.5360715,32.994377 79.69422,34.727393 78.3583556,37.0004912 L76.5427216,36.535617 C77.2893735,34.4067327 77.9014442,32.3782042 78.3789521,30.4499705 Z M92.9335636,25.9551256 C93.2224351,25.3306564 93.4057612,24.7978555 93.4835477,24.3567067 C93.5613341,23.915558 93.505542,23.5301181 93.3161697,23.2003755 C93.1267975,22.8706329 92.842075,22.6722553 92.4619938,22.6052367 C92.0819126,22.5382181 91.7321832,22.6695214 91.4127951,22.9991503 C91.093407,23.3287793 90.891287,23.7342143 90.8064291,24.2154675 C90.6414276,25.1512375 91.0334392,26.0473739 91.9824756,26.9039034 C92.9267977,27.7871691 93.5652165,28.4166234 93.897751,28.7922851 C94.2302855,29.1679467 94.4541735,29.4968791 94.5694216,29.7790922 C94.854006,30.5046771 94.9350107,31.2150306 94.8124382,31.9101741 C94.6002934,33.113307 94.0277559,34.0013243 93.0948085,34.5742525 C92.1618611,35.1471807 91.1886271,35.3442837 90.1750771,35.1655675 C88.9748206,34.9539299 88.0575248,34.2684103 87.4231621,33.1089881 C86.9660141,32.2702729 86.5873701,31.2593333 86.2872188,30.076139 L88.3938031,29.4758353 C88.5591054,30.3320091 88.8228906,31.0780376 89.1851666,31.7139434 C89.5474426,32.3498491 89.9886296,32.7136513 90.5087407,32.8053609 C90.8421453,32.8641491 91.161062,32.8101142 91.4655002,32.6432545 C91.7699385,32.4763948 91.9604588,32.1757371 92.0370666,31.7412724 C92.1136744,31.3068077 92.0182778,30.8730338 91.7508738,30.4399375 C91.4834699,30.0068413 91.1038926,29.5470799 90.6121307,29.0606395 C90.1203687,28.5741991 89.7429311,28.1802869 89.4798064,27.8788911 C89.2166818,27.5774953 88.932596,27.2000435 88.6275406,26.7465245 C88.0527241,25.8732775 87.8684446,24.851813 88.0746965,23.6821004 C88.2809484,22.5123878 88.8609448,21.6015646 89.8147033,20.9496033 C90.7684618,20.297642 91.8054451,20.070429 92.9256845,20.2679574 C94.0459239,20.4654858 94.912838,21.0663122 95.5264529,22.0704544 C96.1400677,23.0745967 96.3661389,24.0345123 96.2046731,24.9502302 C96.0432073,25.865948 95.7313582,26.6207452 95.2691164,27.2146445 L92.9335636,25.9551256 Z M102.156172,34.6424102 L102.187543,31.7740389 L99.1857063,31.3687875 L97.7608306,35.0045487 L95.0026749,34.2701047 L101.146826,20.3637035 L104.791026,21.3370833 L105.014349,35.3944906 L102.156172,34.6424102 Z M102.056376,23.2314743 L99.6965016,29.2454638 L101.951112,29.5603102 L102.056376,23.2314743 Z M108.2559,20.0020025 L110.794009,20.6976464 C110.71385,24.1156723 110.782777,27.4289906 111.000792,30.6377008 L111.084344,30.6317578 C112.651954,27.2003342 114.025362,23.8174245 115.204609,20.4829273 L117.806267,21.169101 C116.101879,25.61019 113.936989,30.1285202 111.311533,34.7242271 L109.046411,34.1180692 C108.537056,29.0523134 108.273555,24.3470049 108.2559,20.0020025 Z M116.634807,33.9389998 C116.953894,31.817427 117.279613,29.8142165 117.611973,27.9293083 C117.944334,26.0444 118.483555,23.6101944 119.229653,20.6266184 C121.571426,20.6811581 123.829178,20.9000743 126.002976,21.2833735 L125.568081,23.7497837 C124.061093,23.4840609 122.652565,23.2839419 121.342455,23.1494206 C121.025108,24.6372465 120.789054,25.7810109 120.634288,26.580748 C121.673767,26.6124146 122.889327,26.7371574 124.281004,26.9549801 L124.272153,29.2277311 C123.376272,29.0835468 122.018327,28.9474812 120.198278,28.8195304 C119.915419,30.4237076 119.718195,31.5812104 119.606601,32.2920736 C120.78335,32.4030796 122.205649,32.4471158 123.873542,32.4241835 L123.824682,34.6898798 C122.599178,35.0113575 121.212947,35.0357073 119.66595,34.7629299 L116.634807,33.9389998 Z M42.5071434,58.9329853 C42.7909996,56.5433086 43.0879069,54.4695459 43.397874,52.711635 C43.7078411,50.9537241 44.071365,49.1260284 44.4884566,47.228493 L41.9878399,47.1390513 L41.9578926,44.7354059 C43.3049104,44.7385973 44.6279649,44.7995929 45.9270958,44.9183945 L49.7032338,45.3774739 L49.6908472,47.6702769 C48.9502856,47.5810473 48.1128476,47.4954104 47.1785079,47.4133638 C46.7590591,49.3242673 46.4079102,51.0817813 46.1250504,52.6859585 C45.8421907,54.2901358 45.4634365,56.594125 44.9887764,59.5979953 L42.5071434,58.9329853 Z M53.2745176,48.7535155 L52.887913,51.063036 L55.9203608,51.4116583 C56.2880784,49.3262279 56.7115232,47.119712 57.1907079,44.7920445 L59.7888303,45.4982703 C59.2940155,47.6026414 58.8279881,49.8946879 58.3907341,52.3744785 C57.9534801,54.8542692 57.5878127,57.3569818 57.293721,59.8826915 L54.7720796,59.2106269 C54.8547701,58.0398028 55.106706,56.1820935 55.5278949,53.6374431 L52.5554596,53.2994026 C52.2607508,55.2047336 51.9801576,57.1469831 51.7136715,59.1262094 L49.0355325,58.4058745 C49.3861962,55.5593294 49.7701313,52.9530152 50.1873494,50.5868538 C50.6045675,48.2206923 51.0185522,46.184803 51.4293159,44.4791247 L54.0274382,45.1853505 C53.7376334,46.3610061 53.4866624,47.5503825 53.2745176,48.7535155 Z M65.5611016,45.4507023 C65.068644,47.5417052 64.5890631,49.9106174 64.1223445,52.5575098 C63.655626,55.2044023 63.3168481,57.6326007 63.1060007,59.842178 L60.4478658,59.1253704 C60.755357,56.3676992 61.1029741,53.889371 61.4907276,51.6903114 C61.8784812,49.4912517 62.3492228,47.1724694 62.9029668,44.7338947 L65.5611016,45.4507023 Z M71.9301579,50.5585461 C72.2190294,49.9340769 72.4023556,49.401276 72.480142,48.9601272 C72.5579284,48.5189785 72.5021363,48.1335386 72.3127641,47.803796 C72.1233918,47.4740534 71.8386693,47.2756758 71.4585881,47.2086572 C71.0785069,47.1416386 70.7287775,47.2729419 70.4093894,47.6025708 C70.0900013,47.9321998 69.8878813,48.3376348 69.8030234,48.818888 C69.6380219,49.754658 70.0300335,50.6507944 70.9790699,51.5073239 C71.923392,52.3905896 72.5618108,53.0200439 72.8943453,53.3957056 C73.2268798,53.7713672 73.4507678,54.1002996 73.5660159,54.3825127 C73.8506003,55.1080976 73.931605,55.8184511 73.8090325,56.5135946 C73.5968877,57.7167275 73.0243502,58.6047448 72.0914028,59.177673 C71.1584554,59.7506012 70.1852214,59.9477042 69.1716714,59.768988 C67.971415,59.5573504 67.0541191,58.8718308 66.4197565,57.7124086 C65.9626084,56.8736934 65.5839645,55.8627538 65.2838132,54.6795595 L67.3903974,54.0792558 C67.5556997,54.9354296 67.8194849,55.6814581 68.1817609,56.3173639 C68.5440369,56.9532696 68.9852239,57.3170718 69.505335,57.4087814 C69.8387396,57.4675696 70.1576563,57.4135347 70.4620946,57.246675 C70.7665329,57.0798153 70.9570531,56.7791576 71.0336609,56.3446929 C71.1102688,55.9102282 71.0148721,55.4764543 70.7474681,55.043358 C70.4800642,54.6102618 70.1004869,54.1505004 69.608725,53.66406 C69.1169631,53.1776196 68.7395254,52.7837074 68.4764007,52.4823116 C68.2132761,52.1809158 67.9291903,51.803464 67.624135,51.3499451 C67.0493184,50.476698 66.8650389,49.4552335 67.0712908,48.2855209 C67.2775427,47.1158083 67.8575391,46.2049851 68.8112976,45.5530238 C69.7650561,44.9010625 70.8020394,44.6738495 71.9222788,44.8713779 C73.0425182,45.0689063 73.9094323,45.6697327 74.5230472,46.6738749 C75.136662,47.6780172 75.3627332,48.6379328 75.2012674,49.5536507 C75.0398017,50.4693685 74.7279525,51.2241657 74.2657107,51.818065 L71.9301579,50.5585461 Z M86.147774,44.9146594 C87.7081075,45.1897883 88.803252,46.0169359 89.4332405,47.3961273 C90.063229,48.7753186 90.2238266,50.3405041 89.9150381,52.091731 C89.6769644,53.4419135 89.2390722,54.6775862 88.6013481,55.7987861 C87.963624,56.919986 87.1200402,57.8050071 86.0705713,58.4538758 C85.0211024,59.1027445 83.8895886,59.3201811 82.6759959,59.1061919 C82.4359446,59.0638644 81.5455976,58.8103872 80.0049283,58.3457528 C80.6984252,55.5045233 81.2113461,53.1414899 81.5437063,51.2565817 C81.8760664,49.3716734 82.1837666,47.2756925 82.4668161,44.9685762 C83.8405695,44.7421576 85.0675432,44.7241855 86.147774,44.9146594 Z M85.7243189,55.4150411 C86.5232242,54.432532 87.0340451,53.3096495 87.2567972,52.0463599 C87.4795492,50.7830703 87.4461063,49.7055009 87.1564674,48.8136195 C86.8668284,47.921738 86.4219515,47.4228954 85.8218233,47.3170766 C85.5017549,47.2606399 85.1922667,47.2612031 84.8933496,47.3187661 C84.597834,49.3066575 84.3316327,50.9723274 84.0947376,52.3158258 C83.8578426,53.6593243 83.5709254,55.0525619 83.2339774,56.4955803 C83.3084733,56.6189862 83.4324046,56.6959729 83.605775,56.7265428 C84.2192395,56.8347131 84.9254137,56.3975503 85.7243189,55.4150411 Z M96.2654687,59.2458307 L96.296839,56.3774594 L93.2950025,55.972208 L91.8701269,59.6079692 L89.1119711,58.8735252 L95.2561219,44.967124 L98.9003226,45.9405038 L99.1236453,59.9979111 L96.2654687,59.2458307 Z M96.1656726,47.8348948 L93.8057979,53.8488843 L96.0604084,54.1637307 L96.1656726,47.8348948 Z M101.881374,58.9329853 C102.165231,56.5433086 102.462138,54.4695459 102.772105,52.711635 C103.082072,50.9537241 103.445596,49.1260284 103.862688,47.228493 L101.362071,47.1390513 L101.332124,44.7354059 C102.679141,44.7385973 104.002196,44.7995929 105.301327,44.9183945 L109.077465,45.3774739 L109.065078,47.6702769 C108.324517,47.5810473 107.487079,47.4954104 106.552739,47.4133638 C106.13329,49.3242673 105.782141,51.0817813 105.499281,52.6859585 C105.216422,54.2901358 104.837667,56.594125 104.363007,59.5979953 L101.881374,58.9329853 Z M108.408135,58.5424203 C108.727222,56.4208475 109.052941,54.417637 109.385301,52.5327288 C109.717661,50.6478205 110.256882,48.2136149 111.00298,45.2300389 C113.344754,45.2845786 115.602506,45.5034948 117.776304,45.886794 L117.341409,48.3532042 C115.83442,48.0874814 114.425892,47.8873624 113.115782,47.7528411 C112.798435,49.240667 112.562382,50.3844314 112.407616,51.1841685 C113.447095,51.2158351 114.662655,51.3405779 116.054332,51.5584006 L116.045481,53.8311516 C115.1496,53.6869673 113.791655,53.5509017 111.971606,53.4229509 C111.688746,55.0271281 111.491523,56.1846309 111.379929,56.8954941 C112.556677,57.0065001 113.978976,57.0505363 115.646869,57.027604 L115.59801,59.2933003 C114.372505,59.614778 112.986275,59.6391278 111.439277,59.3663504 L108.408135,58.5424203 Z M118.110115,54.8853219 C118.221282,52.8511409 118.421238,51.0152792 118.709991,49.3776816 C118.998743,47.740084 119.435987,46.0011967 120.021734,44.1609675 L122.843344,45.237409 C121.719245,47.7132524 120.663171,51.0900907 119.675092,55.3680251 L118.110115,54.8853219 Z M121.186958,56.6781599 C121.286512,56.9713895 121.277361,57.4522008 121.159502,58.120608 C121.041644,58.7890151 120.832421,59.3517087 120.531827,59.8087056 L118.232652,58.9277611 C118.453229,58.4566551 118.611248,57.9504047 118.706713,57.4089949 C118.802178,56.8675851 118.869574,56.4073816 118.908902,56.0283705 L121.186958,56.6781599 Z" transform="rotate(-10 83.5 40)"/>
    <path fill="#FFFFFF" d="M38.9969786,32.1083398 C39.2099934,30.5883334 39.5033017,28.7689322 39.8769123,26.6500814 C40.2505229,24.5312306 40.8163248,21.7123261 41.5743352,18.1932833 C42.7676467,17.9763993 43.9544108,17.9720125 45.134663,18.1801228 C46.3149152,18.3882331 47.2912619,19.0118013 48.0637324,20.050846 C48.8362028,21.0898906 49.1051651,22.2744603 48.8706273,23.6045906 C48.6360894,24.9347209 47.9299429,25.9955952 46.7521667,26.7872451 C45.5743904,27.5788951 44.131945,28.0585281 42.424787,28.2261584 C42.1607846,29.7233905 41.9097187,31.2642312 41.6715819,32.8487268 L38.9969786,32.1083398 Z M45.7093036,23.1965308 C45.8342333,22.4880192 45.7522201,21.8808646 45.4632614,21.3750488 C45.1743028,20.869233 44.803114,20.5763536 44.3496837,20.4964016 C44.2296581,20.4752378 43.9503776,20.4604521 43.5118339,20.4520438 C43.1127928,22.3251945 42.7510368,24.1428642 42.4265549,25.9051077 C43.3138777,25.7858911 44.0515924,25.4817877 44.6397212,24.9927883 C45.22785,24.503789 45.5843738,23.9050424 45.7093036,23.1965308 Z M54.6955793,23.9551256 C54.9844508,23.3306564 55.167777,22.7978555 55.2455634,22.3567067 C55.3233498,21.915558 55.2675577,21.5301181 55.0781855,21.2003755 C54.8888132,20.8706329 54.6040907,20.6722553 54.2240095,20.6052367 C53.8439283,20.5382181 53.4941989,20.6695214 53.1748108,20.9991503 C52.8554227,21.3287793 52.6533027,21.7342143 52.5684448,22.2154675 C52.4034433,23.1512375 52.7954549,24.0473739 53.7444913,24.9039034 C54.6888134,25.7871691 55.3272322,26.4166234 55.6597667,26.7922851 C55.9923013,27.1679467 56.2161892,27.4968791 56.3314373,27.7790922 C56.6160217,28.5046771 56.6970264,29.2150306 56.5744539,29.9101741 C56.3623091,31.113307 55.7897716,32.0013243 54.8568242,32.5742525 C53.9238768,33.1471807 52.9506428,33.3442837 51.9370929,33.1655675 C50.7368364,32.9539299 49.8195405,32.2684103 49.1851779,31.1089881 C48.7280298,30.2702729 48.3493859,29.2593333 48.0492346,28.076139 L50.1558188,27.4758353 C50.3211211,28.3320091 50.5849063,29.0780376 50.9471823,29.7139434 C51.3094583,30.3498491 51.7506453,30.7136513 52.2707564,30.8053609 C52.604161,30.8641491 52.9230777,30.8101142 53.227516,30.6432545 C53.5319543,30.4763948 53.7224745,30.1757371 53.7990823,29.7412724 C53.8756902,29.3068077 53.7802935,28.8730338 53.5128896,28.4399375 C53.2454856,28.0068413 52.8659083,27.5470799 52.3741464,27.0606395 C51.8823845,26.5741991 51.5049468,26.1802869 51.2418222,25.8788911 C50.9786975,25.5774953 50.6946117,25.2000435 50.3895564,24.7465245 C49.8147399,23.8732775 49.6304603,22.851813 49.8367122,21.6821004 C50.0429641,20.5123878 50.6229606,19.6015646 51.576719,18.9496033 C52.5304775,18.297642 53.5674608,18.070429 54.6877002,18.2679574 C55.8079396,18.4654858 56.6748537,19.0663122 57.2884686,20.0704544 C57.9020834,21.0745967 58.1281546,22.0345123 57.9666888,22.9502302 C57.8052231,23.865948 57.493374,24.6207452 57.0311321,25.2146445 L54.6955793,23.9551256 Z M64.3441458,23.9551256 C64.6330172,23.3306564 64.8163434,22.7978555 64.8941298,22.3567067 C64.9719163,21.915558 64.9161242,21.5301181 64.7267519,21.2003755 C64.5373796,20.8706329 64.2526572,20.6722553 63.872576,20.6052367 C63.4924947,20.5382181 63.1427653,20.6695214 62.8233772,20.9991503 C62.5039892,21.3287793 62.3018692,21.7342143 62.2170113,22.2154675 C62.0520098,23.1512375 62.4440213,24.0473739 63.3930578,24.9039034 C64.3373799,25.7871691 64.9757986,26.4166234 65.3083332,26.7922851 C65.6408677,27.1679467 65.8647556,27.4968791 65.9800037,27.7790922 C66.2645882,28.5046771 66.3455929,29.2150306 66.2230203,29.9101741 C66.0108755,31.113307 65.438338,32.0013243 64.5053907,32.5742525 C63.5724433,33.1471807 62.5992092,33.3442837 61.5856593,33.1655675 C60.3854028,32.9539299 59.468107,32.2684103 58.8337443,31.1089881 C58.3765963,30.2702729 57.9979523,29.2593333 57.697801,28.076139 L59.8043852,27.4758353 C59.9696876,28.3320091 60.2334728,29.0780376 60.5957488,29.7139434 C60.9580248,30.3498491 61.3992117,30.7136513 61.9193229,30.8053609 C62.2527275,30.8641491 62.5716441,30.8101142 62.8760824,30.6432545 C63.1805207,30.4763948 63.3710409,30.1757371 63.4476488,29.7412724 C63.5242566,29.3068077 63.42886,28.8730338 63.161456,28.4399375 C62.894052,28.0068413 62.5144748,27.5470799 62.0227128,27.0606395 C61.5309509,26.5741991 61.1535133,26.1802869 60.8903886,25.8788911 C60.6272639,25.5774953 60.3431782,25.2000435 60.0381228,24.7465245 C59.4633063,23.8732775 59.2790268,22.851813 59.4852786,21.6821004 C59.6915305,20.5123878 60.271527,19.6015646 61.2252855,18.9496033 C62.1790439,18.297642 63.2160273,18.070429 64.3362667,18.2679574 C65.4565061,18.4654858 66.3234202,19.0663122 66.937035,20.0704544 C67.5506499,21.0745967 67.776721,22.0345123 67.6152553,22.9502302 C67.4537895,23.865948 67.1419404,24.6207452 66.6796986,25.2146445 L64.3441458,23.9551256 Z M69.249715,32.3295648 C69.5335712,29.9398881 69.8304785,27.8661254 70.1404456,26.1082145 C70.4504127,24.3503036 70.8139366,22.5226079 71.2310283,20.6250725 L68.7304115,20.5356308 L68.7004642,18.1319854 C70.047482,18.1351768 71.3705365,18.1961724 72.6696674,18.314974 L76.4458054,18.7740534 L76.4334188,21.0668564 C75.6928572,20.9776268 74.8554192,20.8919899 73.9210795,20.8099433 C73.5016308,22.7208468 73.1504818,24.4783608 72.867622,26.082538 C72.5847623,27.6867153 72.2060081,29.9907045 71.731348,32.9945748 L69.249715,32.3295648 Z M76.3789521,28.4499705 L78.8839352,29.8013913 C78.5360715,30.994377 77.69422,32.727393 76.3583556,35.0004912 L74.5427216,34.535617 C75.2893735,32.4067327 75.9014442,30.3782042 76.3789521,28.4499705 Z M90.9335636,23.9551256 C91.2224351,23.3306564 91.4057612,22.7978555 91.4835477,22.3567067 C91.5613341,21.915558 91.505542,21.5301181 91.3161697,21.2003755 C91.1267975,20.8706329 90.842075,20.6722553 90.4619938,20.6052367 C90.0819126,20.5382181 89.7321832,20.6695214 89.4127951,20.9991503 C89.093407,21.3287793 88.891287,21.7342143 88.8064291,22.2154675 C88.6414276,23.1512375 89.0334392,24.0473739 89.9824756,24.9039034 C90.9267977,25.7871691 91.5652165,26.4166234 91.897751,26.7922851 C92.2302855,27.1679467 92.4541735,27.4968791 92.5694216,27.7790922 C92.854006,28.5046771 92.9350107,29.2150306 92.8124382,29.9101741 C92.6002934,31.113307 92.0277559,32.0013243 91.0948085,32.5742525 C90.1618611,33.1471807 89.1886271,33.3442837 88.1750771,33.1655675 C86.9748206,32.9539299 86.0575248,32.2684103 85.4231621,31.1089881 C84.9660141,30.2702729 84.5873701,29.2593333 84.2872188,28.076139 L86.3938031,27.4758353 C86.5591054,28.3320091 86.8228906,29.0780376 87.1851666,29.7139434 C87.5474426,30.3498491 87.9886296,30.7136513 88.5087407,30.8053609 C88.8421453,30.8641491 89.161062,30.8101142 89.4655002,30.6432545 C89.7699385,30.4763948 89.9604588,30.1757371 90.0370666,29.7412724 C90.1136744,29.3068077 90.0182778,28.8730338 89.7508738,28.4399375 C89.4834699,28.0068413 89.1038926,27.5470799 88.6121307,27.0606395 C88.1203687,26.5741991 87.7429311,26.1802869 87.4798064,25.8788911 C87.2166818,25.5774953 86.932596,25.2000435 86.6275406,24.7465245 C86.0527241,23.8732775 85.8684446,22.851813 86.0746965,21.6821004 C86.2809484,20.5123878 86.8609448,19.6015646 87.8147033,18.9496033 C88.7684618,18.297642 89.8054451,18.070429 90.9256845,18.2679574 C92.0459239,18.4654858 92.912838,19.0663122 93.5264529,20.0704544 C94.1400677,21.0745967 94.3661389,22.0345123 94.2046731,22.9502302 C94.0432073,23.865948 93.7313582,24.6207452 93.2691164,25.2146445 L90.9335636,23.9551256 Z M100.156172,32.6424102 L100.187543,29.7740389 L97.1857063,29.3687875 L95.7608306,33.0045487 L93.0026749,32.2701047 L99.1468256,18.3637035 L102.791026,19.3370833 L103.014349,33.3944906 L100.156172,32.6424102 Z M100.056376,21.2314743 L97.6965016,27.2454638 L99.9511121,27.5603102 L100.056376,21.2314743 Z M106.2559,18.0020025 L108.794009,18.6976464 C108.71385,22.1156723 108.782777,25.4289906 109.000792,28.6377008 L109.084344,28.6317578 C110.651954,25.2003342 112.025362,21.8174245 113.204609,18.4829273 L115.806267,19.169101 C114.101879,23.61019 111.936989,28.1285202 109.311533,32.7242271 L107.046411,32.1180692 C106.537056,27.0523134 106.273555,22.3470049 106.2559,18.0020025 Z M114.634807,31.9389998 C114.953894,29.817427 115.279613,27.8142165 115.611973,25.9293083 C115.944334,24.0444 116.483555,21.6101944 117.229653,18.6266184 C119.571426,18.6811581 121.829178,18.9000743 124.002976,19.2833735 L123.568081,21.7497837 C122.061093,21.4840609 120.652565,21.2839419 119.342455,21.1494206 C119.025108,22.6372465 118.789054,23.7810109 118.634288,24.580748 C119.673767,24.6124146 120.889327,24.7371574 122.281004,24.9549801 L122.272153,27.2277311 C121.376272,27.0835468 120.018327,26.9474812 118.198278,26.8195304 C117.915419,28.4237076 117.718195,29.5812104 117.606601,30.2920736 C118.78335,30.4030796 120.205649,30.4471158 121.873542,30.4241835 L121.824682,32.6898798 C120.599178,33.0113575 119.212947,33.0357073 117.66595,32.7629299 L114.634807,31.9389998 Z M40.5071434,56.9329853 C40.7909996,54.5433086 41.0879069,52.4695459 41.397874,50.711635 C41.7078411,48.9537241 42.071365,47.1260284 42.4884566,45.228493 L39.9878399,45.1390513 L39.9578926,42.7354059 C41.3049104,42.7385973 42.6279649,42.7995929 43.9270958,42.9183945 L47.7032338,43.3774739 L47.6908472,45.6702769 C46.9502856,45.5810473 46.1128476,45.4954104 45.1785079,45.4133638 C44.7590591,47.3242673 44.4079102,49.0817813 44.1250504,50.6859585 C43.8421907,52.2901358 43.4634365,54.594125 42.9887764,57.5979953 L40.5071434,56.9329853 Z M51.2745176,46.7535155 L50.887913,49.063036 L53.9203608,49.4116583 C54.2880784,47.3262279 54.7115232,45.119712 55.1907079,42.7920445 L57.7888303,43.4982703 C57.2940155,45.6026414 56.8279881,47.8946879 56.3907341,50.3744785 C55.9534801,52.8542692 55.5878127,55.3569818 55.293721,57.8826915 L52.7720796,57.2106269 C52.8547701,56.0398028 53.106706,54.1820935 53.5278949,51.6374431 L50.5554596,51.2994026 C50.2607508,53.2047336 49.9801576,55.1469831 49.7136715,57.1262094 L47.0355325,56.4058745 C47.3861962,53.5593294 47.7701313,50.9530152 48.1873494,48.5868538 C48.6045675,46.2206923 49.0185522,44.184803 49.4293159,42.4791247 L52.0274382,43.1853505 C51.7376334,44.3610061 51.4866624,45.5503825 51.2745176,46.7535155 Z M63.5611016,43.4507023 C63.068644,45.5417052 62.5890631,47.9106174 62.1223445,50.5575098 C61.655626,53.2044023 61.3168481,55.6326007 61.1060007,57.842178 L58.4478658,57.1253704 C58.755357,54.3676992 59.1029741,51.889371 59.4907276,49.6903114 C59.8784812,47.4912517 60.3492228,45.1724694 60.9029668,42.7338947 L63.5611016,43.4507023 Z M69.9301579,48.5585461 C70.2190294,47.9340769 70.4023556,47.401276 70.480142,46.9601272 C70.5579284,46.5189785 70.5021363,46.1335386 70.3127641,45.803796 C70.1233918,45.4740534 69.8386693,45.2756758 69.4585881,45.2086572 C69.0785069,45.1416386 68.7287775,45.2729419 68.4093894,45.6025708 C68.0900013,45.9321998 67.8878813,46.3376348 67.8030234,46.818888 C67.6380219,47.754658 68.0300335,48.6507944 68.9790699,49.5073239 C69.923392,50.3905896 70.5618108,51.0200439 70.8943453,51.3957056 C71.2268798,51.7713672 71.4507678,52.1002996 71.5660159,52.3825127 C71.8506003,53.1080976 71.931605,53.8184511 71.8090325,54.5135946 C71.5968877,55.7167275 71.0243502,56.6047448 70.0914028,57.177673 C69.1584554,57.7506012 68.1852214,57.9477042 67.1716714,57.768988 C65.971415,57.5573504 65.0541191,56.8718308 64.4197565,55.7124086 C63.9626084,54.8736934 63.5839645,53.8627538 63.2838132,52.6795595 L65.3903974,52.0792558 C65.5556997,52.9354296 65.8194849,53.6814581 66.1817609,54.3173639 C66.5440369,54.9532696 66.9852239,55.3170718 67.505335,55.4087814 C67.8387396,55.4675696 68.1576563,55.4135347 68.4620946,55.246675 C68.7665329,55.0798153 68.9570531,54.7791576 69.0336609,54.3446929 C69.1102688,53.9102282 69.0148721,53.4764543 68.7474681,53.043358 C68.4800642,52.6102618 68.1004869,52.1505004 67.608725,51.66406 C67.1169631,51.1776196 66.7395254,50.7837074 66.4764007,50.4823116 C66.2132761,50.1809158 65.9291903,49.803464 65.624135,49.3499451 C65.0493184,48.476698 64.8650389,47.4552335 65.0712908,46.2855209 C65.2775427,45.1158083 65.8575391,44.2049851 66.8112976,43.5530238 C67.7650561,42.9010625 68.8020394,42.6738495 69.9222788,42.8713779 C71.0425182,43.0689063 71.9094323,43.6697327 72.5230472,44.6738749 C73.136662,45.6780172 73.3627332,46.6379328 73.2012674,47.5536507 C73.0398017,48.4693685 72.7279525,49.2241657 72.2657107,49.818065 L69.9301579,48.5585461 Z M84.147774,42.9146594 C85.7081075,43.1897883 86.803252,44.0169359 87.4332405,45.3961273 C88.063229,46.7753186 88.2238266,48.3405041 87.9150381,50.091731 C87.6769644,51.4419135 87.2390722,52.6775862 86.6013481,53.7987861 C85.963624,54.919986 85.1200402,55.8050071 84.0705713,56.4538758 C83.0211024,57.1027445 81.8895886,57.3201811 80.6759959,57.1061919 C80.4359446,57.0638644 79.5455976,56.8103872 78.0049283,56.3457528 C78.6984252,53.5045233 79.2113461,51.1414899 79.5437063,49.2565817 C79.8760664,47.3716734 80.1837666,45.2756925 80.4668161,42.9685762 C81.8405695,42.7421576 83.0675432,42.7241855 84.147774,42.9146594 Z M83.7243189,53.4150411 C84.5232242,52.432532 85.0340451,51.3096495 85.2567972,50.0463599 C85.4795492,48.7830703 85.4461063,47.7055009 85.1564674,46.8136195 C84.8668284,45.921738 84.4219515,45.4228954 83.8218233,45.3170766 C83.5017549,45.2606399 83.1922667,45.2612031 82.8933496,45.3187661 C82.597834,47.3066575 82.3316327,48.9723274 82.0947376,50.3158258 C81.8578426,51.6593243 81.5709254,53.0525619 81.2339774,54.4955803 C81.3084733,54.6189862 81.4324046,54.6959729 81.605775,54.7265428 C82.2192395,54.8347131 82.9254137,54.3975503 83.7243189,53.4150411 Z M94.2654687,57.2458307 L94.296839,54.3774594 L91.2950025,53.972208 L89.8701269,57.6079692 L87.1119711,56.8735252 L93.2561219,42.967124 L96.9003226,43.9405038 L97.1236453,57.9979111 L94.2654687,57.2458307 Z M94.1656726,45.8348948 L91.8057979,51.8488843 L94.0604084,52.1637307 L94.1656726,45.8348948 Z M99.8813743,56.9329853 C100.165231,54.5433086 100.462138,52.4695459 100.772105,50.711635 C101.082072,48.9537241 101.445596,47.1260284 101.862688,45.228493 L99.3620709,45.1390513 L99.3321236,42.7354059 C100.679141,42.7385973 102.002196,42.7995929 103.301327,42.9183945 L107.077465,43.3774739 L107.065078,45.6702769 C106.324517,45.5810473 105.487079,45.4954104 104.552739,45.4133638 C104.13329,47.3242673 103.782141,49.0817813 103.499281,50.6859585 C103.216422,52.2901358 102.837667,54.594125 102.363007,57.5979953 L99.8813743,56.9329853 Z M106.408135,56.5424203 C106.727222,54.4208475 107.052941,52.417637 107.385301,50.5327288 C107.717661,48.6478205 108.256882,46.2136149 109.00298,43.2300389 C111.344754,43.2845786 113.602506,43.5034948 115.776304,43.886794 L115.341409,46.3532042 C113.83442,46.0874814 112.425892,45.8873624 111.115782,45.7528411 C110.798435,47.240667 110.562382,48.3844314 110.407616,49.1841685 C111.447095,49.2158351 112.662655,49.3405779 114.054332,49.5584006 L114.045481,51.8311516 C113.1496,51.6869673 111.791655,51.5509017 109.971606,51.4229509 C109.688746,53.0271281 109.491523,54.1846309 109.379929,54.8954941 C110.556677,55.0065001 111.978976,55.0505363 113.646869,55.027604 L113.59801,57.2933003 C112.372505,57.614778 110.986275,57.6391278 109.439277,57.3663504 L106.408135,56.5424203 Z M116.110115,52.8853219 C116.221282,50.8511409 116.421238,49.0152792 116.709991,47.3776816 C116.998743,45.740084 117.435987,44.0011967 118.021734,42.1609675 L120.843344,43.237409 C119.719245,45.7132524 118.663171,49.0900907 117.675092,53.3680251 L116.110115,52.8853219 Z M119.186958,54.6781599 C119.286512,54.9713895 119.277361,55.4522008 119.159502,56.120608 C119.041644,56.7890151 118.832421,57.3517087 118.531827,57.8087056 L116.232652,56.9277611 C116.453229,56.4566551 116.611248,55.9504047 116.706713,55.4089949 C116.802178,54.8675851 116.869574,54.4073816 116.908902,54.0283705 L119.186958,54.6781599 Z" transform="rotate(-10 81.5 38)"/>
  </g>
</svg>
