<svg xmlns="http://www.w3.org/2000/svg" width="408" height="133" viewBox="0 0 408 133"><title>Scientists Need Your Help</title><g fill="none" fill-rule="evenodd"><path fill="#688127" d="M23.404 55.268c.544-2.107.816-3.854.816-5.238 0-1.385-.377-2.492-1.13-3.32-.754-.83-1.728-1.187-2.92-1.072-1.194.116-2.188.799-2.984 2.05a7.556 7.556 0 0 0-1.193 4.138c0 2.935 1.675 5.29 5.024 7.068 3.35 1.862 5.631 3.22 6.845 4.07 1.215.85 2.073 1.65 2.575 2.4 1.256 1.94 1.884 4.001 1.884 6.185 0 3.779-1.266 6.91-3.8 9.39-2.532 2.48-5.39 3.867-8.572 4.161-3.768.349-6.929-.951-9.483-3.899C8.624 79.07 6.93 76.358 5.38 73.07l6.091-3.525c.963 2.423 2.167 4.437 3.611 6.041 1.445 1.605 2.983 2.331 4.616 2.179 1.047-.098 1.989-.52 2.826-1.27.838-.75 1.256-1.806 1.256-3.17 0-1.363-.523-2.583-1.57-3.659-1.046-1.076-2.449-2.139-4.207-3.19-1.759-1.049-3.12-1.916-4.082-2.6-.963-.684-2.031-1.578-3.203-2.681-2.22-2.135-3.329-5.034-3.329-8.699 0-3.664 1.277-6.866 3.831-9.606 2.554-2.741 5.59-4.283 9.106-4.626 3.517-.342 6.48.733 8.887 3.228s3.61 5.182 3.61 8.059c0 2.876-.544 5.395-1.632 7.556l-7.787-1.838zm27.758-11.361c-1.843.178-3.454 2.615-4.836 7.31-1.382 4.695-2.073 8.807-2.073 12.339 0 7.4 1.926 10.92 5.778 10.56 1.089-.101 2.041-.664 2.858-1.687.816-1.023 1.402-2.056 1.758-3.1.356-1.043.785-2.473 1.287-4.288l7.976-.12c-1.088 5.285-2.71 9.396-4.867 12.334-2.156 2.936-5.16 4.582-9.012 4.938-4.522.418-8.007-.972-10.456-4.17-2.45-3.196-3.674-7.44-3.674-12.733 0-6.175 1.214-12.298 3.642-18.371 1.173-3.013 2.816-5.557 4.93-7.633 2.115-2.076 4.532-3.247 7.254-3.512 3.35-.326 5.777.553 7.285 2.639a16.702 16.702 0 0 1 1.852 3.168c.482 1.091.827 2.51 1.037 4.26.376 2.786.607 5.796.69 9.032l-8.101.014c0-5.43-.502-8.79-1.507-10.083-.46-.67-1.068-.97-1.821-.897zM79.17 33.8c-.377 6.703-.565 14.232-.565 22.587 0 8.354.272 15.945.816 22.773l-8.478.025c-.544-8.55-.817-16.292-.817-23.227 0-6.935.189-14.299.566-22.093l8.478-.065zm8.227 43.292a754.003 754.003 0 0 1-.251-18.918c0-5.955.334-13.737 1.004-23.347 7.16-1.794 14.151-3.023 20.976-3.686v7.81c-4.731.456-9.127 1.028-13.188 1.715-.168 4.75-.272 8.395-.314 10.936 3.182-.768 6.95-1.402 11.304-1.902l1.193 6.87c-2.805.308-7.013 1.023-12.623 2.145 0 5.072.021 8.726.063 10.963 3.642-.636 7.997-1.677 13.062-3.124l1.068 6.885c-3.559 1.98-7.766 3.195-12.623 3.645l-9.671.008zM142.16 26.91l.063 29.62c0 4.885-.167 10.146-.502 15.784l-7.034-.05c-5.401-11.927-9.818-20.819-13.251-26.681.042 6.269.063 16.27.063 30.002l-7.348-.147a158.028 158.028 0 0 1-.188-7.605c0-10.25.565-22.246 1.695-35.994l8.353.016c4.145 11.177 7.87 19.624 11.178 25.338-.25-12.794-.544-22.868-.879-30.22l7.85-.063zm11.87 43.881c-.419-7.488-.628-14.028-.628-19.62 0-5.592.125-11.44.376-17.546l-7.661 1.823-1.382-7.26a144.049 144.049 0 0 1 12.183-2.778l11.744-1.782 1.193 6.976c-2.302.35-4.898.793-7.787 1.327-.251 6.153-.377 11.784-.377 16.89 0 5.108.084 12.42.252 21.94l-7.913.03zm29.83-47.171c-.377 6.776-.565 14.387-.565 22.833 0 8.446.272 16.12.816 23.023l-8.478.017c-.544-8.644-.816-16.471-.816-23.482 0-7.011.188-14.456.565-22.334l8.478-.057zm22.483 14.168c.544-2.147.816-3.926.816-5.337 0-1.411-.376-2.54-1.13-3.387-.754-.846-1.727-1.212-2.92-1.097-1.194.115-2.188.81-2.983 2.083-.796 1.273-1.194 2.679-1.194 4.217 0 2.99 1.675 5.394 5.024 7.212 3.35 1.905 5.632 3.292 6.846 4.161 1.214.869 2.072 1.686 2.575 2.452 1.256 1.978 1.884 4.08 1.884 6.306 0 3.852-1.267 7.04-3.8 9.565-2.533 2.523-5.39 3.931-8.572 4.225-3.768.348-6.93-.982-9.483-3.991-1.842-2.177-3.538-4.943-5.087-8.298l6.092-3.582c.963 2.472 2.166 4.526 3.61 6.164 1.445 1.638 2.984 2.381 4.617 2.23 1.046-.098 1.988-.528 2.826-1.29.837-.763 1.256-1.839 1.256-3.228 0-1.39-.524-2.634-1.57-3.733-1.047-1.099-2.45-2.185-4.208-3.258s-3.12-1.96-4.082-2.658c-.963-.7-2.03-1.612-3.203-2.74-2.219-2.18-3.328-5.136-3.328-8.872 0-3.735 1.277-6.996 3.83-9.784 2.554-2.789 5.59-4.355 9.107-4.698 3.517-.342 6.479.76 8.886 3.307 2.407 2.548 3.611 5.288 3.611 8.22 0 2.932-.544 5.498-1.633 7.7l-7.787-1.889zm19.97 26.307c-.418-7.545-.627-14.134-.627-19.768s.125-11.526.376-17.677l-7.661 1.83-1.382-7.314a143.066 143.066 0 0 1 12.183-2.79l11.744-1.787 1.193 7.029c-2.302.351-4.898.795-7.787 1.331-.251 6.2-.377 11.872-.377 17.017 0 5.146.084 12.513.252 22.103l-7.913.026zm34.164-31.479c.545-2.159.817-3.948.817-5.367s-.377-2.554-1.13-3.406c-.754-.852-1.728-1.22-2.92-1.105-1.194.116-2.188.813-2.984 2.093-.795 1.28-1.193 2.693-1.193 4.24 0 3.007 1.675 5.425 5.024 7.255 3.35 1.917 5.631 3.314 6.845 4.188 1.214.874 2.073 1.697 2.575 2.467 1.256 1.99 1.884 4.104 1.884 6.342 0 3.873-1.266 7.079-3.8 9.616-2.532 2.536-5.39 3.95-8.572 4.245-3.768.348-6.929-.992-9.483-4.019-1.842-2.19-3.537-4.972-5.087-8.346l6.092-3.6c.963 2.487 2.167 4.553 3.611 6.201 1.445 1.648 2.983 2.396 4.616 2.244 1.047-.098 1.989-.53 2.826-1.295.838-.766 1.256-1.848 1.256-3.246 0-1.397-.523-2.649-1.57-3.754-1.047-1.105-2.45-2.198-4.208-3.279-1.758-1.08-3.119-1.971-4.082-2.675-.963-.703-2.03-1.622-3.202-2.756-2.22-2.193-3.329-5.167-3.329-8.923 0-3.756 1.277-7.035 3.831-9.837 2.554-2.804 5.59-4.377 9.106-4.72 3.517-.342 6.48.768 8.886 3.33 2.408 2.564 3.612 5.32 3.612 8.269 0 2.948-.545 5.528-1.633 7.74l-7.788-1.902zM317.94 9.805l.063 30.161c0 4.974-.167 10.331-.502 16.071l-7.034-.061c-5.4-12.156-9.818-21.217-13.251-27.193.042 6.384.063 16.567.063 30.551l-7.348-.162a164.451 164.451 0 0 1-.188-7.745c0-10.436.565-22.652 1.695-36.649l8.353.031c4.145 11.389 7.87 19.997 11.178 25.82-.25-13.028-.544-23.286-.879-30.773l7.85-.05zm7.474 45.24a792.017 792.017 0 0 1-.252-19.389c0-6.103.335-14.077 1.005-23.924 7.16-1.821 14.151-3.064 20.976-3.727v8.003c-4.731.456-9.127 1.031-13.188 1.726-.168 4.868-.273 8.604-.314 11.207 3.182-.78 6.95-1.42 11.304-1.922l1.193 7.043c-2.805.309-7.013 1.032-12.623 2.168 0 5.199.02 8.944.063 11.236 3.642-.643 7.996-1.7 13.062-3.171l1.068 7.058c-3.559 2.021-7.766 3.256-12.623 3.706l-9.671-.014zm28.072-2.6A796.562 796.562 0 0 1 353.234 33c0-6.12.335-14.117 1.005-23.992 7.16-1.824 14.151-3.069 20.976-3.732v8.026c-4.731.456-9.127 1.032-13.188 1.727-.168 4.882-.272 8.629-.314 11.24 3.182-.782 6.95-1.423 11.304-1.925l1.193 7.063c-2.805.31-7.013 1.033-12.623 2.172 0 5.213.021 8.969.063 11.267 3.642-.644 7.996-1.703 13.062-3.176l1.068 7.078c-3.559 2.026-7.766 3.264-12.623 3.713l-9.671-.016zm38.308-49.63c4.899-.477 8.677 1.161 11.336 4.917 2.659 3.758 3.988 8.496 3.988 14.213 0 4.408-.67 8.629-2.01 12.66-1.34 4.03-3.433 7.498-6.28 10.402-2.847 2.902-6.175 4.529-9.985 4.881-.754.07-3.6.029-8.541-.123.586-9.413.879-17.189.879-23.326 0-6.138-.188-12.91-.565-20.317 4.06-1.875 7.787-2.978 11.178-3.308zm4.365 33.089c1.905-3.733 2.857-7.66 2.857-11.781s-.68-7.446-2.04-9.976c-1.361-2.528-2.984-3.701-4.868-3.52a8.096 8.096 0 0 0-2.826.796c.168 6.432.251 11.837.251 16.215 0 4.379-.125 8.954-.376 13.726.293.321.711.457 1.256.406 1.926-.18 3.841-2.135 5.746-5.866zm-317.428 83.9v-4.874c-5.484-11.195-8.52-19.332-9.106-24.422l7.85.042c.921 4.642 2.847 10.122 5.778 16.443 3.475-7.955 6.175-15.106 8.101-21.45l7.285.03c-3.098 9.203-6.824 18.604-11.178 28.202a462.72 462.72 0 0 0-.126 10.02c0 2.872.084 5.758.251 8.657l-8.29-.166c-.376-3.891-.565-8.052-.565-12.483zm24.022 6.731c-2.743-3.376-4.114-8.753-4.114-16.131 0-7.379 1.497-13.529 4.49-18.453 2.994-4.927 6.521-7.577 10.582-7.95 4.062-.372 7.442 1.14 10.143 4.54 2.7 3.4 4.05 8.77 4.05 16.108 0 7.337-1.507 13.492-4.521 18.463-3.015 4.968-6.521 7.624-10.52 7.97-3.998.348-7.368-1.169-10.11-4.547zM109 96.909c-1.34 3.402-2.01 7.588-2.01 12.56 0 4.973.576 8.604 1.728 10.894 1.151 2.29 2.585 3.361 4.302 3.211 1.716-.15 3.234-1.935 4.553-5.355 1.318-3.422 1.978-7.622 1.978-12.601 0-4.98-.555-8.605-1.664-10.878-1.11-2.272-2.481-3.333-4.114-3.185-1.842.167-3.433 1.952-4.773 5.354zm32.217 14.577c0 2.208.482 4.14 1.445 5.798.963 1.657 2.103 2.428 3.422 2.312 1.32-.116 2.376-.803 3.172-2.063.795-1.26 1.36-2.883 1.695-4.868.587-3.496.88-7.508.88-12.036s-.273-11.147-.817-19.855l8.541.11c.586 8.713.88 14.644.88 17.793 0 3.15-.043 5.356-.126 6.618a54.796 54.796 0 0 1-.503 4.417 38.337 38.337 0 0 1-1.004 4.748 28.977 28.977 0 0 1-1.696 4.489c-.712 1.509-1.55 2.815-2.512 3.92-2.135 2.525-5.035 3.946-8.698 4.265-3.664.318-6.793-1.066-9.389-4.152-2.596-3.083-3.894-6.66-3.894-10.734 0-8.954.482-18.545 1.445-28.775l8.54.047a286.186 286.186 0 0 0-1.38 27.966zm25.749 13.306c.544-10.268.816-19.406.816-27.412 0-8.007-.02-13.265-.063-15.773 4.606-2.637 9.4-4.185 14.382-4.642 3.684-.338 6.772.574 9.263 2.737 2.491 2.164 3.737 5.424 3.737 9.78 0 5.04-3.496 10.2-10.488 15.474 3.81 4.527 7.703 9.542 11.68 15.044l-6.028 5.072c-2.638-3.826-7.369-10.025-14.193-18.59a763.134 763.134 0 0 1-.565 18.527l-8.541-.217zm17.207-28.916c2.177-2.392 3.266-4.485 3.266-6.278 0-1.792-.513-3.133-1.539-4.02-1.026-.889-2.376-1.257-4.05-1.104-1.675.152-3.517.682-5.527 1.59 0 7.203-.02 12.554-.063 16.053 3.098-1.768 5.736-3.849 7.913-6.24zm39.69-8.799l.063 7.384 9.42-1.422c0-6.69.105-13.795.314-21.318l8.29.012c-.377 6.858-.565 14.266-.565 22.227 0 7.96.23 15.932.69 23.917l-8.038-.008c-.377-3.655-.607-9.552-.69-17.691l-9.232 1.398c.125 6.072.314 12.245.565 18.52l-8.541-.028c-.46-8.99-.691-17.273-.691-24.848 0-7.575.168-14.139.502-19.69l8.29.012c-.251 3.835-.377 7.68-.377 11.535zM249.8 117.27a780.012 780.012 0 0 1-.251-19.24c0-6.057.335-13.968 1.005-23.736 7.16-1.772 14.15-2.97 20.975-3.595v7.942c-4.73.43-9.127.978-13.188 1.648-.167 4.83-.272 8.536-.314 11.119 3.182-.758 6.95-1.375 11.304-1.852l1.194 6.995c-2.806.292-7.013.99-12.623 2.09 0 5.158.02 8.874.062 11.149 3.643-.62 7.997-1.648 13.063-3.082l1.068 7.009c-3.56 1.988-7.767 3.193-12.623 3.615l-9.672-.062zm28.7-3.142c-.544-8.826-.816-16.932-.816-24.319 0-7.387.23-14.116.69-20.189l8.353.011c-.628 7.473-.942 14.592-.942 21.36 0 6.769.105 11.738.314 14.91 1.507-.348 5.213-1.105 11.116-2.27l1.256 7.4c-3.14.662-7.578 1.695-13.314 3.1l-6.657-.003zm23.362-.543c-.167-4.865-.25-10.719-.25-17.563 0-6.844.208-16.005.627-27.486 3.517-1.661 7.128-2.662 10.833-3.001 3.706-.34 7.013.773 9.923 3.342 2.91 2.57 4.364 6.008 4.364 10.316 0 4.308-1.58 8.172-4.741 11.591-3.161 3.418-7.295 6.087-12.403 8.008 0 4.84.063 9.805.188 14.894l-8.54-.101zm16.894-33.26c0-2.292-.576-4.1-1.727-5.423-1.152-1.322-2.44-1.919-3.863-1.79-.376.035-1.235.221-2.574.559a659.903 659.903 0 0 0-.377 17.731c2.637-1.1 4.72-2.647 6.248-4.643 1.529-1.996 2.293-4.141 2.293-6.433zm13.879 16.747c-.754-6.387-1.13-12.232-1.13-17.538 0-5.306.397-11.048 1.193-17.228l9.169.98c-2.094 8.6-3.496 19.931-4.208 33.993l-5.024-.207zm5.966 3.504c.46.827.69 2.324.69 4.49 0 2.168-.334 4.083-1.004 5.745l-7.473-.846c.418-1.638.628-3.335.628-5.089 0-1.754-.042-3.234-.126-4.439l7.285.14z"/><path fill="#FFF" d="M18.404 53.268c.544-2.107.816-3.854.816-5.238 0-1.385-.377-2.492-1.13-3.32-.754-.83-1.728-1.187-2.92-1.072-1.194.116-2.188.799-2.984 2.05a7.556 7.556 0 0 0-1.193 4.138c0 2.935 1.675 5.29 5.024 7.068 3.35 1.862 5.631 3.22 6.845 4.07 1.215.85 2.073 1.65 2.575 2.4 1.256 1.94 1.884 4.001 1.884 6.185 0 3.779-1.266 6.91-3.8 9.39-2.532 2.48-5.39 3.867-8.572 4.161-3.768.349-6.929-.951-9.483-3.899C3.624 77.07 1.93 74.358.38 71.07l6.091-3.525c.963 2.423 2.167 4.437 3.611 6.041 1.445 1.605 2.983 2.331 4.616 2.179 1.047-.098 1.989-.52 2.826-1.27.838-.75 1.256-1.806 1.256-3.17 0-1.363-.523-2.583-1.57-3.659-1.046-1.076-2.449-2.139-4.207-3.19-1.759-1.049-3.12-1.916-4.082-2.6-.963-.684-2.031-1.578-3.203-2.681-2.22-2.135-3.329-5.034-3.329-8.699 0-3.664 1.277-6.866 3.831-9.606 2.554-2.741 5.59-4.283 9.106-4.626 3.517-.342 6.48.733 8.887 3.228s3.61 5.182 3.61 8.059c0 2.876-.544 5.395-1.632 7.556l-7.787-1.838zm27.758-11.361c-1.843.178-3.454 2.615-4.836 7.31-1.382 4.695-2.073 8.807-2.073 12.339 0 7.4 1.926 10.92 5.778 10.56 1.089-.101 2.041-.664 2.858-1.687.816-1.023 1.402-2.056 1.758-3.1.356-1.043.785-2.473 1.287-4.288l7.976-.12c-1.088 5.285-2.71 9.396-4.867 12.334-2.156 2.936-5.16 4.582-9.012 4.938-4.522.418-8.007-.972-10.456-4.17-2.45-3.196-3.674-7.44-3.674-12.733 0-6.175 1.214-12.298 3.642-18.371 1.173-3.013 2.816-5.557 4.93-7.633 2.115-2.076 4.532-3.247 7.254-3.512 3.35-.326 5.777.553 7.285 2.639a16.702 16.702 0 0 1 1.852 3.168c.482 1.091.827 2.51 1.037 4.26.376 2.786.607 5.796.69 9.032l-8.101.014c0-5.43-.502-8.79-1.507-10.083-.46-.67-1.068-.97-1.821-.897zM74.17 31.8c-.377 6.703-.565 14.232-.565 22.587 0 8.354.272 15.945.816 22.773l-8.478.025c-.544-8.55-.817-16.292-.817-23.227 0-6.935.189-14.299.566-22.093l8.478-.065zm8.227 43.292a754.003 754.003 0 0 1-.251-18.918c0-5.955.334-13.737 1.004-23.347 7.16-1.794 14.151-3.023 20.976-3.686v7.81c-4.731.456-9.127 1.028-13.188 1.715-.168 4.75-.272 8.395-.314 10.936 3.182-.768 6.95-1.402 11.304-1.902l1.193 6.87c-2.805.308-7.013 1.023-12.623 2.145 0 5.072.021 8.726.063 10.963 3.642-.636 7.997-1.677 13.062-3.124l1.068 6.885c-3.559 1.98-7.766 3.195-12.623 3.645l-9.671.008zM137.16 24.91l.063 29.62c0 4.885-.167 10.146-.502 15.784l-7.034-.05c-5.401-11.927-9.818-20.819-13.251-26.681.042 6.269.063 16.27.063 30.002l-7.348-.147a158.028 158.028 0 0 1-.188-7.605c0-10.25.565-22.246 1.695-35.994l8.353.016c4.145 11.177 7.87 19.624 11.178 25.338-.25-12.794-.544-22.868-.879-30.22l7.85-.063zm11.87 43.881c-.419-7.488-.628-14.028-.628-19.62 0-5.592.125-11.44.376-17.546l-7.661 1.823-1.382-7.26a144.049 144.049 0 0 1 12.183-2.778l11.744-1.782 1.193 6.976c-2.302.35-4.898.793-7.787 1.327-.251 6.153-.377 11.784-.377 16.89 0 5.108.084 12.42.252 21.94l-7.913.03zm29.83-47.171c-.377 6.776-.565 14.387-.565 22.833 0 8.446.272 16.12.816 23.023l-8.478.017c-.544-8.644-.816-16.471-.816-23.482 0-7.011.188-14.456.565-22.334l8.478-.057zm22.483 14.168c.544-2.147.816-3.926.816-5.337 0-1.411-.376-2.54-1.13-3.387-.754-.846-1.727-1.212-2.92-1.097-1.194.115-2.188.81-2.983 2.083-.796 1.273-1.194 2.679-1.194 4.217 0 2.99 1.675 5.394 5.024 7.212 3.35 1.905 5.632 3.292 6.846 4.161 1.214.869 2.072 1.686 2.575 2.452 1.256 1.978 1.884 4.08 1.884 6.306 0 3.852-1.267 7.04-3.8 9.565-2.533 2.523-5.39 3.931-8.572 4.225-3.768.348-6.93-.982-9.483-3.991-1.842-2.177-3.538-4.943-5.087-8.298l6.092-3.582c.963 2.472 2.166 4.526 3.61 6.164 1.445 1.638 2.984 2.381 4.617 2.23 1.046-.098 1.988-.528 2.826-1.29.837-.763 1.256-1.839 1.256-3.228 0-1.39-.524-2.634-1.57-3.733-1.047-1.099-2.45-2.185-4.208-3.258s-3.12-1.96-4.082-2.658c-.963-.7-2.03-1.612-3.203-2.74-2.219-2.18-3.328-5.136-3.328-8.872 0-3.735 1.277-6.996 3.83-9.784 2.554-2.789 5.59-4.355 9.107-4.698 3.517-.342 6.479.76 8.886 3.307 2.407 2.548 3.611 5.288 3.611 8.22 0 2.932-.544 5.498-1.633 7.7l-7.787-1.889zm19.97 26.307c-.418-7.545-.627-14.134-.627-19.768s.125-11.526.376-17.677l-7.661 1.83-1.382-7.314a143.066 143.066 0 0 1 12.183-2.79l11.744-1.787 1.193 7.029c-2.302.351-4.898.795-7.787 1.331-.251 6.2-.377 11.872-.377 17.017 0 5.146.084 12.513.252 22.103l-7.913.026zm34.164-31.479c.545-2.159.817-3.948.817-5.367s-.377-2.554-1.13-3.406c-.754-.852-1.728-1.22-2.92-1.105-1.194.116-2.188.813-2.984 2.093-.795 1.28-1.193 2.693-1.193 4.24 0 3.007 1.675 5.425 5.024 7.255 3.35 1.917 5.631 3.314 6.845 4.188 1.214.874 2.073 1.697 2.575 2.467 1.256 1.99 1.884 4.104 1.884 6.342 0 3.873-1.266 7.079-3.8 9.616-2.532 2.536-5.39 3.95-8.572 4.245-3.768.348-6.929-.992-9.483-4.019-1.842-2.19-3.537-4.972-5.087-8.346l6.092-3.6c.963 2.487 2.167 4.553 3.611 6.201 1.445 1.648 2.983 2.396 4.616 2.244 1.047-.098 1.989-.53 2.826-1.295.838-.766 1.256-1.848 1.256-3.246 0-1.397-.523-2.649-1.57-3.754-1.047-1.105-2.45-2.198-4.208-3.279-1.758-1.08-3.119-1.971-4.082-2.675-.963-.703-2.03-1.622-3.202-2.756-2.22-2.193-3.329-5.167-3.329-8.923 0-3.756 1.277-7.035 3.831-9.837 2.554-2.804 5.59-4.377 9.106-4.72 3.517-.342 6.48.768 8.886 3.33 2.408 2.564 3.612 5.32 3.612 8.269 0 2.948-.545 5.528-1.633 7.74l-7.788-1.902zM312.94 7.805l.063 30.161c0 4.974-.167 10.331-.502 16.071l-7.034-.061c-5.4-12.156-9.818-21.217-13.251-27.193.042 6.384.063 16.567.063 30.551l-7.348-.162a164.451 164.451 0 0 1-.188-7.745c0-10.436.565-22.652 1.695-36.649l8.353.031c4.145 11.389 7.87 19.997 11.178 25.82-.25-13.028-.544-23.286-.879-30.773l7.85-.05zm7.474 45.24a792.017 792.017 0 0 1-.252-19.389c0-6.103.335-14.077 1.005-23.924 7.16-1.821 14.151-3.064 20.976-3.727v8.003c-4.731.456-9.127 1.031-13.188 1.726-.168 4.868-.273 8.604-.314 11.207 3.182-.78 6.95-1.42 11.304-1.922l1.193 7.043c-2.805.309-7.013 1.032-12.623 2.168 0 5.199.02 8.944.063 11.236 3.642-.643 7.996-1.7 13.062-3.171l1.068 7.058c-3.559 2.021-7.766 3.256-12.623 3.706l-9.671-.014zm28.072-2.6A796.562 796.562 0 0 1 348.234 31c0-6.12.335-14.117 1.005-23.992 7.16-1.824 14.151-3.069 20.976-3.732v8.026c-4.731.456-9.127 1.032-13.188 1.727-.168 4.882-.272 8.629-.314 11.24 3.182-.782 6.95-1.423 11.304-1.925l1.193 7.063c-2.805.31-7.013 1.033-12.623 2.172 0 5.213.021 8.969.063 11.267 3.642-.644 7.996-1.703 13.062-3.176l1.068 7.078c-3.559 2.026-7.766 3.264-12.623 3.713l-9.671-.016zM386.794.815c4.899-.477 8.677 1.161 11.336 4.917 2.659 3.758 3.988 8.496 3.988 14.213 0 4.408-.67 8.629-2.01 12.66-1.34 4.03-3.433 7.498-6.28 10.402-2.847 2.902-6.175 4.529-9.985 4.881-.754.07-3.6.029-8.541-.123.586-9.413.879-17.189.879-23.326 0-6.138-.188-12.91-.565-20.317 4.06-1.875 7.787-2.978 11.178-3.308zm4.365 33.089c1.905-3.733 2.857-7.66 2.857-11.781s-.68-7.446-2.04-9.976c-1.361-2.528-2.984-3.701-4.868-3.52a8.096 8.096 0 0 0-2.826.796c.168 6.432.251 11.837.251 16.215 0 4.379-.125 8.954-.376 13.726.293.321.711.457 1.256.406 1.926-.18 3.841-2.135 5.746-5.866zm-317.428 83.9v-4.874c-5.484-11.195-8.52-19.332-9.106-24.422l7.85.042c.921 4.642 2.847 10.122 5.778 16.443 3.475-7.955 6.175-15.106 8.101-21.45l7.285.03c-3.098 9.203-6.824 18.604-11.178 28.202a462.72 462.72 0 0 0-.126 10.02c0 2.872.084 5.758.251 8.657l-8.29-.166c-.376-3.891-.565-8.052-.565-12.483zm24.022 6.731c-2.743-3.376-4.114-8.753-4.114-16.131 0-7.379 1.497-13.529 4.49-18.453 2.994-4.927 6.521-7.577 10.582-7.95 4.062-.372 7.442 1.14 10.143 4.54 2.7 3.4 4.05 8.77 4.05 16.108 0 7.337-1.507 13.492-4.521 18.463-3.015 4.968-6.521 7.624-10.52 7.97-3.998.348-7.368-1.169-10.11-4.547zM104 94.909c-1.34 3.402-2.01 7.588-2.01 12.56 0 4.973.576 8.604 1.728 10.894 1.151 2.29 2.585 3.361 4.302 3.211 1.716-.15 3.234-1.935 4.553-5.355 1.318-3.422 1.978-7.622 1.978-12.601 0-4.98-.555-8.605-1.664-10.878-1.11-2.272-2.481-3.333-4.114-3.185-1.842.167-3.433 1.952-4.773 5.354zm32.217 14.577c0 2.208.482 4.14 1.445 5.798.963 1.657 2.103 2.428 3.422 2.312 1.32-.116 2.376-.803 3.172-2.063.795-1.26 1.36-2.883 1.695-4.868.587-3.496.88-7.508.88-12.036s-.273-11.147-.817-19.855l8.541.11c.586 8.713.88 14.644.88 17.793 0 3.15-.043 5.356-.126 6.618a54.796 54.796 0 0 1-.503 4.417 38.337 38.337 0 0 1-1.004 4.748 28.977 28.977 0 0 1-1.696 4.489c-.712 1.509-1.55 2.815-2.512 3.92-2.135 2.525-5.035 3.946-8.698 4.265-3.664.318-6.793-1.066-9.389-4.152-2.596-3.083-3.894-6.66-3.894-10.734 0-8.954.482-18.545 1.445-28.775l8.54.047a286.186 286.186 0 0 0-1.38 27.966zm25.749 13.306c.544-10.268.816-19.406.816-27.412 0-8.007-.02-13.265-.063-15.773 4.606-2.637 9.4-4.185 14.382-4.642 3.684-.338 6.772.574 9.263 2.737 2.491 2.164 3.737 5.424 3.737 9.78 0 5.04-3.496 10.2-10.488 15.474 3.81 4.527 7.703 9.542 11.68 15.044l-6.028 5.072c-2.638-3.826-7.369-10.025-14.193-18.59a763.134 763.134 0 0 1-.565 18.527l-8.541-.217zm17.207-28.916c2.177-2.392 3.266-4.485 3.266-6.278 0-1.792-.513-3.133-1.539-4.02-1.026-.889-2.376-1.257-4.05-1.104-1.675.152-3.517.682-5.527 1.59 0 7.203-.02 12.554-.063 16.053 3.098-1.768 5.736-3.849 7.913-6.24zm39.69-8.799l.063 7.384 9.42-1.422c0-6.69.105-13.795.314-21.318l8.29.012c-.377 6.858-.565 14.266-.565 22.227 0 7.96.23 15.932.69 23.917l-8.038-.008c-.377-3.655-.607-9.552-.69-17.691l-9.232 1.398c.125 6.072.314 12.245.565 18.52l-8.541-.028c-.46-8.99-.691-17.273-.691-24.848 0-7.575.168-14.139.502-19.69l8.29.012c-.251 3.835-.377 7.68-.377 11.535zM244.8 115.27a780.012 780.012 0 0 1-.251-19.24c0-6.057.335-13.968 1.005-23.736 7.16-1.772 14.15-2.97 20.975-3.595v7.942c-4.73.43-9.127.978-13.188 1.648-.167 4.83-.272 8.536-.314 11.119 3.182-.758 6.95-1.375 11.304-1.852l1.194 6.995c-2.806.292-7.013.99-12.623 2.09 0 5.158.02 8.874.062 11.149 3.643-.62 7.997-1.648 13.063-3.082l1.068 7.009c-3.56 1.988-7.767 3.193-12.623 3.615l-9.672-.062zm28.7-3.142c-.544-8.826-.816-16.932-.816-24.319 0-7.387.23-14.116.69-20.189l8.353.011c-.628 7.473-.942 14.592-.942 21.36 0 6.769.105 11.738.314 14.91 1.507-.348 5.213-1.105 11.116-2.27l1.256 7.4c-3.14.662-7.578 1.695-13.314 3.1l-6.657-.003zm23.362-.543c-.167-4.865-.25-10.719-.25-17.563 0-6.844.208-16.005.627-27.486 3.517-1.661 7.128-2.662 10.833-3.001 3.706-.34 7.013.773 9.923 3.342 2.91 2.57 4.364 6.008 4.364 10.316 0 4.308-1.58 8.172-4.741 11.591-3.161 3.418-7.295 6.087-12.403 8.008 0 4.84.063 9.805.188 14.894l-8.54-.101zm16.894-33.26c0-2.292-.576-4.1-1.727-5.423-1.152-1.322-2.44-1.919-3.863-1.79-.376.035-1.235.221-2.574.559a659.903 659.903 0 0 0-.377 17.731c2.637-1.1 4.72-2.647 6.248-4.643 1.529-1.996 2.293-4.141 2.293-6.433zm13.879 16.747c-.754-6.387-1.13-12.232-1.13-17.538 0-5.306.397-11.048 1.193-17.228l9.169.98c-2.094 8.6-3.496 19.931-4.208 33.993l-5.024-.207zm5.966 3.504c.46.827.69 2.324.69 4.49 0 2.168-.334 4.083-1.004 5.745l-7.473-.846c.418-1.638.628-3.335.628-5.089 0-1.754-.042-3.234-.126-4.439l7.285.14z"/></g></svg>