<svg xmlns="http://www.w3.org/2000/svg" aria-labelledby="seeitsvg" width="173" height="172" viewBox="0 0 173 172" xmlns:xlink="http://www.w3.org/1999/xlink">
  <title id="seeitsvg">See It</title>
  <defs>
    <path id="b2" d="M60.8010337,128.016158 L75.7378947,150.620313 L98.4493648,115.671876 L140.6898,113.120313 L128.337142,88.8579248 L150.737895,75.6203132 L113.608233,47.2041221 L113.237895,10.6684079 L90.6013597,20.0782652 L75.7378947,0.620313183 L50.6144961,32.9649197 L10.7859894,38.1203132 L19.9833581,60.7005413 L0.737894682,75.6203132 L31.9096776,94.2797103 L38.2378947,140.572218 L60.8010337,128.016158 Z"/>
    <filter id="a2" width="123.7%" height="123.5%" x="-7.4%" y="-7.2%" filterUnits="objectBoundingBox">
      <feMorphology radius="2" operator="dilate" in="SourceAlpha" result="shadowSpreadOuter1"/>
      <feOffset dx="15" dy="15" in="shadowSpreadOuter1" result="shadowOffsetOuter1"/>
      <feComposite in="shadowOffsetOuter1" in2="SourceAlpha" operator="out" result="shadowOffsetOuter1"/>
      <feColorMatrix values="0 0 0 0 0.0431372549 0 0 0 0 0 0 0 0 0 0.294117647 0 0 0 0.190613678 0" in="shadowOffsetOuter1"/>
    </filter>
    <path id="d2" d="M59.0785425,58.3700278 C59.5331851,57.3887289 59.8216265,56.551438 59.9438754,55.8581299 C60.0661243,55.1648217 59.9779896,54.5589858 59.6794685,54.0406038 C59.3809475,53.5222218 58.9323107,53.2102462 58.3335446,53.1046676 C57.7347784,52.9990889 57.1839518,53.2052344 56.681048,53.7231101 C56.1781442,54.2409858 55.8600159,54.8780821 55.7266534,55.6344183 C55.4673375,57.1050719 56.0854309,58.5137915 57.5809523,59.8606194 C59.0690646,61.2494659 60.0751391,62.2391972 60.5992061,62.8298428 C61.1232731,63.4204885 61.4761644,63.9376193 61.6578907,64.3812509 C62.1066497,65.5218438 62.2347099,66.6383662 62.0420752,67.7308518 C61.7086691,69.6216921 60.8073513,71.0170296 59.338095,71.9169061 C57.8688387,72.8167826 56.3358787,73.1259447 54.739169,72.8444017 C52.8483287,72.5109956 51.4029169,71.4329662 50.4028904,69.6102813 C49.6822277,68.2917692 49.0851177,66.7026206 48.6115423,64.842788 L51.9295524,63.9006411 C52.1904964,65.2464051 52.6065045,66.4191161 53.1775894,67.4188093 C53.7486742,68.4185025 54.4438883,68.9905785 55.2632524,69.1350545 C55.7884859,69.2276674 56.2908245,69.1429455 56.7702835,68.8808863 C57.2497424,68.6188272 57.5496657,68.146403 57.6700624,67.4635995 C57.7904591,66.7807961 57.6399061,66.0989675 57.2183991,65.4180932 C56.796892,64.7372189 56.1986668,64.0143625 55.4237055,63.2495022 C54.6487442,62.4846418 54.0539319,61.8652827 53.6392506,61.3914062 C53.2245694,60.9175296 52.7768202,60.3241017 52.2959896,59.6111046 C51.3899475,58.2382425 51.0990032,56.632677 51.4231481,54.79436 C51.747293,52.956043 52.6603458,51.5248659 54.1623338,50.5007856 C55.6643219,49.4767053 57.2976836,49.1202601 59.0624679,49.4314392 C60.8272523,49.7426183 62.1932457,50.6875019 63.1604892,52.2661183 C64.1277328,53.8447347 64.4844696,55.35359 64.2307105,56.7927296 C63.9769514,58.2318692 63.4861972,59.4179913 62.7584333,60.3511315 L59.0785425,58.3700278 Z M64.7104242,70.9142206 C65.2116999,67.5799272 65.7234983,64.4316695 66.2458346,61.469353 C66.7681709,58.5070365 67.616011,54.6815166 68.7893804,49.9926786 C72.4782944,50.0799076 76.034959,50.4254347 79.4594809,51.0292703 L78.7760017,54.9054736 C76.4019466,54.4868637 74.1830337,54.1714272 72.1191964,53.9591548 C71.6202536,56.2973825 71.2491477,58.0948973 71.0058676,59.351753 C72.6433269,59.4021932 74.5582178,59.5990358 76.7505979,59.9422864 L76.7381194,63.5143878 C75.3267893,63.2871948 73.1875992,63.0724645 70.3204848,62.8701905 C69.8759433,65.3913109 69.5660122,67.2104436 69.3906824,68.3276429 C71.2444263,68.5028702 73.4849314,68.5729984 76.112265,68.5380298 L76.0367588,72.0990177 C74.1064892,72.6034982 71.9228456,72.6408762 69.4857625,72.2111527 L64.7104242,70.9142206 Z M79.0144242,70.9142206 C79.5156999,67.5799272 80.0274983,64.4316695 80.5498346,61.469353 C81.0721709,58.5070365 81.920011,54.6815166 83.0933804,49.9926786 C86.7822944,50.0799076 90.338959,50.4254347 93.7634809,51.0292703 L93.0800017,54.9054736 C90.7059466,54.4868637 88.4870337,54.1714272 86.4231964,53.9591548 C85.9242536,56.2973825 85.5531477,58.0948973 85.3098676,59.351753 C86.9473269,59.4021932 88.8622178,59.5990358 91.0545979,59.9422864 L91.0421194,63.5143878 C89.6307893,63.2871948 87.4915992,63.0724645 84.6244848,62.8701905 C84.1799433,65.3913109 83.8700122,67.2104436 83.6946824,68.3276429 C85.5484263,68.5028702 87.7889314,68.5729984 90.416265,68.5380298 L90.3407588,72.0990177 C88.4104892,72.6034982 86.2268456,72.6408762 83.7897625,72.2111527 L79.0144242,70.9142206 Z M69.3775608,80.3425747 C68.6031637,83.6287093 67.8492297,87.3516452 67.1157361,91.5114939 C66.3822426,95.6713427 65.8501467,99.4875501 65.5194324,102.960231 L61.3317438,101.831904 C61.8143431,97.497841 62.3603307,93.6028497 62.9697231,90.1468138 C63.5791155,86.6907778 64.3191578,83.0466258 65.1898722,79.2142484 L69.3775608,80.3425747 Z M71.9485901,101.529672 C72.3941955,97.7739742 72.860563,94.5148103 73.3477064,91.7520825 C73.8348499,88.9893546 74.4063137,86.1169798 75.0621151,83.1348716 L71.122961,82.9926846 L71.0742384,79.2148299 C73.1961302,79.2207134 75.280311,79.317433 77.3268435,79.5049915 L83.2755005,80.2289638 L83.2574653,83.832579 C82.0908382,83.6918588 80.7716088,83.556723 79.2997374,83.4271677 C78.6402315,86.4302851 78.0882161,89.1923627 77.6436745,91.7134831 C77.199133,94.2346036 76.6039843,97.8555643 75.8582108,102.576474 L71.9485901,101.529672 Z"/>
    <filter id="c2" width="135.4%" height="129.8%" x="-11.1%" y="-7.5%" filterUnits="objectBoundingBox">
      <feOffset dx="3" dy="4" in="SourceAlpha" result="shadowOffsetOuter1"/>
      <feGaussianBlur stdDeviation="2" in="shadowOffsetOuter1" result="shadowBlurOuter1"/>
      <feColorMatrix values="0 0 0 0 0.584313725 0 0 0 0 0 0 0 0 0 0.0509803922 0 0 0 1 0" in="shadowBlurOuter1"/>
    </filter>
  </defs>
  <g fill="none" fill-rule="evenodd" transform="translate(3.346 3)">
    <use fill="black" filter="url(#a2)" xlink:href="#b2"/>
    <use fill="#C93B3E" xlink:href="#b2"/>
    <path stroke="#95000D" stroke-width="2" d="M60.4775929,129.340559 L37.4453282,142.157681 L30.9839464,94.8910387 L-1.03143945,75.7266618 L18.771021,60.3750858 L9.37014696,37.295237 L50.0775019,32.0260855 L75.7445104,-1.01838043 L90.9285819,18.8592818 L114.222819,9.17602216 L114.603239,46.7063696 L152.522801,75.7270895 L129.654362,89.241078 L142.273302,114.026483 L99.0130595,116.639648 L75.7448794,152.444752 L60.4775929,129.340559 Z"/>
    <path stroke="#F4989A" stroke-width="6" d="M75.7169405,145.146998 L96.7582809,112.768558 L135.939293,110.401803 L124.385483,87.7084653 L145.383177,75.2999841 L110.623215,48.6973794 L110.283123,15.1455651 L89.6196929,23.7352157 L75.7180475,5.53639402 L52.2254787,35.781422 L15.0335167,40.5955417 L23.6203695,61.6769075 L6.04589707,75.3012674 L34.6868715,92.4457252 L40.6155941,135.815831 L61.771356,124.042956 L75.7169405,145.146998 Z"/>
    <g transform="rotate(-10 71.188 76.141)">
      <use fill="black" filter="url(#c2)" xlink:href="#d2"/>
      <use fill="#FFFFFF" xlink:href="#d2"/>
    </g>
  </g>
</svg>
