<svg xmlns="http://www.w3.org/2000/svg" width="173" height="172" viewBox="0 0 173 172" xmlns:xlink="http://www.w3.org/1999/xlink"><title>See It</title><defs><path id="b" d="M60.801 128.016l14.937 22.604 22.711-34.948 42.24-2.552-12.352-24.262 22.4-13.238-37.129-28.416-.37-36.536-22.637 9.41L75.738.62 50.614 32.965 10.786 38.12l9.197 22.58L.738 75.62 31.91 94.28l6.328 46.292L60.8 128.016z"/><filter id="a" width="123.7%" height="123.5%" x="-7.4%" y="-7.2%" filterUnits="objectBoundingBox"><feMorphology radius="2" operator="dilate" in="SourceAlpha" result="shadowSpreadOuter1"/><feOffset dx="15" dy="15" in="shadowSpreadOuter1" result="shadowOffsetOuter1"/><feComposite in="shadowOffsetOuter1" in2="SourceAlpha" operator="out" result="shadowOffsetOuter1"/><feColorMatrix values="0 0 0 0 0.0431372549 0 0 0 0 0 0 0 0 0 0.294117647 0 0 0 0.190613678 0" in="shadowOffsetOuter1"/></filter></defs><g fill="none" fill-rule="evenodd" transform="translate(3.346 3)"><use fill="#000" filter="url(#a)" xlink:href="#b"/><use fill="#C93B3E" xlink:href="#b"/><path stroke="#95000D" stroke-width="2" d="M60.478 129.34l-23.033 12.818-6.461-47.267-32.015-19.164L18.77 60.375l-9.4-23.08 40.707-5.269L75.745-1.018l15.184 19.877 23.294-9.683.38 37.53 37.92 29.021-22.869 13.514 12.62 24.785-43.26 2.614-23.27 35.805-15.266-23.104z"/><path stroke="#F4989A" stroke-width="6" d="M75.717 145.147l21.041-32.378 39.181-2.367-11.554-22.694L145.383 75.3l-34.76-26.603-.34-33.551-20.663 8.59-13.902-18.2-23.493 30.245-37.191 4.815 8.586 21.08L6.046 75.302l28.64 17.145 5.93 43.37 21.155-11.773 13.946 21.104z"/><path fill="#99140C" d="M59.177 62.743c.277-1.046.416-1.92.416-2.624 0-.704-.192-1.286-.576-1.744-.384-.459-.88-.688-1.488-.688s-1.115.298-1.52.896c-.406.597-.608 1.28-.608 2.048 0 1.493.853 2.773 2.56 3.84 1.706 1.11 2.869 1.91 3.488 2.4.618.49 1.056.938 1.312 1.344.64 1.045.96 2.122.96 3.232 0 1.92-.646 3.45-1.936 4.592-1.291 1.141-2.747 1.712-4.368 1.712-1.92 0-3.531-.81-4.832-2.432-.94-1.174-1.803-2.635-2.592-4.384l3.104-1.504c.49 1.28 1.104 2.362 1.84 3.248.736.885 1.52 1.328 2.352 1.328.533 0 1.013-.17 1.44-.512.426-.342.64-.859.64-1.552 0-.694-.267-1.339-.8-1.936-.534-.598-1.248-1.206-2.144-1.824a37.28 37.28 0 0 1-2.08-1.52 18.083 18.083 0 0 1-1.632-1.52c-1.131-1.195-1.696-2.726-1.696-4.592 0-1.867.65-3.435 1.952-4.704 1.301-1.27 2.848-1.904 4.64-1.904 1.792 0 3.3.693 4.528 2.08 1.226 1.386 1.84 2.81 1.84 4.272 0 1.461-.278 2.714-.832 3.76l-3.968-1.312zM66.9 74.118c-.085-3.37-.128-6.56-.128-9.568s.17-6.922.512-11.744a71.06 71.06 0 0 1 10.688-.832v3.936c-2.41 0-4.65.075-6.72.224a321.46 321.46 0 0 0-.16 5.504c1.622-.234 3.542-.373 5.76-.416l.608 3.52c-1.43.022-3.573.182-6.432.48 0 2.56.01 4.406.032 5.536 1.856-.149 4.075-.469 6.656-.96l.544 3.52c-1.813.832-3.957 1.248-6.432 1.248l-4.928-.448zm14.087-2.483c-.085-3.371-.128-6.56-.128-9.568s.17-6.923.512-11.744a71.06 71.06 0 0 1 10.688-.832v3.936c-2.41 0-4.65.074-6.72.224a311.059 311.059 0 0 0-.16 5.504c1.621-.235 3.541-.374 5.76-.416l.608 3.52c-1.43.02-3.573.18-6.432.48 0 2.56.01 4.405.032 5.536 1.856-.15 4.075-.47 6.656-.96l.544 3.52c-1.813.832-3.957 1.248-6.432 1.248l-4.928-.448zm-7.853 10.958c-.192 3.37-.288 7.168-.288 11.392 0 4.224.138 8.075.416 11.552l-4.32-.384c-.278-4.352-.416-8.283-.416-11.792 0-3.51.096-7.227.288-11.152l4.32.384zm6.21 20.419c-.213-3.776-.32-7.067-.32-9.872 0-2.805.065-5.733.193-8.784l-3.904.544-.704-3.712c2.09-.363 4.16-.63 6.208-.8l5.984-.32.608 3.552c-1.174.064-2.496.16-3.968.288a204.194 204.194 0 0 0-.192 8.448c0 2.56.042 6.23.128 11.008l-4.032-.352z"/><path fill="#FFF" d="M56.177 60.743c.277-1.046.416-1.92.416-2.624 0-.704-.192-1.286-.576-1.744-.384-.459-.88-.688-1.488-.688s-1.115.298-1.52.896c-.406.597-.608 1.28-.608 2.048 0 1.493.853 2.773 2.56 3.84 1.706 1.11 2.869 1.91 3.488 2.4.618.49 1.056.938 1.312 1.344.64 1.045.96 2.122.96 3.232 0 1.92-.646 3.45-1.936 4.592-1.291 1.141-2.747 1.712-4.368 1.712-1.92 0-3.531-.81-4.832-2.432-.94-1.174-1.803-2.635-2.592-4.384l3.104-1.504c.49 1.28 1.104 2.362 1.84 3.248.736.885 1.52 1.328 2.352 1.328.533 0 1.013-.17 1.44-.512.426-.342.64-.859.64-1.552 0-.694-.267-1.339-.8-1.936-.534-.598-1.248-1.206-2.144-1.824a37.28 37.28 0 0 1-2.08-1.52 18.083 18.083 0 0 1-1.632-1.52c-1.131-1.195-1.696-2.726-1.696-4.592 0-1.867.65-3.435 1.952-4.704 1.301-1.27 2.848-1.904 4.64-1.904 1.792 0 3.3.693 4.528 2.08 1.226 1.386 1.84 2.81 1.84 4.272 0 1.461-.278 2.714-.832 3.76l-3.968-1.312zM63.9 72.118c-.085-3.37-.128-6.56-.128-9.568s.17-6.922.512-11.744a71.06 71.06 0 0 1 10.688-.832v3.936c-2.41 0-4.65.075-6.72.224a321.46 321.46 0 0 0-.16 5.504c1.622-.234 3.542-.373 5.76-.416l.608 3.52c-1.43.022-3.573.182-6.432.48 0 2.56.01 4.406.032 5.536 1.856-.149 4.075-.469 6.656-.96l.544 3.52c-1.813.832-3.957 1.248-6.432 1.248l-4.928-.448zm14.087-2.483c-.085-3.371-.128-6.56-.128-9.568s.17-6.923.512-11.744a71.06 71.06 0 0 1 10.688-.832v3.936c-2.41 0-4.65.074-6.72.224a311.059 311.059 0 0 0-.16 5.504c1.621-.235 3.541-.374 5.76-.416l.608 3.52c-1.43.02-3.573.18-6.432.48 0 2.56.01 4.405.032 5.536 1.856-.15 4.075-.47 6.656-.96l.544 3.52c-1.813.832-3.957 1.248-6.432 1.248l-4.928-.448zm-7.853 10.958c-.192 3.37-.288 7.168-.288 11.392 0 4.224.138 8.075.416 11.552l-4.32-.384c-.278-4.352-.416-8.283-.416-11.792 0-3.51.096-7.227.288-11.152l4.32.384zm6.21 20.419c-.213-3.776-.32-7.067-.32-9.872 0-2.805.065-5.733.193-8.784l-3.904.544-.704-3.712c2.09-.363 4.16-.63 6.208-.8l5.984-.32.608 3.552c-1.174.064-2.496.16-3.968.288a204.194 204.194 0 0 0-.192 8.448c0 2.56.042 6.23.128 11.008l-4.032-.352z"/></g></svg>