<svg xmlns="http://www.w3.org/2000/svg" aria-labelledby="shareitsvg" width="173" height="172" viewBox="0 0 173 172" xmlns:xlink="http://www.w3.org/1999/xlink">
  <title id="shareitsvg">Share It</title>
  <defs>
    <path id="b3" d="M60.8010337,128.016158 L75.7378947,150.620313 L98.4493648,115.671876 L140.6898,113.120313 L128.337142,88.8579248 L150.737895,75.6203132 L113.608233,47.2041221 L113.237895,10.6684079 L90.6013597,20.0782652 L75.7378947,0.620313183 L50.6144961,32.9649197 L10.7859894,38.1203132 L19.9833581,60.7005413 L0.737894682,75.6203132 L31.9096776,94.2797103 L38.2378947,140.572218 L60.8010337,128.016158 Z"/>
    <filter id="a3" width="123.7%" height="123.5%" x="-7.4%" y="-7.2%" filterUnits="objectBoundingBox">
      <feMorphology radius="2" operator="dilate" in="SourceAlpha" result="shadowSpreadOuter1"/>
      <feOffset dx="15" dy="15" in="shadowSpreadOuter1" result="shadowOffsetOuter1"/>
      <feComposite in="shadowOffsetOuter1" in2="SourceAlpha" operator="out" result="shadowOffsetOuter1"/>
      <feColorMatrix values="0 0 0 0 0.0431372549 0 0 0 0 0 0 0 0 0 0.294117647 0 0 0 0.190613678 0" in="shadowOffsetOuter1"/>
    </filter>
  </defs>
  <g fill="none" fill-rule="evenodd" transform="translate(3.346 3)">
    <use fill="black" filter="url(#a3)" xlink:href="#b3"/>
    <use fill="#4CBED8" xlink:href="#b3"/>
    <path stroke="#308593" stroke-width="2" d="M60.4775929,129.340559 L37.4453282,142.157681 L30.9839464,94.8910387 L-1.03143945,75.7266618 L18.771021,60.3750858 L9.37014696,37.295237 L50.0775019,32.0260855 L75.7445104,-1.01838043 L90.9285819,18.8592818 L114.222819,9.17602216 L114.603239,46.7063696 L152.522801,75.7270895 L129.654362,89.241078 L142.273302,114.026483 L99.0130595,116.639648 L75.7448794,152.444752 L60.4775929,129.340559 Z"/>
    <path stroke="#AAE1EA" stroke-width="6" d="M75.7169405,145.146998 L96.7582809,112.768558 L135.939293,110.401803 L124.385483,87.7084653 L145.383177,75.2999841 L110.623215,48.6973794 L110.283123,15.1455651 L89.6196929,23.7352157 L75.7180475,5.53639402 L52.2254787,35.781422 L15.0335167,40.5955417 L23.6203695,61.6769075 L6.04589707,75.3012674 L34.6868715,92.4457252 L40.6155941,135.815831 L61.771356,124.042956 L75.7169405,145.146998 Z"/>
    <path fill="#308593" d="M44.9451027,65.3705037 C45.3997453,64.3892048 45.6881867,63.5519139 45.8104356,62.8586058 C45.9326845,62.1652977 45.8445498,61.5594617 45.5460287,61.0410797 C45.2475077,60.5226977 44.7988709,60.2107221 44.2001047,60.1051435 C43.6013386,59.9995649 43.050512,60.2057103 42.5476082,60.723586 C42.0447044,61.2414617 41.7265761,61.8785581 41.5932136,62.6348942 C41.3338977,64.1055478 41.9519911,65.5142674 43.4475125,66.8610953 C44.9356248,68.2499419 45.9416993,69.2396731 46.4657663,69.8303187 C46.9898333,70.4209644 47.3427246,70.9380952 47.5244509,71.3817268 C47.9732099,72.5223197 48.1012701,73.6388422 47.9086354,74.7313277 C47.5752293,76.622168 46.6739115,78.0175055 45.2046552,78.917382 C43.7353989,79.8172585 42.2024389,80.1264206 40.6057292,79.8448776 C38.7148889,79.5114715 37.2694771,78.4334421 36.2694505,76.6107572 C35.5487879,75.2922451 34.9516779,73.7030966 34.4781025,71.8432639 L37.7961126,70.901117 C38.0570566,72.246881 38.4730647,73.4195921 39.0441496,74.4192852 C39.6152344,75.4189784 40.3104485,75.9910544 41.1298126,76.1355305 C41.6550461,76.2281433 42.1573847,76.1434214 42.6368437,75.8813623 C43.1163026,75.6193031 43.4162259,75.1468789 43.5366226,74.4640755 C43.6570193,73.781272 43.5064663,73.0994434 43.0849593,72.4185691 C42.6634522,71.7376948 42.065227,71.0148384 41.2902657,70.2499781 C40.5153044,69.4851178 39.9204921,68.8657586 39.5058108,68.3918821 C39.0911296,67.9180055 38.6433804,67.3245776 38.1625498,66.6115805 C37.2565077,65.2387184 36.9655634,63.633153 37.2897083,61.794836 C37.6138532,59.956519 38.526906,58.5253418 40.028894,57.5012615 C41.5308821,56.4771813 43.1642438,56.120736 44.9290281,56.4319151 C46.6938125,56.7430942 48.0598059,57.6879778 49.0270494,59.2665942 C49.994293,60.8452106 50.3510298,62.354066 50.0972707,63.7932056 C49.8435116,65.2323452 49.3527574,66.4184672 48.6249935,67.3516074 L44.9451027,65.3705037 Z M57.2510476,62.5317763 L56.6435361,66.1614256 L61.420624,66.7113122 C61.9985281,63.4338556 62.6641383,59.9661236 63.4174748,56.3080122 L67.5106218,57.4196683 C66.7325202,60.7268123 65.9998868,64.3289462 65.3126997,68.2261783 C64.6255125,72.1234103 64.051107,76.0567152 63.5894657,80.0262108 L59.6168173,78.9682956 C59.7463214,77.128152 60.1419869,74.2085324 60.8038257,70.2093494 L56.1212794,69.676133 C55.6582665,72.6705724 55.217513,75.7230461 54.7990057,78.8336457 L50.5798032,77.6997627 C51.1303527,73.2260429 51.7334679,69.1299181 52.3891667,65.4112655 C53.0448655,61.6926128 53.6956835,58.4930503 54.3416404,55.8124819 L58.4347874,56.924138 C57.9790298,58.7717419 57.5844538,60.640936 57.2510476,62.5317763 Z M76.7275311,79.0238675 L76.7750997,74.5156376 L72.0461959,73.8767662 L69.8040022,79.5902134 L65.4587444,78.4341034 L75.1283609,56.5812203 L80.8695149,58.1134391 L81.2303582,80.2077613 L76.7275311,79.0238675 Z M76.5640705,61.089204 L72.8505514,70.539936 L76.4023293,71.0362357 L76.5640705,61.089204 Z M83.9130624,77.7492455 C85.0752669,72.7551632 86.0045794,68.2833115 86.7010279,64.3335561 C87.3974763,60.3838008 87.8444723,57.7873343 88.0420292,56.5440789 C90.545691,55.8590898 93.0475399,55.7370156 95.547651,56.1778527 C97.3964727,56.5038498 98.8421632,57.3653061 99.8847661,58.7622476 C100.927369,60.159189 101.259735,61.9291093 100.881875,64.0720617 C100.444742,66.5511635 98.2700331,68.6263653 94.3576819,70.2977293 C95.8472171,73.0299044 97.3361467,76.0110512 98.8245154,79.2412592 L95.4046574,80.9452952 C94.4329979,78.7160238 92.6331693,75.0410217 90.0051176,69.9201786 C89.3715946,73.144503 88.7417599,76.1636366 88.1155946,78.9776701 L83.9130624,77.7492455 Z M94.2054674,65.6852174 C95.4887353,64.7958712 96.2081533,63.9100153 96.3637428,63.0276231 C96.5193323,62.145231 96.3823667,61.4170582 95.9528417,60.8430828 C95.5233168,60.2691075 94.8883771,59.908035 94.0480036,59.7598545 C93.2076301,59.611674 92.2517452,59.6272545 91.1803203,59.8065966 C90.5542577,63.3571746 90.0788437,65.9919546 89.7540643,67.7110158 C91.4384132,67.2498229 92.9221994,66.5745636 94.2054674,65.6852174 Z M101.136984,77.9146965 C101.63826,74.5804032 102.150058,71.4321455 102.672395,68.4698289 C103.194731,65.5075124 104.042571,61.6819925 105.215941,56.9931546 C108.904855,57.0803835 112.461519,57.4259106 115.886041,58.0297462 L115.202562,61.9059495 C112.828507,61.4873396 110.609594,61.1719031 108.545757,60.9596307 C108.046814,63.2978584 107.675708,65.0953732 107.432428,66.3522289 C109.069887,66.4026692 110.984778,66.5995117 113.177158,66.9427624 L113.16468,70.5148637 C111.75335,70.2876707 109.614159,70.0729404 106.747045,69.8706664 C106.302503,72.3917868 105.992572,74.2109195 105.817243,75.3281189 C107.670986,75.5033461 109.911492,75.5734744 112.538825,75.5385057 L112.463319,79.0994936 C110.533049,79.6039741 108.349406,79.6413521 105.912323,79.2116286 L101.136984,77.9146965 Z M73.372121,87.3430506 C72.5977239,90.6291853 71.8437899,94.3521211 71.1102963,98.5119699 C70.3768028,102.671819 69.8447069,106.488026 69.5139926,109.960707 L65.326304,108.83238 C65.8089033,104.498317 66.3548909,100.603326 66.9642833,97.1472897 C67.5736757,93.6912537 68.313718,90.0471017 69.1844324,86.2147243 L73.372121,87.3430506 Z M75.9431503,108.530148 C76.3887557,104.77445 76.8551232,101.515286 77.3422666,98.7525584 C77.8294101,95.9898306 78.4008739,93.1174557 79.0566753,90.1353475 L75.1175212,89.9931605 L75.0687986,86.2153058 C77.1906904,86.2211893 79.2748712,86.3179089 81.3214037,86.5054675 L87.2700607,87.2294397 L87.2520255,90.8330549 C86.0853984,90.6923347 84.766169,90.557199 83.2942976,90.4276436 C82.6347917,93.430761 82.0827763,96.1928386 81.6382347,98.713959 C81.1936932,101.235079 80.5985445,104.85604 79.852771,109.57695 L75.9431503,108.530148 Z" transform="rotate(-10 75.182 82.887)"/>
    <path fill="#FFFFFF" d="M41.9451027,63.3705037 C42.3997453,62.3892048 42.6881867,61.5519139 42.8104356,60.8586058 C42.9326845,60.1652977 42.8445498,59.5594617 42.5460287,59.0410797 C42.2475077,58.5226977 41.7988709,58.2107221 41.2001047,58.1051435 C40.6013386,57.9995649 40.050512,58.2057103 39.5476082,58.723586 C39.0447044,59.2414617 38.7265761,59.8785581 38.5932136,60.6348942 C38.3338977,62.1055478 38.9519911,63.5142674 40.4475125,64.8610953 C41.9356248,66.2499419 42.9416993,67.2396731 43.4657663,67.8303187 C43.9898333,68.4209644 44.3427246,68.9380952 44.5244509,69.3817268 C44.9732099,70.5223197 45.1012701,71.6388422 44.9086354,72.7313277 C44.5752293,74.622168 43.6739115,76.0175055 42.2046552,76.917382 C40.7353989,77.8172585 39.2024389,78.1264206 37.6057292,77.8448776 C35.7148889,77.5114715 34.2694771,76.4334421 33.2694505,74.6107572 C32.5487879,73.2922451 31.9516779,71.7030966 31.4781025,69.8432639 L34.7961126,68.901117 C35.0570566,70.246881 35.4730647,71.4195921 36.0441496,72.4192852 C36.6152344,73.4189784 37.3104485,73.9910544 38.1298126,74.1355305 C38.6550461,74.2281433 39.1573847,74.1434214 39.6368437,73.8813623 C40.1163026,73.6193031 40.4162259,73.1468789 40.5366226,72.4640755 C40.6570193,71.781272 40.5064663,71.0994434 40.0849593,70.4185691 C39.6634522,69.7376948 39.065227,69.0148384 38.2902657,68.2499781 C37.5153044,67.4851178 36.9204921,66.8657586 36.5058108,66.3918821 C36.0911296,65.9180055 35.6433804,65.3245776 35.1625498,64.6115805 C34.2565077,63.2387184 33.9655634,61.633153 34.2897083,59.794836 C34.6138532,57.956519 35.526906,56.5253418 37.028894,55.5012615 C38.5308821,54.4771813 40.1642438,54.120736 41.9290281,54.4319151 C43.6938125,54.7430942 45.0598059,55.6879778 46.0270494,57.2665942 C46.994293,58.8452106 47.3510298,60.354066 47.0972707,61.7932056 C46.8435116,63.2323452 46.3527574,64.4184672 45.6249935,65.3516074 L41.9451027,63.3705037 Z M54.2510476,60.5317763 L53.6435361,64.1614256 L58.420624,64.7113122 C58.9985281,61.4338556 59.6641383,57.9661236 60.4174748,54.3080122 L64.5106218,55.4196683 C63.7325202,58.7268123 62.9998868,62.3289462 62.3126997,66.2261783 C61.6255125,70.1234103 61.051107,74.0567152 60.5894657,78.0262108 L56.6168173,76.9682956 C56.7463214,75.128152 57.1419869,72.2085324 57.8038257,68.2093494 L53.1212794,67.676133 C52.6582665,70.6705724 52.217513,73.7230461 51.7990057,76.8336457 L47.5798032,75.6997627 C48.1303527,71.2260429 48.7334679,67.1299181 49.3891667,63.4112655 C50.0448655,59.6926128 50.6956835,56.4930503 51.3416404,53.8124819 L55.4347874,54.924138 C54.9790298,56.7717419 54.5844538,58.640936 54.2510476,60.5317763 Z M73.7275311,77.0238675 L73.7750997,72.5156376 L69.0461959,71.8767662 L66.8040022,77.5902134 L62.4587444,76.4341034 L72.1283609,54.5812203 L77.8695149,56.1134391 L78.2303582,78.2077613 L73.7275311,77.0238675 Z M73.5640705,59.089204 L69.8505514,68.539936 L73.4023293,69.0362357 L73.5640705,59.089204 Z M80.9130624,75.7492455 C82.0752669,70.7551632 83.0045794,66.2833115 83.7010279,62.3335561 C84.3974763,58.3838008 84.8444723,55.7873343 85.0420292,54.5440789 C87.545691,53.8590898 90.0475399,53.7370156 92.547651,54.1778527 C94.3964727,54.5038498 95.8421632,55.3653061 96.8847661,56.7622476 C97.9273689,58.159189 98.2597352,59.9291093 97.8818749,62.0720617 C97.4447423,64.5511635 95.2700331,66.6263653 91.3576819,68.2977293 C92.8472171,71.0299044 94.3361467,74.0110512 95.8245154,77.2412592 L92.4046574,78.9452952 C91.4329979,76.7160238 89.6331693,73.0410217 87.0051176,67.9201786 C86.3715946,71.144503 85.7417599,74.1636366 85.1155946,76.9776701 L80.9130624,75.7492455 Z M91.2054674,63.6852174 C92.4887353,62.7958712 93.2081533,61.9100153 93.3637428,61.0276231 C93.5193323,60.145231 93.3823667,59.4170582 92.9528417,58.8430828 C92.5233168,58.2691075 91.8883771,57.908035 91.0480036,57.7598545 C90.2076301,57.611674 89.2517452,57.6272545 88.1803203,57.8065966 C87.5542577,61.3571746 87.0788437,63.9919546 86.7540643,65.7110158 C88.4384132,65.2498229 89.9221994,64.5745636 91.2054674,63.6852174 Z M98.1369844,75.9146965 C98.6382601,72.5804032 99.1500585,69.4321455 99.6723948,66.4698289 C100.194731,63.5075124 101.042571,59.6819925 102.215941,54.9931546 C105.904855,55.0803835 109.461519,55.4259106 112.886041,56.0297462 L112.202562,59.9059495 C109.828507,59.4873396 107.609594,59.1719031 105.545757,58.9596307 C105.046814,61.2978584 104.675708,63.0953732 104.432428,64.3522289 C106.069887,64.4026692 107.984778,64.5995117 110.177158,64.9427624 L110.16468,68.5148637 C108.75335,68.2876707 106.614159,68.0729404 103.747045,67.8706664 C103.302503,70.3917868 102.992572,72.2109195 102.817243,73.3281189 C104.670986,73.5033461 106.911492,73.5734744 109.538825,73.5385057 L109.463319,77.0994936 C107.533049,77.6039741 105.349406,77.6413521 102.912323,77.2116286 L98.1369844,75.9146965 Z M70.372121,85.3430506 C69.5977239,88.6291853 68.8437899,92.3521211 68.1102963,96.5119699 C67.3768028,100.671819 66.8447069,104.488026 66.5139926,107.960707 L62.326304,106.83238 C62.8089033,102.498317 63.3548909,98.6033256 63.9642833,95.1472897 C64.5736757,91.6912537 65.313718,88.0471017 66.1844324,84.2147243 L70.372121,85.3430506 Z M72.9431503,106.530148 C73.3887557,102.77445 73.8551232,99.5152862 74.3422666,96.7525584 C74.8294101,93.9898306 75.4008739,91.1174557 76.0566753,88.1353475 L72.1175212,87.9931605 L72.0687986,84.2153058 C74.1906904,84.2211893 76.2748712,84.3179089 78.3214037,84.5054675 L84.2700607,85.2294397 L84.2520255,88.8330549 C83.0853984,88.6923347 81.766169,88.557199 80.2942976,88.4276436 C79.6347917,91.430761 79.0827763,94.1928386 78.6382347,96.713959 C78.1936932,99.2350795 77.5985445,102.85604 76.852771,107.57695 L72.9431503,106.530148 Z" transform="rotate(-10 72.182 80.887)"/>
  </g>
</svg>
