<svg xmlns="http://www.w3.org/2000/svg" width="173" height="172" viewBox="0 0 173 172" xmlns:xlink="http://www.w3.org/1999/xlink"><title>Share It</title><defs><path id="b" d="M60.801 128.016l14.937 22.604 22.711-34.948 42.24-2.552-12.352-24.262 22.4-13.238-37.129-28.416-.37-36.536-22.637 9.41L75.738.62 50.614 32.965 10.786 38.12l9.197 22.58L.738 75.62 31.91 94.28l6.328 46.292L60.8 128.016z"/><filter id="a" width="123.7%" height="123.5%" x="-7.4%" y="-7.2%" filterUnits="objectBoundingBox"><feMorphology radius="2" operator="dilate" in="SourceAlpha" result="shadowSpreadOuter1"/><feOffset dx="15" dy="15" in="shadowSpreadOuter1" result="shadowOffsetOuter1"/><feComposite in="shadowOffsetOuter1" in2="SourceAlpha" operator="out" result="shadowOffsetOuter1"/><feColorMatrix values="0 0 0 0 0.0431372549 0 0 0 0 0 0 0 0 0 0.294117647 0 0 0 0.190613678 0" in="shadowOffsetOuter1"/></filter></defs><g fill="none" fill-rule="evenodd" transform="translate(3.346 3)"><use fill="#000" filter="url(#a)" xlink:href="#b"/><use fill="#4CBED8" xlink:href="#b"/><path stroke="#308593" stroke-width="2" d="M60.478 129.34l-23.033 12.818-6.461-47.267-32.015-19.164L18.77 60.375l-9.4-23.08 40.707-5.269L75.745-1.018l15.184 19.877 23.294-9.683.38 37.53 37.92 29.021-22.869 13.514 12.62 24.785-43.26 2.614-23.27 35.805-15.266-23.104z"/><path stroke="#AAE1EA" stroke-width="6" d="M75.717 145.147l21.041-32.378 39.181-2.367-11.554-22.694L145.383 75.3l-34.76-26.603-.34-33.551-20.663 8.59-13.902-18.2-23.493 30.245-37.191 4.815 8.586 21.08L6.046 75.302l28.64 17.145 5.93 43.37 21.155-11.773 13.946 21.104z"/><path fill="#308593" d="M42.363 70.887c.277-1.045.416-1.92.416-2.624 0-.704-.192-1.285-.576-1.744-.384-.458-.88-.688-1.488-.688s-1.115.299-1.52.896c-.406.598-.608 1.28-.608 2.048 0 1.494.853 2.774 2.56 3.84 1.706 1.11 2.87 1.91 3.488 2.4.618.49 1.056.939 1.312 1.344.64 1.046.96 2.123.96 3.232 0 1.92-.646 3.45-1.936 4.592-1.29 1.142-2.747 1.712-4.368 1.712-1.92 0-3.53-.81-4.832-2.432-.939-1.173-1.803-2.634-2.592-4.384l3.104-1.504c.49 1.28 1.104 2.363 1.84 3.248.736.886 1.52 1.328 2.352 1.328.533 0 1.013-.17 1.44-.512.426-.341.64-.858.64-1.552 0-.693-.267-1.338-.8-1.936-.534-.597-1.248-1.205-2.144-1.824a37.28 37.28 0 0 1-2.08-1.52 18.083 18.083 0 0 1-1.632-1.52c-1.13-1.194-1.696-2.725-1.696-4.592 0-1.866.65-3.434 1.952-4.704 1.301-1.27 2.848-1.904 4.64-1.904 1.792 0 3.301.694 4.528 2.08 1.226 1.387 1.84 2.81 1.84 4.272 0 1.462-.278 2.715-.832 3.76l-3.968-1.312zm11.626-4.932l.032 3.68 4.8-.288c0-3.328.053-6.859.16-10.592l4.224.384a195.87 195.87 0 0 0-.288 11.024c0 3.957.117 7.93.352 11.92l-4.096-.352c-.192-1.835-.31-4.779-.352-8.832l-4.704.288c.064 3.029.16 6.112.288 9.248l-4.352-.384c-.235-4.502-.352-8.64-.352-12.416s.085-7.04.256-9.792l4.224.384a85.135 85.135 0 0 0-.192 5.728zm22.044 12.86l-.736-4.449-4.768.192-1.216 6.016-4.48-.384 5.728-23.2 5.92.512 4.192 21.696-4.64-.384zM72.758 61.18l-2.016 9.952 3.584-.128-1.568-9.824zm10.13 15.131c.278-5.12.416-9.685.416-13.696 0-4.01-.01-6.645-.032-7.904 2.347-1.11 4.79-1.664 7.328-1.664 1.878 0 3.45.597 4.72 1.792 1.27 1.195 1.904 2.88 1.904 5.056 0 2.518-1.781 4.939-5.344 7.264a148.878 148.878 0 0 1 5.952 8.032l-3.072 2.272c-1.344-2.027-3.754-5.333-7.232-9.92-.064 3.286-.16 6.368-.288 9.248l-4.352-.48zm8.041-13.668c1.11-1.099 1.664-2.096 1.664-2.992 0-.896-.26-1.59-.784-2.08-.522-.49-1.21-.736-2.064-.736-.853 0-1.792.181-2.816.544 0 3.606-.01 6.283-.032 8.032 1.58-.747 2.923-1.67 4.032-2.768zm8.95 10.84c-.085-3.37-.128-6.56-.128-9.568s.17-6.922.512-11.744a71.06 71.06 0 0 1 10.688-.832v3.936c-2.41 0-4.65.075-6.72.224a321.46 321.46 0 0 0-.16 5.504c1.622-.234 3.542-.373 5.76-.416l.608 3.52c-1.43.022-3.573.182-6.432.48 0 2.56.01 4.406.032 5.536 1.856-.15 4.075-.47 6.656-.96l.544 3.52c-1.813.832-3.957 1.248-6.432 1.248l-4.928-.448zM74.173 87.59c-.192 3.37-.288 7.168-.288 11.392 0 4.224.14 8.074.416 11.552l-4.32-.384c-.277-4.352-.416-8.283-.416-11.792 0-3.51.096-7.227.288-11.152l4.32.384zm6.211 20.418c-.213-3.776-.32-7.066-.32-9.872 0-2.805.064-5.733.192-8.784l-3.904.544-.704-3.712a71.03 71.03 0 0 1 6.208-.8l5.984-.32.608 3.552c-1.173.064-2.496.16-3.968.288a204.194 204.194 0 0 0-.192 8.448c0 2.56.043 6.23.128 11.008l-4.032-.352z"/><path fill="#FFF" d="M39.363 68.887c.277-1.045.416-1.92.416-2.624 0-.704-.192-1.285-.576-1.744-.384-.458-.88-.688-1.488-.688s-1.115.299-1.52.896c-.406.598-.608 1.28-.608 2.048 0 1.494.853 2.774 2.56 3.84 1.706 1.11 2.87 1.91 3.488 2.4.618.49 1.056.939 1.312 1.344.64 1.046.96 2.123.96 3.232 0 1.92-.646 3.45-1.936 4.592-1.29 1.142-2.747 1.712-4.368 1.712-1.92 0-3.53-.81-4.832-2.432-.939-1.173-1.803-2.634-2.592-4.384l3.104-1.504c.49 1.28 1.104 2.363 1.84 3.248.736.886 1.52 1.328 2.352 1.328.533 0 1.013-.17 1.44-.512.426-.341.64-.858.64-1.552 0-.693-.267-1.338-.8-1.936-.534-.597-1.248-1.205-2.144-1.824a37.28 37.28 0 0 1-2.08-1.52 18.083 18.083 0 0 1-1.632-1.52c-1.13-1.194-1.696-2.725-1.696-4.592 0-1.866.65-3.434 1.952-4.704 1.301-1.27 2.848-1.904 4.64-1.904 1.792 0 3.301.694 4.528 2.08 1.226 1.387 1.84 2.81 1.84 4.272 0 1.462-.278 2.715-.832 3.76l-3.968-1.312zm11.626-4.932l.032 3.68 4.8-.288c0-3.328.053-6.859.16-10.592l4.224.384a195.87 195.87 0 0 0-.288 11.024c0 3.957.117 7.93.352 11.92l-4.096-.352c-.192-1.835-.31-4.779-.352-8.832l-4.704.288c.064 3.029.16 6.112.288 9.248l-4.352-.384c-.235-4.502-.352-8.64-.352-12.416s.085-7.04.256-9.792l4.224.384a85.135 85.135 0 0 0-.192 5.728zm22.044 12.86l-.736-4.449-4.768.192-1.216 6.016-4.48-.384 5.728-23.2 5.92.512 4.192 21.696-4.64-.384zM69.758 59.18l-2.016 9.952 3.584-.128-1.568-9.824zm10.13 15.131c.278-5.12.416-9.685.416-13.696 0-4.01-.01-6.645-.032-7.904 2.347-1.11 4.79-1.664 7.328-1.664 1.878 0 3.45.597 4.72 1.792 1.27 1.195 1.904 2.88 1.904 5.056 0 2.518-1.781 4.939-5.344 7.264a148.878 148.878 0 0 1 5.952 8.032l-3.072 2.272c-1.344-2.027-3.754-5.333-7.232-9.92-.064 3.286-.16 6.368-.288 9.248l-4.352-.48zm8.041-13.668c1.11-1.099 1.664-2.096 1.664-2.992 0-.896-.26-1.59-.784-2.08-.522-.49-1.21-.736-2.064-.736-.853 0-1.792.181-2.816.544 0 3.606-.01 6.283-.032 8.032 1.58-.747 2.923-1.67 4.032-2.768zm8.95 10.84c-.085-3.37-.128-6.56-.128-9.568s.17-6.922.512-11.744a71.06 71.06 0 0 1 10.688-.832v3.936c-2.41 0-4.65.075-6.72.224a321.46 321.46 0 0 0-.16 5.504c1.622-.234 3.542-.373 5.76-.416l.608 3.52c-1.43.022-3.573.182-6.432.48 0 2.56.01 4.406.032 5.536 1.856-.15 4.075-.47 6.656-.96l.544 3.52c-1.813.832-3.957 1.248-6.432 1.248l-4.928-.448zM71.173 85.59c-.192 3.37-.288 7.168-.288 11.392 0 4.224.14 8.074.416 11.552l-4.32-.384c-.277-4.352-.416-8.283-.416-11.792 0-3.51.096-7.227.288-11.152l4.32.384zm6.211 20.418c-.213-3.776-.32-7.066-.32-9.872 0-2.805.064-5.733.192-8.784l-3.904.544-.704-3.712a71.03 71.03 0 0 1 6.208-.8l5.984-.32.608 3.552c-1.173.064-2.496.16-3.968.288a204.194 204.194 0 0 0-.192 8.448c0 2.56.043 6.23.128 11.008l-4.032-.352z"/></g></svg>