<svg xmlns="http://www.w3.org/2000/svg" aria-labelledby="snapitsvg" width="173" height="172" viewBox="0 0 173 172" xmlns:xlink="http://www.w3.org/1999/xlink">
  <title id="snapitsvg">Snap It</title>
  <defs>
    <path id="b4" d="M60.8010337,128.016158 L75.7378947,150.620313 L98.4493648,115.671876 L140.6898,113.120313 L128.337142,88.8579248 L150.737895,75.6203132 L113.608233,47.2041221 L113.237895,10.6684079 L90.6013597,20.0782652 L75.7378947,0.620313183 L51.8022491,31.4357713 L50.6144961,32.9649197 L10.7859894,38.1203132 L19.9833581,60.7005413 L0.737894682,75.6203132 L31.9096776,94.2797103 L38.2378947,140.572218 L60.8010337,128.016158 Z"/>
    <filter id="a4" width="123.7%" height="123.5%" x="-7.4%" y="-7.2%" filterUnits="objectBoundingBox">
      <feMorphology radius="2" operator="dilate" in="SourceAlpha" result="shadowSpreadOuter1"/>
      <feOffset dx="15" dy="15" in="shadowSpreadOuter1" result="shadowOffsetOuter1"/>
      <feComposite in="shadowOffsetOuter1" in2="SourceAlpha" operator="out" result="shadowOffsetOuter1"/>
      <feColorMatrix values="0 0 0 0 0.0431372549 0 0 0 0 0 0 0 0 0 0.294117647 0 0 0 0.190613678 0" in="shadowOffsetOuter1"/>
    </filter>
    <path id="d4" d="M49.9733282,59.4398996 C50.4279707,58.4586007 50.7164121,57.6213098 50.8386611,56.9280017 C50.96091,56.2346936 50.8727753,55.6288576 50.5742542,55.1104756 C50.2757332,54.5920936 49.8270963,54.280118 49.2283302,54.1745394 C48.6295641,54.0689608 48.0787374,54.2751062 47.5758337,54.7929819 C47.0729299,55.3108576 46.7548016,55.947954 46.6214391,56.7042901 C46.3621232,58.1749437 46.9802166,59.5836633 48.4757379,60.9304912 C49.9638502,62.3193378 50.9699248,63.309069 51.4939918,63.8997147 C52.0180587,64.4903603 52.3709501,65.0074911 52.5526764,65.4511227 C53.0014354,66.5917156 53.1294956,67.7082381 52.9368609,68.8007236 C52.6034547,70.6915639 51.702137,72.0869014 50.2328807,72.9867779 C48.7636243,73.8866544 47.2306643,74.1958165 45.6339547,73.9142736 C43.7431144,73.5808674 42.2977026,72.502838 41.297676,70.6801531 C40.5770134,69.361641 39.9799033,67.7724925 39.5063279,65.9126598 L42.8243381,64.9705129 C43.085282,66.316277 43.5012902,67.488988 44.072375,68.4886812 C44.6434599,69.4883743 45.338674,70.0604504 46.1580381,70.2049264 C46.6832715,70.2975392 47.1856102,70.2128173 47.6650691,69.9507582 C48.1445281,69.688699 48.4444514,69.2162748 48.5648481,68.5334714 C48.6852447,67.8506679 48.5346918,67.1688393 48.1131847,66.487965 C47.6916777,65.8070908 47.0934525,65.0842343 46.3184912,64.319374 C45.5435299,63.5545137 44.9487176,62.9351545 44.5340363,62.461278 C44.119355,61.9874015 43.6716058,61.3939735 43.1907753,60.6809764 C42.2847331,59.3081143 41.9937889,57.7025489 42.3179338,55.8642319 C42.6420786,54.0259149 43.5551314,52.5947377 45.0571195,51.5706574 C46.5591076,50.5465772 48.1924693,50.1901319 49.9572536,50.501311 C51.7220379,50.8124901 53.0880314,51.7573737 54.0552749,53.3359901 C55.0225185,54.9146065 55.3792553,56.4234619 55.1254962,57.8626015 C54.871737,59.3017411 54.3809829,60.4878632 53.653219,61.4210033 L49.9733282,59.4398996 Z M72.9034898,51.8885601 L70.3511187,66.5480562 C69.9250997,68.96413 69.3835632,71.5439264 68.7264928,74.2875228 L65.2580659,73.3185154 C63.6332837,66.6848974 62.2299603,61.6825968 61.0480536,58.3114635 C60.520795,61.42455 59.6570476,66.3845314 58.4567853,73.1915566 L54.8419028,72.1317378 C55.0085546,70.8180454 55.1993085,69.5519473 55.4141702,68.3334058 C56.3106624,63.2491462 57.6389411,57.3746122 59.3990464,50.7096275 L63.5181506,51.8583542 C64.5867429,57.96065 65.687871,62.6497187 66.8215677,65.9257011 C67.8142746,59.5586543 68.5488724,54.5325758 69.0253829,50.8473151 L72.9034898,51.8885601 Z M81.9157566,73.0932635 L81.9633252,68.5850335 L77.2344214,67.9461621 L74.9922277,73.6596093 L70.6469699,72.5034993 L80.3165864,50.6506162 L86.0577404,52.182835 L86.4185837,74.2771572 L81.9157566,73.0932635 Z M81.7522959,55.1585999 L78.0387769,64.6093319 L81.5905548,65.1056316 L81.7522959,55.1585999 Z M89.2483638,72.2498878 C89.5829364,69.8610147 90.0437985,67.001631 90.6309638,63.6716511 C91.2181291,60.3416712 92.107593,55.911533 93.2993824,50.3811038 C95.1790066,50.0409935 97.0484538,50.0348631 98.9077801,50.3627125 C100.767106,50.6905619 102.305498,51.6712595 103.523002,53.3048347 C104.740505,54.93841 105.164951,56.8003842 104.796352,58.8908132 C104.427753,60.9812423 103.316079,62.6481749 101.461297,63.8916611 C99.6065144,65.1351473 97.3346111,65.8880626 94.6455185,66.1504294 C94.2306131,68.5034752 93.836114,70.9250694 93.4620095,73.4152847 L89.2483638,72.2498878 Z M99.8177022,58.2476875 C100.014041,57.1341927 99.884459,56.1798684 99.4289511,55.3846862 C98.9734433,54.589504 98.3885394,54.128943 97.674222,54.0029896 C97.4851379,53.969649 97.0451918,53.9462302 96.3543705,53.9327324 C95.7269875,56.8765264 95.158302,59.7331445 94.6482969,62.5026725 C96.0459754,62.3158701 97.2078647,61.8383826 98.1339995,61.0701959 C99.0601344,60.3020091 99.621363,59.3611824 99.8177022,58.2476875 Z M70.3683465,81.4124465 C69.5939494,84.6985812 68.8400154,88.421517 68.1065218,92.5813658 C67.3730282,96.7412145 66.8409323,100.557422 66.5102181,104.030103 L62.3225295,102.901776 C62.8051288,98.5677128 63.3511164,94.6727216 63.9605088,91.2166856 C64.5699012,87.7606496 65.3099435,84.1164976 66.1806579,80.2841202 L70.3683465,81.4124465 Z M72.9393758,102.599544 C73.3849812,98.8438461 73.8513486,95.5846821 74.3384921,92.8219543 C74.8256355,90.0592265 75.3970994,87.1868516 76.0529008,84.2047435 L72.1137467,84.0625564 L72.0650241,80.2847017 C74.1869158,80.2905852 76.2710967,80.3873048 78.3176291,80.5748634 L84.2662862,81.2988356 L84.2482509,84.9024508 C83.0816239,84.7617306 81.7623944,84.6265949 80.2905231,84.4970395 C79.6310172,87.500157 79.0790018,90.2622345 78.6344602,92.7833549 C78.1899187,95.3044754 77.59477,98.9254361 76.8489965,103.646346 L72.9393758,102.599544 Z"/>
    <filter id="c4" width="124.5%" height="129.7%" x="-7.6%" y="-7.4%" filterUnits="objectBoundingBox">
      <feOffset dx="3" dy="4" in="SourceAlpha" result="shadowOffsetOuter1"/>
      <feGaussianBlur stdDeviation="2" in="shadowOffsetOuter1" result="shadowBlurOuter1"/>
      <feColorMatrix values="0 0 0 0 0.737254902 0 0 0 0 0.337254902 0 0 0 0 0 0 0 0 1 0" in="shadowBlurOuter1"/>
    </filter>
  </defs>
  <g fill="none" fill-rule="evenodd" transform="translate(3.346 3)">
    <use fill="black" filter="url(#a4)" xlink:href="#b4"/>
    <use fill="#E98B3B" xlink:href="#b4"/>
    <path stroke="#C27811" stroke-width="2" d="M60.4775929,129.340559 L37.4453282,142.157681 L30.9839464,94.8910387 L-1.03143945,75.7266618 L18.771021,60.3750858 L9.37014696,37.295237 L50.0775019,32.0260855 L75.7445104,-1.01838043 L90.9285819,18.8592818 L114.222819,9.17602216 L114.603239,46.7063696 L152.522801,75.7270895 L129.654362,89.241078 L142.273302,114.026483 L99.0130595,116.639648 L75.7448794,152.444752 L60.4775929,129.340559 Z"/>
    <path stroke="#EDC57B" stroke-width="6" d="M75.7169405,145.146998 L96.7582809,112.768558 L135.939293,110.401803 L124.385483,87.7084653 L145.383177,75.2999841 L110.623215,48.6973794 L110.283123,15.1455651 L89.6196929,23.7352157 L75.7180475,5.53639402 L52.2254787,35.781422 L15.0335167,40.5955417 L23.6203695,61.6769075 L6.04589707,75.3012674 L34.6868715,92.4457252 L40.6155941,135.815831 L61.771356,124.042956 L75.7169405,145.146998 Z"/>
    <g transform="rotate(-10 72.216 77.076)">
      <use fill="black" filter="url(#c4)" xlink:href="#d4"/>
      <use fill="#FFFFFF" xlink:href="#d4"/>
    </g>
  </g>
</svg>
