<svg xmlns="http://www.w3.org/2000/svg" width="173" height="172" viewBox="0 0 173 172" xmlns:xlink="http://www.w3.org/1999/xlink"><title>Snap It</title><defs><path id="b" d="M60.801 128.016l14.937 22.604 22.711-34.948 42.24-2.552-12.352-24.262 22.4-13.238-37.129-28.416-.37-36.536-22.637 9.41L75.738.62 51.802 31.436l-1.188 1.529-39.828 5.155 9.197 22.58L.738 75.62 31.91 94.28l6.328 46.292L60.8 128.016z"/><filter id="a" width="123.7%" height="123.5%" x="-7.4%" y="-7.2%" filterUnits="objectBoundingBox"><feMorphology radius="2" operator="dilate" in="SourceAlpha" result="shadowSpreadOuter1"/><feOffset dx="15" dy="15" in="shadowSpreadOuter1" result="shadowOffsetOuter1"/><feComposite in="shadowOffsetOuter1" in2="SourceAlpha" operator="out" result="shadowOffsetOuter1"/><feColorMatrix values="0 0 0 0 0.0431372549 0 0 0 0 0 0 0 0 0 0.294117647 0 0 0 0.190613678 0" in="shadowOffsetOuter1"/></filter></defs><g fill="none" fill-rule="evenodd" transform="translate(3.346 3)"><use fill="#000" filter="url(#a)" xlink:href="#b"/><use fill="#E98B3B" xlink:href="#b"/><path stroke="#C27811" stroke-width="2" d="M60.478 129.34l-23.033 12.818-6.461-47.267-32.015-19.164L18.77 60.375l-9.4-23.08 40.707-5.269L75.745-1.018l15.184 19.877 23.294-9.683.38 37.53 37.92 29.021-22.869 13.514 12.62 24.785-43.26 2.614-23.27 35.805-15.266-23.104z"/><path stroke="#EDC57B" stroke-width="6" d="M75.717 145.147l21.041-32.378 39.181-2.367-11.554-22.694L145.383 75.3l-34.76-26.603-.34-33.551-20.663 8.59-13.902-18.2-23.493 30.245-37.191 4.815 8.586 21.08L6.046 75.302l28.64 17.145 5.93 43.37 21.155-11.773 13.946 21.104z"/><path fill="#C27811" d="M50.249 65.57c.277-1.045.416-1.92.416-2.624 0-.704-.192-1.285-.576-1.744-.384-.458-.88-.688-1.488-.688s-1.115.299-1.52.896c-.406.598-.608 1.28-.608 2.048 0 1.494.853 2.774 2.56 3.84 1.706 1.11 2.87 1.91 3.488 2.4.618.49 1.056.939 1.312 1.344.64 1.046.96 2.123.96 3.232 0 1.92-.646 3.45-1.936 4.592-1.29 1.142-2.747 1.712-4.368 1.712-1.92 0-3.53-.81-4.832-2.432-.939-1.173-1.803-2.634-2.592-4.384l3.104-1.504c.49 1.28 1.104 2.363 1.84 3.248.736.886 1.52 1.328 2.352 1.328.533 0 1.013-.17 1.44-.512.426-.341.64-.858.64-1.552 0-.693-.267-1.338-.8-1.936-.534-.597-1.248-1.205-2.144-1.824a37.28 37.28 0 0 1-2.08-1.52 18.083 18.083 0 0 1-1.632-1.52c-1.13-1.194-1.696-2.725-1.696-4.592 0-1.866.65-3.434 1.952-4.704 1.301-1.27 2.848-1.904 4.64-1.904 1.792 0 3.301.694 4.528 2.08 1.226 1.387 1.84 2.81 1.84 4.272 0 1.462-.278 2.715-.832 3.76l-3.968-1.312zm21.27-11.418l.032 14.88c0 2.453-.085 5.088-.256 7.904l-3.584-.352c-2.752-6.25-5.002-10.933-6.752-14.048.022 3.157.032 8.192.032 15.104l-3.744-.416a79.511 79.511 0 0 1-.096-3.84c0-5.163.288-11.179.864-18.048l4.256.416c2.112 5.824 4.011 10.25 5.696 13.28-.128-6.443-.277-11.52-.448-15.232l4 .352zm12.558 19.317l-.736-4.448-4.768.192-1.216 6.016-4.48-.384 5.728-23.2 5.92.512 4.192 21.696-4.64-.384zm-3.275-17.633l-2.016 9.952 3.584-.128-1.568-9.824zm10.35 15.53a250.86 250.86 0 0 1-.128-8.688c0-3.382.106-7.9.32-13.552a15.824 15.824 0 0 1 5.52-.992c1.888 0 3.573.698 5.056 2.096 1.482 1.397 2.224 3.157 2.224 5.28 0 2.122-.806 3.957-2.416 5.504-1.611 1.546-3.718 2.682-6.32 3.408 0 2.389.032 4.842.096 7.36l-4.352-.416zm7.977-15.625c0-1.13-.293-2.048-.88-2.752-.587-.704-1.243-1.056-1.968-1.056-.192 0-.63.053-1.312.16a313.78 313.78 0 0 0-.192 8.736c1.344-.427 2.405-1.099 3.184-2.016.779-.918 1.168-1.942 1.168-3.072zm-24.98 27.926c-.192 3.371-.288 7.168-.288 11.392 0 4.224.14 8.075.416 11.552l-4.32-.384c-.277-4.352-.416-8.282-.416-11.792 0-3.509.096-7.226.288-11.152l4.32.384zm6.212 20.42c-.214-3.777-.32-7.067-.32-9.873 0-2.805.064-5.733.192-8.784l-3.904.544-.704-3.712c2.09-.362 4.16-.63 6.208-.8l5.984-.32.608 3.552c-1.174.064-2.496.16-3.968.288a204.194 204.194 0 0 0-.192 8.448c0 2.56.042 6.23.128 11.008l-4.032-.352z"/><path fill="#FFF" d="M47.249 63.57c.277-1.045.416-1.92.416-2.624 0-.704-.192-1.285-.576-1.744-.384-.458-.88-.688-1.488-.688s-1.115.299-1.52.896c-.406.598-.608 1.28-.608 2.048 0 1.494.853 2.774 2.56 3.84 1.706 1.11 2.87 1.91 3.488 2.4.618.49 1.056.939 1.312 1.344.64 1.046.96 2.123.96 3.232 0 1.92-.646 3.45-1.936 4.592-1.29 1.142-2.747 1.712-4.368 1.712-1.92 0-3.53-.81-4.832-2.432-.939-1.173-1.803-2.634-2.592-4.384l3.104-1.504c.49 1.28 1.104 2.363 1.84 3.248.736.886 1.52 1.328 2.352 1.328.533 0 1.013-.17 1.44-.512.426-.341.64-.858.64-1.552 0-.693-.267-1.338-.8-1.936-.534-.597-1.248-1.205-2.144-1.824a37.28 37.28 0 0 1-2.08-1.52 18.083 18.083 0 0 1-1.632-1.52c-1.13-1.194-1.696-2.725-1.696-4.592 0-1.866.65-3.434 1.952-4.704 1.301-1.27 2.848-1.904 4.64-1.904 1.792 0 3.301.694 4.528 2.08 1.226 1.387 1.84 2.81 1.84 4.272 0 1.462-.278 2.715-.832 3.76l-3.968-1.312zm21.27-11.418l.032 14.88c0 2.453-.085 5.088-.256 7.904l-3.584-.352c-2.752-6.25-5.002-10.933-6.752-14.048.022 3.157.032 8.192.032 15.104l-3.744-.416a79.511 79.511 0 0 1-.096-3.84c0-5.163.288-11.179.864-18.048l4.256.416c2.112 5.824 4.011 10.25 5.696 13.28-.128-6.443-.277-11.52-.448-15.232l4 .352zm12.558 19.317l-.736-4.448-4.768.192-1.216 6.016-4.48-.384 5.728-23.2 5.92.512 4.192 21.696-4.64-.384zm-3.275-17.633l-2.016 9.952 3.584-.128-1.568-9.824zm10.35 15.53a250.86 250.86 0 0 1-.128-8.688c0-3.382.106-7.9.32-13.552a15.824 15.824 0 0 1 5.52-.992c1.888 0 3.573.698 5.056 2.096 1.482 1.397 2.224 3.157 2.224 5.28 0 2.122-.806 3.957-2.416 5.504-1.611 1.546-3.718 2.682-6.32 3.408 0 2.389.032 4.842.096 7.36l-4.352-.416zm7.977-15.625c0-1.13-.293-2.048-.88-2.752-.587-.704-1.243-1.056-1.968-1.056-.192 0-.63.053-1.312.16a313.78 313.78 0 0 0-.192 8.736c1.344-.427 2.405-1.099 3.184-2.016.779-.918 1.168-1.942 1.168-3.072zm-24.98 27.926c-.192 3.371-.288 7.168-.288 11.392 0 4.224.14 8.075.416 11.552l-4.32-.384c-.277-4.352-.416-8.282-.416-11.792 0-3.509.096-7.226.288-11.152l4.32.384zm6.212 20.42c-.214-3.777-.32-7.067-.32-9.873 0-2.805.064-5.733.192-8.784l-3.904.544-.704-3.712c2.09-.362 4.16-.63 6.208-.8l5.984-.32.608 3.552c-1.174.064-2.496.16-3.968.288a204.194 204.194 0 0 0-.192 8.448c0 2.56.042 6.23.128 11.008l-4.032-.352z"/></g></svg>