<svg xmlns="http://www.w3.org/2000/svg" aria-labelledby="snapitsvg" width="173" height="172" viewBox="0 0 173 172" xmlns:xlink="http://www.w3.org/1999/xlink">
  <title id="snapitsvg">Snap It</title>
  <defs>
    <path id="b4" d="M60.8010337,128.016158 L75.7378947,150.620313 L98.4493648,115.671876 L140.6898,113.120313 L128.337142,88.8579248 L150.737895,75.6203132 L113.608233,47.2041221 L113.237895,10.6684079 L90.6013597,20.0782652 L75.7378947,0.620313183 L51.8022491,31.4357713 L50.6144961,32.9649197 L10.7859894,38.1203132 L19.9833581,60.7005413 L0.737894682,75.6203132 L31.9096776,94.2797103 L38.2378947,140.572218 L60.8010337,128.016158 Z"/>
    <filter id="a4" width="123.7%" height="123.5%" x="-7.4%" y="-7.2%" filterUnits="objectBoundingBox">
      <feMorphology radius="2" operator="dilate" in="SourceAlpha" result="shadowSpreadOuter1"/>
      <feOffset dx="15" dy="15" in="shadowSpreadOuter1" result="shadowOffsetOuter1"/>
      <feComposite in="shadowOffsetOuter1" in2="SourceAlpha" operator="out" result="shadowOffsetOuter1"/>
      <feColorMatrix values="0 0 0 0 0.0431372549 0 0 0 0 0 0 0 0 0 0.294117647 0 0 0 0.190613678 0" in="shadowOffsetOuter1"/>
    </filter>
  </defs>
  <g fill="none" fill-rule="evenodd" transform="translate(3.346 3)">
    <use fill="black" filter="url(#a4)" xlink:href="#b4"/>
    <use fill="#E98B3B" xlink:href="#b4"/>
    <path stroke="#C27811" stroke-width="2" d="M60.4775929,129.340559 L37.4453282,142.157681 L30.9839464,94.8910387 L-1.03143945,75.7266618 L18.771021,60.3750858 L9.37014696,37.295237 L50.0775019,32.0260855 L75.7445104,-1.01838043 L90.9285819,18.8592818 L114.222819,9.17602216 L114.603239,46.7063696 L152.522801,75.7270895 L129.654362,89.241078 L142.273302,114.026483 L99.0130595,116.639648 L75.7448794,152.444752 L60.4775929,129.340559 Z"/>
    <path stroke="#EDC57B" stroke-width="6" d="M75.7169405,145.146998 L96.7582809,112.768558 L135.939293,110.401803 L124.385483,87.7084653 L145.383177,75.2999841 L110.623215,48.6973794 L110.283123,15.1455651 L89.6196929,23.7352157 L75.7180475,5.53639402 L52.2254787,35.781422 L15.0335167,40.5955417 L23.6203695,61.6769075 L6.04589707,75.3012674 L34.6868715,92.4457252 L40.6155941,135.815831 L61.771356,124.042956 L75.7169405,145.146998 Z"/>
    <path fill="#C27811" d="M52.9733282,61.4398996 C53.4279707,60.4586007 53.7164121,59.6213098 53.8386611,58.9280017 C53.96091,58.2346936 53.8727753,57.6288576 53.5742542,57.1104756 C53.2757332,56.5920936 52.8270963,56.280118 52.2283302,56.1745394 C51.6295641,56.0689608 51.0787374,56.2751062 50.5758337,56.7929819 C50.0729299,57.3108576 49.7548016,57.947954 49.6214391,58.7042901 C49.3621232,60.1749437 49.9802166,61.5836633 51.4757379,62.9304912 C52.9638502,64.3193378 53.9699248,65.309069 54.4939918,65.8997147 C55.0180587,66.4903603 55.3709501,67.0074911 55.5526764,67.4511227 C56.0014354,68.5917156 56.1294956,69.7082381 55.9368609,70.8007236 C55.6034547,72.6915639 54.702137,74.0869014 53.2328807,74.9867779 C51.7636243,75.8866544 50.2306643,76.1958165 48.6339547,75.9142736 C46.7431144,75.5808674 45.2977026,74.502838 44.297676,72.6801531 C43.5770134,71.361641 42.9799033,69.7724925 42.5063279,67.9126598 L45.8243381,66.9705129 C46.085282,68.316277 46.5012902,69.488988 47.072375,70.4886812 C47.6434599,71.4883743 48.338674,72.0604504 49.1580381,72.2049264 C49.6832715,72.2975392 50.1856102,72.2128173 50.6650691,71.9507582 C51.1445281,71.688699 51.4444514,71.2162748 51.5648481,70.5334714 C51.6852447,69.8506679 51.5346918,69.1688393 51.1131847,68.487965 C50.6916777,67.8070908 50.0934525,67.0842343 49.3184912,66.319374 C48.5435299,65.5545137 47.9487176,64.9351545 47.5340363,64.461278 C47.119355,63.9874015 46.6716058,63.3939735 46.1907753,62.6809764 C45.2847331,61.3081143 44.9937889,59.7025489 45.3179338,57.8642319 C45.6420786,56.0259149 46.5551314,54.5947377 48.0571195,53.5706574 C49.5591076,52.5465772 51.1924693,52.1901319 52.9572536,52.501311 C54.7220379,52.8124901 56.0880314,53.7573737 57.0552749,55.3359901 C58.0225185,56.9146065 58.3792553,58.4234619 58.1254962,59.8626015 C57.871737,61.3017411 57.3809829,62.4878632 56.653219,63.4210033 L52.9733282,61.4398996 Z M75.9034898,53.8885601 L73.3511187,68.5480562 C72.9250997,70.96413 72.3835632,73.5439264 71.7264928,76.2875228 L68.2580659,75.3185154 C66.6332837,68.6848974 65.2299603,63.6825968 64.0480536,60.3114635 C63.520795,63.42455 62.6570476,68.3845314 61.4567853,75.1915566 L57.8419028,74.1317378 C58.0085546,72.8180454 58.1993085,71.5519473 58.4141702,70.3334058 C59.3106624,65.2491462 60.6389411,59.3746122 62.3990464,52.7096275 L66.5181506,53.8583542 C67.5867429,59.96065 68.687871,64.6497187 69.8215677,67.9257011 C70.8142746,61.5586543 71.5488724,56.5325758 72.0253829,52.8473151 L75.9034898,53.8885601 Z M84.9157566,75.0932635 L84.9633252,70.5850335 L80.2344214,69.9461621 L77.9922277,75.6596093 L73.6469699,74.5034993 L83.3165864,52.6506162 L89.0577404,54.182835 L89.4185837,76.2771572 L84.9157566,75.0932635 Z M84.7522959,57.1585999 L81.0387769,66.6093319 L84.5905548,67.1056316 L84.7522959,57.1585999 Z M92.2483638,74.2498878 C92.5829364,71.8610147 93.0437985,69.001631 93.6309638,65.6716511 C94.2181291,62.3416712 95.107593,57.911533 96.2993824,52.3811038 C98.1790066,52.0409935 100.048454,52.0348631 101.90778,52.3627125 C103.767106,52.6905619 105.305498,53.6712595 106.523002,55.3048347 C107.740505,56.93841 108.164951,58.8003842 107.796352,60.8908132 C107.427753,62.9812423 106.316079,64.6481749 104.461297,65.8916611 C102.606514,67.1351473 100.334611,67.8880626 97.6455185,68.1504294 C97.2306131,70.5034752 96.836114,72.9250694 96.4620095,75.4152847 L92.2483638,74.2498878 Z M102.817702,60.2476875 C103.014041,59.1341927 102.884459,58.1798684 102.428951,57.3846862 C101.973443,56.589504 101.388539,56.128943 100.674222,56.0029896 C100.485138,55.969649 100.045192,55.9462302 99.3543705,55.9327324 C98.7269875,58.8765264 98.158302,61.7331445 97.6482969,64.5026725 C99.0459754,64.3158701 100.207865,63.8383826 101.134,63.0701959 C102.060134,62.3020091 102.621363,61.3611824 102.817702,60.2476875 Z M73.3683465,83.4124465 C72.5939494,86.6985812 71.8400154,90.421517 71.1065218,94.5813658 C70.3730282,98.7412145 69.8409323,102.557422 69.5102181,106.030103 L65.3225295,104.901776 C65.8051288,100.567713 66.3511164,96.6727216 66.9605088,93.2166856 C67.5699012,89.7606496 68.3099435,86.1164976 69.1806579,82.2841202 L73.3683465,83.4124465 Z M75.9393758,104.599544 C76.3849812,100.843846 76.8513486,97.5846821 77.3384921,94.8219543 C77.8256355,92.0592265 78.3970994,89.1868516 79.0529008,86.2047435 L75.1137467,86.0625564 L75.0650241,82.2847017 C77.1869158,82.2905852 79.2710967,82.3873048 81.3176291,82.5748634 L87.2662862,83.2988356 L87.2482509,86.9024508 C86.0816239,86.7617306 84.7623944,86.6265949 83.2905231,86.4970395 C82.6310172,89.500157 82.0790018,92.2622345 81.6344602,94.7833549 C81.1899187,97.3044754 80.59477,100.925436 79.8489965,105.646346 L75.9393758,104.599544 Z" transform="rotate(-10 75.216 79.076)"/>
    <path fill="#FFFFFF" d="M49.9733282,59.4398996 C50.4279707,58.4586007 50.7164121,57.6213098 50.8386611,56.9280017 C50.96091,56.2346936 50.8727753,55.6288576 50.5742542,55.1104756 C50.2757332,54.5920936 49.8270963,54.280118 49.2283302,54.1745394 C48.6295641,54.0689608 48.0787374,54.2751062 47.5758337,54.7929819 C47.0729299,55.3108576 46.7548016,55.947954 46.6214391,56.7042901 C46.3621232,58.1749437 46.9802166,59.5836633 48.4757379,60.9304912 C49.9638502,62.3193378 50.9699248,63.309069 51.4939918,63.8997147 C52.0180587,64.4903603 52.3709501,65.0074911 52.5526764,65.4511227 C53.0014354,66.5917156 53.1294956,67.7082381 52.9368609,68.8007236 C52.6034547,70.6915639 51.702137,72.0869014 50.2328807,72.9867779 C48.7636243,73.8866544 47.2306643,74.1958165 45.6339547,73.9142736 C43.7431144,73.5808674 42.2977026,72.502838 41.297676,70.6801531 C40.5770134,69.361641 39.9799033,67.7724925 39.5063279,65.9126598 L42.8243381,64.9705129 C43.085282,66.316277 43.5012902,67.488988 44.072375,68.4886812 C44.6434599,69.4883743 45.338674,70.0604504 46.1580381,70.2049264 C46.6832715,70.2975392 47.1856102,70.2128173 47.6650691,69.9507582 C48.1445281,69.688699 48.4444514,69.2162748 48.5648481,68.5334714 C48.6852447,67.8506679 48.5346918,67.1688393 48.1131847,66.487965 C47.6916777,65.8070908 47.0934525,65.0842343 46.3184912,64.319374 C45.5435299,63.5545137 44.9487176,62.9351545 44.5340363,62.461278 C44.119355,61.9874015 43.6716058,61.3939735 43.1907753,60.6809764 C42.2847331,59.3081143 41.9937889,57.7025489 42.3179338,55.8642319 C42.6420786,54.0259149 43.5551314,52.5947377 45.0571195,51.5706574 C46.5591076,50.5465772 48.1924693,50.1901319 49.9572536,50.501311 C51.7220379,50.8124901 53.0880314,51.7573737 54.0552749,53.3359901 C55.0225185,54.9146065 55.3792553,56.4234619 55.1254962,57.8626015 C54.871737,59.3017411 54.3809829,60.4878632 53.653219,61.4210033 L49.9733282,59.4398996 Z M72.9034898,51.8885601 L70.3511187,66.5480562 C69.9250997,68.96413 69.3835632,71.5439264 68.7264928,74.2875228 L65.2580659,73.3185154 C63.6332837,66.6848974 62.2299603,61.6825968 61.0480536,58.3114635 C60.520795,61.42455 59.6570476,66.3845314 58.4567853,73.1915566 L54.8419028,72.1317378 C55.0085546,70.8180454 55.1993085,69.5519473 55.4141702,68.3334058 C56.3106624,63.2491462 57.6389411,57.3746122 59.3990464,50.7096275 L63.5181506,51.8583542 C64.5867429,57.96065 65.687871,62.6497187 66.8215677,65.9257011 C67.8142746,59.5586543 68.5488724,54.5325758 69.0253829,50.8473151 L72.9034898,51.8885601 Z M81.9157566,73.0932635 L81.9633252,68.5850335 L77.2344214,67.9461621 L74.9922277,73.6596093 L70.6469699,72.5034993 L80.3165864,50.6506162 L86.0577404,52.182835 L86.4185837,74.2771572 L81.9157566,73.0932635 Z M81.7522959,55.1585999 L78.0387769,64.6093319 L81.5905548,65.1056316 L81.7522959,55.1585999 Z M89.2483638,72.2498878 C89.5829364,69.8610147 90.0437985,67.001631 90.6309638,63.6716511 C91.2181291,60.3416712 92.107593,55.911533 93.2993824,50.3811038 C95.1790066,50.0409935 97.0484538,50.0348631 98.9077801,50.3627125 C100.767106,50.6905619 102.305498,51.6712595 103.523002,53.3048347 C104.740505,54.93841 105.164951,56.8003842 104.796352,58.8908132 C104.427753,60.9812423 103.316079,62.6481749 101.461297,63.8916611 C99.6065144,65.1351473 97.3346111,65.8880626 94.6455185,66.1504294 C94.2306131,68.5034752 93.836114,70.9250694 93.4620095,73.4152847 L89.2483638,72.2498878 Z M99.8177022,58.2476875 C100.014041,57.1341927 99.884459,56.1798684 99.4289511,55.3846862 C98.9734433,54.589504 98.3885394,54.128943 97.674222,54.0029896 C97.4851379,53.969649 97.0451918,53.9462302 96.3543705,53.9327324 C95.7269875,56.8765264 95.158302,59.7331445 94.6482969,62.5026725 C96.0459754,62.3158701 97.2078647,61.8383826 98.1339995,61.0701959 C99.0601344,60.3020091 99.621363,59.3611824 99.8177022,58.2476875 Z M70.3683465,81.4124465 C69.5939494,84.6985812 68.8400154,88.421517 68.1065218,92.5813658 C67.3730282,96.7412145 66.8409323,100.557422 66.5102181,104.030103 L62.3225295,102.901776 C62.8051288,98.5677128 63.3511164,94.6727216 63.9605088,91.2166856 C64.5699012,87.7606496 65.3099435,84.1164976 66.1806579,80.2841202 L70.3683465,81.4124465 Z M72.9393758,102.599544 C73.3849812,98.8438461 73.8513486,95.5846821 74.3384921,92.8219543 C74.8256355,90.0592265 75.3970994,87.1868516 76.0529008,84.2047435 L72.1137467,84.0625564 L72.0650241,80.2847017 C74.1869158,80.2905852 76.2710967,80.3873048 78.3176291,80.5748634 L84.2662862,81.2988356 L84.2482509,84.9024508 C83.0816239,84.7617306 81.7623944,84.6265949 80.2905231,84.4970395 C79.6310172,87.500157 79.0790018,90.2622345 78.6344602,92.7833549 C78.1899187,95.3044754 77.59477,98.9254361 76.8489965,103.646346 L72.9393758,102.599544 Z" transform="rotate(-10 72.216 77.076)"/>
  </g>
</svg>
