<svg xmlns="http://www.w3.org/2000/svg" width="516" height="360" viewBox="0 0 516 360" preserveAspectRatio="none"><g fill="none" fill-rule="evenodd"><path fill="#0B004B" fill-opacity=".191" d="M515.326 72.296c-43.215.596-68.505-1.51-75.873-6.317-7.367-4.806-22.809-21.8-46.324-50.979-47.507 29.072-76.048 42.647-85.623 40.723-32.67-6.563-60.047-20.137-82.13-40.723-32.909 28.575-56.884 42.15-71.923 40.723C102.493 50.89 65.976 40.885 43.9 25.711c25.889 43.694 38.833 82.92 38.833 117.68 0 12.741-17.578 33.545-52.733 62.412 55.977 15.139 83.965 29.118 83.965 41.94 0 12.82-24.689 50.24-74.065 112.257 61.533-34.148 113.593-53.28 156.18-57.395 14.627-1.413 36.707 8.462 66.239 29.627 33.62-24.364 61.462-37.416 83.525-39.156 22.063-1.74 62.926 5.894 122.588 22.902-17.494-28.965-25.543-49.455-24.147-61.47 1.396-12.014 13.71-28.25 36.945-48.705-34.797-25.014-52.196-42.487-52.196-52.42 0-29.63 28.764-56.658 86.292-81.087z"/><path fill="#688127" d="M485.326 57.296c-43.215.596-68.505-1.51-75.873-6.317-7.367-4.806-22.809-21.8-46.324-50.979-47.507 29.072-76.048 42.647-85.623 40.723-32.67-6.563-60.047-20.137-82.13-40.723-32.909 28.575-56.884 42.15-71.923 40.723C72.493 35.89 35.976 25.885 13.9 10.711c25.889 43.694 38.833 82.92 38.833 117.68 0 12.741-17.578 33.545-52.733 62.412 55.977 15.139 83.965 29.118 83.965 41.94 0 12.82-24.689 50.24-74.065 112.257 61.533-34.148 113.593-53.28 156.18-57.395 14.627-1.413 36.707 8.462 66.239 29.627 33.62-24.364 61.462-37.416 83.525-39.156 22.063-1.74 62.926 5.894 122.588 22.902-17.494-28.965-25.543-49.455-24.147-61.47 1.396-12.014 13.71-28.25 36.945-48.705-34.797-25.014-52.196-42.487-52.196-52.42 0-29.63 28.764-56.658 86.292-81.087z"/><path fill="#E0F0C2" d="M478 58.726c-40.402.962-64.233-.919-71.493-5.64-7.26-4.723-21.814-21.418-43.662-50.086-48.144 28.562-76.933 41.898-86.37 40.009C244.28 36.56 217.302 23.225 195.54 3c-32.432 28.074-56.059 41.41-70.88 40.009-50.219-4.75-86.206-14.578-107.962-29.486 25.513 42.927 38.27 81.466 38.27 115.615 0 12.518-17.323 32.957-51.968 61.318 55.164 14.873 82.746 28.607 82.746 41.203 0 12.596-23.016 48.376-69.048 107.341 58.012-31.584 108.002-49.397 149.97-53.44 14.415-1.389 36.174 8.313 65.277 29.107 33.132-23.937 60.57-36.76 82.312-38.47 21.743-1.709 62.013 5.791 120.808 22.5-17.24-28.456-25.171-48.587-23.796-60.39 1.375-11.804 13.512-27.754 36.409-47.851-34.292-24.576-51.438-41.742-51.438-51.5 0-29.11 27.253-55.854 81.76-80.23z"/><path fill="#9AB83C" d="M444.487 68.09c-27.99.876-45.31-.85-51.96-5.179-6.648-4.328-16.882-19.632-30.7-45.911-50.28 26.182-79.74 38.407-88.38 36.675-29.485-5.91-54.192-18.136-74.12-36.675-29.702 25.734-51.339 37.96-64.912 36.675-45.99-4.354-77.547-10.368-94.67-18.044 20.564 33.36 30.847 65.692 30.847 96.996 0 11.474-15.864 30.21-47.592 56.207 50.519 13.634 75.778 26.224 75.778 37.77 0 11.546-17.4 40.7-52.198 87.463 45.77-21.663 87.872-34.348 126.306-38.054 13.2-1.273 33.128 7.62 59.78 26.681 30.342-21.942 55.469-33.696 75.38-35.263 19.913-1.567 53.979 2.905 102.2 13.416-10.165-21.28-14.617-37.33-13.357-48.15 1.26-10.82 12.373-25.44 33.342-43.863-31.404-22.527-47.106-38.263-47.106-47.208 0-26.684 20.454-51.196 61.362-73.537z"/></g></svg>