<svg xmlns="http://www.w3.org/2000/svg" width="516" height="360" viewBox="0 0 516 360" preserveAspectRatio="none">
  <g fill="none" fill-rule="evenodd">
    <path fill="#0B004B" fill-opacity=".191" d="M30,72.2963482 C73.2145338,72.8917055 98.5054691,70.7860817 105.872806,65.9794767 C113.240142,61.1728717 128.681685,44.1797128 152.197435,15 C199.704457,44.0721681 228.245435,57.6465287 237.820368,55.7230817 C270.490818,49.1601243 297.867084,35.5857637 319.949166,15 C352.859005,43.5752873 376.833722,57.1496479 391.873317,55.7230817 C442.832209,50.8894256 479.349788,40.8853685 501.426055,25.7109103 C475.53735,69.404626 462.592997,108.63123 462.592997,143.390723 C462.592997,156.132132 480.170788,176.936288 515.326371,205.803192 C459.349469,220.941625 431.361018,234.921302 431.361018,247.742222 C431.361018,260.563142 456.049501,297.982401 505.426469,360 C443.893006,325.851987 391.832939,306.720442 349.246266,302.605366 C334.618848,301.191944 312.539213,311.067484 283.00736,332.231986 C249.387129,307.867821 221.545333,294.815798 199.481971,293.075915 C177.418609,291.336033 136.555982,298.970132 76.8940908,315.978213 C94.3876072,287.01267 102.436535,266.522688 101.040874,254.508266 C99.6452125,242.493844 87.3301067,226.258819 64.0955562,205.803192 C98.8929582,180.788944 116.291659,163.315591 116.291659,153.383134 C116.291659,123.753468 87.5277728,96.7245396 30,72.2963482 Z" transform="matrix(-1 0 0 1 545.326 0)"/>
    <path fill="#688127" d="M1.13686838e-13,57.2963482 C43.2145338,57.8917055 68.5054691,55.7860817 75.8728057,50.9794767 C83.2401423,46.1728717 98.6816855,29.1797128 122.197435,0 C169.704457,29.0721681 198.245435,42.6465287 207.820368,40.7230817 C240.490818,34.1601243 267.867084,20.5857637 289.949166,0 C322.859005,28.5752873 346.833722,42.1496479 361.873317,40.7230817 C412.832209,35.8894256 449.349788,25.8853685 471.426055,10.7109103 C445.53735,54.404626 432.592997,93.6312304 432.592997,128.390723 C432.592997,141.132132 450.170788,161.936288 485.326371,190.803192 C429.349469,205.941625 401.361018,219.921302 401.361018,232.742222 C401.361018,245.563142 426.049501,282.982401 475.426469,345 C413.893006,310.851987 361.832939,291.720442 319.246266,287.605366 C304.618848,286.191944 282.539213,296.067484 253.00736,317.231986 C219.387129,292.867821 191.545333,279.815798 169.481971,278.075915 C147.418609,276.336033 106.555982,283.970132 46.8940908,300.978213 C64.3876072,272.01267 72.4365348,251.522688 71.0408737,239.508266 C69.6452125,227.493844 57.3301067,211.258819 34.0955562,190.803192 C68.8929582,165.788944 86.2916591,148.315591 86.2916591,138.383134 C86.2916591,108.753468 57.5277728,81.7245396 1.13686838e-13,57.2963482 Z" transform="matrix(-1 0 0 1 485.326 0)"/>
    <path fill="#E0F0C2" d="M3,58.7255371 C43.4015615,59.6875243 67.2325133,57.8073785 74.4928554,53.0850999 C81.7531976,48.3628213 96.3072455,31.667788 118.154999,3 C166.298566,31.5621301 195.088289,44.898344 204.524167,43.0086417 C236.72015,36.5608239 263.698836,23.22461 285.460223,3 C317.892118,31.0739665 341.518655,44.4101804 356.339833,43.0086417 C406.558658,38.2597866 442.545899,28.4312392 464.301555,13.5229996 C438.788827,56.4501588 426.032463,94.9885772 426.032463,129.138255 C426.032463,141.65613 443.354975,162.095301 478,190.455767 C422.83604,205.328614 395.25406,219.063033 395.25406,231.659025 C395.25406,244.255017 418.269892,280.035342 464.301555,339 C406.289943,307.415987 356.30004,289.60254 314.331846,285.559658 C299.91686,284.171033 278.157883,293.873318 249.054917,314.666513 C215.922946,290.729789 188.485491,277.906749 166.742551,276.19739 C144.999611,274.488032 104.730425,281.9882 45.9349932,298.697893 C63.1744544,270.240518 71.1064889,250.110009 69.7310967,238.306366 C68.3557045,226.502724 56.2194488,210.552524 33.3223295,190.455767 C67.614375,165.880366 84.7603977,148.713564 84.7603977,138.95536 C84.7603977,109.845513 57.5069318,83.1022385 3,58.7255371 Z" transform="matrix(-1 0 0 1 481 0)"/>
    <path fill="#9AB83C" d="M23,68.0890973 C50.9904836,68.9660155 68.3101979,67.240097 74.9591427,62.9113416 C81.6080876,58.5825862 91.8417907,43.2788057 105.660252,17 C155.939106,43.1819526 185.399171,55.4068153 194.040449,53.6745882 C223.525192,47.7640886 248.231988,35.5392258 268.160837,17 C297.861626,42.7344693 319.498559,54.959332 333.071638,53.6745882 C379.061509,49.321471 410.618561,43.3069785 427.742795,35.6311105 C407.177875,68.9909881 396.895415,101.322862 396.895415,132.626733 C396.895415,144.101452 412.759189,162.837359 444.486738,188.834453 C393.968164,202.467896 368.708878,215.05778 368.708878,226.604106 C368.708878,238.150432 386.108292,267.304786 420.907121,314.067168 C375.137182,292.403711 333.035196,279.718995 294.601166,276.01302 C281.400073,274.740113 261.473431,283.633874 234.821241,302.694303 C204.479331,280.752307 179.352398,268.997853 159.440443,267.430941 C139.528488,265.864029 105.46204,270.335953 57.241101,280.846713 C67.4055195,259.567245 71.8579439,243.517508 70.5983742,232.697503 C69.3388045,221.877497 58.2245493,207.25648 37.2556084,188.834453 C68.6599027,166.307002 84.3620499,150.570767 84.3620499,141.625746 C84.3620499,114.94172 63.9080333,90.4295036 23,68.0890973 Z" transform="matrix(-1 0 0 1 467.487 0)"/>
  </g>
</svg>
