<svg xmlns="http://www.w3.org/2000/svg" width="308" height="81" viewBox="0 0 308 81"><title>The North Carolina Arboretum — An affiliate of the University of North Carolina</title><g fill="none" fill-rule="evenodd"><path fill="#6A813B" fill-rule="nonzero" d="M34.71 62.61c-8.55-3.83-17.28-7-25.54-11.53-3.8-2.11-6.63-7-7.1-12.1 24.93.91 39-17.59 63.93-13.35l1.3 9.83c.82 6.3-2.38 13-7 15.6-8.26 4.57-17 7.7-25.54 11.55"/><path fill="#96A673" fill-rule="nonzero" d="M67.67 45.08c.24-.29.11-.54-.27-.88-3.22-2.88-9.46-5.94-19.74-5.46-8.82.41-14.39 5.14-17.51 7.61a35.21 35.21 0 0 1-14.06 6.77 7.8 7.8 0 0 0 7.44.65c3.13-1.57 2.79-5.17 4.48-2.52 1.75 2.93 3.38-.69 4.43-1.91 3.69-4.3 5.27 6.3 8.18-1.14 2.84-7.29 4.73 6.45 15.1-4.2 1.71-1.76 7.65-1.45 11.18 1.05.35.25.63.19.77 0"/><path fill="#002D73" fill-rule="nonzero" d="M2 37.33c0-.62 4.43-33.41 4.43-33.41C35.64-7.5 34 10.31 62.88 3.92l2.88 20C34.36 19.12 23 38.33 2 37.33"/><path fill="#96A673" fill-rule="nonzero" d="M46.56 20.33c-2.18-.5-7.14-1.76-18.66 1.47C15.33 25.32 2.4 34.83.26 36.35c-.22.13-.37-.1-.17-.3 2.17-2.14 15.44-12.87 26.55-16.78 9.59-3.38 18.53-.4 20 .84.15.14.1.28-.13.22"/><path fill="#B4BE99" fill-rule="nonzero" d="M33.52 17c1.42-.92 5.47-3.2 14.15-2.88 9.47.35 19.54 6 21.34 6.87.18.07.24-.17.06-.3-1.95-1.42-12.33-7.92-20.86-8.94-7.36-.88-14 3.66-14.81 5.09-.07.16 0 .27.14.17M33.57 35c-4-.28-8.58 3.06-4.75 4.67 1.06.45 1.55 2.64-2.61 2.15-1.56-.27-5.12 0-4.27 2.19 1.08 2.6-.26 3.26-2.42 3.88-5.25.93-4.26 3.43-3.81 4.69a41.56 41.56 0 0 0 14.38-7.9 28.17 28.17 0 0 1 11.06-6.08 34.33 34.33 0 0 1 19 .83c1.69.58 1.26-.55.83-1.09a16 16 0 0 0-3.22-2.8 24.77 24.77 0 0 0-16.25-4.62c-.79.08-6.72.2-3.67 3.19 2.61 2.56-2.37 1-4.28.9"/><path fill="#DCAA00" fill-rule="nonzero" d="M27 8.28a3.15 3.15 0 0 0-.63 2.12 4.43 4.43 0 0 1-.1 2.06c-.07.25 0 .38.2.48a.43.43 0 0 0 .44-.07 4 4 0 0 0 .84-1.39 4.07 4.07 0 0 1 2.88-1.88c.36 0 .44.3.06.52A3.42 3.42 0 0 0 29.42 12a4.66 4.66 0 0 1-.79 1.94c-.15.22-.15.35 0 .52a.42.42 0 0 0 .44.05 4.39 4.39 0 0 0 1.27-1.1 4.28 4.28 0 0 1 3.36-1c.36.06.32.41-.12.51a3.71 3.71 0 0 0-1.87 1.4c-.55.84-.59 1.45-1.41 1.64-9.3 2.1-17.14 7.61-17.85 8.04a4.31 4.31 0 0 1-3.51 0c-.32-.15-.16-.48.28-.46a3.93 3.93 0 0 0 2.24-.81 5.52 5.52 0 0 1 1.88-1.17c.26-.1.35-.21.31-.44a.37.37 0 0 0-.32-.28 4.86 4.86 0 0 0-1.72.22 4.14 4.14 0 0 1-3.32-1c-.25-.24 0-.51.42-.36a4 4 0 0 0 2.4-.15 5.8 5.8 0 0 1 2.18-.59c.28 0 .4-.1.44-.34a.35.35 0 0 0-.2-.36 4.75 4.75 0 0 0-1.7-.27A3.85 3.85 0 0 1 9 16.1c-.16-.3.18-.48.52-.22a3.87 3.87 0 0 0 2.31.53 5.81 5.81 0 0 1 2.26 0c.27.06.41 0 .53-.2a.33.33 0 0 0-.07-.4 4.44 4.44 0 0 0-1.52-.74 3.55 3.55 0 0 1-2-2.59c0-.33.33-.41.57-.07a3.6 3.6 0 0 0 2 1.16 5.52 5.52 0 0 1 2.12.68.42.42 0 0 0 .57 0 .34.34 0 0 0 .07-.4 4.06 4.06 0 0 0-1.18-1.13 3.36 3.36 0 0 1-1-3c.07-.33.46-.3.56.1a3.31 3.31 0 0 0 1.5 1.68 5.13 5.13 0 0 1 1.77 1.25.4.4 0 0 0 .55.13.36.36 0 0 0 .2-.37 3.76 3.76 0 0 0-.73-1.42 3.32 3.32 0 0 1 .07-3.2c.18-.3.53-.16.5.25a3.09 3.09 0 0 0 .85 2 4.72 4.72 0 0 1 1.25 1.69.38.38 0 0 0 .48.28.39.39 0 0 0 .31-.3 3.66 3.66 0 0 0-.21-1.56 3.47 3.47 0 0 1 1.15-3c.27-.23.56 0 .39.38A3 3 0 0 0 23 9.77c.36.608.57 1.294.61 2 0 .26.1.36.36.4a.41.41 0 0 0 .4-.19 3.74 3.74 0 0 0 .33-1.55 3.75 3.75 0 0 1 2.1-2.62c.33-.15.53.16.24.47"/><path fill="#002D73" fill-rule="nonzero" d="M227.6 10.2a6.41 6.41 0 0 0-6.24 6.65 6.74 6.74 0 0 0 .86 3.27 10.48 10.48 0 0 0 2.2.87 7 7 0 0 1-1.56-4.42c0-3.21 2-5.68 4.53-5.68 2.53 0 4.94 2.77 4.94 6.21 0 3.14-1.95 5.5-4.41 5.63a8.8 8.8 0 0 1-4.59-1 17.11 17.11 0 0 1-5.78-5.23 3.51 3.51 0 0 0 1.31-.81 3.18 3.18 0 0 0 .92-2.23c0-2.21-1.78-3.22-4-3.22h-3.68c-.42 0-.83-.07-1-.07-.17 0-.19 0-.19.12s0 .09.37.16c1 .21 1.16.35 1.16 2.08v8.66c0 1.29-.16 1.76-1.09 1.89-.23 0-.42.07-.42.16s.18.12.25.12.62 0 1.11-.07h2.03c.39 0 .81.07.95.07.14 0 .23 0 .23-.12s0-.09-.39-.16c-1-.16-1.18-.48-1.18-1.71v-4.5a20.06 20.06 0 0 0 2-.07 19.7 19.7 0 0 0 3.76 4.14 11.43 11.43 0 0 0 7.57 2.5 6.49 6.49 0 0 0 6.48-6.66 6.44 6.44 0 0 0-6.14-6.58zM214 16.39v-5.52h1.22c1.64 0 3 .81 3 2.85.06 2.64-2.57 2.67-4.22 2.67z"/><path fill="#002D73" d="M117.89 20.46c0 1.85-.23 2.31-1.57 2.59-.53.09-.53.09-.53.23s.12.09.19.09.74 0 1.27-.07 1.11-.07 1.29-.07c.18 0 .62 0 1.09.07.47.07.95.07 1.11.07.16 0 .18 0 .18-.12s-.07-.14-.18-.16c-2-.21-2-1-2-2.61v-12l12.33 14.78h.55V8.64c0-1.52.23-2.38 1.62-2.56.44 0 .49 0 .49-.19s-.07-.12-.16-.12h-.6c-.37 0-1.22.09-2 .09a13 13 0 0 1-1.66-.09h-.6c-.09 0-.23 0-.23.16s.12.12.58.21c1.25.21 1.69.48 1.69 2.47v11.62l-12-14.32h-1.06c-.19 0-.69 0-1.2-.07s-1-.07-1.09-.07c-.09 0-.19 0-.19.14s.23.19.42.21c2 .25 2.19 1.69 2.19 3l.07 11.34zm15.04-3.65a6.24 6.24 0 1 0 12.47-.07 6.25 6.25 0 1 0-12.47.07m1.5-.28c0-3.21 2-5.68 4.53-5.68 2.53 0 4.94 2.77 4.94 6.21 0 3.14-2.08 5.59-4.5 5.59-2.82 0-5-3.1-5-6.12"/><path fill="#002D73" d="M148 16.86a20.06 20.06 0 0 0 2-.07 42 42 0 0 0 4 5.06 4.28 4.28 0 0 0 3.46 1.39c.23 0 .69 0 .69-.16s-.12-.14-.39-.14c-1.11 0-2.19-.81-6.26-6.4a3.53 3.53 0 0 0 1.32-.81 3.18 3.18 0 0 0 .92-2.23c0-2.21-1.78-3.22-4-3.22h-3.68c-.42 0-.83-.07-1-.07-.17 0-.18 0-.18.12s0 .09.37.16c1 .21 1.16.35 1.16 2.08v8.66c0 1.29-.16 1.76-1.09 1.89-.23 0-.42.07-.42.16s.19.12.25.12.62 0 1.11-.07h2.03c.39 0 .81.07.95.07.14 0 .23 0 .23-.12s0-.09-.39-.16c-1-.16-1.18-.49-1.18-1.71l.1-4.55zm0-6h1.22c1.64 0 3 .81 3 2.85 0 2.65-2.63 2.67-4.27 2.67l.05-5.52zm12.16 9.97c0 1.71-.25 2.17-1.25 2.24-.25 0-.32 0-.32.14s.11.12.23.12h3.24c.44 0 .85.07.92.07.07 0 .21 0 .21-.14s-.28-.14-.46-.18c-1.06-.19-1.06-.67-1.06-2.17V11h3.39c1.13 0 1.32.46 1.55 1.29 0 .21 0 .23.14.23a.1.1 0 0 0 .09-.12s-.3-1.78-.35-2.1h-11.16a7 7 0 0 1-.16 1.06 7.09 7.09 0 0 0-.16 1s0 .09.09.09.12 0 .18-.35c.3-1.13.86-1.13 1.55-1.13h3.33v9.86zm17.38-4.16v4.53c0 1.34-.21 1.69-1 1.85-.53.09-.58.12-.58.21s.07.09.16.09.6 0 1-.07h2.15c.46 0 .92.07 1.08.07.16 0 .19 0 .19-.12s-.12-.12-.37-.12c-1.13-.07-1.18-1-1.18-2v-9c0-.86.12-1.57.92-1.69.56-.09.62-.09.62-.19s0-.11-.14-.11h-1.06c-.49 0-1 .07-1.16.07h-1c-.44 0-.88-.07-1-.07s-.18 0-.18.09 0 .11.42.16c.76.09 1.13.39 1.13 1.82v3.91h-7.39v-3.86c0-1.52.44-1.73 1.13-1.82.32 0 .42 0 .42-.14s-.07-.11-.16-.11h-1c-.42 0-.86.07-1 .07h-1.13c-.48 0-1-.07-1.15-.07-.15 0-.14 0-.14.09s0 .09.28.14c.81.14 1.27.21 1.27 1.76v9c0 1-.07 1.94-1.18 2-.25 0-.37 0-.37.12s.09.12.16.12.6 0 1.06-.07h2.29c.49 0 .95.07 1 .07.05 0 .14 0 .14-.12s-.12-.09-.39-.16c-.88-.16-1.18-.32-1.18-1.87v-4.58h7.34zm28.35-.14h-3.44l1.64-5 1.8 5zm-8.43 6.73c-.665.067-1.332.1-2 .1-7 0-9.42-5.24-9.42-8.85 0-4.94 4-8.75 9.45-8.75a9.75 9.75 0 0 1 4.53 1 7.62 7.62 0 0 0 .14 1.76c0 .09.07.39.07.46s0 .12-.12.12-.14 0-.28-.46c-.51-1.59-2.66-2.17-4.11-2.17a7.71 7.71 0 0 0-7.81 8.06 7.68 7.68 0 0 0 7.92 8.06c1.85 0 3.56-.58 4.3-1.62a5.8 5.8 0 0 0 .33-.55l.08-.24 3.09-9.45c.9-.12 1.08-.74 1.22-1.43l4.39 12.12a2.29 2.29 0 0 0 1.62 1.62c.25 0 .37.07.37.16s-.09.09-.16.09-.69 0-1.2-.07h-2.26c-.46 0-.9.07-1.06.07-.16 0-.19 0-.19-.12s.07-.12.32-.16a1.09 1.09 0 0 0 1-1.09 4.78 4.78 0 0 0-.49-1.78l-1.09-3h-3.93l-1 3.19a4.46 4.46 0 0 1-3.74 2.85l.03.08zm37.37-2.04c0 1.29-.16 1.71-1.18 1.87-.16 0-.35 0-.35.14s.14.12.21.12c.07 0 .58 0 1-.07h7.35L243 21a.83.83 0 0 0 .09-.21s0-.11-.12-.11-.14 0-.35.42c-.65 1.15-1.09 1.41-3.9 1.41-2 0-2.43-.37-2.43-2.36v-7.89c0-1.59.53-1.76 1.13-1.85.35 0 .42 0 .42-.16s-.18-.09-.23-.09h-1c-.42 0-.83.07-1 .07-.17 0-.69 0-1.18-.07h-1.06c-.07 0-.16 0-.16.11s0 .09.53.18c.88.16 1 .51 1 1.82l.09 8.95z"/><path fill="#002D73" d="M245.55 12.22c0-1.45.39-1.71 1.16-1.8.21 0 .39 0 .39-.14s-.07-.11-.14-.11h-1c-.44 0-.88.07-1 .07h-1.11c-.48 0-1-.07-1.16-.07-.16 0-.14 0-.14.09s0 .09.28.14c.81.14 1.27.21 1.27 1.76v9c0 .95 0 1.94-1.18 2-.25 0-.37 0-.37.12s.09.12.16.12.62 0 1.09-.07h2.14c.46 0 .92.07 1.08.07.16 0 .14 0 .14-.12s-.14-.12-.39-.16c-.92-.19-1.18-.35-1.18-1.87l-.04-9.03zm4.29 8.78v-8.35c0-1.57-.55-2-1.57-2.19-.23 0-.37-.07-.37-.19s.12-.11.21-.11.39 0 .78.07h1.75l8.75 10.51v-8.5c0-1.59-.37-1.71-1.34-1.85-.32 0-.37 0-.37-.14s.14-.14.21-.14c.07 0 .48 0 .85.07h.85c.16 0 .6 0 1-.07h.95s.18 0 .18.09 0 .11-.32.14c-1.06.14-1.22.65-1.22 2.08V23.1c1.28-.15 2.08-.63 2.82-2.87l3.09-9.45c.9-.12 1.09-.74 1.22-1.43l4.39 12.12a2.29 2.29 0 0 0 1.62 1.62c.25 0 .37.07.37.16s-.09.09-.16.09-.69 0-1.2-.07h-2.26c-.46 0-.9.07-1.06.07-.16 0-.18 0-.18-.12s.07-.12.32-.16a1.09 1.09 0 0 0 1-1.09 4.8 4.8 0 0 0-.49-1.78l-1.08-3h-3.93l-1 3.19a4.58 4.58 0 0 0-.28 1.41 1.1 1.1 0 0 0 1.09 1.25c.28 0 .37.07.37.16s-.09.12-.18.12-.67 0-1.16-.07h-2.28c-.46 0-.95.07-1.11.07-.43 0-.49-.12-.49-.12l-9-10.85v8.43c0 1.57 0 2.12 1.18 2.29.32 0 .39 0 .39.14s-.07.12-.28.12c-.21 0-1.39-.12-1.62-.12-.23 0-1.82.12-1.92.12-.1 0-.14 0-.14-.09s.07-.12.3-.16c1-.16 1.27-.37 1.27-2.12l.05.04zm18.55-4.47H265l1.64-5 1.75 5zM97.53 11.7c-.86 0-1.06-.07-1-.32a.2.2 0 0 0-.27 0 18.36 18.36 0 0 1-1 1.89.24.24 0 0 0 .33.14 2.29 2.29 0 0 1 2.37-1.27h.93c.45 0 .49 0 .3.62L97.21 19c-.45 1.44-.65 1.64-1.27 1.68h-.55a.24.24 0 0 0 0 .36h3.58a.21.21 0 0 0 .06-.36h-.52c-.71-.06-.66-.37-.25-1.68l1.95-6.22c.17-.59.2-.62.65-.62h.86c1.37 0 1.41.2 1.34 1.31a.22.22 0 0 0 .32 0 10.61 10.61 0 0 1 .81-2c0-.07-.17-.1-.24-.07-.28.28-.48.32-1.2.32l-5.22-.02zm4.58 9.15c-.13.32.25.37.41.37a.26.26 0 0 0 .25-.17 22.85 22.85 0 0 1 1.71-2.94 8.93 8.93 0 0 1 1.79-1.88 1.54 1.54 0 0 1 .76-.38c.2 0 .3.15.3.42a14.54 14.54 0 0 1-1 3.64c-.21.49-.35.71-.57.71a.82.82 0 0 1-.37-.18.33.33 0 0 0-.2-.09.45.45 0 0 0-.38.45c0 .11.06.41.52.41a1.55 1.55 0 0 0 1-.55 5.34 5.34 0 0 0 .92-1.16 8.32 8.32 0 0 0 1.1-3.3c0-.49-.23-.95-.85-.95a2.42 2.42 0 0 0-1.34.55 9 9 0 0 0-2.16 2.34l1.45-4.24c.28-.81.73-2.09 1-2.88l-.06-.08a7.69 7.69 0 0 0-1.65.32.14.14 0 0 0 0 .18l.3.2c.23.16.16.35-.16 1.29l-2.77 7.92zm10.14-5.59a2.72 2.72 0 0 0-1.7.68 5.31 5.31 0 0 0-2.1 3.8c0 .69.3 1.48 1.14 1.48a2.88 2.88 0 0 0 2.26-1.29.19.19 0 0 0-.18-.24c-.62.54-1 .82-1.48.82a.72.72 0 0 1-.68-.81 3.57 3.57 0 0 1 .2-1.26c2-.56 3.43-1.27 3.43-2.34a.89.89 0 0 0-.89-.85m-.28.44a.3.3 0 0 1 .32.32 1.59 1.59 0 0 1-.55 1 4.11 4.11 0 0 1-1.89 1 5.65 5.65 0 0 1 1-1.65c.51-.55.88-.68 1.07-.68"/><path fill="#6A813B" d="M107.33 41.26v9.81c0 2.67.4 3.37 2.56 3.72.75.15.86.15.86.35 0 .2-.4.25-.5.25-.3 0-1.21-.05-2.06-.15-.85-.1-1.66-.1-2-.1-.34 0-1.46.05-2.46.1-1.228.1-2.462.1-3.69 0-1.46-.1-3-.15-3.56-.15s-1.81 0-3.12.15-2.64.15-3.07.15c0 0-.34 0-.34-.29s.29-.34.78-.39c.15 0 3.07-.29 3.07-3.12 0-1.46-.39-2.44-1.46-5.12L90 39.85H77.2L74.84 47c-.78 2.68-.84 3-.84 4.15 0 1.15.15 3.07 3.37 3.56.78.15.88.15.88.44 0 .29-.15.24-.44.24-.54 0-2-.1-3.37-.15-1.37-.05-2.83-.15-3.32-.15-.49 0-1.76 0-3 .15s-2.59.15-3 .15c-.41 0-.39 0-.39-.24s.1-.29 1.12-.44c3.27-.39 5.66-2.1 7.56-8l8.88-26.79a3.68 3.68 0 0 0 3.27-3.17l12.2 33.52c1.17 3.15 3.51 4.32 4.52 4.3 1.44-.11 1.86-1.36 1.86-3.9V31.8c0-3.77-.4-4.07-2.51-4.53-.75-.15-.8-.15-.8-.35 0-.2.25-.25.4-.25.35 0 1.26 0 2.16.15.9.15 1.81.1 2.11.1h5.83c4.78 0 8.65 2.21 8.65 7a6.93 6.93 0 0 1-2 4.86 7.64 7.64 0 0 1-2.98 1.78c8.85 12.17 11.22 13.83 13.63 13.93 1.32 0 1.82-1.4 1.82-4.32V31.7c0-2.87-.2-4.22-2.52-4.48-.65-.05-.91-.05-.91-.3a.29.29 0 0 1 .3-.3c.2 0 1.26.05 2.36.15 1.1.1 2.31.15 2.72.15h3.47c3.72 0 5.18.86 5.93 1.36a6.11 6.11 0 0 1 3.07 5.46 6.63 6.63 0 0 1-4.68 6.41c6.19.75 7.44 5.43 7.44 7.69a7.17 7.17 0 0 1-3.17 5.94c-2.16 1.36-5.43 1.36-6.69 1.36h-6.19c-6.54.08-8.46-.44-11.18-3a91.58 91.58 0 0 1-8.75-11c-1.91.15-2.62.15-4.37.15l.05-.03zm-17.95-3.19l-6-16.69-5.6 16.69-.18.54h12l-.22-.54zm187.51 12.62c-.35 3.62-1.16 3.77-2.77 4.07-.8.15-.91.15-.91.3s.15.25.4.25 1.21-.05 2.06-.15c.85-.1 1.81-.1 2.11-.1.3 0 1.41.05 2.36.1s1.86.15 1.86.15.45 0 .45-.3c0-.15-.05-.15-.9-.3-2.21-.35-2.82-.91-2.82-3.52a17.94 17.94 0 0 1 .1-2l1.51-16.95h.1l10 23.19 9.05-24.59h.1l1.71 18c0 .5.1 1.36.1 2.21 0 1.46 0 3.47-2.47 3.77-.4 0-.9.1-.9.3 0 .2.1.2.4.2.6 0 3.67-.25 4.38-.25.86 0 1.86.05 2.67.1.35 0 1.91.15 2.16.15.25 0 .4-.05.4-.25s-.05-.2-.75-.3c-1.61-.15-2.36-1-2.72-4.43l-1.77-18.61c0-.4-.1-1.21-.1-1.61 0-2.46 1.46-2.77 2.56-3 .7-.15.86-.2.86-.35 0-.15-.3-.2-.35-.2-.25 0-1.06 0-1.86.1s-1.61.15-1.91.15h-2.77L291 49l-9.55-22.19h-1.81c-.3 0-1.31 0-2.21-.1-.9-.1-1.81-.15-1.91-.15-.1 0-.35 0-.35.25s0 .15.8.3c1.56.25 3.12.55 2.72 4.58l-1.8 19zm-29-7.49c0 4.63 1 6.49 3.22 8.85a12.48 12.48 0 0 0 15.14 1.31c4.23-2.82 4.78-6.74 4.78-10.06V31.43c0-3 .5-4 2.47-4.22.85-.1 1-.15 1-.4s-.25-.2-.3-.2c-.3 0-1.16 0-2 .1-.84.1-1.71.15-2 .15a22.1 22.1 0 0 1-2.31-.1 19.12 19.12 0 0 0-1.89-.16c-.25 0-.4 0-.4.25s.25.2.9.35c2 .45 2.87.6 2.87 4.17v11.48c0 4.23-.75 6-2.46 8.1a9.06 9.06 0 0 1-6.79 2.87 8.6 8.6 0 0 1-6.24-2.51c-1.76-1.76-2.67-3.77-2.67-8.25V31.28c0-3.57.8-3.72 2.56-4.07.5-.1.75-.15.75-.35 0-.2-.2-.25-.35-.25l-2.11.1c-1.06.1-2.16.15-2.51.15l-2.41-.1c-1.06-.1-2.06-.15-2.11-.15-.2 0-.4 0-.4.25s.35.25.75.3c2.26.35 2.57 1 2.57 4.07l-.06 11.97zm-17.48 6.71c0 3.72-.55 4.73-2.72 4.88-.55.05-.7.05-.7.3s.25.25.5.25 1.36 0 2.36-.1c1-.1 2-.1 2.36-.1.36 0 1.36.05 2.31.1s1.86.15 2 .15c.14 0 .45-.05.45-.3s-.6-.3-1-.4c-2.31-.4-2.31-1.46-2.31-4.73V28.43h7.39c2.46 0 2.87 1 3.37 2.82.1.45.1.5.3.5a.23.23 0 0 0 .2-.25c0-.1-.65-3.87-.75-4.58h-24.23a15.17 15.17 0 0 1-.35 2.31 15.19 15.19 0 0 0-.35 2.21c0 .1 0 .2.2.2s.25-.05.4-.75c.65-2.47 1.86-2.47 3.37-2.47h7.24l-.04 21.49zm-78.91-9.43c0-7 4.27-12.37 9.86-12.37s10.76 6 10.76 13.53c0 6.84-4.53 12.17-9.81 12.17-6.14 0-10.81-6.74-10.81-13.33zm-3.27.6c0 7.64 5.88 14.23 13.63 14.23 7.75 0 13.53-6.69 13.53-14.38 0-7.9-6.14-14.33-13.58-14.33-7 0-13.58 5.83-13.58 14.48zm32.44-12.9h2.67c3.57 0 6.64 1.75 6.64 6.21 0 5.76-5.73 5.81-9.3 5.81l-.01-12.02zm0 13.08v9.81c0 2.67.4 3.37 2.56 3.72.75.15.86.15.86.35 0 .2-.4.25-.5.25-.3 0-1.21-.05-2.06-.15-.85-.1-1.66-.1-2-.1-.34 0-1.46.05-2.46.1s-2.06.15-2.41.15c-.15 0-.55-.05-.55-.25s.4-.25.91-.35c2-.3 2.36-1.31 2.36-4.12V31.8c0-3.77-.4-4.07-2.51-4.53-.75-.15-.81-.15-.81-.35 0-.2.25-.25.4-.25.35 0 1.26 0 2.16.15.9.15 1.81.1 2.11.1h5.83c4.78 0 8.65 2.21 8.65 7a6.93 6.93 0 0 1-2 4.86 7.63 7.63 0 0 1-2.87 1.76c8.85 12.17 11.21 13.83 13.63 13.93 1.49.06 1.94-1.59 1.94-3.67V30.25c0-1.46-.55-2.87-2.67-3-.45-.05-.7-.05-.7-.3s.2-.25.4-.25 1.41 0 2.56.1c1.15.1 2.31.15 2.72.15h12.07c0 .65.1 3.72.1 4.33 0 .2-.05.45-.25.45s-.2-.1-.3-.8c-.25-1.61-1-2.47-4.12-2.47h-6.54v11.09h4.43c2.31 0 3.37-.5 3.62-2.31.05-.25.1-.65.25-.65s.25.35.25.4c0 .45-.25 2.46-.25 2.87 0 .6.3 3.87.3 3.87 0 .2-.1.35-.25.35s-.2-.1-.3-.65c-.2-1.16-.65-2.36-3.62-2.36h-4.43v7.39c0 3.87 1 5.08 4.28 5.08h2.56c3.27 0 5.23-.35 6.59-2.21.2-.25.91-1.71 1.21-1.71.3 0 .25.05.25.15 0 .1-.05.2-.4.9l-2.26 4.48h-13.17c-.4 0-1.51.05-2.61.1-4.15-.08-6.25.08-9.78-3.12a91.4 91.4 0 0 1-8.75-11c-1.91.15-2.62.15-4.38.15l-.05-.02zm-46.95-13.11h1.61c4.68 0 6.59 3.21 6.59 5.81a6 6 0 0 1-3 5.26 7.7 7.7 0 0 1-3.42.65h-1.81l.03-11.72zm0 12.93h3c4.43 0 7.7 2.21 7.7 6.49 0 3.07-2 6.09-6.89 6.09-3 0-3.77-1.36-3.77-4.78l-.04-7.8zm-26.39-12.9H110c3.57 0 6.64 1.75 6.64 6.21 0 5.76-5.73 5.81-9.3 5.81l-.01-12.02z"/><path fill="#002D73" fill-rule="nonzero" d="M69.32 74.16c-.09-.29-.14-.33-.54-.33h-2c-.33 0-.41 0-.5.31l-.46 1.38a5 5 0 0 0-.29 1.09c0 .16.07.24.38.26h.43a.21.21 0 0 1 0 .33h-2.62a.26.26 0 0 1 0-.33h.43a.87.87 0 0 0 .79-.64c.24-.6.6-1.46 1.15-2.92l1.34-3.54a1.88 1.88 0 0 0 .22-.93c.27-.097.507-.27.68-.5a.19.19 0 0 1 .2.12c.17.58.38 1.18.58 1.76l1.8 5.27c.38 1.13.55 1.32 1.11 1.39h.35a.26.26 0 0 1 0 .33h-3.1a.22.22 0 0 1 0-.33h.38c.28 0 .46-.1.46-.24a2.68 2.68 0 0 0-.17-.7l-.62-1.78zM66.73 73c-.1.3-.09.31.28.31h1.61c.38 0 .41-.05.29-.41l-.71-2.14a8.53 8.53 0 0 0-.3-.83 8 8 0 0 0-.31.77l-.86 2.3zm10.87 2.81v1.43a.15.15 0 0 1-.16.09c-.1-.14-.34-.43-1-1.24l-1.9-2.16c-.22-.25-.78-.92-.95-1.1a2.07 2.07 0 0 0 0 .53v1.78a6.41 6.41 0 0 0 .15 1.69c0 .09.21.14.42.16h.25a.15.15 0 0 1 0 .2h-1.85a.15.15 0 0 1 0-.2h.22c.19 0 .32-.07.36-.16a7.89 7.89 0 0 0 .11-1.69v-2.36a.75.75 0 0 0-.18-.59.89.89 0 0 0-.51-.2h-.14a.14.14 0 0 1 0-.2h1.31a11.26 11.26 0 0 0 1.4 1.8l.79.89c.56.63 1 1.09 1.35 1.48a.82.82 0 0 0 0-.34v-1.77a5.77 5.77 0 0 0-.16-1.69c0-.07-.18-.12-.51-.16h-.14c-.06 0 0-.18 0-.2h1.84a.14.14 0 0 1 0 .2h-.11c-.26 0-.43.11-.46.17a6.6 6.6 0 0 0-.12 1.69l-.01 1.95zm8.76-1.65c-.09-.29-.14-.33-.54-.33h-2c-.33 0-.41 0-.5.31l-.46 1.38a5 5 0 0 0-.29 1.09c0 .16.07.24.38.26h.43a.21.21 0 0 1 0 .33h-2.62a.26.26 0 0 1 0-.33h.43a.87.87 0 0 0 .79-.64c.24-.6.6-1.46 1.15-2.92l1.34-3.54a1.88 1.88 0 0 0 .22-.93c.27-.097.507-.27.68-.5a.19.19 0 0 1 .2.12c.17.58.38 1.18.58 1.76l1.8 5.27c.38 1.13.55 1.32 1.11 1.39h.35a.26.26 0 0 1 0 .33h-3.1a.22.22 0 0 1 0-.33h.38c.28 0 .46-.1.46-.24a2.68 2.68 0 0 0-.17-.7l-.62-1.78zM83.76 73c-.1.3-.09.31.28.31h1.61c.38 0 .41-.05.29-.41l-.71-2.14a8.53 8.53 0 0 0-.3-.83 8 8 0 0 0-.31.77l-.86 2.3zm7.15 1.11c0 .22 0 .22.27.22h.56c.233.027.467.027.7 0 .09 0 .16-.07.2-.29l.07-.33a.17.17 0 0 1 .21 0v1.62c0 .18-.16 0-.21 0l-.08-.33a.39.39 0 0 0-.26-.31 2.78 2.78 0 0 0-.63 0h-.56c-.25 0-.27 0-.27.22V76c0 .86 0 1 .5 1h.28v.2H89.6a.16.16 0 0 1 0-.2h.2c.47-.06.49-.16.49-1v-3c0-.86 0-1-.49-1h-.13v-.2h3.57v1.08a.15.15 0 0 1-.2 0c-.07-.37-.16-.67-.57-.78a3.52 3.52 0 0 0-.79 0h-.5c-.25 0-.25 0-.25.33l-.02 1.68zm4.4 0c0 .22 0 .22.27.22h.56c.233.027.467.027.7 0 .09 0 .16-.07.2-.29l.07-.33a.17.17 0 0 1 .21 0v1.62c0 .18-.16 0-.21 0L97 75a.39.39 0 0 0-.26-.31 2.78 2.78 0 0 0-.63 0h-.56c-.25 0-.27 0-.27.22V76c0 .86 0 1 .5 1h.28v.2H94a.16.16 0 0 1 0-.2h.2c.47-.06.49-.16.49-1v-3c0-.86 0-1-.49-1H94v-.2h3.57v1.08a.15.15 0 0 1-.2 0c-.07-.37-.16-.67-.57-.78a3.52 3.52 0 0 0-.79 0h-.5c-.25 0-.25 0-.25.33l.05 1.68zM99 73c0-.87 0-1-.5-1h-.2v-.2h2s.07.17 0 .2h-.2c-.48 0-.5.18-.5 1v3c0 .87 0 1 .5 1h.2v.2h-2a.16.16 0 0 1 0-.2h.2c.48-.06.5-.17.5-1v-3zm2.82 0c0-.86 0-1-.53-1h-.2v-.2h2.06s.07.17 0 .2h-.2c-.48 0-.5.17-.5 1v2.85c0 .52 0 .73.17.88.17.15.25.19.89.19s.87 0 1-.11a1.75 1.75 0 0 0 .54-.81h.2a6.6 6.6 0 0 1-.34 1.15h-3.81a.16.16 0 0 1 0-.2h.25c.47 0 .49-.16.49-1l-.02-2.95zm4.53 0c0-.87 0-1-.5-1h-.2v-.2h2s.07.17 0 .2h-.2c-.48 0-.5.18-.5 1v3c0 .87 0 1 .5 1h.2v.2h-2a.16.16 0 0 1 0-.2h.2c.48-.06.5-.17.5-1v-3zm5.05 2.3c-.06-.18-.09-.2-.34-.2h-1.24c-.2 0-.25 0-.31.2l-.29.86a3.15 3.15 0 0 0-.18.68c0 .1 0 .15.24.16h.27a.13.13 0 0 1 0 .2h-1.64a.16.16 0 0 1 0-.2h.27a.54.54 0 0 0 .49-.4c.15-.38.38-.91.72-1.83l.83-2.21a1.17 1.17 0 0 0 .14-.58.91.91 0 0 0 .43-.31.12.12 0 0 1 .12.07c.11.36.24.74.36 1.1l1.12 3.29c.24.7.34.83.7.87h.22a.16.16 0 0 1 0 .2h-1.94a.14.14 0 0 1 0-.2h.24c.17 0 .29-.07.29-.15a1.66 1.66 0 0 0-.11-.43l-.39-1.12zm-1.62-.73c-.07.19-.06.2.17.2h1c.24 0 .25 0 .18-.25l-.44-1.33a5.29 5.29 0 0 0-.19-.52 5 5 0 0 0-.2.48l-.52 1.42zm5.83 1.43c0 .86 0 1 .49 1h.26v.2h-2.21a.14.14 0 0 1 0-.2h.29c.47 0 .51-.16.51-1v-3.69c0-.25 0-.26-.25-.26h-.45a1.68 1.68 0 0 0-1 .2 1.5 1.5 0 0 0-.37.57.16.16 0 0 1-.21-.06 8.6 8.6 0 0 0 .31-1.22.21.21 0 0 1 .16 0c0 .26.32.25.7.25h3.32c.44 0 .52 0 .64-.23h.15a5 5 0 0 0-.12 1.24.15.15 0 0 1-.21 0 1 1 0 0 0-.2-.6 1.63 1.63 0 0 0-.95-.2h-.58c-.25 0-.24 0-.24.28l-.04 3.72zm3.44-3c0-.85 0-1-.5-1h-.13v-.2h3.65c.065.36.108.724.13 1.09a.16.16 0 0 1-.2 0c-.12-.38-.2-.67-.62-.78a3.93 3.93 0 0 0-.79 0H120c-.25 0-.25 0-.25.33V74c0 .23 0 .23.27.23h.47a3 3 0 0 0 .7 0c.1 0 .16-.08.2-.29l.07-.34a.16.16 0 0 1 .21 0v1.62a.16.16 0 0 1-.21 0l-.07-.32a.35.35 0 0 0-.25-.31 2.74 2.74 0 0 0-.63 0H120c-.25 0-.27 0-.27.22v1.15c0 .43 0 .71.16.85s.27.19 1 .19a2.39 2.39 0 0 0 1-.12 2.05 2.05 0 0 0 .58-.79.15.15 0 0 1 .2.06 7.15 7.15 0 0 1-.37 1.14h-4.04a.16.16 0 0 1 0-.2h.27c.47 0 .51-.16.51-1l.01-3.09zm6.16 1.56a2.83 2.83 0 0 1 2.91-2.89 2.69 2.69 0 0 1 2.88 2.8 2.8 2.8 0 0 1-2.84 2.86 2.76 2.76 0 0 1-2.95-2.77zm4.94.17c0-1.35-.6-2.81-2.16-2.81-.85 0-2 .58-2 2.37 0 1.21.59 2.78 2.2 2.78 1.02.01 1.96-.73 1.96-2.34zm2.92-.62c0 .22 0 .22.27.22h.56c.233.027.467.027.7 0 .09 0 .16-.07.2-.29l.07-.33a.17.17 0 0 1 .21 0v1.62c0 .18-.16 0-.21 0l-.08-.32a.39.39 0 0 0-.26-.31 2.78 2.78 0 0 0-.63 0h-.56c-.25 0-.27 0-.27.22V76c0 .86 0 1 .5 1h.28v.2h-2.09a.16.16 0 0 1 0-.2h.2c.47-.06.49-.16.49-1v-3c0-.86 0-1-.49-1h-.13v-.2h3.57v1.08a.15.15 0 0 1-.2 0c-.07-.37-.16-.67-.57-.78a3.52 3.52 0 0 0-.79 0h-.5c-.25 0-.25 0-.25.33l-.02 1.68zm9.93 1.12c0 1.38 0 1.57.79 1.64h.42c.08.05.05.29 0 .33h-3.54a.23.23 0 0 1 0-.33h.47c.75-.07.81-.26.81-1.64v-5.86c0-.41 0-.42-.39-.42h-.72a2.68 2.68 0 0 0-1.61.33 2.39 2.39 0 0 0-.59.9.25.25 0 0 1-.34-.09 13.73 13.73 0 0 0 .5-2 .33.33 0 0 1 .25 0c.08.42.51.41 1.11.41h5.31c.71 0 .83 0 1-.37h.24a7.94 7.94 0 0 0-.2 2 .25.25 0 0 1-.34 0c0-.33-.13-.81-.33-1a2.61 2.61 0 0 0-1.52-.33h-.93c-.39 0-.38 0-.38.45l-.01 5.98zm6-.67c-.39 0-.41 0-.41.26V76c0 .86 0 1 .5 1h.24v.2h-1.95a.16.16 0 0 1 0-.2h.14c.46-.08.47-.16.47-1v-3c0-.86-.06-1-.48-1h-.21v-.2h1.95s.07.17 0 .2h-.16c-.48 0-.49.17-.49 1v1c0 .25 0 .26.41.26h2.34c.39 0 .41 0 .41-.26v-1c0-.86 0-1-.5-1h-.16v-.2h2s.07.17 0 .2h-.17c-.47 0-.49.17-.49 1v3c0 .86 0 1 .49 1h.2v.2h-2a.16.16 0 0 1 0-.2h.16c.5-.08.5-.16.5-1v-1.18c0-.25 0-.26-.41-.26H149zm5.51-1.56c0-.85 0-1-.5-1h-.13v-.2h3.65c.065.36.108.724.13 1.09a.16.16 0 0 1-.2 0c-.12-.38-.2-.67-.62-.78a3.93 3.93 0 0 0-.79 0h-.59c-.25 0-.25 0-.25.33V74c0 .23 0 .23.27.23h.47a3 3 0 0 0 .7 0c.1 0 .16-.08.2-.29l.07-.34a.16.16 0 0 1 .21 0v1.62a.16.16 0 0 1-.21 0l-.07-.32a.35.35 0 0 0-.25-.31 2.74 2.74 0 0 0-.63 0h-.47c-.25 0-.27 0-.27.22v1.15c0 .43 0 .71.16.85s.27.19 1 .19a2.39 2.39 0 0 0 1-.12A2 2 0 0 0 158 76a.15.15 0 0 1 .2.06 7.16 7.16 0 0 1-.37 1.14h-4.04a.16.16 0 0 1 0-.2h.27c.47 0 .51-.16.51-1l-.06-3zm14.12-1.16a9.47 9.47 0 0 0-.25-2.71.82.82 0 0 0-.66-.28h-.33a.24.24 0 0 1 0-.31h2.88a.23.23 0 0 1 0 .31h-.31a.77.77 0 0 0-.66.32 11.73 11.73 0 0 0-.18 2.67v1.48a4.57 4.57 0 0 1-.92 3.13 3.46 3.46 0 0 1-2.5 1 3.73 3.73 0 0 1-2.45-.72c-.7-.58-1-1.53-1-3.09V70.5c0-1.36 0-1.59-.79-1.65h-.33c-.08-.05-.05-.28 0-.31h3.24c.08 0 .1.26 0 .31h-.31c-.76.07-.79.29-.79 1.65v2.83c0 2.11.66 3.5 2.66 3.5s2.62-1.49 2.62-3.49l.08-1.5zm7.3 3.97v1.43a.15.15 0 0 1-.16.09c-.1-.14-.34-.43-1-1.24l-1.9-2.16c-.22-.25-.78-.92-.95-1.1a2 2 0 0 0 0 .53v1.78a6.41 6.41 0 0 0 .15 1.69c0 .09.21.14.42.16h.25a.15.15 0 0 1 0 .2h-1.85a.15.15 0 0 1 0-.2h.22c.19 0 .32-.07.36-.16a7.92 7.92 0 0 0 .11-1.69v-2.36a.75.75 0 0 0-.18-.59.89.89 0 0 0-.51-.2h-.14a.14.14 0 0 1 0-.2h1.3a11.34 11.34 0 0 0 1.4 1.8l.8.89c.56.63 1 1.09 1.35 1.48a.81.81 0 0 0 0-.34v-1.77a5.77 5.77 0 0 0-.16-1.69c0-.07-.18-.12-.51-.16h-.14c-.06 0 0-.18 0-.2h1.84a.14.14 0 0 1 0 .2h-.11c-.26 0-.43.11-.46.17a6.6 6.6 0 0 0-.12 1.69l-.01 1.95zm2.01-2.81c0-.87 0-1-.5-1h-.2v-.2h2s.07.17 0 .2h-.2c-.48 0-.5.18-.5 1v3c0 .87 0 1 .5 1h.2v.2h-2a.16.16 0 0 1 0-.2h.2c.48-.06.5-.17.5-1v-3zm2.54-.34c-.19-.46-.31-.63-.66-.67h-.15a.14.14 0 0 1 0-.2h1.85a.14.14 0 0 1 0 .2h-.12c-.31 0-.38.09-.38.16.113.391.25.775.41 1.15.38.95.75 1.89 1.16 2.82.25-.54.6-1.38.79-1.82.19-.44.62-1.48.76-1.83a.88.88 0 0 0 .07-.32c0-.06-.08-.12-.37-.16h-.15a.14.14 0 0 1 0-.2h1.64a.16.16 0 0 1 0 .2h-.25a.52.52 0 0 0-.43.29 19.73 19.73 0 0 0-.92 1.88l-.44 1c-.33.75-.71 1.7-.85 2.14h-.21a9.61 9.61 0 0 0-.38-1.09l-1.37-3.55zm5.77.34c0-.85 0-1-.5-1h-.13v-.2h3.65c.064.36.108.724.13 1.09a.16.16 0 0 1-.2 0c-.12-.38-.2-.67-.62-.78a3.92 3.92 0 0 0-.79 0h-.59c-.25 0-.25 0-.25.33V74c0 .23 0 .23.27.23h.47a3 3 0 0 0 .7 0c.1 0 .16-.08.2-.29l.07-.34a.16.16 0 0 1 .21 0v1.62a.16.16 0 0 1-.21 0l-.07-.32a.35.35 0 0 0-.25-.31 2.73 2.73 0 0 0-.63 0h-.47c-.25 0-.27 0-.27.22v1.15c0 .43 0 .71.16.85s.27.19 1 .19a2.39 2.39 0 0 0 1-.12 2 2 0 0 0 .58-.79.15.15 0 0 1 .2.06 7.12 7.12 0 0 1-.37 1.14h-4.04a.16.16 0 0 1 0-.2h.27c.47 0 .51-.16.51-1l-.03-3.09zm4.75 0c0-.78 0-.92-.36-1h-.26a.14.14 0 0 1 0-.2c.46 0 1-.06 1.83-.06a2.9 2.9 0 0 1 1.37.25c.435.214.702.666.68 1.15a1.51 1.51 0 0 1-1 1.37v.2a8.85 8.85 0 0 0 1.74 2.2 1 1 0 0 0 .56.23.07.07 0 0 1 0 .11 1.26 1.26 0 0 1-.36 0c-.7 0-1.11-.2-1.69-1-.21-.3-.55-.87-.8-1.24a.58.58 0 0 0-.58-.26c-.37 0-.38 0-.38.18v1c0 .86 0 1 .49 1h.17a.16.16 0 0 1 0 .2h-2a.16.16 0 0 1 0-.2h.2c.48-.06.49-.16.49-1L191 73zm.67 1.17a.64.64 0 0 0 0 .27h.56c.295.023.59-.051.84-.21a1.17 1.17 0 0 0 .41-1 1.21 1.21 0 0 0-1.25-1.23c-.51 0-.53 0-.53.26l-.03 1.91zm5.43 3.16a2.55 2.55 0 0 1-1.28-.3 3.76 3.76 0 0 1-.22-1.15c0-.06.16-.07.2 0a1.49 1.49 0 0 0 1.41 1.22.93.93 0 0 0 1-.94 1.23 1.23 0 0 0-.67-1.15l-.78-.51a1.75 1.75 0 0 1-.88-1.41 1.47 1.47 0 0 1 1.67-1.41c.257.006.512.042.76.11.096.013.194.013.29 0 .097.325.147.661.15 1 0 0-.16.07-.2 0a1.07 1.07 0 0 0-1.11-.92.86.86 0 0 0-1 .91c.05.43.314.805.7 1l.66.41a1.84 1.84 0 0 1 1 1.57 1.54 1.54 0 0 1-1.7 1.57zm3.22-4.33c0-.87 0-1-.5-1h-.2v-.2h2s.07.17 0 .2h-.2c-.48 0-.5.18-.5 1v3c0 .87 0 1 .5 1h.2v.2h-2a.16.16 0 0 1 0-.2h.2c.48-.06.5-.17.5-1v-3zm4.73 3c0 .86 0 1 .49 1h.26v.2h-2.21a.14.14 0 0 1 0-.2h.3c.47 0 .51-.16.51-1v-3.69c0-.25 0-.26-.25-.26h-.45a1.68 1.68 0 0 0-1 .2 1.5 1.5 0 0 0-.37.57.16.16 0 0 1-.21-.06 8.77 8.77 0 0 0 .31-1.22.2.2 0 0 1 .16 0c0 .26.32.25.7.25h3.32c.44 0 .52 0 .64-.23h.15a5 5 0 0 0-.12 1.24.15.15 0 0 1-.21 0 1 1 0 0 0-.2-.6 1.63 1.63 0 0 0-.95-.2h-.58c-.25 0-.24 0-.24.28l-.05 3.72zm5.24 0c0 .88 0 1 .49 1h.31a.16.16 0 0 1 0 .2h-2.18a.16.16 0 0 1 0-.2h.25c.48 0 .49-.16.49-1v-.42a1.65 1.65 0 0 0-.26-1l-1-1.88c-.28-.54-.4-.58-.65-.62h-.23a.15.15 0 0 1 0-.2h1.83c.21 0 .07.16 0 .2h-.11c-.29 0-.34.08-.34.15a4 4 0 0 0 .25.63c.3.61.61 1.25.93 1.82.25-.43.52-.91.77-1.38a7.54 7.54 0 0 0 .53-1.08s-.15-.11-.34-.13h-.15a.14.14 0 0 1 0-.2h1.55a.14.14 0 0 1 0 .2h-.23c-.43.07-.67.59-1.08 1.29l-.52.89a1.88 1.88 0 0 0-.38 1.33l.07.4zm8.96-2a4.36 4.36 0 0 1-1.22 2.6 2.2 2.2 0 0 1-1.64.79c-.73 0-1.22-.54-1.15-1.53a4.31 4.31 0 0 1 1.25-2.57 2.23 2.23 0 0 1 1.58-.75c.82-.02 1.22.59 1.18 1.46zm-2.09-.55c-.602.84-1 1.81-1.16 2.83 0 .4.14.73.47.73.33 0 .54-.1.91-.6a7.07 7.07 0 0 0 1.07-2.8c0-.36-.06-.76-.46-.76-.22.01-.5.15-.83.56v.04zm4.84-.35c-.07.2-.16.56-.3 1.07-.34 1.29-.65 2.39-1 3.65a4.53 4.53 0 0 1-.91 1.85 2.14 2.14 0 0 1-1.38.62c-.62 0-.84-.39-.84-.56a.67.67 0 0 1 .26-.52.19.19 0 0 1 .26 0c.222.259.532.426.87.47.23 0 .47-.08.73-1 .53-1.81.93-3.79 1.48-5.66h-1a.29.29 0 0 1 .08-.42h1a7 7 0 0 1 1.28-2.73 2.32 2.32 0 0 1 1.84-1 .84.84 0 0 1 .88.76c0 .3-.31.65-.49.65s-.15-.1-.16-.18c0-.63-.36-.84-.64-.84a1.19 1.19 0 0 0-.83.62 8.62 8.62 0 0 0-1.07 2.67h1.43a.31.31 0 0 1-.11.42l-1.38.13zm11.95 1.9v2.29a.24.24 0 0 1-.25.14c-.16-.22-.54-.68-1.68-2L229 72c-.35-.41-1.25-1.48-1.52-1.77a3.36 3.36 0 0 0-.07.85v2.86c-.04.91.04 1.821.24 2.71.08.14.34.22.67.25h.41a.24.24 0 0 1 0 .33h-2.89a.24.24 0 0 1 0-.33h.35c.3 0 .51-.12.58-.26.153-.891.21-1.797.17-2.7v-3.82a1.2 1.2 0 0 0-.29-.94 1.42 1.42 0 0 0-.81-.31h-.22a.23.23 0 0 1 0-.33h1.48c.2.014.4.014.6 0a18.05 18.05 0 0 0 2.24 2.88l1.27 1.43c.9 1 1.55 1.74 2.16 2.37a1.33 1.33 0 0 0 .05-.55v-2.83a9.21 9.21 0 0 0-.26-2.71c-.08-.12-.29-.2-.81-.26h-.22c-.09-.08-.08-.29 0-.33h2.9a.23.23 0 0 1 0 .33h-.18c-.42.07-.68.17-.73.28a10.56 10.56 0 0 0-.2 2.7l.03 3.15zm1.91-.44a2.83 2.83 0 0 1 2.91-2.89 2.69 2.69 0 0 1 2.84 2.81 2.8 2.8 0 0 1-2.84 2.86 2.76 2.76 0 0 1-2.91-2.78zm4.94.17c0-1.35-.6-2.81-2.16-2.81-.85 0-2 .58-2 2.37 0 1.21.59 2.78 2.2 2.78 1.02.01 1.95-.73 1.95-2.34h.01zM243 73c0-.78 0-.92-.36-1h-.26a.14.14 0 0 1 0-.2c.46 0 1-.06 1.83-.06a2.9 2.9 0 0 1 1.37.25c.435.214.702.666.68 1.15a1.51 1.51 0 0 1-1 1.37v.2a8.85 8.85 0 0 0 1.74 2.2 1 1 0 0 0 .56.23.07.07 0 0 1 0 .11 1.26 1.26 0 0 1-.36 0c-.7 0-1.11-.2-1.69-1-.21-.3-.55-.87-.8-1.24a.58.58 0 0 0-.58-.26c-.37 0-.38 0-.38.18v1c0 .86 0 1 .49 1h.17a.16.16 0 0 1 0 .2h-2a.16.16 0 0 1 0-.2h.2c.48-.06.49-.16.49-1L243 73zm.67 1.17a.64.64 0 0 0 0 .27h.56c.295.023.59-.051.84-.21a1.17 1.17 0 0 0 .41-1 1.21 1.21 0 0 0-1.24-1.23c-.51 0-.53 0-.53.26l-.04 1.91zm6.25 1.83c0 .86 0 1 .49 1h.26v.2h-2.21a.14.14 0 0 1 0-.2h.3c.47 0 .51-.16.51-1v-3.69c0-.25 0-.26-.25-.26h-.45a1.68 1.68 0 0 0-1 .2 1.5 1.5 0 0 0-.37.57.16.16 0 0 1-.21-.06 8.78 8.78 0 0 0 .31-1.22.2.2 0 0 1 .16 0c0 .26.32.25.7.25h3.32c.44 0 .52 0 .64-.23h.15a5 5 0 0 0-.12 1.24.15.15 0 0 1-.21 0 1 1 0 0 0-.2-.6 1.63 1.63 0 0 0-.95-.2h-.58c-.25 0-.24 0-.24.28l-.05 3.72zm4.52-1.44c-.39 0-.41 0-.41.26V76c0 .86 0 1 .5 1h.24v.2h-1.95a.16.16 0 0 1 0-.2h.14c.46-.08.48-.16.48-1v-3c0-.86-.06-1-.48-1h-.21v-.2h1.95s.07.17 0 .2h-.16c-.47 0-.49.17-.49 1v1c0 .25 0 .26.41.26h2.34c.39 0 .41 0 .41-.26v-1c0-.86 0-1-.5-1h-.16v-.2h2s.07.17 0 .2h-.17c-.48 0-.49.17-.49 1v3c0 .86 0 1 .49 1h.2v.2h-2a.16.16 0 0 1 0-.2h.16c.5-.08.5-.16.5-1v-1.18c0-.25 0-.26-.41-.26h-2.39zm8.95-5.11a5.65 5.65 0 0 1 3.54-1.11 10.12 10.12 0 0 1 2.32.31 1 1 0 0 0 .37.05c0 .3.08 1.13.18 1.93a.28.28 0 0 1-.35 0 2.38 2.38 0 0 0-2.69-1.91c-2 0-3.71 1.27-3.71 4s1.75 4.28 3.9 4.28a2.8 2.8 0 0 0 2.74-1.87.28.28 0 0 1 .34.05 4.93 4.93 0 0 1-.63 1.8 2.7 2.7 0 0 0-.46.13 7.74 7.74 0 0 1-2.07.3 5.74 5.74 0 0 1-3.26-.88 4.22 4.22 0 0 1-1.86-3.61 4.36 4.36 0 0 1 1.64-3.47zm10.23 5.85c-.06-.18-.09-.2-.34-.2H272c-.2 0-.25 0-.31.2l-.29.86a3.16 3.16 0 0 0-.18.68c0 .1 0 .15.24.16h.27a.13.13 0 0 1 0 .2h-1.64a.16.16 0 0 1 0-.2h.27a.54.54 0 0 0 .49-.4c.15-.38.38-.91.72-1.83l.84-2.21a1.17 1.17 0 0 0 .14-.58.91.91 0 0 0 .43-.31.12.12 0 0 1 .12.07c.11.36.24.74.36 1.1l1.12 3.29c.24.7.34.83.7.87h.22a.16.16 0 0 1 0 .2h-1.94a.14.14 0 0 1 0-.2h.24c.17 0 .29-.07.29-.15a1.66 1.66 0 0 0-.11-.43l-.36-1.12zm-1.62-.73c-.07.19-.06.2.17.2h1c.24 0 .25 0 .18-.25l-.44-1.33c-.07-.2-.14-.42-.19-.52a5.06 5.06 0 0 0-.2.48l-.52 1.42zm4.44-1.57c0-.78 0-.92-.36-1h-.26a.14.14 0 0 1 0-.2c.46 0 1-.06 1.83-.06A2.9 2.9 0 0 1 279 72c.435.214.702.666.68 1.15a1.51 1.51 0 0 1-1 1.37v.2a8.85 8.85 0 0 0 1.65 2.18 1 1 0 0 0 .56.23.07.07 0 0 1 0 .11 1.26 1.26 0 0 1-.36 0c-.7 0-1.11-.2-1.69-1-.21-.3-.55-.87-.8-1.24a.58.58 0 0 0-.58-.26c-.37 0-.38 0-.38.18v1c0 .86 0 1 .49 1h.17a.16.16 0 0 1 0 .2h-2a.16.16 0 0 1 0-.2h.2c.48-.06.49-.16.49-1l.01-2.92zm.67 1.17a.64.64 0 0 0 0 .27h.56c.295.023.59-.051.84-.21a1.17 1.17 0 0 0 .41-1 1.21 1.21 0 0 0-1.28-1.23c-.51 0-.53 0-.53.26v1.91zm3.64.39a2.83 2.83 0 0 1 2.91-2.89 2.69 2.69 0 0 1 2.84 2.81 2.8 2.8 0 0 1-2.84 2.86 2.76 2.76 0 0 1-2.91-2.78zm4.94.17c0-1.35-.6-2.81-2.16-2.81-.85 0-2 .58-2 2.37 0 1.21.59 2.78 2.2 2.78 1.03.01 1.96-.73 1.96-2.34zm2.25-1.73c0-.86 0-1-.53-1h-.2v-.2h2.06s.07.17 0 .2h-.2c-.48 0-.5.17-.5 1v2.85c0 .52 0 .73.17.88.17.15.25.19.89.19s.87 0 1-.11a1.75 1.75 0 0 0 .54-.81h.2a6.61 6.61 0 0 1-.34 1.15h-3.81a.16.16 0 0 1 0-.2h.25c.48 0 .49-.16.49-1l-.02-2.95zm4.53 0c0-.87 0-1-.5-1h-.2v-.2h2s.07.17 0 .2h-.2c-.48 0-.5.18-.5 1v3c0 .87 0 1 .5 1h.2v.2h-2a.16.16 0 0 1 0-.2h.2c.48-.06.5-.17.5-1v-3zm7.17 2.81v1.43a.15.15 0 0 1-.16.09c-.1-.14-.34-.43-1-1.24l-1.9-2.16c-.22-.25-.78-.92-.95-1.1a2.08 2.08 0 0 0 0 .53v1.78a6.41 6.41 0 0 0 .15 1.69c0 .09.21.14.42.16h.25a.15.15 0 0 1 0 .2h-1.85a.15.15 0 0 1 0-.2h.22c.19 0 .32-.07.36-.16a7.86 7.86 0 0 0 .11-1.69v-2.36a.75.75 0 0 0-.18-.59.89.89 0 0 0-.51-.2h-.14a.14.14 0 0 1 0-.2h1.31c.404.646.873 1.25 1.4 1.8l.79.89c.57.63 1 1.09 1.35 1.48a.84.84 0 0 0 0-.34v-1.77a5.77 5.77 0 0 0-.16-1.69c0-.07-.18-.12-.51-.16h-.14c-.06 0 0-.18 0-.2h1.84a.14.14 0 0 1 0 .2h-.11c-.26 0-.43.11-.46.17a6.6 6.6 0 0 0-.12 1.69l-.01 1.95zm4.29-.51c-.06-.18-.09-.2-.34-.2h-1.24c-.2 0-.25 0-.31.2l-.29.86a3.16 3.16 0 0 0-.18.68c0 .1 0 .15.24.16h.27a.13.13 0 0 1 0 .2h-1.64a.16.16 0 0 1 0-.2h.27a.54.54 0 0 0 .49-.4c.15-.38.38-.91.72-1.83l.84-2.21a1.17 1.17 0 0 0 .14-.58.91.91 0 0 0 .43-.31.12.12 0 0 1 .12.07c.11.36.24.74.36 1.1l1.12 3.29c.24.7.34.83.7.87h.22a.16.16 0 0 1 0 .2h-1.94a.14.14 0 0 1 0-.2h.24c.17 0 .29-.07.29-.15a1.66 1.66 0 0 0-.11-.43l-.4-1.12zm-1.62-.73c-.07.19-.06.2.17.2h1c.24 0 .25 0 .18-.25l-.44-1.33c-.07-.2-.14-.42-.19-.52a5.06 5.06 0 0 0-.2.48l-.52 1.42z"/></g></svg>