<svg xmlns="http://www.w3.org/2000/svg" aria-labelledby="tncasvg" width="308" height="81" viewBox="0 0 308 81">
  <title id="tncasvg">The North Carolina Arboretum — An affiliate of the University of North Carolina</title>
  <g fill="none" fill-rule="evenodd" transform="translate(-1)">
    <path fill="#6A813B" fill-rule="nonzero" d="M35.71,62.61 C27.16,58.78 18.43,55.61 10.17,51.08 C6.37,48.97 3.54,44.08 3.07,38.98 C28,39.89 42.07,21.39 67,25.63 L68.3,35.46 C69.12,41.76 65.92,48.46 61.3,51.06 C53.04,55.63 44.3,58.76 35.76,62.61"/>
    <path fill="#96A673" fill-rule="nonzero" d="M68.67,45.08 C68.91,44.79 68.78,44.54 68.4,44.2 C65.18,41.32 58.94,38.26 48.66,38.74 C39.84,39.15 34.27,43.88 31.15,46.35 C27.0286973,49.6298953 22.2240432,51.9433738 17.09,53.12 C19.2983639,54.5870183 22.1007004,54.8318461 24.53,53.77 C27.66,52.2 27.32,48.6 29.01,51.25 C30.76,54.18 32.39,50.56 33.44,49.34 C37.13,45.04 38.71,55.64 41.62,48.2 C44.46,40.91 46.35,54.65 56.72,44 C58.43,42.24 64.37,42.55 67.9,45.05 C68.25,45.3 68.53,45.24 68.67,45.05"/>
    <path fill="#002D73" fill-rule="nonzero" d="M3,37.33 C3,36.71 7.43,3.92 7.43,3.92 C36.64,-7.5 35,10.31 63.88,3.92 L66.76,23.92 C35.36,19.12 24,38.33 3,37.33"/>
    <path fill="#96A673" fill-rule="nonzero" d="M47.56,20.33 C45.38,19.83 40.42,18.57 28.9,21.8 C16.33,25.32 3.4,34.83 1.26,36.35 C1.04,36.48 0.89,36.25 1.09,36.05 C3.26,33.91 16.53,23.18 27.64,19.27 C37.23,15.89 46.17,18.87 47.64,20.11 C47.79,20.25 47.74,20.39 47.51,20.33"/>
    <path fill="#B4BE99" fill-rule="nonzero" d="M34.52 17C35.94 16.08 39.99 13.8 48.67 14.12 58.14 14.47 68.21 20.12 70.01 20.99 70.19 21.06 70.25 20.82 70.07 20.69 68.12 19.27 57.74 12.77 49.21 11.75 41.85 10.87 35.21 15.41 34.4 16.84 34.33 17 34.4 17.11 34.54 17.01M34.57 35C30.57 34.72 25.99 38.06 29.82 39.67 30.88 40.12 31.37 42.31 27.21 41.82 25.65 41.55 22.09 41.82 22.94 44.01 24.02 46.61 22.68 47.27 20.52 47.89 15.27 48.82 16.26 51.32 16.71 52.58 21.9806708 50.9283912 26.8692508 48.2427319 31.09 44.68 34.2693692 41.8429192 38.050936 39.7640832 42.15 38.6 48.4351214 37.0818727 55.0212046 37.3695806 61.15 39.43 62.84 40.01 62.41 38.88 61.98 38.34 61.0364972 37.2670844 59.9535352 36.3253783 58.76 35.54 54.0520876 32.1433327 48.3006979 30.5081684 42.51 30.92 41.72 31 35.79 31.12 38.84 34.11 41.45 36.67 36.47 35.11 34.56 35.01"/>
    <path fill="#DCAA00" fill-rule="nonzero" d="M28,8.28 C27.5406717,8.88729597 27.3168671,9.64041603 27.37,10.4 C27.4991988,11.0849712 27.464937,11.7907636 27.27,12.46 C27.2,12.71 27.27,12.84 27.47,12.94 C27.618262,13.0003925 27.7877992,12.9734207 27.91,12.87 C28.2821061,12.4689832 28.5679981,11.9959 28.75,11.48 C29.3850569,10.4585739 30.439373,9.77033982 31.63,9.6 C31.99,9.6 32.07,9.9 31.69,10.12 C31.0650839,10.5839053 30.6170867,11.2470822 30.42,12 C30.3073014,12.6982388 30.0371437,13.3616641 29.63,13.94 C29.48,14.16 29.48,14.29 29.63,14.46 C29.7552536,14.5589131 29.9257464,14.5782873 30.07,14.51 C30.5602053,14.228518 30.9914349,13.855012 31.34,13.41 C32.2658571,12.612234 33.4885947,12.248324 34.7,12.41 C35.06,12.47 35.02,12.82 34.58,12.92 C33.8221773,13.1731316 33.1663204,13.6641475 32.71,14.32 C32.16,15.16 32.12,15.77 31.3,15.96 C22,18.06 14.16,23.57 13.45,24 C12.3329908,24.4979928 11.0570092,24.4979928 9.94,24 C9.62,23.85 9.78,23.52 10.22,23.54 C11.0324811,23.508225 11.8151049,23.2252226 12.46,22.73 C13.001207,22.2170199 13.6407392,21.8190132 14.34,21.56 C14.6,21.46 14.69,21.35 14.65,21.12 C14.6129682,20.9685751 14.4850006,20.8566034 14.33,20.84 C13.7481142,20.8096328 13.1655095,20.884152 12.61,21.06 C11.4103258,21.2284703 10.1970545,20.8630271 9.29,20.06 C9.04,19.82 9.29,19.55 9.71,19.7 C10.5064491,19.8973436 11.3443209,19.8449766 12.11,19.55 C12.7909876,19.2123902 13.5316938,19.0119239 14.29,18.96 C14.57,18.96 14.69,18.86 14.73,18.62 C14.7484561,18.4693258 14.6676813,18.3239311 14.53,18.26 C13.9845054,18.0672197 13.408381,17.9757176 12.83,17.99 C11.6443208,17.8337381 10.5985854,17.1353494 10,16.1 C9.84,15.8 10.18,15.62 10.52,15.88 C11.2156245,16.2938986 12.0235209,16.4792601 12.83,16.41 C13.5760712,16.2620701 14.3439288,16.2620701 15.09,16.41 C15.36,16.47 15.5,16.41 15.62,16.21 C15.6911755,16.0763937 15.6623181,15.9114949 15.55,15.81 C15.0954028,15.4682611 14.5793841,15.2170415 14.03,15.07 C12.9814567,14.5837258 12.2352876,13.6174369 12.03,12.48 C12.03,12.15 12.36,12.07 12.6,12.41 C13.1209894,13.0060513 13.8239239,13.4137533 14.6,13.57 C15.3455172,13.6503245 16.0668534,13.8816965 16.72,14.25 C16.880921,14.3986607 17.129079,14.3986607 17.29,14.25 C17.3991378,14.1467721 17.4275956,13.9841562 17.36,13.85 C17.0473012,13.3972658 16.6458406,13.0128163 16.18,12.72 C15.3675124,11.9491588 14.9925146,10.8241655 15.18,9.72 C15.25,9.39 15.64,9.42 15.74,9.82 C16.0282535,10.5381194 16.5589959,11.1325509 17.24,11.5 C17.9122727,11.7858858 18.5157329,12.2120583 19.01,12.75 C19.1261107,12.9375952 19.3721874,12.9957588 19.56,12.88 C19.6992723,12.812483 19.779802,12.6635031 19.76,12.51 C19.6211301,11.9898644 19.3721848,11.5056146 19.03,11.09 C18.5036707,10.0817583 18.5300847,8.87426131 19.1,7.89 C19.28,7.59 19.63,7.73 19.6,8.14 C19.6318285,8.88759386 19.9338536,9.59824123 20.45,10.14 C20.9884042,10.602211 21.4156652,11.1798679 21.7,11.83 C21.7232657,11.9327524 21.7881453,12.0212344 21.8791473,12.0743189 C21.9701494,12.1274034 22.0791055,12.1403256 22.18,12.11 C22.3342685,12.0814552 22.4564139,11.9632499 22.49,11.81 C22.5339712,11.2809237 22.4623142,10.7486148 22.28,10.25 C22.1494138,9.12207678 22.5789227,8.00161889 23.43,7.25 C23.7,7.02 23.99,7.25 23.82,7.63 C23.6138765,8.34110592 23.6779877,9.10331672 24,9.77 C24.3600074,10.3784421 24.5691666,11.0642098 24.61,11.77 C24.61,12.03 24.71,12.13 24.97,12.17 C25.1290117,12.1903094 25.2852753,12.1160842 25.37,11.98 C25.5894567,11.4928376 25.7019824,10.9643075 25.7,10.43 C25.9480639,9.27455818 26.7262725,8.30365035 27.8,7.81 C28.13,7.66 28.33,7.97 28.04,8.28"/>
    <path fill="#002D73" fill-rule="nonzero" d="M228.6,10.2 C226.887231,10.2442167 225.26345,10.9722812 224.091065,12.2216985 C222.918679,13.4711158 222.295279,15.1378835 222.36,16.85 C222.364163,17.9953667 222.660143,19.120779 223.22,20.12 C223.918145,20.4921078 224.65618,20.783967 225.42,20.99 C224.40752,19.7397134 223.856619,18.1788257 223.86,16.57 C223.86,13.36 225.86,10.89 228.39,10.89 C230.92,10.89 233.33,13.66 233.33,17.1 C233.33,20.24 231.38,22.6 228.92,22.73 C227.327652,22.8187466 225.741119,22.4730967 224.33,21.73 C222.026594,20.4546077 220.048601,18.6648324 218.55,16.5 C219.04125,16.3303165 219.488688,16.0536568 219.86,15.69 C220.44765,15.0963492 220.778122,14.2953148 220.78,13.46 C220.78,11.25 219,10.24 216.78,10.24 L214.1,10.24 L213.1,10.24 C212.68,10.24 212.27,10.17 212.1,10.17 C211.93,10.17 211.91,10.17 211.91,10.29 C211.91,10.41 211.91,10.38 212.28,10.45 C213.28,10.66 213.44,10.8 213.44,12.53 L213.44,21.19 C213.44,22.48 213.28,22.95 212.35,23.08 C212.12,23.08 211.93,23.15 211.93,23.24 C211.93,23.33 212.11,23.36 212.18,23.36 C212.25,23.36 212.8,23.36 213.29,23.29 L214.42,23.29 L215.32,23.29 C215.71,23.29 216.13,23.36 216.27,23.36 C216.41,23.36 216.5,23.36 216.5,23.24 C216.5,23.12 216.5,23.15 216.11,23.08 C215.11,22.92 214.93,22.6 214.93,21.37 L214.93,16.87 C215.597416,16.8799559 216.264913,16.8565935 216.93,16.8 C217.980076,18.3517866 219.246164,19.7458307 220.69,20.94 C222.831527,22.6548253 225.518408,23.5421702 228.26,23.44 C230.009383,23.4379048 231.683836,22.7296675 232.903778,21.4758383 C234.12372,20.2220092 234.785825,18.5287841 234.74,16.78 C234.819792,13.2832196 232.093936,10.3620257 228.6,10.2 L228.6,10.2 Z M215,16.39 L215,10.87 L216.22,10.87 C217.86,10.87 219.22,11.68 219.22,13.72 C219.28,16.36 216.65,16.39 215,16.39 Z"/>
    <path fill="#002D73" d="M118.89 20.46C118.89 22.31 118.66 22.77 117.32 23.05 116.79 23.14 116.79 23.14 116.79 23.28 116.79 23.42 116.91 23.37 116.98 23.37 117.05 23.37 117.72 23.37 118.25 23.3 118.78 23.23 119.36 23.23 119.54 23.23 119.72 23.23 120.16 23.23 120.63 23.3 121.1 23.37 121.58 23.37 121.74 23.37 121.9 23.37 121.92 23.37 121.92 23.25 121.92 23.13 121.85 23.11 121.74 23.09 119.74 22.88 119.74 22.09 119.74 20.48L119.74 8.48 119.74 8.48 132.07 23.26 132.62 23.26 132.62 8.64C132.62 7.12 132.85 6.26 134.24 6.08 134.68 6.08 134.73 6.08 134.73 5.89 134.73 5.7 134.66 5.77 134.57 5.77L133.97 5.77C133.6 5.77 132.75 5.86 131.97 5.86 131.415313 5.86544705 130.860846 5.8353856 130.31 5.77L129.71 5.77C129.62 5.77 129.48 5.77 129.48 5.93 129.48 6.09 129.6 6.05 130.06 6.14 131.31 6.35 131.75 6.62 131.75 8.61L131.75 20.23 131.75 20.23 119.75 5.91 118.69 5.91C118.5 5.91 118 5.91 117.49 5.84 116.98 5.77 116.49 5.77 116.4 5.77 116.31 5.77 116.21 5.77 116.21 5.91 116.21 6.05 116.44 6.1 116.63 6.12 118.63 6.37 118.82 7.81 118.82 9.12L118.89 20.46zM133.93 16.81C133.852151 19.0970312 135.032388 21.2432073 137.00541 22.4024129 138.978431 23.5616185 141.427685 23.5478697 143.387568 22.3665868 145.347451 21.185304 146.503519 19.026013 146.4 16.74 146.548135 14.408653 145.383769 12.1893009 143.381332 10.9862348 141.378895 9.78316876 138.872687 9.79723728 136.883883 11.0227081 134.895078 12.2481789 133.755702 14.480463 133.93 16.81M135.43 16.53C135.43 13.32 137.43 10.85 139.96 10.85 142.49 10.85 144.9 13.62 144.9 17.06 144.9 20.2 142.82 22.65 140.4 22.65 137.58 22.65 135.4 19.55 135.4 16.53"/>
    <path fill="#002D73" d="M149 16.86C149.667416 16.8699559 150.334913 16.8465935 151 16.79 152.201657 18.5767067 153.538933 20.2683606 155 21.85 155.880283 22.8177824 157.154843 23.3298165 158.46 23.24 158.69 23.24 159.15 23.24 159.15 23.08 159.15 22.92 159.03 22.94 158.76 22.94 157.65 22.94 156.57 22.13 152.5 16.54 152.994534 16.3710388 153.445383 16.0943814 153.82 15.73 154.40765 15.1363492 154.738122 14.3353148 154.74 13.5 154.74 11.29 152.96 10.28 150.74 10.28L148.06 10.28 147.06 10.28C146.64 10.28 146.23 10.21 146.06 10.21 145.89 10.21 145.88 10.21 145.88 10.33 145.88 10.45 145.88 10.42 146.25 10.49 147.25 10.7 147.41 10.84 147.41 12.57L147.41 21.23C147.41 22.52 147.25 22.99 146.32 23.12 146.09 23.12 145.9 23.19 145.9 23.28 145.9 23.37 146.09 23.4 146.15 23.4 146.21 23.4 146.77 23.4 147.26 23.33L148.39 23.33 149.29 23.33C149.68 23.33 150.1 23.4 150.24 23.4 150.38 23.4 150.47 23.4 150.47 23.28 150.47 23.16 150.47 23.19 150.08 23.12 149.08 22.96 148.9 22.63 148.9 21.41L149 16.86zM149 10.86L150.22 10.86C151.86 10.86 153.22 11.67 153.22 13.71 153.22 16.36 150.59 16.38 148.95 16.38L149 10.86zM161.16 20.83C161.16 22.54 160.91 23 159.91 23.07 159.66 23.07 159.59 23.07 159.59 23.21 159.59 23.35 159.7 23.33 159.82 23.33L160.91 23.33 162 23.33 163.06 23.33C163.5 23.33 163.91 23.4 163.98 23.4 164.05 23.4 164.19 23.4 164.19 23.26 164.19 23.12 163.91 23.12 163.73 23.08 162.67 22.89 162.67 22.41 162.67 20.91L162.67 11 166.06 11C167.19 11 167.38 11.46 167.61 12.29 167.61 12.5 167.61 12.52 167.75 12.52 167.77861 12.5177284 167.804865 12.5032738 167.822085 12.4803137 167.839305 12.4573537 167.84583 12.4281017 167.84 12.4 167.84 12.4 167.54 10.62 167.49 10.3L156.33 10.3C156.30384 10.6569037 156.25035 11.011276 156.17 11.36 156.092898 11.6890933 156.039428 12.0232789 156.01 12.36 156.01 12.36 156.01 12.45 156.1 12.45 156.19 12.45 156.22 12.45 156.28 12.1 156.58 10.97 157.14 10.97 157.83 10.97L161.16 10.97 161.16 20.83zM178.54 16.67L178.54 21.2C178.54 22.54 178.33 22.89 177.54 23.05 177.01 23.14 176.96 23.17 176.96 23.26 176.96 23.35 177.03 23.35 177.12 23.35 177.21 23.35 177.72 23.35 178.12 23.28L179.18 23.28 180.27 23.28C180.73 23.28 181.19 23.35 181.35 23.35 181.51 23.35 181.54 23.35 181.54 23.23 181.54 23.11 181.42 23.11 181.17 23.11 180.04 23.04 179.99 22.11 179.99 21.11L179.99 12.11C179.99 11.25 180.11 10.54 180.91 10.42 181.47 10.33 181.53 10.33 181.53 10.23 181.53 10.13 181.53 10.12 181.39 10.12L180.33 10.12C179.84 10.12 179.33 10.19 179.17 10.19L178.17 10.19C177.73 10.19 177.29 10.12 177.17 10.12 177.05 10.12 176.99 10.12 176.99 10.21 176.99 10.3 176.99 10.32 177.41 10.37 178.17 10.46 178.54 10.76 178.54 12.19L178.54 16.1 171.15 16.1 171.15 12.24C171.15 10.72 171.59 10.51 172.28 10.42 172.6 10.42 172.7 10.42 172.7 10.28 172.7 10.14 172.63 10.17 172.54 10.17L171.54 10.17C171.12 10.17 170.68 10.24 170.54 10.24L169.41 10.24C168.93 10.24 168.41 10.17 168.26 10.17 168.11 10.17 168.12 10.17 168.12 10.26 168.12 10.35 168.12 10.35 168.4 10.4 169.21 10.54 169.67 10.61 169.67 12.16L169.67 21.16C169.67 22.16 169.6 23.1 168.49 23.16 168.24 23.16 168.12 23.16 168.12 23.28 168.12 23.4 168.21 23.4 168.28 23.4 168.35 23.4 168.88 23.4 169.34 23.33L170.45 23.33 171.63 23.33C172.12 23.33 172.58 23.4 172.63 23.4 172.68 23.4 172.77 23.4 172.77 23.28 172.77 23.16 172.65 23.19 172.38 23.12 171.5 22.96 171.2 22.8 171.2 21.25L171.2 16.67 178.54 16.67zM206.89 16.53L203.45 16.53 205.09 11.53 206.89 16.53zM198.46 23.26C197.795411 23.3265753 197.127915 23.3599501 196.46 23.36 189.46 23.36 187.04 18.12 187.04 14.51 187.04 9.57 191.04 5.76 196.49 5.76 198.058463 5.72401666 199.612447 6.06705954 201.02 6.76 200.998314 7.3501095 201.045296 7.94073973 201.16 8.52 201.16 8.61 201.23 8.91 201.23 8.98 201.23 9.05 201.23 9.1 201.11 9.1 200.99 9.1 200.97 9.1 200.83 8.64 200.32 7.05 198.17 6.47 196.72 6.47 194.595767 6.44024604 192.553388 7.2883162 191.075029 8.81399823 189.59667 10.3396803 188.813351 12.407758 188.91 14.53 188.802638 16.6742313 189.597702 18.7655127 191.102444 20.2968538 192.607186 21.8281949 194.684217 22.6597773 196.83 22.59 198.68 22.59 200.39 22.01 201.13 20.97 201.250061 20.792894 201.360229 20.6092799 201.46 20.42L201.54 20.18 204.63 10.73C205.53 10.61 205.71 9.99 205.85 9.3L210.24 21.42C210.451655 22.2107245 211.069276 22.8283452 211.86 23.04 212.11 23.04 212.23 23.11 212.23 23.2 212.23 23.29 212.14 23.29 212.07 23.29 212 23.29 211.38 23.29 210.87 23.22L209.67 23.22 208.61 23.22C208.15 23.22 207.71 23.29 207.55 23.29 207.39 23.29 207.36 23.29 207.36 23.17 207.36 23.05 207.43 23.05 207.68 23.01 208.246588 22.9630605 208.681941 22.4885258 208.68 21.92 208.633891 21.300462 208.467454 20.6958533 208.19 20.14L207.1 17.14 203.17 17.14 202.17 20.33C201.566037 21.9133936 200.11688 23.0176975 198.43 23.18L198.46 23.26zM235.83 21.22C235.83 22.51 235.67 22.93 234.65 23.09 234.49 23.09 234.3 23.09 234.3 23.23 234.3 23.37 234.44 23.35 234.51 23.35 234.58 23.35 235.09 23.35 235.51 23.28L236.67 23.28 242.86 23.28 244 21C244.039537 20.9344835 244.069824 20.8638141 244.09 20.79 244.09 20.79 244.09 20.68 243.97 20.68 243.85 20.68 243.83 20.68 243.62 21.1 242.97 22.25 242.53 22.51 239.72 22.51 237.72 22.51 237.29 22.14 237.29 20.15L237.29 12.26C237.29 10.67 237.82 10.5 238.42 10.41 238.77 10.41 238.84 10.41 238.84 10.25 238.84 10.09 238.66 10.16 238.61 10.16L237.61 10.16C237.19 10.16 236.78 10.23 236.61 10.23 236.44 10.23 235.92 10.23 235.43 10.16L234.37 10.16C234.3 10.16 234.21 10.16 234.21 10.27 234.21 10.38 234.21 10.36 234.74 10.45 235.62 10.61 235.74 10.96 235.74 12.27L235.83 21.22z"/>
    <path fill="#002D73" d="M246.55 12.22C246.55 10.77 246.94 10.51 247.71 10.42 247.92 10.42 248.1 10.42 248.1 10.28 248.1 10.14 248.03 10.17 247.96 10.17L246.96 10.17C246.52 10.17 246.08 10.24 245.96 10.24L244.85 10.24C244.37 10.24 243.85 10.17 243.69 10.17 243.53 10.17 243.55 10.17 243.55 10.26 243.55 10.35 243.55 10.35 243.83 10.4 244.64 10.54 245.1 10.61 245.1 12.16L245.1 21.16C245.1 22.11 245.1 23.1 243.92 23.16 243.67 23.16 243.55 23.16 243.55 23.28 243.55 23.4 243.64 23.4 243.71 23.4 243.78 23.4 244.33 23.4 244.8 23.33L245.88 23.33 246.94 23.33C247.4 23.33 247.86 23.4 248.02 23.4 248.18 23.4 248.16 23.4 248.16 23.28 248.16 23.16 248.02 23.16 247.77 23.12 246.85 22.93 246.59 22.77 246.59 21.25L246.55 12.22zM250.84 21L250.84 12.65C250.84 11.08 250.29 10.65 249.27 10.46 249.04 10.46 248.9 10.39 248.9 10.27 248.9 10.15 249.02 10.16 249.11 10.16 249.2 10.16 249.5 10.16 249.89 10.23L250.79 10.23 251.64 10.23 260.39 20.74 260.39 12.24C260.39 10.65 260.02 10.53 259.05 10.39 258.73 10.39 258.68 10.39 258.68 10.25 258.68 10.11 258.82 10.11 258.89 10.11 258.96 10.11 259.37 10.11 259.74 10.18L260.59 10.18C260.75 10.18 261.19 10.18 261.59 10.11L262.54 10.11C262.54 10.11 262.72 10.11 262.72 10.2 262.72 10.29 262.72 10.31 262.4 10.34 261.34 10.48 261.18 10.99 261.18 12.42L261.18 23.1C262.46 22.95 263.26 22.47 264 20.23L267.09 10.78C267.99 10.66 268.18 10.04 268.31 9.35L272.7 21.47C272.911655 22.2607245 273.529276 22.8783452 274.32 23.09 274.57 23.09 274.69 23.16 274.69 23.25 274.69 23.34 274.6 23.34 274.53 23.34 274.46 23.34 273.84 23.34 273.33 23.27L272.13 23.27 271.07 23.27C270.61 23.27 270.17 23.34 270.01 23.34 269.85 23.34 269.83 23.34 269.83 23.22 269.83 23.1 269.9 23.1 270.15 23.06 270.716588 23.0130605 271.151941 22.5385258 271.15 21.97 271.103387 21.3505494 270.936976 20.7460362 270.66 20.19L269.58 17.19 265.65 17.19 264.65 20.38C264.483029 20.8323312 264.388532 21.3081914 264.37 21.79 264.326643 22.1049781 264.421696 22.4233091 264.630659 22.6629454 264.839622 22.9025816 265.142052 23.0400796 265.46 23.04 265.74 23.04 265.83 23.11 265.83 23.2 265.83 23.29 265.74 23.32 265.65 23.32 265.56 23.32 264.98 23.32 264.49 23.25L263.36 23.25 262.21 23.25C261.75 23.25 261.26 23.32 261.1 23.32 260.67 23.32 260.61 23.2 260.61 23.2L251.61 12.35 251.61 20.78C251.61 22.35 251.61 22.9 252.79 23.07 253.11 23.07 253.18 23.07 253.18 23.21 253.18 23.35 253.11 23.33 252.9 23.33 252.69 23.33 251.51 23.21 251.28 23.21 251.05 23.21 249.46 23.33 249.36 23.33 249.26 23.33 249.22 23.33 249.22 23.24 249.22 23.15 249.29 23.12 249.52 23.08 250.52 22.92 250.79 22.71 250.79 20.96L250.84 21zM269.39 16.53L266 16.53 267.64 11.53 269.39 16.53zM98.53 11.7C97.67 11.7 97.47 11.63 97.53 11.38 97.4535782 11.3100847 97.3364218 11.3100847 97.26 11.38 96.9636665 12.0288919 96.629767 12.6599618 96.26 13.27 96.2819508 13.3348641 96.330564 13.3872626 96.3936033 13.4140066 96.4566426 13.4407505 96.5281039 13.4392927 96.59 13.41 97.0221532 12.5186142 97.9784644 12.0061605 98.96 12.14L99.89 12.14C100.34 12.14 100.38 12.14 100.19 12.76L98.21 19C97.76 20.44 97.56 20.64 96.94 20.68L96.39 20.68C96.3383399 20.7255599 96.3087451 20.7911199 96.3087451 20.86 96.3087451 20.9288801 96.3383399 20.9944401 96.39 21.04 97.05 21.04 97.53 21.04 98.11 21.04 98.69 21.04 99.21 21.04 99.97 21.04 100.040828 21.0139418 100.092227 20.9518816 100.104634 20.8774389 100.117041 20.8029963 100.088548 20.7276209 100.03 20.68L99.51 20.68C98.8 20.62 98.85 20.31 99.26 19L101.21 12.78C101.38 12.19 101.41 12.16 101.86 12.16L102.72 12.16C104.09 12.16 104.13 12.36 104.06 13.47 104.101563 13.5140416 104.159443 13.5390033 104.22 13.5390033 104.280557 13.5390033 104.338437 13.5140416 104.38 13.47 104.581331 12.7775388 104.852734 12.1074075 105.19 11.47 105.19 11.4 105.02 11.37 104.95 11.4 104.67 11.68 104.47 11.72 103.75 11.72L98.53 11.7zM103.11 20.85C102.98 21.17 103.36 21.22 103.52 21.22 103.631101 21.222585 103.731562 21.1542716 103.77 21.05 104.266173 20.0288807 104.837756 19.0461592 105.48 18.11 105.981913 17.3994929 106.584949 16.7661362 107.27 16.23 107.482684 16.0345676 107.746043 15.9028881 108.03 15.85 108.23 15.85 108.33 16 108.33 16.27 108.156254 17.5216322 107.820089 18.7452752 107.33 19.91 107.12 20.4 106.98 20.62 106.76 20.62 106.623373 20.5924212 106.496031 20.530471 106.39 20.44 106.335543 20.3880762 106.264978 20.3563216 106.19 20.35 105.969128 20.3847643 105.807281 20.5764252 105.81 20.8 105.81 20.91 105.87 21.21 106.33 21.21 106.721153 21.1605228 107.078749 20.9638445 107.33 20.66 107.689042 20.3179277 107.998684 19.9275095 108.25 19.5 108.845089 18.4897934 109.219947 17.3652186 109.35 16.2 109.35 15.71 109.12 15.25 108.5 15.25 108.007656 15.292223 107.540037 15.484156 107.16 15.8 106.306631 16.4454054 105.575183 17.2378073 105 18.14L105 18.14 105 18.14 106.45 13.9C106.73 13.09 107.18 11.81 107.45 11.02L107.39 10.94C106.82996 10.9860611 106.276656 11.0933686 105.74 11.26 105.696317 11.3120493 105.696317 11.3879507 105.74 11.44L106.04 11.64C106.27 11.8 106.2 11.99 105.88 12.93L103.11 20.85zM113.25 15.26C112.621778 15.2834004 112.021057 15.5236887 111.55 15.94 110.340485 16.8495464 109.576521 18.2319573 109.45 19.74 109.45 20.43 109.75 21.22 110.59 21.22 111.505726 21.1742575 112.344954 20.6952289 112.85 19.93 112.865442 19.8734241 112.853892 19.8128877 112.818705 19.7659714 112.783518 19.7190551 112.728637 19.6910171 112.67 19.69 112.05 20.23 111.67 20.51 111.19 20.51 110.989411 20.5004474 110.801927 20.4075568 110.672808 20.2537537 110.543689 20.0999506 110.484671 19.8992121 110.51 19.7 110.500472 19.2713983 110.56822 18.8445845 110.71 18.44 112.71 17.88 114.14 17.17 114.14 16.1 114.118592 15.6241541 113.726327 15.2495187 113.25 15.25M112.97 15.69C113.056568 15.6840079 113.141489 15.7157928 113.202848 15.7771518 113.264207 15.8385109 113.295992 15.9234324 113.29 16.01 113.236736 16.3999111 113.040768 16.7562164 112.74 17.01 112.209262 17.5042457 111.557194 17.8492553 110.85 18.01 111.086266 17.4067332 111.42453 16.8485972 111.85 16.36 112.36 15.81 112.73 15.68 112.92 15.68"/>
    <path fill="#6A813B" d="M108.33,41.26 L108.33,51.07 C108.33,53.74 108.73,54.44 110.89,54.79 C111.64,54.94 111.75,54.94 111.75,55.14 C111.75,55.34 111.35,55.39 111.25,55.39 C110.95,55.39 110.04,55.34 109.19,55.24 C108.34,55.14 107.53,55.14 107.19,55.14 C106.85,55.14 105.73,55.19 104.73,55.24 C103.502042,55.3402256 102.267958,55.3402256 101.04,55.24 C99.58,55.14 98.04,55.09 97.48,55.09 C96.92,55.09 95.67,55.09 94.36,55.24 C93.05,55.39 91.72,55.39 91.29,55.39 C91.29,55.39 90.95,55.39 90.95,55.1 C90.95,54.81 91.24,54.76 91.73,54.71 C91.88,54.71 94.8,54.42 94.8,51.59 C94.8,50.13 94.41,49.15 93.34,46.47 L91,39.85 L78.2,39.85 L75.84,47 C75.06,49.68 75,50 75,51.15 C75,52.3 75.15,54.22 78.37,54.71 C79.15,54.86 79.25,54.86 79.25,55.15 C79.25,55.44 79.1,55.39 78.81,55.39 C78.27,55.39 76.81,55.29 75.44,55.24 C74.07,55.19 72.61,55.09 72.12,55.09 C71.63,55.09 70.36,55.09 69.12,55.24 C67.88,55.39 66.53,55.39 66.12,55.39 C65.71,55.39 65.73,55.39 65.73,55.15 C65.73,54.91 65.83,54.86 66.85,54.71 C70.12,54.32 72.51,52.61 74.41,46.71 L83.29,19.92 C84.9814771,19.7457298 86.3332962,18.4352508 86.56,16.75 L98.76,50.27 C99.93,53.42 102.27,54.59 103.28,54.57 C104.72,54.46 105.14,53.21 105.14,50.67 L105.14,31.8 C105.14,28.03 104.74,27.73 102.63,27.27 C101.88,27.12 101.83,27.12 101.83,26.92 C101.83,26.72 102.08,26.67 102.23,26.67 C102.58,26.67 103.49,26.67 104.39,26.82 C105.29,26.97 106.2,26.92 106.5,26.92 L112.33,26.92 C117.11,26.92 120.98,29.13 120.98,33.92 C120.977288,35.7397569 120.258906,37.4854261 118.98,38.78 C118.136396,39.5941175 117.116748,40.2031688 116,40.56 C124.85,52.73 127.22,54.39 129.63,54.49 C130.95,54.49 131.45,53.09 131.45,50.17 L131.45,31.7 C131.45,28.83 131.25,27.48 128.93,27.22 C128.28,27.17 128.02,27.17 128.02,26.92 C128.017176,26.8396027 128.047876,26.7616449 128.10476,26.7047603 C128.161645,26.6478758 128.239603,26.6171764 128.32,26.62 C128.52,26.62 129.58,26.67 130.68,26.77 C131.78,26.87 132.99,26.92 133.4,26.92 L136.87,26.92 C140.59,26.92 142.05,27.78 142.8,28.28 C144.749379,29.397116 145.928383,31.4939777 145.87,33.74 C145.902402,36.677541 143.997837,39.2861435 141.19,40.15 C147.38,40.9 148.63,45.58 148.63,47.84 C148.626495,50.2238615 147.438422,52.4500923 145.46,53.78 C143.3,55.14 140.03,55.14 138.77,55.14 L132.58,55.14 C126.04,55.22 124.12,54.7 121.4,52.14 C118.205845,48.702903 115.280565,45.0254079 112.65,41.14 C110.74,41.29 110.03,41.29 108.28,41.29 L108.33,41.26 Z M90.38,38.07 L84.38,21.38 L78.78,38.07 L78.6,38.61 L90.6,38.61 L90.38,38.07 Z M277.89,50.69 C277.54,54.31 276.73,54.46 275.12,54.76 C274.32,54.91 274.21,54.91 274.21,55.06 C274.21,55.21 274.36,55.31 274.61,55.31 C274.86,55.31 275.82,55.26 276.67,55.16 C277.52,55.06 278.48,55.06 278.78,55.06 C279.08,55.06 280.19,55.11 281.14,55.16 C282.09,55.21 283,55.31 283,55.31 C283,55.31 283.45,55.31 283.45,55.01 C283.45,54.86 283.4,54.86 282.55,54.71 C280.34,54.36 279.73,53.8 279.73,51.19 C279.726071,50.5219915 279.759456,49.8542849 279.83,49.19 L281.34,32.24 L281.44,32.24 L291.44,55.43 L300.49,30.84 L300.59,30.84 L302.3,48.84 C302.3,49.34 302.4,50.2 302.4,51.05 C302.4,52.51 302.4,54.52 299.93,54.82 C299.53,54.82 299.03,54.92 299.03,55.12 C299.03,55.32 299.13,55.32 299.43,55.32 C300.03,55.32 303.1,55.07 303.81,55.07 C304.67,55.07 305.67,55.12 306.48,55.17 C306.83,55.17 308.39,55.32 308.64,55.32 C308.89,55.32 309.04,55.27 309.04,55.07 C309.04,54.87 308.99,54.87 308.29,54.77 C306.68,54.62 305.93,53.77 305.57,50.34 L303.8,31.73 C303.8,31.33 303.7,30.52 303.7,30.12 C303.7,27.66 305.16,27.35 306.26,27.12 C306.96,26.97 307.12,26.92 307.12,26.77 C307.12,26.62 306.82,26.57 306.77,26.57 C306.52,26.57 305.71,26.57 304.91,26.67 C304.11,26.77 303.3,26.82 303,26.82 L300.23,26.82 L292,49 L282.45,26.81 L280.64,26.81 C280.34,26.81 279.33,26.81 278.43,26.71 C277.53,26.61 276.62,26.56 276.52,26.56 C276.42,26.56 276.17,26.56 276.17,26.81 C276.17,27.06 276.17,26.96 276.97,27.11 C278.53,27.36 280.09,27.66 279.69,31.69 L277.89,50.69 Z M248.89,43.2 C248.89,47.83 249.89,49.69 252.11,52.05 C256.278459,55.8630945 262.488535,56.4004261 267.25,53.36 C271.48,50.54 272.03,46.62 272.03,43.3 L272.03,31.43 C272.03,28.43 272.53,27.43 274.5,27.21 C275.35,27.11 275.5,27.06 275.5,26.81 C275.5,26.56 275.25,26.61 275.2,26.61 C274.9,26.61 274.04,26.61 273.2,26.71 C272.36,26.81 271.49,26.86 271.2,26.86 C270.428783,26.8669969 269.657728,26.8336179 268.89,26.76 C268.263035,26.6754313 267.632259,26.6220323 267,26.6 C266.75,26.6 266.6,26.6 266.6,26.85 C266.6,27.1 266.85,27.05 267.5,27.2 C269.5,27.65 270.37,27.8 270.37,31.37 L270.37,42.85 C270.37,47.08 269.62,48.85 267.91,50.95 C266.155759,52.8258207 263.687814,53.8689726 261.12,53.82 C258.785509,53.8651148 256.533018,52.9590648 254.88,51.31 C253.12,49.55 252.21,47.54 252.21,43.06 L252.21,31.28 C252.21,27.71 253.01,27.56 254.77,27.21 C255.27,27.11 255.52,27.06 255.52,26.86 C255.52,26.66 255.32,26.61 255.17,26.61 L253.06,26.71 C252,26.81 250.9,26.86 250.55,26.86 L248.14,26.76 C247.08,26.66 246.08,26.61 246.03,26.61 C245.83,26.61 245.63,26.61 245.63,26.86 C245.63,27.11 245.98,27.11 246.38,27.16 C248.64,27.51 248.95,28.16 248.95,31.23 L248.89,43.2 Z M231.41,49.91 C231.41,53.63 230.86,54.64 228.69,54.79 C228.14,54.84 227.99,54.84 227.99,55.09 C227.99,55.34 228.24,55.34 228.49,55.34 C228.74,55.34 229.85,55.34 230.85,55.24 C231.85,55.14 232.85,55.14 233.21,55.14 C233.57,55.14 234.57,55.19 235.52,55.24 C236.47,55.29 237.38,55.39 237.52,55.39 C237.66,55.39 237.97,55.34 237.97,55.09 C237.97,54.84 237.37,54.79 236.97,54.69 C234.66,54.29 234.66,53.23 234.66,49.96 L234.66,28.43 L242.05,28.43 C244.51,28.43 244.92,29.43 245.42,31.25 C245.52,31.7 245.52,31.75 245.72,31.75 C245.843244,31.7343566 245.931792,31.6236715 245.92,31.5 C245.92,31.4 245.27,27.63 245.17,26.92 L220.94,26.92 C220.88289,27.6978525 220.765876,28.4701423 220.59,29.23 C220.419161,29.9570605 220.302177,30.6957307 220.24,31.44 C220.24,31.54 220.24,31.64 220.44,31.64 C220.64,31.64 220.69,31.59 220.84,30.89 C221.49,28.42 222.7,28.42 224.21,28.42 L231.45,28.42 L231.41,49.91 Z M152.5,40.48 C152.5,33.48 156.77,28.11 162.36,28.11 C167.95,28.11 173.12,34.11 173.12,41.64 C173.12,48.48 168.59,53.81 163.31,53.81 C157.17,53.81 152.5,47.07 152.5,40.48 L152.5,40.48 Z M149.23,41.08 C149.23,48.72 155.11,55.31 162.86,55.31 C170.61,55.31 176.39,48.62 176.39,40.93 C176.39,33.03 170.25,26.6 162.81,26.6 C155.81,26.6 149.23,32.43 149.23,41.08 L149.23,41.08 Z M181.67,28.18 L184.34,28.18 C187.91,28.18 190.98,29.93 190.98,34.39 C190.98,40.15 185.25,40.2 181.68,40.2 L181.67,28.18 Z M181.67,41.26 L181.67,51.07 C181.67,53.74 182.07,54.44 184.23,54.79 C184.98,54.94 185.09,54.94 185.09,55.14 C185.09,55.34 184.69,55.39 184.59,55.39 C184.29,55.39 183.38,55.34 182.53,55.24 C181.68,55.14 180.87,55.14 180.53,55.14 C180.19,55.14 179.07,55.19 178.07,55.24 C177.07,55.29 176.01,55.39 175.66,55.39 C175.51,55.39 175.11,55.34 175.11,55.14 C175.11,54.94 175.51,54.89 176.02,54.79 C178.02,54.49 178.38,53.48 178.38,50.67 L178.38,31.8 C178.38,28.03 177.98,27.73 175.87,27.27 C175.12,27.12 175.06,27.12 175.06,26.92 C175.06,26.72 175.31,26.67 175.46,26.67 C175.81,26.67 176.72,26.67 177.62,26.82 C178.52,26.97 179.43,26.92 179.73,26.92 L185.56,26.92 C190.34,26.92 194.21,29.13 194.21,33.92 C194.207288,35.7397569 193.488906,37.4854261 192.21,38.78 C191.396312,39.5730421 190.415779,40.1743447 189.34,40.54 C198.19,52.71 200.55,54.37 202.97,54.47 C204.46,54.53 204.91,52.88 204.91,50.8 L204.91,30.25 C204.91,28.79 204.36,27.38 202.24,27.25 C201.79,27.2 201.54,27.2 201.54,26.95 C201.54,26.7 201.74,26.7 201.94,26.7 C202.14,26.7 203.35,26.7 204.5,26.8 C205.65,26.9 206.81,26.95 207.22,26.95 L219.29,26.95 C219.29,27.6 219.39,30.67 219.39,31.28 C219.39,31.48 219.34,31.73 219.14,31.73 C218.94,31.73 218.94,31.63 218.84,30.93 C218.59,29.32 217.84,28.46 214.72,28.46 L208.18,28.46 L208.18,39.55 L212.61,39.55 C214.92,39.55 215.98,39.05 216.23,37.24 C216.28,36.99 216.33,36.59 216.48,36.59 C216.63,36.59 216.73,36.94 216.73,36.99 C216.73,37.44 216.48,39.45 216.48,39.86 C216.48,40.46 216.78,43.73 216.78,43.73 C216.78,43.93 216.68,44.08 216.53,44.08 C216.38,44.08 216.33,43.98 216.23,43.43 C216.03,42.27 215.58,41.07 212.61,41.07 L208.18,41.07 L208.18,48.46 C208.18,52.33 209.18,53.54 212.46,53.54 L215.02,53.54 C218.29,53.54 220.25,53.19 221.61,51.33 C221.81,51.08 222.52,49.62 222.82,49.62 C223.12,49.62 223.07,49.67 223.07,49.77 C223.07,49.87 223.02,49.97 222.67,50.67 L220.41,55.15 L207.24,55.15 C206.84,55.15 205.73,55.2 204.63,55.25 C200.48,55.17 198.38,55.33 194.85,52.13 C191.655305,48.6933671 188.729991,45.0158292 186.1,41.13 C184.19,41.28 183.48,41.28 181.72,41.28 L181.67,41.26 Z M134.72,28.15 L136.33,28.15 C141.01,28.15 142.92,31.36 142.92,33.96 C142.942984,36.1263687 141.796306,38.1368766 139.92,39.22 C138.844568,39.6949055 137.674672,39.9172541 136.5,39.87 L134.69,39.87 L134.72,28.15 Z M134.72,41.08 L137.72,41.08 C142.15,41.08 145.42,43.29 145.42,47.57 C145.42,50.64 143.42,53.66 138.53,53.66 C135.53,53.66 134.76,52.3 134.76,48.88 L134.72,41.08 Z M108.33,28.18 L111,28.18 C114.57,28.18 117.64,29.93 117.64,34.39 C117.64,40.15 111.91,40.2 108.34,40.2 L108.33,28.18 Z"/>
    <path fill="#002D73" fill-rule="nonzero" d="M70.32 74.16C70.23 73.87 70.18 73.83 69.78 73.83L67.78 73.83C67.45 73.83 67.37 73.83 67.28 74.14L66.82 75.52C66.6825305 75.8712322 66.585245 76.2368915 66.53 76.61 66.53 76.77 66.6 76.85 66.91 76.87L67.34 76.87C67.3905755 76.9098179 67.4200962 76.9706312 67.4200962 77.035 67.4200962 77.0993688 67.3905755 77.1601821 67.34 77.2 67 77.2 66.59 77.2 65.98 77.2 65.55 77.2 65.08 77.2 64.72 77.2 64.6412471 77.1040955 64.6412471 76.9659045 64.72 76.87L65.15 76.87C65.5235591 76.848741 65.8416876 76.5910166 65.94 76.23 66.18 75.63 66.54 74.77 67.09 73.31L68.43 69.77C68.5822162 69.4841252 68.6579979 69.1637749 68.65 68.84 68.9206699 68.743389 69.1570835 68.5695556 69.33 68.34 69.4162633 68.3295612 69.4986162 68.3789729 69.53 68.46 69.7 69.04 69.91 69.64 70.11 70.22L71.91 75.49C72.29 76.62 72.46 76.81 73.02 76.88L73.37 76.88C73.4487529 76.9759045 73.4487529 77.1140955 73.37 77.21 72.83 77.21 72.37 77.21 71.78 77.21 71.19 77.21 70.65 77.21 70.27 77.21 70.2226449 77.1682367 70.1955163 77.1081401 70.1955163 77.045 70.1955163 76.9818599 70.2226449 76.9217633 70.27 76.88L70.65 76.88C70.93 76.88 71.11 76.78 71.11 76.64 71.0850928 76.4000796 71.0279097 76.1646198 70.94 75.94L70.32 74.16zM67.73 73C67.63 73.3 67.64 73.31 68.01 73.31L69.62 73.31C70 73.31 70.03 73.26 69.91 72.9L69.2 70.76C69.1143892 70.478342 69.0142552 70.2013046 68.9 69.93L68.9 69.93C68.7834118 70.1811293 68.6799392 70.4381418 68.59 70.7L67.73 73zM78.6 75.81C78.6 76.06 78.6 77.03 78.6 77.24 78.5733937 77.3029434 78.5076077 77.339948 78.44 77.33 78.34 77.19 78.1 76.9 77.44 76.09L75.54 73.93C75.32 73.68 74.76 73.01 74.59 72.83L74.59 72.83C74.5672898 73.0059368 74.5672898 73.1840632 74.59 73.36L74.59 75.14C74.5648963 75.7074912 74.615338 76.2758016 74.74 76.83 74.74 76.92 74.95 76.97 75.16 76.99L75.41 76.99C75.4609288 77.0469401 75.4609288 77.1330599 75.41 77.19L74.41 77.19C74.07 77.19 73.85 77.19 73.56 77.19 73.5090712 77.1330599 73.5090712 77.0469401 73.56 76.99L73.78 76.99C73.97 76.99 74.1 76.92 74.14 76.83 74.2371949 76.2722449 74.2740739 75.7056484 74.25 75.14L74.25 72.78C74.2773954 72.5666196 74.2118416 72.3517488 74.07 72.19 73.9252559 72.0713709 73.7467995 72.001388 73.56 71.99L73.42 71.99C73.3931246 71.9636675 73.3779796 71.9276256 73.3779796 71.89 73.3779796 71.8523744 73.3931246 71.8163325 73.42 71.79 73.76 71.79 74.2 71.79 74.35 71.79L74.73 71.79C75.1345524 72.43583 75.6036238 73.0389219 76.13 73.59L76.92 74.48C77.48 75.11 77.92 75.57 78.27 75.96L78.27 75.96C78.293754 75.8479113 78.293754 75.7320887 78.27 75.62L78.27 73.85C78.300279 73.2818592 78.2463623 72.7123641 78.11 72.16 78.11 72.09 77.93 72.04 77.6 72L77.46 72C77.4 72 77.46 71.82 77.46 71.8L78.46 71.8C78.81 71.8 79.02 71.8 79.3 71.8 79.3268754 71.8263325 79.3420204 71.8623744 79.3420204 71.9 79.3420204 71.9376256 79.3268754 71.9736675 79.3 72L79.19 72C78.93 72 78.76 72.11 78.73 72.17 78.6175605 72.7258385 78.5772283 73.2938507 78.61 73.86L78.6 75.81zM87.36 74.16C87.27 73.87 87.22 73.83 86.82 73.83L84.82 73.83C84.49 73.83 84.41 73.83 84.32 74.14L83.86 75.52C83.7225305 75.8712322 83.625245 76.2368915 83.57 76.61 83.57 76.77 83.64 76.85 83.95 76.87L84.38 76.87C84.4305755 76.9098179 84.4600962 76.9706312 84.4600962 77.035 84.4600962 77.0993688 84.4305755 77.1601821 84.38 77.2 84.04 77.2 83.63 77.2 83.02 77.2 82.59 77.2 82.12 77.2 81.76 77.2 81.6812471 77.1040955 81.6812471 76.9659045 81.76 76.87L82.19 76.87C82.5635591 76.848741 82.8816876 76.5910166 82.98 76.23 83.22 75.63 83.58 74.77 84.13 73.31L85.47 69.77C85.6222162 69.4841252 85.6979979 69.1637749 85.69 68.84 85.9606699 68.743389 86.1970835 68.5695556 86.37 68.34 86.4562633 68.3295612 86.5386162 68.3789729 86.57 68.46 86.74 69.04 86.95 69.64 87.15 70.22L88.95 75.49C89.33 76.62 89.5 76.81 90.06 76.88L90.41 76.88C90.4887529 76.9759045 90.4887529 77.1140955 90.41 77.21 89.87 77.21 89.41 77.21 88.82 77.21 88.23 77.21 87.69 77.21 87.31 77.21 87.2626449 77.1682367 87.2355163 77.1081401 87.2355163 77.045 87.2355163 76.9818599 87.2626449 76.9217633 87.31 76.88L87.69 76.88C87.97 76.88 88.15 76.78 88.15 76.64 88.1250928 76.4000796 88.0679097 76.1646198 87.98 75.94L87.36 74.16zM84.76 73C84.66 73.3 84.67 73.31 85.04 73.31L86.65 73.31C87.03 73.31 87.06 73.26 86.94 72.9L86.23 70.76C86.1443892 70.478342 86.0442552 70.2013046 85.93 69.93L85.93 69.93C85.8134118 70.1811293 85.7099392 70.4381418 85.62 70.7L84.76 73zM91.91 74.11C91.91 74.33 91.91 74.33 92.18 74.33L92.74 74.33C92.9725752 74.3566013 93.2074248 74.3566013 93.44 74.33 93.53 74.33 93.6 74.26 93.64 74.04L93.71 73.71C93.7716325 73.6615966 93.8583675 73.6615966 93.92 73.71 93.92 73.91 93.92 74.23 93.92 74.54 93.92 74.85 93.92 75.15 93.92 75.33 93.92 75.51 93.76 75.33 93.71 75.33L93.63 75C93.6079026 74.8562763 93.5076816 74.736782 93.37 74.69 93.1606784 74.6661282 92.9493216 74.6661282 92.74 74.69L92.18 74.69C91.93 74.69 91.91 74.69 91.91 74.91L91.91 76C91.91 76.86 91.91 77 92.41 77L92.69 77C92.69 77 92.69 77.18 92.69 77.2L91.6 77.2 90.6 77.2C90.5531999 77.1415468 90.5531999 77.0584532 90.6 77L90.8 77C91.27 76.94 91.29 76.84 91.29 76L91.29 73C91.29 72.14 91.29 72 90.8 72L90.67 72C90.67 72 90.67 71.82 90.67 71.8L91.62 71.8 93.13 71.8C93.65 71.8 94.13 71.8 94.24 71.8 94.24 72.18 94.24 72.57 94.24 72.88 94.1830599 72.9309288 94.0969401 72.9309288 94.04 72.88 93.97 72.51 93.88 72.21 93.47 72.1 93.2075009 72.0703562 92.9424991 72.0703562 92.68 72.1L92.18 72.1C91.93 72.1 91.93 72.1 91.93 72.43L91.91 74.11zM96.31 74.11C96.31 74.33 96.31 74.33 96.58 74.33L97.14 74.33C97.3725752 74.3566013 97.6074248 74.3566013 97.84 74.33 97.93 74.33 98 74.26 98.04 74.04L98.11 73.71C98.1716325 73.6615966 98.2583675 73.6615966 98.32 73.71 98.32 73.91 98.32 74.23 98.32 74.54 98.32 74.85 98.32 75.15 98.32 75.33 98.32 75.51 98.16 75.33 98.11 75.33L98 75C97.9779026 74.8562763 97.8776816 74.736782 97.74 74.69 97.5306784 74.6661282 97.3193216 74.6661282 97.11 74.69L96.55 74.69C96.3 74.69 96.28 74.69 96.28 74.91L96.28 76C96.28 76.86 96.28 77 96.78 77L97.06 77C97.06 77 97.06 77.18 97.06 77.2L96 77.2 95 77.2C94.9531999 77.1415468 94.9531999 77.0584532 95 77L95.2 77C95.67 76.94 95.69 76.84 95.69 76L95.69 73C95.69 72.14 95.69 72 95.2 72L95 72C95 72 95 71.82 95 71.8L95.95 71.8 97.46 71.8C97.98 71.8 98.46 71.8 98.57 71.8 98.57 72.18 98.57 72.57 98.57 72.88 98.5130599 72.9309288 98.4269401 72.9309288 98.37 72.88 98.3 72.51 98.21 72.21 97.8 72.1 97.5375009 72.0703562 97.2724991 72.0703562 97.01 72.1L96.51 72.1C96.26 72.1 96.26 72.1 96.26 72.43L96.31 74.11zM100 73C100 72.13 100 72 99.5 72L99.3 72C99.3 72 99.3 71.82 99.3 71.8L100.3 71.8 101.3 71.8C101.3 71.8 101.37 71.97 101.3 72L101.1 72C100.62 72 100.6 72.18 100.6 73L100.6 76C100.6 76.87 100.6 77 101.1 77L101.3 77C101.3 77 101.3 77.18 101.3 77.2L100.3 77.2 99.3 77.2C99.2531999 77.1415468 99.2531999 77.0584532 99.3 77L99.5 77C99.98 76.94 100 76.83 100 76L100 73zM102.82 73C102.82 72.14 102.82 72 102.29 72L102.09 72C102.09 72 102.09 71.82 102.09 71.8L103.15 71.8 104.15 71.8C104.15 71.8 104.22 71.97 104.15 72L103.95 72C103.47 72 103.45 72.17 103.45 73L103.45 75.85C103.45 76.37 103.45 76.58 103.62 76.73 103.79 76.88 103.87 76.92 104.51 76.92 105.15 76.92 105.38 76.92 105.51 76.81 105.762987 76.5965077 105.950233 76.315639 106.05 76 106.05 76 106.25 76 106.25 76 106.171799 76.3928567 106.057996 76.7777785 105.91 77.15 105.49 77.15 104.71 77.15 103.91 77.15L103.16 77.15 102.1 77.15C102.0532 77.0915468 102.0532 77.0084532 102.1 76.95L102.35 76.95C102.82 76.95 102.84 76.79 102.84 75.95L102.82 73zM107.35 73C107.35 72.13 107.35 72 106.85 72L106.65 72C106.65 72 106.65 71.82 106.65 71.8L107.65 71.8 108.65 71.8C108.65 71.8 108.72 71.97 108.65 72L108.45 72C107.97 72 107.95 72.18 107.95 73L107.95 76C107.95 76.87 107.95 77 108.45 77L108.65 77C108.65 77 108.65 77.18 108.65 77.2L107.65 77.2 106.65 77.2C106.6032 77.1415468 106.6032 77.0584532 106.65 77L106.85 77C107.33 76.94 107.35 76.83 107.35 76L107.35 73zM112.4 75.3C112.34 75.12 112.31 75.1 112.06 75.1L110.82 75.1C110.62 75.1 110.57 75.1 110.51 75.3L110.22 76.16C110.134801 76.3792355 110.074424 76.607324 110.04 76.84 110.04 76.94 110.04 76.99 110.28 77L110.55 77C110.579733 77.0246983 110.596934 77.0613468 110.596934 77.1 110.596934 77.1386532 110.579733 77.1753017 110.55 77.2 110.34 77.2 110.08 77.2 109.7 77.2L108.91 77.2C108.8632 77.1415468 108.8632 77.0584532 108.91 77L109.18 77C109.412504 76.9862901 109.61002 76.8250524 109.67 76.6 109.82 76.22 110.05 75.69 110.39 74.77L111.22 72.56C111.316007 72.3820147 111.364242 72.1821835 111.36 71.98 111.530921 71.9216288 111.680607 71.813716 111.79 71.67 111.840813 71.6654531 111.888946 71.6935308 111.91 71.74 112.02 72.1 112.15 72.48 112.27 72.84L113.39 76.13C113.63 76.83 113.73 76.96 114.09 77L114.31 77C114.3568 77.0584532 114.3568 77.1415468 114.31 77.2L113.31 77.2C112.92 77.2 112.61 77.2 112.37 77.2 112.343125 77.1736675 112.32798 77.1376256 112.32798 77.1 112.32798 77.0623744 112.343125 77.0263325 112.37 77L112.61 77C112.78 77 112.9 76.93 112.9 76.85 112.882747 76.7023889 112.84575 76.5577631 112.79 76.42L112.4 75.3zM110.78 74.57C110.71 74.76 110.72 74.77 110.95 74.77L111.95 74.77C112.19 74.77 112.2 74.77 112.13 74.52L111.69 73.19C111.635786 73.0134691 111.572366 72.8398982 111.5 72.67L111.5 72.67C111.425053 72.8264227 111.358296 72.9866393 111.3 73.15L110.78 74.57zM116.61 76C116.61 76.86 116.61 77 117.1 77L117.36 77C117.36 77 117.36 77.18 117.36 77.2L116.29 77.2 115.15 77.2C115.123125 77.1736675 115.10798 77.1376256 115.10798 77.1 115.10798 77.0623744 115.123125 77.0263325 115.15 77L115.44 77C115.91 77 115.95 76.84 115.95 76L115.95 72.31C115.95 72.06 115.95 72.05 115.7 72.05L115.25 72.05C114.903996 72.0114413 114.554558 72.0813288 114.25 72.25 114.084685 72.4091928 113.958104 72.6041966 113.88 72.82 113.805111 72.8583138 113.713344 72.8320944 113.67 72.76 113.802996 72.3614518 113.906607 71.9536932 113.98 71.54 114.031244 71.5188865 114.088756 71.5188865 114.14 71.54 114.14 71.8 114.46 71.79 114.84 71.79L118.16 71.79C118.6 71.79 118.68 71.79 118.8 71.56 118.8 71.56 118.93 71.56 118.95 71.56 118.858462 71.9667144 118.818149 72.3832803 118.83 72.8 118.771673 72.8571714 118.678327 72.8571714 118.62 72.8 118.62 72.5836298 118.549822 72.3730962 118.42 72.2 118.130998 72.0383888 117.79963 71.9686272 117.47 72L116.89 72C116.64 72 116.65 72 116.65 72.28L116.61 76zM120.05 73C120.05 72.15 120.05 72 119.55 72L119.42 72C119.42 72 119.42 71.82 119.42 71.8L120.42 71.8 121.96 71.8C122.48 71.8 122.96 71.8 123.07 71.8 123.134827 72.1604464 123.178236 72.5244177 123.2 72.89 123.141547 72.9368001 123.058453 72.9368001 123 72.89 122.88 72.51 122.8 72.22 122.38 72.11 122.117335 72.0834655 121.852665 72.0834655 121.59 72.11L121 72.11C120.75 72.11 120.75 72.11 120.75 72.44L120.75 74C120.75 74.23 120.75 74.23 121.02 74.23L121.49 74.23C121.722534 74.2573155 121.957466 74.2573155 122.19 74.23 122.29 74.23 122.35 74.15 122.39 73.94L122.46 73.6C122.520207 73.547636 122.609793 73.547636 122.67 73.6 122.67 73.8 122.67 74.12 122.67 74.43 122.67 74.74 122.67 75.04 122.67 75.22 122.609793 75.272364 122.520207 75.272364 122.46 75.22L122.39 74.9C122.379307 74.7547066 122.27973 74.6312317 122.14 74.59 121.930698 74.5657774 121.719302 74.5657774 121.51 74.59L121 74.59C120.75 74.59 120.73 74.59 120.73 74.81L120.73 75.96C120.73 76.39 120.73 76.67 120.89 76.81 121.05 76.95 121.16 77 121.89 77 122.228073 77.0314868 122.568975 76.9905786 122.89 76.88 123.144362 76.6674333 123.343382 76.3963537 123.47 76.09 123.54193 76.0527002 123.63048 76.0792654 123.67 76.15 123.578789 76.5396856 123.455021 76.921025 123.3 77.29L121.11 77.29 120.37 77.29 119.26 77.29C119.2132 77.2315468 119.2132 77.1484532 119.26 77.09L119.53 77.09C120 77.09 120.04 76.93 120.04 76.09L120.05 73zM126.21 74.56C126.19325 73.7850144 126.495127 73.0370818 127.045139 72.4908496 127.595152 71.9446174 128.345148 71.6479062 129.12 71.67 129.885271 71.6150836 130.637576 71.8895583 131.187682 72.4243841 131.737789 72.9592098 132.033342 73.7034858 132 74.47 132.016368 75.2299365 131.723075 75.9638714 131.187483 76.5032349 130.651891 77.0425984 129.920033 77.341035 129.16 77.33 128.393935 77.3828756 127.640473 77.1142157 127.080685 76.5885842 126.520897 76.0629528 126.205395 75.3278735 126.21 74.56L126.21 74.56zM131.15 74.73C131.15 73.38 130.55 71.92 128.99 71.92 128.14 71.92 126.99 72.5 126.99 74.29 126.99 75.5 127.58 77.07 129.19 77.07 130.21 77.08 131.15 76.34 131.15 74.73zM134.07 74.11C134.07 74.33 134.07 74.33 134.34 74.33L134.9 74.33C135.132575 74.3566013 135.367425 74.3566013 135.6 74.33 135.69 74.33 135.76 74.26 135.8 74.04L135.87 73.71C135.931633 73.6615966 136.018367 73.6615966 136.08 73.71 136.08 73.91 136.08 74.23 136.08 74.54 136.08 74.85 136.08 75.15 136.08 75.33 136.08 75.51 135.92 75.33 135.87 75.33L135.79 75.01C135.767903 74.8662763 135.667682 74.746782 135.53 74.7 135.320678 74.6761282 135.109322 74.6761282 134.9 74.7L134.34 74.7C134.09 74.7 134.07 74.7 134.07 74.92L134.07 76C134.07 76.86 134.07 77 134.57 77L134.85 77C134.85 77 134.85 77.18 134.85 77.2L133.76 77.2 132.76 77.2C132.7132 77.1415468 132.7132 77.0584532 132.76 77L132.96 77C133.43 76.94 133.45 76.84 133.45 76L133.45 73C133.45 72.14 133.45 72 132.96 72L132.83 72C132.83 72 132.83 71.82 132.83 71.8L133.78 71.8 135.29 71.8C135.81 71.8 136.29 71.8 136.4 71.8 136.4 72.18 136.4 72.57 136.4 72.88 136.34306 72.9309288 136.25694 72.9309288 136.2 72.88 136.13 72.51 136.04 72.21 135.63 72.1 135.367501 72.0703562 135.102499 72.0703562 134.84 72.1L134.34 72.1C134.09 72.1 134.09 72.1 134.09 72.43L134.07 74.11zM144 75.23C144 76.61 144 76.8 144.79 76.87L145.21 76.87C145.29 76.92 145.26 77.16 145.21 77.2 144.46 77.2 144.02 77.2 143.49 77.2 142.96 77.2 142.49 77.2 141.67 77.2 141.625401 77.1566891 141.600234 77.0971684 141.600234 77.035 141.600234 76.9728316 141.625401 76.9133109 141.67 76.87L142.14 76.87C142.89 76.8 142.95 76.61 142.95 75.23L142.95 69.37C142.95 68.96 142.95 68.95 142.56 68.95L141.84 68.95C141.282017 68.888673 140.718863 69.0041022 140.23 69.28 139.967472 69.5312465 139.76569 69.8390485 139.64 70.18 139.521157 70.2482705 139.369503 70.2081268 139.3 70.09 139.516552 69.4368055 139.683689 68.7682548 139.8 68.09 139.880108 68.0572127 139.969892 68.0572127 140.05 68.09 140.13 68.51 140.56 68.5 141.16 68.5L146.47 68.5C147.18 68.5 147.3 68.5 147.47 68.13 147.54 68.13 147.68 68.13 147.71 68.13 147.55888 68.7855027 147.491675 69.4575528 147.51 70.13 147.414112 70.2189293 147.265888 70.2189293 147.17 70.13 147.17 69.8 147.04 69.32 146.84 69.13 146.378647 68.8680757 145.84843 68.7529628 145.32 68.8L144.39 68.8C144 68.8 144.01 68.8 144.01 69.25L144 75.23zM150 74.56C149.61 74.56 149.59 74.56 149.59 74.82L149.59 76C149.59 76.86 149.59 77 150.09 77L150.33 77C150.33 77 150.33 77.18 150.33 77.2L149.33 77.2 148.38 77.2C148.3332 77.1415468 148.3332 77.0584532 148.38 77L148.52 77C148.98 76.92 148.99 76.84 148.99 76L148.99 73C148.99 72.14 148.93 72 148.51 72L148.3 72C148.3 72 148.3 71.82 148.3 71.8L149.3 71.8 150.25 71.8C150.25 71.8 150.32 71.97 150.25 72L150.09 72C149.61 72 149.6 72.17 149.6 73L149.6 74C149.6 74.25 149.6 74.26 150.01 74.26L152.35 74.26C152.74 74.26 152.76 74.26 152.76 74L152.76 73C152.76 72.14 152.76 72 152.26 72L152.1 72C152.1 72 152.1 71.82 152.1 71.8L153.1 71.8 154.1 71.8C154.1 71.8 154.17 71.97 154.1 72L153.93 72C153.46 72 153.44 72.17 153.44 73L153.44 76C153.44 76.86 153.44 77 153.93 77L154.13 77C154.13 77 154.13 77.18 154.13 77.2L153.13 77.2 152.13 77.2C152.0832 77.1415468 152.0832 77.0584532 152.13 77L152.29 77C152.79 76.92 152.79 76.84 152.79 76L152.79 74.82C152.79 74.57 152.79 74.56 152.38 74.56L150 74.56zM155.51 73C155.51 72.15 155.51 72 155.01 72L154.88 72C154.88 72 154.88 71.82 154.88 71.8L155.88 71.8 157.42 71.8C157.94 71.8 158.42 71.8 158.53 71.8 158.594827 72.1604464 158.638236 72.5244177 158.66 72.89 158.601547 72.9368001 158.518453 72.9368001 158.46 72.89 158.34 72.51 158.26 72.22 157.84 72.11 157.577335 72.0834655 157.312665 72.0834655 157.05 72.11L156.46 72.11C156.21 72.11 156.21 72.11 156.21 72.44L156.21 74C156.21 74.23 156.21 74.23 156.48 74.23L156.95 74.23C157.182534 74.2573155 157.417466 74.2573155 157.65 74.23 157.75 74.23 157.81 74.15 157.85 73.94L157.92 73.6C157.980207 73.547636 158.069793 73.547636 158.13 73.6 158.13 73.8 158.13 74.12 158.13 74.43 158.13 74.74 158.13 75.04 158.13 75.22 158.069793 75.272364 157.980207 75.272364 157.92 75.22L157.85 74.9C157.839307 74.7547066 157.73973 74.6312317 157.6 74.59 157.390698 74.5657774 157.179302 74.5657774 156.97 74.59L156.5 74.59C156.25 74.59 156.23 74.59 156.23 74.81L156.23 75.96C156.23 76.39 156.23 76.67 156.39 76.81 156.55 76.95 156.66 77 157.39 77 157.728073 77.0314868 158.068975 76.9905786 158.39 76.88 158.669535 76.6475599 158.880427 76.3433227 159 76 159.07193 75.9627002 159.16048 75.9892654 159.2 76.06 159.108744 76.4496729 158.984977 76.8310086 158.83 77.2L156.64 77.2 155.9 77.2 154.79 77.2C154.7432 77.1415468 154.7432 77.0584532 154.79 77L155.06 77C155.53 77 155.57 76.84 155.57 76L155.51 73zM169.63 71.84C169.677579 70.9293415 169.593377 70.0165851 169.38 69.13 169.214617 68.9403416 168.971309 68.83712 168.72 68.85L168.39 68.85C168.314313 68.760526 168.314313 68.629474 168.39 68.54 168.89 68.54 169.39 68.54 169.89 68.54 170.39 68.54 170.79 68.54 171.27 68.54 171.350098 68.6278115 171.350098 68.7621885 171.27 68.85L170.96 68.85C170.700064 68.8383012 170.451801 68.9586707 170.3 69.17 170.138343 70.0502193 170.07795 70.9460476 170.12 71.84L170.12 73.32C170.208865 74.4409887 169.88131 75.5553888 169.2 76.45 168.53587 77.1072121 167.634172 77.4678913 166.7 77.45 165.824057 77.5057324 164.956518 77.250782 164.25 76.73 163.55 76.15 163.25 75.2 163.25 73.64L163.25 70.5C163.25 69.14 163.25 68.91 162.46 68.85L162.13 68.85C162.05 68.8 162.08 68.57 162.13 68.54 162.79 68.54 163.23 68.54 163.76 68.54 164.29 68.54 164.76 68.54 165.37 68.54 165.45 68.54 165.47 68.8 165.37 68.85L165.06 68.85C164.3 68.92 164.27 69.14 164.27 70.5L164.27 73.33C164.27 75.44 164.93 76.83 166.93 76.83 168.93 76.83 169.55 75.34 169.55 73.34L169.63 71.84zM176.93 75.81C176.93 76.06 176.93 77.03 176.93 77.24 176.903394 77.3029434 176.837608 77.339948 176.77 77.33 176.67 77.19 176.43 76.9 175.77 76.09L173.87 73.93C173.65 73.68 173.09 73.01 172.92 72.83L172.92 72.83C172.896488 73.0058844 172.896488 73.1841156 172.92 73.36L172.92 75.14C172.894896 75.7074912 172.945338 76.2758016 173.07 76.83 173.07 76.92 173.28 76.97 173.49 76.99L173.74 76.99C173.790929 77.0469401 173.790929 77.1330599 173.74 77.19L172.74 77.19C172.4 77.19 172.18 77.19 171.89 77.19 171.839071 77.1330599 171.839071 77.0469401 171.89 76.99L172.11 76.99C172.3 76.99 172.43 76.92 172.47 76.83 172.566965 76.2722174 172.603842 75.7056457 172.58 75.14L172.58 72.78C172.607395 72.5666196 172.541842 72.3517488 172.4 72.19 172.255256 72.0713709 172.076799 72.001388 171.89 71.99L171.75 71.99C171.723125 71.9636675 171.70798 71.9276256 171.70798 71.89 171.70798 71.8523744 171.723125 71.8163325 171.75 71.79 172.09 71.79 172.53 71.79 172.67 71.79L173.05 71.79C173.455001 72.4355159 173.924039 73.0385641 174.45 73.59L175.25 74.48C175.81 75.11 176.25 75.57 176.6 75.96L176.6 75.96C176.624054 75.847943 176.624054 75.732057 176.6 75.62L176.6 73.85C176.630279 73.2818592 176.576362 72.7123641 176.44 72.16 176.44 72.09 176.26 72.04 175.93 72L175.79 72C175.73 72 175.79 71.82 175.79 71.8L176.79 71.8C177.14 71.8 177.35 71.8 177.63 71.8 177.656875 71.8263325 177.67202 71.8623744 177.67202 71.9 177.67202 71.9376256 177.656875 71.9736675 177.63 72L177.52 72C177.26 72 177.09 72.11 177.06 72.17 176.947561 72.7258385 176.907228 73.2938507 176.94 73.86L176.93 75.81zM178.94 73C178.94 72.13 178.94 72 178.44 72L178.24 72C178.24 72 178.24 71.82 178.24 71.8L179.24 71.8 180.24 71.8C180.24 71.8 180.31 71.97 180.24 72L180.04 72C179.56 72 179.54 72.18 179.54 73L179.54 76C179.54 76.87 179.54 77 180.04 77L180.24 77C180.24 77 180.24 77.18 180.24 77.2L179.24 77.2 178.24 77.2C178.1932 77.1415468 178.1932 77.0584532 178.24 77L178.44 77C178.92 76.94 178.94 76.83 178.94 76L178.94 73zM181.48 72.66C181.29 72.2 181.17 72.03 180.82 71.99L180.67 71.99C180.643125 71.9636675 180.62798 71.9276256 180.62798 71.89 180.62798 71.8523744 180.643125 71.8163325 180.67 71.79L181.52 71.79 182.52 71.79C182.546875 71.8163325 182.56202 71.8523744 182.56202 71.89 182.56202 71.9276256 182.546875 71.9636675 182.52 71.99L182.4 71.99C182.09 71.99 182.02 72.08 182.02 72.15 182.133305 72.5412654 182.270223 72.925303 182.43 73.3 182.81 74.25 183.18 75.19 183.59 76.12 183.84 75.58 184.19 74.74 184.38 74.3 184.57 73.86 185 72.82 185.14 72.47 185.183155 72.3686544 185.2069 72.2601076 185.21 72.15 185.21 72.09 185.13 72.03 184.84 71.99L184.69 71.99C184.663125 71.9636675 184.64798 71.9276256 184.64798 71.89 184.64798 71.8523744 184.663125 71.8163325 184.69 71.79L185.54 71.79 186.33 71.79C186.3768 71.8484532 186.3768 71.9315468 186.33 71.99L186.08 71.99C185.895248 72.0031854 185.731455 72.1136499 185.65 72.28 185.310286 72.8899476 185.003188 73.5174971 184.73 74.16L184.29 75.16C183.96 75.91 183.58 76.86 183.44 77.3L183.35 77.3 183.23 77.3C183.125289 76.9293805 182.998393 76.5653907 182.85 76.21L181.48 72.66zM187.25 73C187.25 72.15 187.25 72 186.75 72L186.62 72C186.62 72 186.62 71.82 186.62 71.8L187.62 71.8 189.16 71.8C189.68 71.8 190.16 71.8 190.27 71.8 190.334462 72.1605008 190.377869 72.5244506 190.4 72.89 190.341547 72.9368001 190.258453 72.9368001 190.2 72.89 190.08 72.51 190 72.22 189.58 72.11 189.317339 72.0833974 189.052661 72.0833974 188.79 72.11L188.2 72.11C187.95 72.11 187.95 72.11 187.95 72.44L187.95 74C187.95 74.23 187.95 74.23 188.22 74.23L188.69 74.23C188.922534 74.2573155 189.157466 74.2573155 189.39 74.23 189.49 74.23 189.55 74.15 189.59 73.94L189.66 73.6C189.720207 73.547636 189.809793 73.547636 189.87 73.6 189.87 73.8 189.87 74.12 189.87 74.43 189.87 74.74 189.87 75.04 189.87 75.22 189.809793 75.272364 189.720207 75.272364 189.66 75.22L189.59 74.9C189.579307 74.7547066 189.47973 74.6312317 189.34 74.59 189.130704 74.565688 188.919296 74.565688 188.71 74.59L188.24 74.59C187.99 74.59 187.97 74.59 187.97 74.81L187.97 75.96C187.97 76.39 187.97 76.67 188.13 76.81 188.29 76.95 188.4 77 189.13 77 189.468073 77.0314868 189.808975 76.9905786 190.13 76.88 190.38586 76.6688442 190.585177 76.3973602 190.71 76.09 190.78193 76.0527002 190.87048 76.0792654 190.91 76.15 190.818926 76.5397237 190.695155 76.9210745 190.54 77.29L188.35 77.29 187.61 77.29 186.5 77.29C186.4532 77.2315468 186.4532 77.1484532 186.5 77.09L186.77 77.09C187.24 77.09 187.28 76.93 187.28 76.09L187.25 73zM192 73C192 72.22 192 72.08 191.64 72L191.38 72C191.353125 71.9736675 191.33798 71.9376256 191.33798 71.9 191.33798 71.8623744 191.353125 71.8263325 191.38 71.8 191.84 71.8 192.38 71.74 193.21 71.74 193.680194 71.7108196 194.150418 71.796627 194.58 71.99 195.015067 72.204131 195.282018 72.6555926 195.26 73.14 195.238862 73.758426 194.842555 74.3013668 194.26 74.51 194.26 74.51 194.26 74.64 194.26 74.71 194.719362 75.5311678 195.306737 76.2738266 196 76.91 196.158419 77.0426856 196.354053 77.1230354 196.56 77.14 196.576858 77.1532726 196.586699 77.1735437 196.586699 77.195 196.586699 77.2164563 196.576858 77.2367274 196.56 77.25 196.440619 77.2672312 196.319381 77.2672312 196.2 77.25 195.5 77.25 195.09 77.05 194.51 76.25 194.3 75.95 193.96 75.38 193.71 75.01 193.585592 74.8156831 193.357839 74.7135868 193.13 74.75 192.76 74.75 192.75 74.75 192.75 74.93L192.75 75.93C192.75 76.79 192.75 76.93 193.24 76.93L193.41 76.93C193.4568 76.9884532 193.4568 77.0715468 193.41 77.13L192.41 77.13 191.41 77.13C191.3632 77.0715468 191.3632 76.9884532 191.41 76.93L191.61 76.93C192.09 76.87 192.1 76.77 192.1 75.93L192 73zM192.67 74.17C192.6508 74.258976 192.6508 74.351024 192.67 74.44 192.67 74.44 192.82 74.44 193.23 74.44 193.525339 74.4626485 193.820065 74.3889672 194.07 74.23 194.361661 73.9835429 194.514704 73.6102668 194.48 73.23 194.485662 72.8985798 194.355114 72.5793476 194.118848 72.3468617 193.882582 72.1143757 193.561286 71.988994 193.23 72 192.72 72 192.7 72 192.7 72.26L192.67 74.17zM198.1 77.33C197.654446 77.3435963 197.213111 77.2401585 196.82 77.03 196.687066 76.6605064 196.612833 76.2724695 196.6 75.88 196.6 75.82 196.76 75.81 196.8 75.88 196.926052 76.5668272 197.512186 77.0739788 198.21 77.1 198.470287 77.1196715 198.726859 77.02905 198.917052 76.8502684 199.107245 76.6714868 199.213549 76.4210052 199.21 76.16 199.231262 75.6785072 198.969353 75.2289606 198.54 75.01L197.76 74.5C197.247948 74.2081716 196.917185 73.6781988 196.88 73.09 196.893109 72.6733898 197.082463 72.2819305 197.400944 72.0130333 197.719425 71.7441361 198.137088 71.6230841 198.55 71.68 198.806871 71.6855346 199.062101 71.7224757 199.31 71.79 199.406235 71.8029167 199.503765 71.8029167 199.6 71.79 199.696929 72.1145869 199.74743 72.4512592 199.75 72.79 199.75 72.79 199.59 72.86 199.55 72.79 199.473134 72.242682 198.992076 71.8439674 198.44 71.87 198.179844 71.8263748 197.914058 71.904557 197.718958 72.0820972 197.523859 72.2596375 197.421031 72.5168947 197.44 72.78 197.490886 73.2096241 197.753744 73.5851348 198.14 73.78L198.8 74.19C199.392986 74.4936983 199.775484 75.094219 199.8 75.76 199.811043 76.2029165 199.63079 76.6291321 199.305306 76.9297264 198.979822 77.2303207 198.540642 77.3761692 198.1 77.33zM201.32 73C201.32 72.13 201.32 72 200.82 72L200.62 72C200.62 72 200.62 71.82 200.62 71.8L201.62 71.8 202.62 71.8C202.62 71.8 202.69 71.97 202.62 72L202.42 72C201.94 72 201.92 72.18 201.92 73L201.92 76C201.92 76.87 201.92 77 202.42 77L202.62 77C202.62 77 202.62 77.18 202.62 77.2L201.62 77.2 200.62 77.2C200.5732 77.1415468 200.5732 77.0584532 200.62 77L200.82 77C201.3 76.94 201.32 76.83 201.32 76L201.32 73zM206.05 76C206.05 76.86 206.05 77 206.54 77L206.8 77C206.8 77 206.8 77.18 206.8 77.2L205.73 77.2 204.59 77.2C204.563125 77.1736675 204.54798 77.1376256 204.54798 77.1 204.54798 77.0623744 204.563125 77.0263325 204.59 77L204.89 77C205.36 77 205.4 76.84 205.4 76L205.4 72.31C205.4 72.06 205.4 72.05 205.15 72.05L204.7 72.05C204.353996 72.0114413 204.004558 72.0813288 203.7 72.25 203.534685 72.4091928 203.408104 72.6041966 203.33 72.82 203.255111 72.8583138 203.163344 72.8320944 203.12 72.76 203.252422 72.3612837 203.356022 71.9535671 203.43 71.54 203.48101 71.5177374 203.53899 71.5177374 203.59 71.54 203.59 71.8 203.91 71.79 204.29 71.79L207.61 71.79C208.05 71.79 208.13 71.79 208.25 71.56 208.25 71.56 208.38 71.56 208.4 71.56 208.308462 71.9667144 208.268149 72.3832803 208.28 72.8 208.221673 72.8571714 208.128327 72.8571714 208.07 72.8 208.07 72.5836298 207.999822 72.3730962 207.87 72.2 207.580998 72.0383888 207.24963 71.9686272 206.92 72L206.34 72C206.09 72 206.1 72 206.1 72.28L206.05 76zM211.29 76C211.29 76.88 211.29 77 211.78 77L212.09 77C212.1368 77.0584532 212.1368 77.1415468 212.09 77.2L210.98 77.2 209.91 77.2C209.8632 77.1415468 209.8632 77.0584532 209.91 77L210.16 77C210.64 77 210.65 76.84 210.65 76L210.65 75.58C210.672628 75.2274275 210.581492 74.8769014 210.39 74.58L209.39 72.7C209.11 72.16 208.99 72.12 208.74 72.08L208.51 72.08C208.459071 72.0230599 208.459071 71.9369401 208.51 71.88L209.46 71.88C209.84 71.88 210.13 71.88 210.34 71.88 210.55 71.88 210.41 72.04 210.34 72.08L210.23 72.08C209.94 72.08 209.89 72.16 209.89 72.23 209.955359 72.4466948 210.038993 72.6574512 210.14 72.86 210.44 73.47 210.75 74.11 211.07 74.68 211.32 74.25 211.59 73.77 211.84 73.3 212.04515 72.9546911 212.222381 72.5935418 212.37 72.22 212.37 72.22 212.22 72.11 212.03 72.09L211.88 72.09C211.853125 72.0636675 211.83798 72.0276256 211.83798 71.99 211.83798 71.9523744 211.853125 71.9163325 211.88 71.89L212.67 71.89 213.43 71.89C213.456875 71.9163325 213.47202 71.9523744 213.47202 71.99 213.47202 72.0276256 213.456875 72.0636675 213.43 72.09L213.2 72.09C212.77 72.16 212.53 72.68 212.12 73.38L211.6 74.27C211.308917 74.6489328 211.173045 75.124485 211.22 75.6L211.29 76zM220.25 74C220.148639 74.9795778 219.718632 75.8959877 219.03 76.6 218.623026 77.0877558 218.025084 77.3757889 217.39 77.39 216.66 77.39 216.17 76.85 216.24 75.86 216.352257 74.8861028 216.793175 73.9795743 217.49 73.29 217.892568 72.8352833 218.463179 72.5644237 219.07 72.54 219.89 72.52 220.29 73.13 220.25 74zM218.16 73.45C217.558058 74.2900348 217.160822 75.2591526 217 76.28 217 76.68 217.14 77.01 217.47 77.01 217.8 77.01 218.01 76.91 218.38 76.41 218.932695 75.5638721 219.297561 74.6090828 219.45 73.61 219.45 73.25 219.39 72.85 218.99 72.85 218.77 72.86 218.49 73 218.16 73.41L218.16 73.45zM223 73.1C222.93 73.3 222.84 73.66 222.7 74.17 222.36 75.46 222.05 76.56 221.7 77.82 221.542893 78.4984139 221.231496 79.1314745 220.79 79.67 220.420832 80.0377958 219.930145 80.2582492 219.41 80.29 218.79 80.29 218.57 79.9 218.57 79.73 218.573032 79.5261354 218.668727 79.3347442 218.83 79.21 218.903099 79.1414188 219.016901 79.1414188 219.09 79.21 219.311987 79.4687547 219.621899 79.6361785 219.96 79.68 220.19 79.68 220.43 79.6 220.69 78.68 221.22 76.87 221.62 74.89 222.17 73.02L221.17 73.02C221.121413 72.9548289 221.10241 72.8722574 221.11762 72.7924038 221.13283 72.7125502 221.180857 72.6427465 221.25 72.6L222.25 72.6C222.473287 71.6078223 222.910086 70.6762134 223.53 69.87 223.949443 69.2630643 224.632553 68.8918085 225.37 68.87 225.819603 68.8465728 226.207733 69.1817756 226.25 69.63 226.25 69.93 225.94 70.28 225.76 70.28 225.58 70.28 225.61 70.18 225.6 70.1 225.6 69.47 225.24 69.26 224.96 69.26 224.603169 69.3290715 224.297468 69.5574267 224.13 69.88 223.62631 70.7037901 223.264609 71.6063532 223.06 72.55L224.49 72.55C224.573859 72.696591 224.52495 72.8833349 224.38 72.97L223 73.1zM234.95 75C234.95 75.39 234.95 77 234.95 77.29 234.906722 77.3867493 234.805105 77.4436548 234.7 77.43 234.54 77.21 234.16 76.75 233.02 75.43L230 72C229.65 71.59 228.75 70.52 228.48 70.23L228.48 70.23C228.420656 70.5092097 228.397133 70.7948435 228.41 71.08L228.41 73.94C228.369703 74.8499742 228.450409 75.7612705 228.65 76.65 228.73 76.79 228.99 76.87 229.32 76.9L229.73 76.9C229.817621 76.9925513 229.817621 77.1374487 229.73 77.23 229.14 77.23 228.73 77.23 228.2 77.23 227.67 77.23 227.3 77.23 226.84 77.23 226.752379 77.1374487 226.752379 76.9925513 226.84 76.9L227.19 76.9C227.49 76.9 227.7 76.78 227.77 76.64 227.923248 75.7486912 227.980242 74.8434915 227.94 73.94L227.94 70.12C227.982106 69.7796216 227.876556 69.4374933 227.65 69.18 227.418936 68.9947235 227.135722 68.886333 226.84 68.87L226.62 68.87C226.575401 68.8266891 226.550234 68.7671684 226.550234 68.705 226.550234 68.6428316 226.575401 68.5833109 226.62 68.54 227.17 68.54 227.87 68.54 228.1 68.54 228.299745 68.5542699 228.500255 68.5542699 228.7 68.54 229.347476 69.5731938 230.097975 70.5381221 230.94 71.42L232.21 72.85C233.11 73.85 233.76 74.59 234.37 75.22L234.37 75.22C234.424966 75.0421846 234.442 74.8548123 234.42 74.67L234.42 71.84C234.46806 70.9287746 234.380436 70.0154656 234.16 69.13 234.08 69.01 233.87 68.93 233.35 68.87L233.13 68.87C233.04 68.79 233.05 68.58 233.13 68.54 233.73 68.54 234.13 68.54 234.68 68.54 235.23 68.54 235.58 68.54 236.03 68.54 236.074599 68.5833109 236.099766 68.6428316 236.099766 68.705 236.099766 68.7671684 236.074599 68.8266891 236.03 68.87L235.85 68.87C235.43 68.94 235.17 69.04 235.12 69.15 234.93776 70.0376904 234.870541 70.9451466 234.92 71.85L234.95 75zM236.86 74.56C236.84325 73.7850144 237.145127 73.0370818 237.695139 72.4908496 238.245152 71.9446174 238.995148 71.6479062 239.77 71.67 240.530382 71.6267168 241.273473 71.9077881 241.814866 72.4434624 242.35626 72.9791367 242.645206 73.7192017 242.61 74.48 242.626368 75.2399365 242.333075 75.9738714 241.797483 76.5132349 241.261891 77.0525984 240.530033 77.351035 239.77 77.34 239.008889 77.381455 238.264521 77.1063001 237.713366 76.5797675 237.162212 76.0532349 236.853348 75.3222098 236.86 74.56L236.86 74.56zM241.8 74.73C241.8 73.38 241.2 71.92 239.64 71.92 238.79 71.92 237.64 72.5 237.64 74.29 237.64 75.5 238.23 77.07 239.84 77.07 240.86 77.08 241.79 76.34 241.79 74.73L241.8 74.73zM244 73C244 72.22 244 72.08 243.64 72L243.38 72C243.353125 71.9736675 243.33798 71.9376256 243.33798 71.9 243.33798 71.8623744 243.353125 71.8263325 243.38 71.8 243.84 71.8 244.38 71.74 245.21 71.74 245.680194 71.7108196 246.150418 71.796627 246.58 71.99 247.015067 72.204131 247.282018 72.6555926 247.26 73.14 247.238862 73.758426 246.842555 74.3013668 246.26 74.51 246.26 74.51 246.26 74.64 246.26 74.71 246.719362 75.5311678 247.306737 76.2738266 248 76.91 248.158419 77.0426856 248.354053 77.1230354 248.56 77.14 248.576858 77.1532726 248.586699 77.1735437 248.586699 77.195 248.586699 77.2164563 248.576858 77.2367274 248.56 77.25 248.440619 77.2672312 248.319381 77.2672312 248.2 77.25 247.5 77.25 247.09 77.05 246.51 76.25 246.3 75.95 245.96 75.38 245.71 75.01 245.585592 74.8156831 245.357839 74.7135868 245.13 74.75 244.76 74.75 244.75 74.75 244.75 74.93L244.75 75.93C244.75 76.79 244.75 76.93 245.24 76.93L245.41 76.93C245.4568 76.9884532 245.4568 77.0715468 245.41 77.13L244.41 77.13 243.41 77.13C243.3632 77.0715468 243.3632 76.9884532 243.41 76.93L243.61 76.93C244.09 76.87 244.1 76.77 244.1 75.93L244 73zM244.67 74.17C244.6508 74.258976 244.6508 74.351024 244.67 74.44 244.67 74.44 244.82 74.44 245.23 74.44 245.525339 74.4626485 245.820065 74.3889672 246.07 74.23 246.361661 73.9835429 246.514704 73.6102668 246.48 73.23 246.485552 72.9003669 246.356361 72.5827408 246.1223 72.3505676 245.888239 72.1183945 245.569577 71.9917794 245.24 72 244.73 72 244.71 72 244.71 72.26L244.67 74.17zM250.92 76C250.92 76.86 250.92 77 251.41 77L251.67 77C251.67 77 251.67 77.18 251.67 77.2L250.6 77.2 249.46 77.2C249.433125 77.1736675 249.41798 77.1376256 249.41798 77.1 249.41798 77.0623744 249.433125 77.0263325 249.46 77L249.76 77C250.23 77 250.27 76.84 250.27 76L250.27 72.31C250.27 72.06 250.27 72.05 250.02 72.05L249.57 72.05C249.223996 72.0114413 248.874558 72.0813288 248.57 72.25 248.404685 72.4091928 248.278104 72.6041966 248.2 72.82 248.125111 72.8583138 248.033344 72.8320944 247.99 72.76 248.122389 72.361274 248.225989 71.9535598 248.3 71.54 248.35101 71.5177374 248.40899 71.5177374 248.46 71.54 248.46 71.8 248.78 71.79 249.16 71.79L252.48 71.79C252.92 71.79 253 71.79 253.12 71.56 253.12 71.56 253.25 71.56 253.27 71.56 253.178462 71.9667144 253.138149 72.3832803 253.15 72.8 253.091673 72.8571714 252.998327 72.8571714 252.94 72.8 252.94 72.5836298 252.869822 72.3730962 252.74 72.2 252.450998 72.0383888 252.11963 71.9686272 251.79 72L251.21 72C250.96 72 250.97 72 250.97 72.28L250.92 76zM255.44 74.56C255.05 74.56 255.03 74.56 255.03 74.82L255.03 76C255.03 76.86 255.03 77 255.53 77L255.77 77C255.77 77 255.77 77.18 255.77 77.2L254.77 77.2 253.82 77.2C253.7732 77.1415468 253.7732 77.0584532 253.82 77L253.96 77C254.42 76.92 254.44 76.84 254.44 76L254.44 73C254.44 72.14 254.38 72 253.96 72L253.75 72C253.75 72 253.75 71.82 253.75 71.8L254.75 71.8 255.7 71.8C255.7 71.8 255.77 71.97 255.7 72L255.54 72C255.07 72 255.05 72.17 255.05 73L255.05 74C255.05 74.25 255.05 74.26 255.46 74.26L257.8 74.26C258.19 74.26 258.21 74.26 258.21 74L258.21 73C258.21 72.14 258.21 72 257.71 72L257.55 72C257.55 72 257.55 71.82 257.55 71.8L258.55 71.8 259.55 71.8C259.55 71.8 259.62 71.97 259.55 72L259.38 72C258.9 72 258.89 72.17 258.89 73L258.89 76C258.89 76.86 258.89 77 259.38 77L259.58 77C259.58 77 259.58 77.18 259.58 77.2L258.58 77.2 257.58 77.2C257.5332 77.1415468 257.5332 77.0584532 257.58 77L257.74 77C258.24 76.92 258.24 76.84 258.24 76L258.24 74.82C258.24 74.57 258.24 74.56 257.83 74.56L255.44 74.56zM264.39 69.45C265.411424 68.6920934 266.658698 68.3009992 267.93 68.34 268.71272 68.3532537 269.49126 68.4572827 270.25 68.65 270.369101 68.6897471 270.494621 68.7067094 270.62 68.7 270.62 69 270.7 69.83 270.8 70.63 270.697707 70.7119001 270.552293 70.7119001 270.45 70.63 270.211639 69.3743249 269.024062 68.5311015 267.76 68.72 265.76 68.72 264.05 69.99 264.05 72.72 264.05 75.45 265.8 77 267.95 77 269.174022 77.0430207 270.283954 76.2855123 270.69 75.13 270.801437 75.0669787 270.941424 75.0875651 271.03 75.18 270.939156 75.8152853 270.725153 76.426723 270.4 76.98 270.243125 77.0096481 270.089188 77.0531519 269.94 77.11 269.266752 77.3032002 268.570396 77.4041215 267.87 77.41 266.719681 77.4501591 265.583856 77.1435562 264.61 76.53 263.413699 75.7237033 262.712182 74.3621585 262.75 72.92 262.73079 71.5719886 263.336257 70.2909097 264.39 69.45L264.39 69.45zM274.62 75.3C274.56 75.12 274.53 75.1 274.28 75.1L273 75.1C272.8 75.1 272.75 75.1 272.69 75.3L272.4 76.16C272.31488 76.3792615 272.254506 76.6073408 272.22 76.84 272.22 76.94 272.22 76.99 272.46 77L272.73 77C272.759733 77.0246983 272.776934 77.0613468 272.776934 77.1 272.776934 77.1386532 272.759733 77.1753017 272.73 77.2 272.52 77.2 272.26 77.2 271.88 77.2L271.09 77.2C271.0432 77.1415468 271.0432 77.0584532 271.09 77L271.36 77C271.592504 76.9862901 271.79002 76.8250524 271.85 76.6 272 76.22 272.23 75.69 272.57 74.77L273.41 72.56C273.506007 72.3820147 273.554242 72.1821835 273.55 71.98 273.720921 71.9216288 273.870607 71.813716 273.98 71.67 274.030813 71.6654531 274.078946 71.6935308 274.1 71.74 274.21 72.1 274.34 72.48 274.46 72.84L275.58 76.13C275.82 76.83 275.92 76.96 276.28 77L276.5 77C276.5468 77.0584532 276.5468 77.1415468 276.5 77.2L275.5 77.2C275.11 77.2 274.8 77.2 274.56 77.2 274.533125 77.1736675 274.51798 77.1376256 274.51798 77.1 274.51798 77.0623744 274.533125 77.0263325 274.56 77L274.8 77C274.97 77 275.09 76.93 275.09 76.85 275.072747 76.7023889 275.03575 76.5577631 274.98 76.42L274.62 75.3zM273 74.57C272.93 74.76 272.94 74.77 273.17 74.77L274.17 74.77C274.41 74.77 274.42 74.77 274.35 74.52L273.91 73.19C273.84 72.99 273.77 72.77 273.72 72.67L273.72 72.67C273.645151 72.8264664 273.578396 72.9866779 273.52 73.15L273 74.57zM277.44 73C277.44 72.22 277.44 72.08 277.08 72L276.82 72C276.793125 71.9736675 276.77798 71.9376256 276.77798 71.9 276.77798 71.8623744 276.793125 71.8263325 276.82 71.8 277.28 71.8 277.82 71.74 278.65 71.74 279.114335 71.7172057 279.577345 71.806378 280 72 280.435067 72.214131 280.702018 72.6655926 280.68 73.15 280.658862 73.768426 280.262555 74.3113668 279.68 74.52 279.68 74.52 279.68 74.65 279.68 74.72 280.113758 75.5277482 280.670398 76.2631888 281.33 76.9 281.488419 77.0326856 281.684053 77.1130354 281.89 77.13 281.906858 77.1432726 281.916699 77.1635437 281.916699 77.185 281.916699 77.2064563 281.906858 77.2267274 281.89 77.24 281.770619 77.2572312 281.649381 77.2572312 281.53 77.24 280.83 77.24 280.42 77.04 279.84 76.24 279.63 75.94 279.29 75.37 279.04 75 278.915592 74.8056831 278.687839 74.7035868 278.46 74.74 278.09 74.74 278.08 74.74 278.08 74.92L278.08 75.92C278.08 76.78 278.08 76.92 278.57 76.92L278.74 76.92C278.7868 76.9784532 278.7868 77.0615468 278.74 77.12L277.74 77.12 276.74 77.12C276.6932 77.0615468 276.6932 76.9784532 276.74 76.92L276.94 76.92C277.42 76.86 277.43 76.76 277.43 75.92L277.44 73zM278.11 74.17C278.0908 74.258976 278.0908 74.351024 278.11 74.44 278.11 74.44 278.26 74.44 278.67 74.44 278.965339 74.4626485 279.260065 74.3889672 279.51 74.23 279.801661 73.9835429 279.954704 73.6102668 279.92 73.23 279.926137 72.8931246 279.791534 72.5689461 279.54859 72.3354919 279.305646 72.1020378 278.976364 71.9804522 278.64 72 278.13 72 278.11 72 278.11 72.26L278.11 74.17zM281.75 74.56C281.73325 73.7850144 282.035127 73.0370818 282.585139 72.4908496 283.135152 71.9446174 283.885148 71.6479062 284.66 71.67 285.420382 71.6267168 286.163473 71.9077881 286.704866 72.4434624 287.24626 72.9791367 287.535206 73.7192017 287.5 74.48 287.516368 75.2399365 287.223075 75.9738714 286.687483 76.5132349 286.151891 77.0525984 285.420033 77.351035 284.66 77.34 283.898889 77.381455 283.154521 77.1063001 282.603366 76.5797675 282.052212 76.0532349 281.743348 75.3222098 281.75 74.56L281.75 74.56zM286.69 74.73C286.69 73.38 286.09 71.92 284.53 71.92 283.68 71.92 282.53 72.5 282.53 74.29 282.53 75.5 283.12 77.07 284.73 77.07 285.76 77.08 286.69 76.34 286.69 74.73zM288.94 73C288.94 72.14 288.94 72 288.41 72L288.21 72C288.21 72 288.21 71.82 288.21 71.8L289.27 71.8 290.27 71.8C290.27 71.8 290.34 71.97 290.27 72L290.07 72C289.59 72 289.57 72.17 289.57 73L289.57 75.85C289.57 76.37 289.57 76.58 289.74 76.73 289.91 76.88 289.99 76.92 290.63 76.92 291.27 76.92 291.5 76.92 291.63 76.81 291.882987 76.5965077 292.070233 76.315639 292.17 76 292.17 76 292.37 76 292.37 76 292.291745 76.3928434 292.177944 76.7777604 292.03 77.15 291.61 77.15 290.84 77.15 290.03 77.15L289.28 77.15 288.22 77.15C288.1732 77.0915468 288.1732 77.0084532 288.22 76.95L288.47 76.95C288.95 76.95 288.96 76.79 288.96 75.95L288.94 73zM293.47 73C293.47 72.13 293.47 72 292.97 72L292.77 72C292.77 72 292.77 71.82 292.77 71.8L293.77 71.8 294.77 71.8C294.77 71.8 294.84 71.97 294.77 72L294.57 72C294.09 72 294.07 72.18 294.07 73L294.07 76C294.07 76.87 294.07 77 294.57 77L294.77 77C294.77 77 294.77 77.18 294.77 77.2L293.77 77.2 292.77 77.2C292.7232 77.1415468 292.7232 77.0584532 292.77 77L292.97 77C293.45 76.94 293.47 76.83 293.47 76L293.47 73zM300.64 75.81C300.64 76.06 300.64 77.03 300.64 77.24 300.613394 77.3029434 300.547608 77.339948 300.48 77.33 300.38 77.19 300.14 76.9 299.48 76.09L297.58 73.93C297.36 73.68 296.8 73.01 296.63 72.83L296.63 72.83C296.6074 73.0059439 296.6074 73.1840561 296.63 73.36L296.63 75.14C296.604896 75.7074912 296.655338 76.2758016 296.78 76.83 296.78 76.92 296.99 76.97 297.2 76.99L297.45 76.99C297.500929 77.0469401 297.500929 77.1330599 297.45 77.19L296.45 77.19C296.11 77.19 295.89 77.19 295.6 77.19 295.549071 77.1330599 295.549071 77.0469401 295.6 76.99L295.82 76.99C296.01 76.99 296.14 76.92 296.18 76.83 296.277427 76.2722726 296.314308 75.705651 296.29 75.14L296.29 72.78C296.317395 72.5666196 296.251842 72.3517488 296.11 72.19 295.965256 72.0713709 295.786799 72.001388 295.6 71.99L295.46 71.99C295.433125 71.9636675 295.41798 71.9276256 295.41798 71.89 295.41798 71.8523744 295.433125 71.8163325 295.46 71.79 295.8 71.79 296.24 71.79 296.39 71.79L296.77 71.79C297.174154 72.4361084 297.643256 73.0392393 298.17 73.59L298.96 74.48C299.53 75.11 299.96 75.57 300.31 75.96L300.31 75.96C300.333176 75.8478515 300.333176 75.7321485 300.31 75.62L300.31 73.85C300.340279 73.2818592 300.286362 72.7123641 300.15 72.16 300.15 72.09 299.97 72.04 299.64 72L299.5 72C299.44 72 299.5 71.82 299.5 71.8L300.5 71.8C300.85 71.8 301.07 71.8 301.34 71.8 301.366875 71.8263325 301.38202 71.8623744 301.38202 71.9 301.38202 71.9376256 301.366875 71.9736675 301.34 72L301.23 72C300.97 72 300.8 72.11 300.77 72.17 300.657561 72.7258385 300.617228 73.2938507 300.65 73.86L300.64 75.81zM304.93 75.3C304.87 75.12 304.84 75.1 304.59 75.1L303.35 75.1C303.15 75.1 303.1 75.1 303.04 75.3L302.75 76.16C302.66488 76.3792615 302.604506 76.6073408 302.57 76.84 302.57 76.94 302.57 76.99 302.81 77L303.08 77C303.109733 77.0246983 303.126934 77.0613468 303.126934 77.1 303.126934 77.1386532 303.109733 77.1753017 303.08 77.2 302.87 77.2 302.61 77.2 302.23 77.2L301.44 77.2C301.3932 77.1415468 301.3932 77.0584532 301.44 77L301.71 77C301.942504 76.9862901 302.14002 76.8250524 302.2 76.6 302.35 76.22 302.58 75.69 302.92 74.77L303.76 72.56C303.856007 72.3820147 303.904242 72.1821835 303.9 71.98 304.070921 71.9216288 304.220607 71.813716 304.33 71.67 304.380813 71.6654531 304.428946 71.6935308 304.45 71.74 304.56 72.1 304.69 72.48 304.81 72.84L305.93 76.13C306.17 76.83 306.27 76.96 306.63 77L306.85 77C306.8968 77.0584532 306.8968 77.1415468 306.85 77.2L305.85 77.2C305.46 77.2 305.15 77.2 304.91 77.2 304.883125 77.1736675 304.86798 77.1376256 304.86798 77.1 304.86798 77.0623744 304.883125 77.0263325 304.91 77L305.15 77C305.32 77 305.44 76.93 305.44 76.85 305.422747 76.7023889 305.38575 76.5577631 305.33 76.42L304.93 75.3zM303.31 74.57C303.24 74.76 303.25 74.77 303.48 74.77L304.48 74.77C304.72 74.77 304.73 74.77 304.66 74.52L304.22 73.19C304.15 72.99 304.08 72.77 304.03 72.67L304.03 72.67C303.955151 72.8264664 303.888396 72.9866779 303.83 73.15L303.31 74.57z"/>
  </g>
</svg>
