<svg version="1" xmlns="http://www.w3.org/2000/svg" width="682.667" height="682.667" viewBox="0 0 512.000000 512.000000"><path d="M244 12c-2.5.4-6.3 1-8.5 1.3-28.6 4.1-62.5 20.9-83.8 41.7l-3.7 3.7 6.1 6.2c3.4 3.3 6.4 6.1 6.8 6.1.4 0 1.8-1.2 3.2-2.6 3.1-3.4 16.9-14.1 23.4-18.2C211.8 35 247 26.9 274.7 30.1c11.7 1.4 15.6 2 16.3 2.4.4.2 2.2.7 4.1 1 6.8 1.2 21.6 6.8 31.9 12.1 10.8 5.6 22.3 13.6 30.4 21.1 2.4 2.4 4.8 4.3 5.2 4.3.4 0 3.3-2.8 6.6-6.2l5.8-6.1-2.2-2.5c-4.1-4.4-16.1-13.8-25.1-19.6C329 24.4 309.6 17.1 283 12.5c-5.3-1-33.9-1.3-39-.5z"/><path d="M255.5 55.8c-3.9.2-14.1 1.7-20 2.8-5.4 1-20.3 6.3-26.7 9.5-7.1 3.5-20.5 12.3-25.7 16.9l-3.5 3 4.1 3.7c2.2 2.1 5.1 4.9 6.6 6.1l2.5 2.4 3.9-3.4C208.6 86.2 226.1 78 244 74.6c7.6-1.4 30.1-1.5 37-.2 16.9 3.4 35.7 12.2 46.8 22.1 1.9 1.6 3.8 3 4.2 3 .5 0 3.6-2.6 6.9-5.8l6-5.8-3.7-3.3c-22.1-19.4-56.1-30.8-85.7-28.8zM251.8 100.6c-.2.2-1.9.6-3.8.9-11.4 1.9-24.8 8.5-34.8 17.1l-3.4 2.9 6.6 6.7 6.7 6.7 6.3-4.9c18.8-14.1 44.1-14.1 62.9.2l6.2 4.7 6.3-6.3c7.4-7.4 7.4-7.6-1.6-14.2-12.5-9.1-25.6-13.5-41.4-13.9-5.4-.1-9.9-.1-10 .1zM257.5 155.4c-17.6 5.4-29.2 24.5-34.4 56.7l-.7 4.6h10.5c17.5 0 33.1 4.4 47.8 13.4l3.2 2 1.6-3.7c1.6-4 1.9-4.9 4.1-16.9 3.4-18.2 0-38.2-8.2-49-5.2-6.8-15.1-9.8-23.9-7.1zm-5.1 23.8c2 2.8 2 3.3 0 5.2-3.5 3.6-9.4.4-7.7-4.1 1.4-3.9 5.4-4.4 7.7-1.1zm24.8 5c2.6 2.2 2.9 4.7.8 6.8-2.5 2.5-3.5 2.5-6 0-1.1-1.1-2-2.5-2-3 0-1.2 3.7-5 4.8-5 .5 0 1.5.6 2.4 1.2zM153.5 220.4c-1.3 1.3-2.9 4.1-3.5 6.2-1.5 4.8-2.6 26.4-1.4 26.4.5 0 3.8-2.7 7.4-6.1 3.6-3.3 9.5-8.1 13.3-10.6 4.2-2.8 6.5-4.9 6-5.6-1.9-3.2-8.9-9.7-11.8-11.1-4.6-2.2-7.2-2-10 .8z"/><path d="M216 222.5c-14.8 2.7-29.5 8.7-42.2 17.2-13 8.7-29.7 26.1-37.7 39.4-7.4 12.2-16.1 33.9-17.6 43.7-.3 2.1-.8 4.9-1.1 6.2-.3 1.4-.7 8.3-.9 15.5-.7 27.3 6.2 50.7 21.6 73 8.4 12.2 21.8 24.9 33.6 31.8 58.3 34 129.6-.2 152.7-73.3 3.9-12.3 5.7-24 6-38.8.3-11.8-.1-16.1-2.8-30.9-1.2-6.2-6.9-21.9-10.7-29.3-4.9-9.4-5.3-10.1-11.3-18-14.2-18.9-32.9-31-56.7-36.6-5.2-1.3-25.7-1.2-32.9.1zM327.9 260.2c-3.3.8-10.9 3.8-10.9 4.4 0 .1 2 4.1 4.4 8.8 2.5 4.8 5.7 12.2 7.3 16.6 1.5 4.4 3 8 3.3 8 .9 0 7.7-13.4 9.3-18.5 5.1-15.9.5-22.6-13.4-19.3zM115.1 400.6c-2.2 3.6-4.1 6.8-4.1 7.1 0 .4-.6 1.4-1.4 2.2-2.5 2.9-6.8 16.5-7.3 23.6-.7 8.4 1 12.6 5.9 15.1 5.9 3.1 21.5-.8 31.5-7.8 2.6-1.8 5.1-3.6 5.7-4 .5-.3-1-2.8-3.3-5.5-5-5.5-10.7-15-17.1-28.1-2.4-5.1-4.7-9.2-5.1-9.2-.4 0-2.5 3-4.8 6.6z"/><path d="M291.9 442.4c-11.5 8.4-23.2 15.2-30.1 17.7l-5.7 2.1 2.9 5.7c5.7 11.2 16.7 20.9 24.5 21.6 7.4.7 14.2-7.9 17.1-21.6 1.5-7.1 1.8-26.7.5-30-.5-1.4-2.2-.5-9.2 4.5zM188.2 474.9c-.2 7.5-.4 16-.5 18.9-.1 2.8.1 5.2.4 5.2.3 0 1.3-1.9 2.3-4.2 1-2.4 2.7-6.3 3.8-8.8 4.7-10.4 8.8-19.9 8.8-20.3 0-.7-5-2.3-10.5-3.5l-4-.9-.3 13.6z"/></svg>