<svg xmlns="http://www.w3.org/2000/svg" width="1313" height="22" viewBox="0 0 1313 22">
  <g fill="#E8E6EE" fill-rule="evenodd">
    <g transform="rotate(-90 11 10.5)">
      <path d="M3.33613313,502.985313 C-0.67088974,498.977656 -0.67088974,492.479969 3.33613313,488.472947 C7.34379073,484.464654 13.841477,484.464654 17.8484998,488.472947 C21.8561574,492.479969 21.8561574,498.977656 17.8484998,502.985313 C13.841477,506.992336 7.34379073,506.992336 3.33613313,502.985313"/>
      <path d="M3.58285098,485.650576 C-0.288340605,481.778749 -0.288340605,475.502582 3.58285098,471.631391 C7.4546773,467.759564 13.7302096,467.759564 17.6020359,471.631391 C21.4732275,475.502582 21.4732275,481.778749 17.6020359,485.650576 C13.7302096,489.521767 7.4546773,489.521767 3.58285098,485.650576"/>
      <path d="M3.82956883,468.315901 C0.0948432546,464.580541 0.0948432546,458.524624 3.82956883,454.789264 C7.56492914,451.055173 13.6202116,451.055173 17.3555719,454.789264 C21.0896628,458.524624 21.0896628,464.580541 17.3555719,468.315901 C13.6202116,472.050627 7.56492914,472.050627 3.82956883,468.315901"/>
      <path d="M4.07628668,450.981164 C0.477392389,447.382269 0.477392389,441.547237 4.07628668,437.948342 C7.67518098,434.349448 13.5095789,434.349448 17.1084732,437.948342 C20.7073675,441.547237 20.7073675,447.382269 17.1084732,450.981164 C13.5095789,454.580058 7.67518098,454.580058 4.07628668,450.981164"/>
      <path d="M4.32294106,433.64649 C0.860512776,430.183427 0.860512776,424.569278 4.32294106,421.10685 C7.78536935,417.644422 13.3995175,417.644422 16.8619458,421.10685 C20.3243741,424.569278 20.3243741,430.183427 16.8619458,433.64649 C13.3995175,437.108918 7.78536935,437.108918 4.32294106,433.64649"/>
      <path d="M4.56965891,416.311181 C1.24369664,412.985218 1.24369664,407.591955 4.56965891,404.265358 C7.89562119,400.938761 13.2888848,400.938761 16.6154818,404.265358 C19.9414441,407.591955 19.9414441,412.985218 16.6154818,416.311181 C13.2888848,419.637778 7.89562119,419.637778 4.56965891,416.311181"/>
      <path d="M4.81637676,398.976443 C1.62624577,395.786947 1.62624577,390.613933 4.81637676,387.424437 C8.00587303,384.233671 13.1788869,384.233671 16.3683831,387.424437 C19.5591489,390.613933 19.5591489,395.786947 16.3683831,398.976443 C13.1788869,402.166574 8.00587303,402.166574 4.81637676,398.976443"/>
      <path d="M5.06303114 381.641769C2.00873143 378.588104 2.00873143 373.636609 5.06303114 370.582944 8.11733085 367.529279 13.0681907 367.529279 16.1218557 370.582944 19.1755207 373.636609 19.1755207 378.588104 16.1218557 381.641769 13.0681907 384.696068 8.11733085 384.696068 5.06303114 381.641769M5.30974899 364.307031C2.39191529 361.389197 2.39191529 356.658587 5.30974899 353.741388 8.22758269 350.823555 12.9575581 350.823555 15.8753918 353.741388 18.7925907 356.658587 18.7925907 361.389197 15.8753918 364.307031 12.9575581 367.2255 8.22758269 367.2255 5.30974899 364.307031M5.55646684 346.972357C2.77446443 344.190989 2.77446443 339.681264 5.55646684 336.899896 8.33783453 334.118528 12.8469254 334.118528 15.6282931 336.899896 18.4102955 339.681264 18.4102955 344.190989 15.6282931 346.972357 12.8469254 349.754359 8.33783453 349.754359 5.55646684 346.972357M5.80318469 329.637619C3.15764829 326.992718 3.15764829 322.703242 5.80318469 320.05834 8.44808637 317.412804 12.7369274 317.412804 15.3824638 320.05834 18.0273655 322.703242 18.0273655 326.992718 15.3824638 329.637619 12.7369274 332.283156 8.44808637 332.283156 5.80318469 329.637619M6.04983907 312.302945C3.54076867 309.793875 3.54076867 305.726553 6.04983907 303.217482 8.55827474 300.707777 12.6262313 300.707777 15.1353017 303.217482 17.6443721 305.726553 17.6443721 309.793875 15.1353017 312.302945 12.6262313 314.812015 8.55827474 314.812015 6.04983907 312.302945M6.2959222 294.968271C3.92331781 292.595666 3.92331781 288.748594 6.2959222 286.37599 8.66852658 284.002751 12.5162333 284.002751 14.8888377 286.37599 17.2614421 288.748594 17.2614421 292.595666 14.8888377 294.968271 12.5162333 297.340875 8.66852658 297.340875 6.2959222 294.968271M6.54264005 277.633533C4.30650167 275.397395 4.30650167 271.771207 6.54264005 269.533799 8.77941315 267.297661 12.4056006 267.297661 14.6423738 269.533799 16.8785121 271.771207 16.8785121 275.397395 14.6423738 277.633533 12.4056006 279.869672 8.77941315 279.869672 6.54264005 277.633533M6.7893579 260.298859C4.6890508 258.198552 4.6890508 254.793249 6.7893579 252.692942 8.89029972 250.592635 12.294968 250.592635 14.3952751 252.692942 16.4955822 254.793249 16.4955822 258.198552 14.3952751 260.298859 12.294968 262.399801 8.89029972 262.399801 6.7893579 260.298859M7.03601228 242.964121C5.07153647 241.00028 5.07153647 237.815862 7.03601228 235.851386 9.00048809 233.88691 12.1842718 233.88691 14.1487476 235.851386 16.1132234 237.815862 16.1132234 241.00028 14.1487476 242.964121 12.1842718 244.928597 9.00048809 244.928597 7.03601228 242.964121M7.28273013 225.629447C5.45472033 223.801437 5.45472033 220.837903 7.28273013 219.009894 9.11073993 217.181884 12.0742739 217.181884 13.9022837 219.009894 15.7302935 220.837903 15.7302935 223.801437 13.9022837 225.629447 12.0742739 227.457457 9.11073993 227.457457 7.28273013 225.629447M7.52944798 208.294709C5.83790419 206.603166 5.83790419 203.860516 7.52944798 202.168338 9.22099177 200.476794 11.9636412 200.476794 13.655185 202.168338 15.3467288 203.860516 15.3467288 206.603166 13.655185 208.294709 11.9636412 209.986253 9.22099177 209.986253 7.52944798 208.294709M7.77616583 190.960035C6.22108805 189.404323 6.22108805 186.882558 7.77616583 185.326845 9.33124361 183.771768 11.8536432 183.771768 13.408721 185.326845 14.9644335 186.882558 14.9644335 189.404323 13.408721 190.960035 11.8536432 192.515748 9.33124361 192.515748 7.77616583 190.960035M8.02282021 173.625298C6.60357371 172.206051 6.60357371 169.905171 8.02282021 168.48529 9.44143198 167.066678 11.7429471 167.066678 13.1621936 168.48529 14.5814401 169.905171 14.5814401 172.206051 13.1621936 173.625298 11.7429471 175.044544 9.44143198 175.044544 8.02282021 173.625298M8.26953806 156.290623C6.98675757 155.007843 6.98675757 152.927212 8.26953806 151.644432 9.55231855 150.361017 11.6329491 150.361017 12.9150949 151.644432 14.1985101 152.927212 14.1985101 155.007843 12.9150949 156.290623 11.6329491 157.573404 9.55231855 157.573404 8.26953806 156.290623M8.51625591 138.955886C7.3693067 137.808937 7.3693067 135.949825 8.51625591 134.802876 9.66320511 133.655927 11.5216817 133.655927 12.6686309 134.802876 13.8162149 135.949825 13.8162149 137.808937 12.6686309 138.955886 11.5216817 140.102835 9.66320511 140.102835 8.51625591 138.955886M8.76291029 121.621212C7.75179236 120.610728 7.75179236 118.971867 8.76291029 117.961384 9.77339348 116.9509 11.4116203 116.9509 12.4227382 117.961384 13.4325867 118.971867 13.4325867 120.610728 12.4227382 121.621212 11.4116203 122.631695 9.77339348 122.631695 8.76291029 121.621212M9.00962814 104.286157C8.13497622 103.412139 8.13497622 101.994162 9.00962814 101.120145 9.88364532 100.245493 11.3009876 100.245493 12.1756396 101.120145 13.0496567 101.994162 13.0496567 103.412139 12.1756396 104.286157 11.3009876 105.160808 9.88364532 105.160808 9.00962814 104.286157M9.25571126 86.9514824C8.51816008 86.2132965 8.51816008 85.0168387 9.25571126 84.2786527 9.99389716 83.5404668 11.1909897 83.5404668 11.9291756 84.2786527 12.6667268 85.0168387 12.6667268 86.2132965 11.9291756 86.9514824 11.1909897 87.6896683 9.99389716 87.6896683 9.25571126 86.9514824M9.50242911 69.6168082C8.90070922 69.0150883 8.90070922 68.0388803 9.50242911 67.4371604 10.104149 66.8354405 11.080357 66.8354405 11.6827116 67.4371604 12.2844315 68.0388803 12.2844315 69.0150883 11.6827116 69.6168082 11.080357 70.2185281 10.104149 70.2185281 9.50242911 69.6168082M9.74914696 52.2820705C9.28389308 51.8168166 9.28389308 51.0614931 9.74914696 50.5956045 10.2150356 50.1297159 10.9703591 50.1297159 11.4356129 50.5956045 11.9015016 51.0614931 11.9015016 51.8168166 11.4356129 52.2820705 10.9703591 52.7479591 10.2150356 52.7479591 9.74914696 52.2820705M9.99580134 34.9473963C9.66637874 34.6179737 9.66637874 34.0835347 9.99580134 33.7541121 10.3258587 33.4246895 10.8590282 33.4246895 11.1890855 33.7541121 11.5178734 34.0835347 11.5178734 34.6179737 11.1890855 34.9473963 10.8590282 35.2768189 10.3258587 35.2768189 9.99580134 34.9473963M10.2425192 17.6126586C10.0489279 17.4190673 10.0489279 17.1061476 10.2425192 16.9125563 10.4361105 16.7195997 10.7490302 16.7195997 10.9426216 16.9125563 11.1355781 17.1061476 11.1355781 17.4190673 10.9426216 17.6126586 10.7490302 17.80625 10.4361105 17.80625 10.2425192 17.6126586M10.489237.277984451C10.4321117.220859144 10.4321117.128823929 10.489237.0716986223 10.5463623.014573316 10.6383976.014573316 10.6955229.0716986223 10.7526482.128823929 10.7526482.220859144 10.6955229.277984451 10.6383976.335109757 10.5463623.335109757 10.489237.277984451"/>
    </g>
    <g transform="rotate(90 656 656.5)">
      <path d="M3.33613313,502.985313 C-0.67088974,498.977656 -0.67088974,492.479969 3.33613313,488.472947 C7.34379073,484.464654 13.841477,484.464654 17.8484998,488.472947 C21.8561574,492.479969 21.8561574,498.977656 17.8484998,502.985313 C13.841477,506.992336 7.34379073,506.992336 3.33613313,502.985313"/>
      <path d="M3.58285098,485.650576 C-0.288340605,481.778749 -0.288340605,475.502582 3.58285098,471.631391 C7.4546773,467.759564 13.7302096,467.759564 17.6020359,471.631391 C21.4732275,475.502582 21.4732275,481.778749 17.6020359,485.650576 C13.7302096,489.521767 7.4546773,489.521767 3.58285098,485.650576"/>
      <path d="M3.82956883,468.315901 C0.0948432546,464.580541 0.0948432546,458.524624 3.82956883,454.789264 C7.56492914,451.055173 13.6202116,451.055173 17.3555719,454.789264 C21.0896628,458.524624 21.0896628,464.580541 17.3555719,468.315901 C13.6202116,472.050627 7.56492914,472.050627 3.82956883,468.315901"/>
      <path d="M4.07628668,450.981164 C0.477392389,447.382269 0.477392389,441.547237 4.07628668,437.948342 C7.67518098,434.349448 13.5095789,434.349448 17.1084732,437.948342 C20.7073675,441.547237 20.7073675,447.382269 17.1084732,450.981164 C13.5095789,454.580058 7.67518098,454.580058 4.07628668,450.981164"/>
      <path d="M4.32294106,433.64649 C0.860512776,430.183427 0.860512776,424.569278 4.32294106,421.10685 C7.78536935,417.644422 13.3995175,417.644422 16.8619458,421.10685 C20.3243741,424.569278 20.3243741,430.183427 16.8619458,433.64649 C13.3995175,437.108918 7.78536935,437.108918 4.32294106,433.64649"/>
      <path d="M4.56965891,416.311181 C1.24369664,412.985218 1.24369664,407.591955 4.56965891,404.265358 C7.89562119,400.938761 13.2888848,400.938761 16.6154818,404.265358 C19.9414441,407.591955 19.9414441,412.985218 16.6154818,416.311181 C13.2888848,419.637778 7.89562119,419.637778 4.56965891,416.311181"/>
      <path d="M4.81637676,398.976443 C1.62624577,395.786947 1.62624577,390.613933 4.81637676,387.424437 C8.00587303,384.233671 13.1788869,384.233671 16.3683831,387.424437 C19.5591489,390.613933 19.5591489,395.786947 16.3683831,398.976443 C13.1788869,402.166574 8.00587303,402.166574 4.81637676,398.976443"/>
      <path d="M5.06303114 381.641769C2.00873143 378.588104 2.00873143 373.636609 5.06303114 370.582944 8.11733085 367.529279 13.0681907 367.529279 16.1218557 370.582944 19.1755207 373.636609 19.1755207 378.588104 16.1218557 381.641769 13.0681907 384.696068 8.11733085 384.696068 5.06303114 381.641769M5.30974899 364.307031C2.39191529 361.389197 2.39191529 356.658587 5.30974899 353.741388 8.22758269 350.823555 12.9575581 350.823555 15.8753918 353.741388 18.7925907 356.658587 18.7925907 361.389197 15.8753918 364.307031 12.9575581 367.2255 8.22758269 367.2255 5.30974899 364.307031M5.55646684 346.972357C2.77446443 344.190989 2.77446443 339.681264 5.55646684 336.899896 8.33783453 334.118528 12.8469254 334.118528 15.6282931 336.899896 18.4102955 339.681264 18.4102955 344.190989 15.6282931 346.972357 12.8469254 349.754359 8.33783453 349.754359 5.55646684 346.972357M5.80318469 329.637619C3.15764829 326.992718 3.15764829 322.703242 5.80318469 320.05834 8.44808637 317.412804 12.7369274 317.412804 15.3824638 320.05834 18.0273655 322.703242 18.0273655 326.992718 15.3824638 329.637619 12.7369274 332.283156 8.44808637 332.283156 5.80318469 329.637619M6.04983907 312.302945C3.54076867 309.793875 3.54076867 305.726553 6.04983907 303.217482 8.55827474 300.707777 12.6262313 300.707777 15.1353017 303.217482 17.6443721 305.726553 17.6443721 309.793875 15.1353017 312.302945 12.6262313 314.812015 8.55827474 314.812015 6.04983907 312.302945M6.2959222 294.968271C3.92331781 292.595666 3.92331781 288.748594 6.2959222 286.37599 8.66852658 284.002751 12.5162333 284.002751 14.8888377 286.37599 17.2614421 288.748594 17.2614421 292.595666 14.8888377 294.968271 12.5162333 297.340875 8.66852658 297.340875 6.2959222 294.968271M6.54264005 277.633533C4.30650167 275.397395 4.30650167 271.771207 6.54264005 269.533799 8.77941315 267.297661 12.4056006 267.297661 14.6423738 269.533799 16.8785121 271.771207 16.8785121 275.397395 14.6423738 277.633533 12.4056006 279.869672 8.77941315 279.869672 6.54264005 277.633533M6.7893579 260.298859C4.6890508 258.198552 4.6890508 254.793249 6.7893579 252.692942 8.89029972 250.592635 12.294968 250.592635 14.3952751 252.692942 16.4955822 254.793249 16.4955822 258.198552 14.3952751 260.298859 12.294968 262.399801 8.89029972 262.399801 6.7893579 260.298859M7.03601228 242.964121C5.07153647 241.00028 5.07153647 237.815862 7.03601228 235.851386 9.00048809 233.88691 12.1842718 233.88691 14.1487476 235.851386 16.1132234 237.815862 16.1132234 241.00028 14.1487476 242.964121 12.1842718 244.928597 9.00048809 244.928597 7.03601228 242.964121M7.28273013 225.629447C5.45472033 223.801437 5.45472033 220.837903 7.28273013 219.009894 9.11073993 217.181884 12.0742739 217.181884 13.9022837 219.009894 15.7302935 220.837903 15.7302935 223.801437 13.9022837 225.629447 12.0742739 227.457457 9.11073993 227.457457 7.28273013 225.629447M7.52944798 208.294709C5.83790419 206.603166 5.83790419 203.860516 7.52944798 202.168338 9.22099177 200.476794 11.9636412 200.476794 13.655185 202.168338 15.3467288 203.860516 15.3467288 206.603166 13.655185 208.294709 11.9636412 209.986253 9.22099177 209.986253 7.52944798 208.294709M7.77616583 190.960035C6.22108805 189.404323 6.22108805 186.882558 7.77616583 185.326845 9.33124361 183.771768 11.8536432 183.771768 13.408721 185.326845 14.9644335 186.882558 14.9644335 189.404323 13.408721 190.960035 11.8536432 192.515748 9.33124361 192.515748 7.77616583 190.960035M8.02282021 173.625298C6.60357371 172.206051 6.60357371 169.905171 8.02282021 168.48529 9.44143198 167.066678 11.7429471 167.066678 13.1621936 168.48529 14.5814401 169.905171 14.5814401 172.206051 13.1621936 173.625298 11.7429471 175.044544 9.44143198 175.044544 8.02282021 173.625298M8.26953806 156.290623C6.98675757 155.007843 6.98675757 152.927212 8.26953806 151.644432 9.55231855 150.361017 11.6329491 150.361017 12.9150949 151.644432 14.1985101 152.927212 14.1985101 155.007843 12.9150949 156.290623 11.6329491 157.573404 9.55231855 157.573404 8.26953806 156.290623M8.51625591 138.955886C7.3693067 137.808937 7.3693067 135.949825 8.51625591 134.802876 9.66320511 133.655927 11.5216817 133.655927 12.6686309 134.802876 13.8162149 135.949825 13.8162149 137.808937 12.6686309 138.955886 11.5216817 140.102835 9.66320511 140.102835 8.51625591 138.955886M8.76291029 121.621212C7.75179236 120.610728 7.75179236 118.971867 8.76291029 117.961384 9.77339348 116.9509 11.4116203 116.9509 12.4227382 117.961384 13.4325867 118.971867 13.4325867 120.610728 12.4227382 121.621212 11.4116203 122.631695 9.77339348 122.631695 8.76291029 121.621212M9.00962814 104.286157C8.13497622 103.412139 8.13497622 101.994162 9.00962814 101.120145 9.88364532 100.245493 11.3009876 100.245493 12.1756396 101.120145 13.0496567 101.994162 13.0496567 103.412139 12.1756396 104.286157 11.3009876 105.160808 9.88364532 105.160808 9.00962814 104.286157M9.25571126 86.9514824C8.51816008 86.2132965 8.51816008 85.0168387 9.25571126 84.2786527 9.99389716 83.5404668 11.1909897 83.5404668 11.9291756 84.2786527 12.6667268 85.0168387 12.6667268 86.2132965 11.9291756 86.9514824 11.1909897 87.6896683 9.99389716 87.6896683 9.25571126 86.9514824M9.50242911 69.6168082C8.90070922 69.0150883 8.90070922 68.0388803 9.50242911 67.4371604 10.104149 66.8354405 11.080357 66.8354405 11.6827116 67.4371604 12.2844315 68.0388803 12.2844315 69.0150883 11.6827116 69.6168082 11.080357 70.2185281 10.104149 70.2185281 9.50242911 69.6168082M9.74914696 52.2820705C9.28389308 51.8168166 9.28389308 51.0614931 9.74914696 50.5956045 10.2150356 50.1297159 10.9703591 50.1297159 11.4356129 50.5956045 11.9015016 51.0614931 11.9015016 51.8168166 11.4356129 52.2820705 10.9703591 52.7479591 10.2150356 52.7479591 9.74914696 52.2820705M9.99580134 34.9473963C9.66637874 34.6179737 9.66637874 34.0835347 9.99580134 33.7541121 10.3258587 33.4246895 10.8590282 33.4246895 11.1890855 33.7541121 11.5178734 34.0835347 11.5178734 34.6179737 11.1890855 34.9473963 10.8590282 35.2768189 10.3258587 35.2768189 9.99580134 34.9473963M10.2425192 17.6126586C10.0489279 17.4190673 10.0489279 17.1061476 10.2425192 16.9125563 10.4361105 16.7195997 10.7490302 16.7195997 10.9426216 16.9125563 11.1355781 17.1061476 11.1355781 17.4190673 10.9426216 17.6126586 10.7490302 17.80625 10.4361105 17.80625 10.2425192 17.6126586M10.489237.277984451C10.4321117.220859144 10.4321117.128823929 10.489237.0716986223 10.5463623.014573316 10.6383976.014573316 10.6955229.0716986223 10.7526482.128823929 10.7526482.220859144 10.6955229.277984451 10.6383976.335109757 10.5463623.335109757 10.489237.277984451"/>
    </g>
  </g>
</svg>
