<svg xmlns="http://www.w3.org/2000/svg" aria-labelledby="scientistsSVG" width="408" height="133" viewBox="0 0 408 133">
  <title id="scientistsSVG">Scientists Need Your Help</title>
  <g fill="none" fill-rule="evenodd">
    <path fill="#688127" d="M23.4035048,55.2683942 C23.947783,53.1606528 24.2199181,51.4144619 24.2199181,50.0299454 C24.2199181,48.6454289 23.8431157,47.5384771 23.0894996,46.7091641 C22.3358835,45.8799939 21.3624774,45.5230948 20.1692519,45.6383486 C18.9760264,45.7536024 17.9816868,46.4366225 17.1862031,47.6872818 C16.3907195,48.9377446 15.9929836,50.3174193 15.9929836,51.8264946 C15.9929836,54.7608075 17.6676609,57.1161176 21.0170657,58.8936033 C24.3664706,60.7564778 26.6482184,62.1134996 27.8623777,62.9637417 C29.0765369,63.8142302 29.934809,64.6146185 30.4372198,65.364809 C31.6932466,67.3036358 32.3212506,69.3649821 32.3212506,71.5485026 C32.3212506,75.3276728 31.0547759,78.4582883 28.5217884,80.9395464 C25.988801,83.4196091 23.1313829,84.806243 19.9494483,85.1003865 C16.1813678,85.4487142 13.0204144,84.1485275 10.4664933,81.2010715 C8.62432059,79.0685475 6.92870983,76.3579035 5.37961009,73.0692285 L11.4713097,69.543665 C12.4342636,71.967175 13.6379379,73.980971 15.0823687,75.5851279 C16.5267996,77.1898136 18.0654093,77.9162409 19.6982442,77.7640349 C20.7449332,77.6664669 21.6869392,77.2431111 22.5242904,76.4938661 C23.3616416,75.7445029 23.7803109,74.6880549 23.7803109,73.3245789 C23.7803109,71.961103 23.2569743,70.741192 22.2102853,69.6650033 C21.1635962,68.5890731 19.761054,67.5260051 18.0026165,66.4759108 C16.2441789,65.4262664 14.8835036,64.5594761 13.9205497,63.8752943 C12.9575958,63.1912698 11.8899891,62.2973701 10.7176974,61.1936756 C8.49871665,59.0589873 7.38924294,56.1598124 7.38924294,52.4952419 C7.38924294,48.8306713 8.66618438,45.6289876 11.2201056,42.8890892 C13.7740268,40.1478502 16.8093794,38.6055422 20.3262545,38.2631242 C23.8431295,37.9207062 26.805215,38.996194 29.2125997,41.4906553 C31.6199845,43.986497 32.8236588,46.6731553 32.8236588,49.5496755 C32.8236588,52.4261957 32.2793887,54.9452194 31.1908321,57.1064691 L23.4035048,55.2683942 Z M51.1615586,43.9070069 C49.3193859,44.0846989 47.707509,46.5218244 46.3258795,51.2174648 C44.94425,55.9117828 44.2534456,60.0242074 44.2534456,63.555854 C44.2534456,70.9554945 46.1793245,74.4755712 50.0311401,74.1161898 C51.1196967,74.0146255 52.0721694,73.4523888 52.8885868,72.4293412 C53.7050042,71.4061317 54.2911413,70.3727745 54.6470156,69.3293038 C55.0028898,68.2857578 55.4320259,66.8564384 55.9344366,65.0412195 L63.910167,64.9218939 C62.8216104,70.2057722 61.1992668,74.3166489 59.0430874,77.2546059 C56.8869081,80.1913266 53.8829557,81.8372582 50.0311401,82.1933776 C45.5094436,82.6114308 42.0240214,81.2208326 39.5747691,78.0228622 C37.1255169,74.8266527 35.9009091,70.5828582 35.9009091,65.2900304 C35.9009091,59.1150647 37.1150501,52.9920874 39.5433686,46.9186815 C40.7156603,43.9059188 42.3589374,41.3617843 44.4732492,39.2861143 C46.587561,37.2096143 49.0053764,36.0386685 51.7267678,35.7738642 C55.0761727,35.4479513 57.5044547,36.3273506 59.0116869,38.4126169 C59.765303,39.4344584 60.3828403,40.4906756 60.8643172,41.5812563 C61.3457942,42.6719517 61.6911964,44.0917554 61.9005342,45.840682 C62.2773422,48.6266883 62.5076103,51.6374943 62.5913454,54.8730657 L54.490013,54.8866745 C54.490013,49.4572497 53.9876098,46.0964582 52.9827884,44.8044185 C52.5222452,44.1334317 51.9151747,43.8343147 51.1615586,43.9070069 Z M79.1708165,33.7996827 C78.7940085,40.5032518 78.6056073,48.0320251 78.6056073,56.3866226 C78.6056073,64.7412201 78.8777423,72.331927 79.4220206,79.1595582 L70.943882,79.1847877 C70.3996037,70.634787 70.1274687,62.8928124 70.1274687,55.9578971 C70.1274687,49.0229817 70.3158699,41.6589598 70.6926779,33.8651518 L79.1708165,33.7996827 Z M87.397751,77.0915432 C87.2302808,70.4342447 87.1465469,64.1283785 87.1465469,58.1735805 C87.1465469,52.2187825 87.4814824,44.4370487 88.1513633,34.827144 C95.3107162,33.0334631 102.302494,31.8043401 109.126906,31.1409698 L109.126906,38.9507353 C104.395872,39.4067676 99.999844,39.9785185 95.9386906,40.6658169 C95.7712204,45.416265 95.6665531,49.0614794 95.6246855,51.601677 C98.8066201,50.833609 102.574644,50.1997325 106.92887,49.7002023 L108.12209,56.5701083 C105.316963,56.8776894 101.109337,57.5927691 95.4990835,58.7148678 C95.4990835,63.7872021 95.5200169,67.4414965 95.5618845,69.6778752 C99.2043622,69.0419525 103.558523,68.0009149 108.624498,66.554129 L109.692116,73.4390398 C106.133373,75.419602 101.925746,76.6341085 97.0691091,77.0835142 L87.397751,77.0915432 Z M142.160246,26.9105467 L142.223047,56.5309825 C142.223047,61.4156706 142.05558,66.6769273 141.720639,72.3146179 L134.686924,72.2656488 C129.286009,60.3375534 124.869047,51.4461549 121.435908,45.5840329 C121.477775,51.8528696 121.498709,61.8533884 121.498709,75.5858482 L114.150988,75.4393266 C114.025386,72.8251774 113.962585,70.2899907 113.962585,67.8336389 C113.962585,57.5847226 114.527789,45.58789 115.658213,31.8403731 L124.01075,31.8563239 C128.155638,43.0332355 131.881795,51.480437 135.189332,57.1938028 C134.938127,44.3995636 134.645058,34.3264975 134.310118,26.9741861 L142.160246,26.9105467 Z M154.02964,70.7920516 C153.610965,63.3037747 153.40163,56.7639702 153.40163,51.1719515 C153.40163,45.5799329 153.527231,39.7314429 153.778436,33.6260685 L146.116711,35.4489651 L144.735088,28.1894963 C148.838109,27.068297 152.899202,26.141922 156.918488,25.4105921 L168.66228,23.6288309 L169.855499,30.6050675 C167.552783,30.9553861 164.957033,31.3978186 162.068172,31.9323092 C161.816966,38.0854977 161.691366,43.7155731 161.691366,48.8229438 C161.691366,53.9303145 161.7751,61.2429355 161.94257,70.7612745 L154.02964,70.7920516 Z M183.860128,23.620537 C183.48332,30.3970669 183.294919,38.0080354 183.294919,46.4540647 C183.294919,54.900094 183.567054,62.5741505 184.111332,69.4770513 L175.633194,69.4939688 C175.088915,60.8497657 174.81678,53.0227099 174.81678,46.0118322 C174.81678,39.0009545 175.005181,31.5564692 175.381989,23.6776942 L183.860128,23.620537 Z M206.342896,37.7894911 C206.887174,35.6422101 207.159309,33.8629354 207.159309,32.4517901 C207.159309,31.0406448 206.782507,29.9117045 206.028891,29.0650424 C205.275274,28.2185232 204.301868,27.8529496 203.108643,27.9682035 C201.915417,28.0834573 200.921078,28.7777742 200.125594,30.0510277 C199.33011,31.3240846 198.932374,32.7295808 198.932374,34.2677056 C198.932374,37.2585038 200.607052,39.6622291 203.956457,41.4800615 C207.305861,43.3848965 209.587609,44.7721778 210.801769,45.6409793 C212.015928,46.5100273 212.8742,47.3273609 213.376611,48.0928831 C214.632637,50.0712496 215.260641,52.1733454 215.260641,54.3988264 C215.260641,58.2506205 213.994167,61.4391326 211.461179,63.9635616 C208.928192,66.4867951 206.070774,67.8950142 202.888839,68.1891576 C199.120759,68.5374854 195.959805,67.2066357 193.405884,64.1978529 C191.563711,62.0209475 189.868101,59.2550295 188.319001,55.900186 L194.410701,52.317734 C195.373654,54.78966 196.577329,56.8444072 198.02176,58.4820518 C199.46619,60.1202253 201.0048,60.8633961 202.637635,60.7111901 C203.684324,60.6136221 204.62633,60.1838109 205.463681,59.421655 C206.301032,58.6593809 206.719702,57.5833651 206.719702,56.1936638 C206.719702,54.8039625 206.196365,53.5596422 205.149676,52.4608594 C204.102987,51.3623351 202.700445,50.2762698 200.942007,49.2027745 C199.18357,48.1297291 197.822895,47.2437744 196.859941,46.5446644 C195.896987,45.8457116 194.82938,44.9326476 193.657088,43.805552 C191.438108,41.6256755 190.328634,38.6686041 190.328634,34.9334269 C190.328634,31.1982497 191.605575,27.9372573 194.159496,25.1493465 C196.713418,22.360095 199.74877,20.7937811 203.265645,20.4513631 C206.78252,20.1089451 209.744606,21.2106579 212.151991,23.7575697 C214.559375,26.305862 215.76305,29.0463823 215.76305,31.9781774 C215.76305,34.9099725 215.21878,37.4764027 214.130223,39.6771922 L206.342896,37.7894911 Z M226.313622,64.0956495 C225.894947,56.550938 225.685612,49.9619533 225.685612,44.3280072 C225.685612,38.6940612 225.811213,32.8018111 226.062418,26.6508427 L218.400693,28.4818696 L217.01907,21.1669231 C221.122091,20.0403035 225.183184,19.109943 229.202469,18.3760625 L240.946261,16.5895187 L242.139481,23.6188418 C239.836765,23.9701169 237.241015,24.4139841 234.352154,24.9503878 C234.100948,31.1494892 233.975347,36.8216508 233.975347,41.9672822 C233.975347,47.1129136 234.059081,54.4803742 234.226552,64.0701332 L226.313622,64.0956495 Z M260.477381,32.6172239 C261.021659,30.4582424 261.293794,28.6691778 261.293794,27.2501527 C261.293794,25.8311275 260.916992,24.6956804 260.163376,23.8438845 C259.409759,22.9922315 258.436353,22.624091 257.243128,22.7393449 C256.049902,22.8545987 255.055563,23.5522585 254.260079,24.8321979 C253.464595,26.1119408 253.06686,27.5250779 253.06686,29.0717989 C253.06686,32.079312 254.741537,34.497364 258.090942,36.3271356 C261.440347,38.2443873 263.722094,39.6406229 264.936254,40.5149164 C266.150413,41.3894564 267.008685,42.2118044 267.511096,42.9818635 C268.767123,44.9719303 269.395126,47.0860845 269.395126,49.3239823 C269.395126,53.1972669 268.128652,56.4029114 265.595664,58.9401153 C263.062677,61.4761238 260.205259,62.8907302 257.023324,63.1848737 C253.255244,63.5332014 250.09429,62.1932781 247.540369,59.1663477 C245.698197,56.9763093 244.002586,54.1940349 242.453486,50.8196111 L248.545186,47.220325 C249.50814,49.7065779 250.711814,51.7734433 252.156245,53.4209974 C253.600675,55.0690803 255.139285,55.8172058 256.77212,55.6649998 C257.818809,55.5674318 258.760815,55.1357104 259.598166,54.369734 C260.435518,53.6036394 260.854187,52.5218331 260.854187,51.1243714 C260.854187,49.7269097 260.33085,48.4753662 259.284161,47.3698975 C258.237472,46.2646873 256.83493,45.1718168 255.076492,44.0913967 C253.318055,43.0114266 251.95738,42.1198009 250.994426,41.4162734 C250.031472,40.7129031 248.963865,39.794168 247.791573,38.6601478 C245.572593,36.4668994 244.463119,33.4926955 244.463119,29.7366248 C244.463119,25.9805541 245.74006,22.7020114 248.293982,19.8998929 C250.847903,17.0964339 253.883255,15.5230162 257.40013,15.1805982 C260.917005,14.8381802 263.879091,15.9476533 266.286476,18.5100861 C268.69386,21.0738993 269.897535,23.8303581 269.897535,26.7785099 C269.897535,29.7266616 269.353265,32.3071202 268.264708,34.51961 L260.477381,32.6172239 Z M317.94032,9.80515148 L318.003121,39.9663936 C318.003121,44.9402473 317.835653,50.2972587 317.500713,56.0372959 L310.466998,55.9755336 C305.066083,43.8202597 300.649121,34.7586737 297.215981,28.7833501 C297.257849,35.1669391 297.278782,45.3504385 297.278782,59.3341127 L289.931062,59.1724719 C289.80546,56.5102508 289.742659,53.9285436 289.742659,51.4272212 C289.742659,40.9906694 290.307863,28.7751905 291.438287,14.7780098 L299.790823,14.8090799 C303.935712,26.1976629 307.661869,34.8057479 310.969406,40.6292139 C310.718201,27.600818 310.425132,17.3432206 310.090192,9.85599761 L317.94032,9.80515148 Z M325.413642,55.0448545 C325.246172,48.2216764 325.162438,41.7588569 325.162438,35.656027 C325.162438,29.5531971 325.497374,21.5788149 326.167255,11.7316393 C333.326608,9.91066178 340.318385,8.66789069 347.142798,8.0045204 L347.142798,16.0079862 C342.411763,16.4640185 338.015735,17.0394438 333.954582,17.7340913 C333.787112,22.602125 333.682444,26.3376269 333.640577,28.9408168 C336.822511,28.1612002 340.590535,27.5204996 344.944762,27.0188697 L346.137981,34.0620035 C343.332855,34.3706345 339.125228,35.0935881 333.514975,36.230385 C333.514975,41.4287039 333.535908,45.1738107 333.577776,47.4658326 C337.220254,46.8225608 341.574415,45.7657754 346.640389,44.2948425 L347.708007,51.3529811 C344.149264,53.3744883 339.941637,54.609467 335.085,55.0588727 L325.413642,55.0448545 Z M353.485701,52.444625 C353.318231,45.6018827 353.234497,39.1205518 353.234497,33.0002628 C353.234497,26.8799737 353.569433,18.8828702 354.239314,9.00771043 C361.398666,7.18351344 368.390444,5.93913267 375.214857,5.27576238 L375.214857,13.3020735 C370.483822,13.7581058 366.087794,14.3339645 362.026641,15.0294788 C361.859171,19.9113807 361.754503,23.6575314 361.712636,26.2681507 C364.89457,25.4871721 368.662594,24.8456666 373.016821,24.3437891 L374.21004,31.4073537 C371.404914,31.7161085 367.197287,32.4399908 361.587034,33.5785212 C361.587034,38.7916989 361.607967,42.5475164 361.649835,44.846101 C365.292313,44.2019624 369.646474,43.1433197 374.712448,41.6695388 L375.780066,48.7481082 C372.221323,50.7744445 368.013696,52.0118378 363.157059,52.4612435 L353.485701,52.444625 Z M391.794328,2.81441155 C396.692832,2.33782872 400.471323,3.97645814 403.129913,7.73196727 C405.788503,11.4896341 407.117778,16.2278864 407.117778,21.9452478 C407.117778,26.3532898 406.447907,30.5735134 405.108145,34.6052517 C403.768383,38.6359322 401.675037,42.1032182 398.828043,45.0068674 C395.981048,47.908997 392.652627,49.535781 388.842679,49.8884076 C388.089063,49.9581579 385.242112,49.9168273 380.30174,49.7648722 C380.887886,40.351987 381.180954,32.5764091 381.180954,26.438739 C381.180954,20.3010689 380.992553,13.5287024 380.615745,6.12186266 C384.676898,4.24713071 388.403055,3.14435351 391.794328,2.81441155 Z M396.158999,35.9037484 C398.063973,32.1711406 399.016446,28.2438923 399.016446,24.122913 C399.016446,20.0019338 398.336108,16.6766368 396.975412,14.1474714 C395.614717,11.6190383 393.992373,10.4460166 392.108333,10.6278218 C391.103511,10.7247846 390.161505,10.98996 389.282287,11.4233094 C389.449757,17.8549329 389.533491,23.259958 389.533491,27.638383 C389.533491,32.0168079 389.40789,36.592115 389.156684,41.3642603 C389.449757,41.6854115 389.868427,41.8205855 390.412705,41.7697709 C392.338613,41.5899655 394.254025,39.6349867 396.158999,35.9037484 Z M78.7312093,119.803253 L78.7312093,114.929698 C73.2465589,103.735041 70.2112063,95.5977774 69.6250604,90.5080834 L77.4751888,90.5500333 C78.3962751,95.1916529 80.322154,100.671792 83.2528832,106.992958 C86.7278908,99.0380277 89.4283079,91.8874951 91.3542157,85.5434466 L98.6391348,85.5730443 C95.5409353,94.7758368 91.8147783,104.176986 87.460552,113.774818 C87.3768169,117.583279 87.33495,120.923372 87.33495,123.795246 C87.33495,126.66712 87.4186838,129.55277 87.5861541,132.45236 L79.2964186,132.286114 C78.9196105,128.394615 78.7312093,124.23378 78.7312093,119.803253 Z M102.752602,126.534995 C100.010277,123.158724 98.6391348,117.782226 98.6391348,110.40379 C98.6391348,103.025354 100.135878,96.8752779 103.129408,91.9511997 C106.122939,87.0242166 109.650228,84.3735662 113.711381,84.0013476 C117.772535,83.629129 121.153289,85.1416963 123.853747,88.5406313 C126.554205,91.9416151 127.904413,97.3114665 127.904413,104.64881 C127.904413,111.986154 126.397204,118.141229 123.382739,123.112007 C120.368275,128.079833 116.861919,130.736043 112.863567,131.082929 C108.865215,131.429815 105.494927,129.913335 102.752602,126.534995 Z M109.001304,96.9094555 C107.661542,100.310548 106.991671,104.496996 106.991671,109.469613 C106.991671,114.44223 107.567342,118.073276 108.7187,120.36329 C109.870058,122.653877 111.304,123.724238 113.02057,123.573972 C114.73714,123.423707 116.254816,121.638798 117.573644,118.218512 C118.892473,114.797318 119.551877,110.59688 119.551877,105.617753 C119.551877,100.638626 118.99714,97.0126668 117.887649,94.7401771 C116.778159,92.4682355 115.407017,91.4066708 113.774182,91.5550401 C111.93201,91.7224311 110.341066,93.5074474 109.001304,96.9094555 Z M141.218231,111.485945 C141.218231,113.694443 141.699701,115.626901 142.662655,117.28364 C143.625608,118.940726 144.766482,119.711591 146.08531,119.595995 C147.404139,119.480399 148.461279,118.792706 149.256762,117.532748 C150.052246,116.272594 150.61745,114.649937 150.95239,112.664775 C151.538536,109.169156 151.831604,105.157169 151.831604,100.62901 C151.831604,96.1008498 151.559469,89.4822121 151.015191,80.7736397 L159.556131,80.8845906 C160.142277,89.5971796 160.435345,95.5283523 160.435345,98.6774875 C160.435345,101.826623 160.393478,104.032588 160.309743,105.295434 C160.226008,106.558258 160.05854,108.030602 159.807335,109.712461 C159.556129,111.394233 159.221194,112.976905 158.802518,114.460495 C158.383843,115.943959 157.818639,117.440136 157.106891,118.949005 C156.395142,120.45766 155.557804,121.764378 154.59485,122.869205 C152.459604,125.394109 149.560319,126.815271 145.896907,127.133511 C142.233496,127.451751 139.103943,126.067629 136.508154,122.982445 C133.912365,119.899047 132.61449,116.321279 132.61449,112.247695 C132.61449,103.294297 133.09596,93.703424 134.058914,83.4732656 L142.599854,83.5199475 C141.678767,92.9057804 141.218231,102.227241 141.218231,111.485945 Z M166.966652,124.792173 C167.51093,114.523961 167.783065,105.38626 167.783065,97.3796614 C167.783065,89.3730625 167.762132,84.115395 167.720264,81.6065174 C172.325696,78.9699996 177.11946,77.4224542 182.101699,76.9654194 C185.786045,76.6274441 188.873731,77.539261 191.364851,79.7018206 C193.855971,81.8656109 195.101512,85.126067 195.101512,89.4823637 C195.101512,94.5220012 191.605623,99.6815445 184.61374,104.956106 C188.423688,109.48317 192.317313,114.497647 196.294731,120.00042 L190.265833,125.072057 C187.628176,121.246497 182.897213,115.047161 176.072801,106.481913 C175.947198,113.057201 175.758797,119.232791 175.507592,125.00877 L166.966652,124.792173 Z M184.174133,95.8764938 C186.351246,93.4835658 187.439787,91.3905873 187.439787,89.5982375 C187.439787,87.8058876 186.926917,86.465491 185.901161,85.5771633 C184.875406,84.6890438 183.525198,84.321232 181.850495,84.4735608 C180.175793,84.6258895 178.333648,85.1558392 176.324005,86.0631998 C176.324005,93.266988 176.303071,98.6183409 176.261204,102.117397 C179.359403,100.348705 181.99702,98.2684326 184.174133,95.8764938 Z M223.864382,87.0773498 L223.927183,94.4608417 L233.347337,93.0385539 C233.347337,86.3496653 233.452004,79.2440207 233.661342,71.7211647 L241.951078,71.7327593 C241.57427,78.590606 241.385869,85.999396 241.385869,93.959748 C241.385869,101.9201 241.616137,109.892302 242.07668,117.877164 L234.038148,117.868688 C233.66134,114.213901 233.431072,108.316973 233.347337,100.177621 L224.115586,101.57626 C224.241189,107.648006 224.42959,113.821414 224.680795,120.096796 L216.139856,120.06849 C215.679313,111.077836 215.449045,102.795284 215.449045,95.2199418 C215.449045,87.6445997 215.616512,81.0812826 215.951453,75.5295078 L224.241188,75.5415611 C223.989983,79.376965 223.864382,83.2221402 223.864382,87.0773498 Z M249.801206,117.269845 C249.633736,110.498413 249.550002,104.08498 249.550002,98.0291763 C249.550002,91.9733729 249.884938,84.0620903 250.554818,74.2940895 C257.714171,72.5223854 264.705949,71.3236015 271.530361,70.6989336 L271.530361,78.6408651 C266.799327,79.0700669 262.403299,79.6193943 258.342146,80.2886757 C258.174676,85.1184052 258.070008,88.8246313 258.028141,91.4075724 C261.210075,90.6496698 264.978099,90.0325062 269.332325,89.5562369 L270.525545,96.5511069 C267.720418,96.843496 263.512792,97.5400862 257.902539,98.6403971 C257.902539,103.798693 257.923472,107.51507 257.96534,109.789653 C261.607817,109.169372 265.961978,108.142283 271.027953,106.707751 L272.095571,113.716914 C268.536828,115.705231 264.329201,116.909844 259.472564,117.331707 L249.801206,117.269845 Z M278.501275,114.128061 C277.956997,105.302127 277.684862,97.1961379 277.684862,89.8091079 C277.684862,82.4220779 277.91513,75.6926034 278.375673,69.6200558 L286.72821,69.6311545 C286.100196,77.1035695 285.786194,84.2233534 285.786194,90.9914343 C285.786194,97.7595152 285.890862,102.729283 286.1002,105.900989 C287.607432,105.553076 291.312655,104.796365 297.215981,103.630297 L298.472002,111.030486 C295.331935,111.692535 290.89404,112.72613 285.158184,114.130692 L278.501275,114.128061 Z M301.863257,113.584748 C301.695787,108.720072 301.612053,102.865981 301.612053,96.0221723 C301.612053,89.1783638 301.821388,80.0165292 302.240063,68.5356594 C305.756939,66.8748739 309.367961,65.874298 313.073241,65.5346229 C316.77852,65.1949479 320.086007,66.3084864 322.995803,68.8765329 C325.905598,71.4462607 327.360474,74.8854893 327.360474,79.1930609 C327.360474,83.5006325 325.779997,87.3648878 322.618997,90.7844264 C319.457996,94.2019433 315.323636,96.8710679 310.215794,98.7922474 C310.215794,103.632501 310.278594,108.596848 310.404197,113.685533 L301.863257,113.584748 Z M318.756734,80.3255181 C318.756734,78.0330442 318.181063,76.2252588 317.029705,74.9023592 C315.878347,73.5797948 314.590939,72.9833445 313.167442,73.1127392 C312.790634,73.1469907 311.932362,73.3330656 310.5926,73.6709251 C310.383262,79.7835849 310.257661,85.6939158 310.215794,91.4022539 C312.85345,90.302781 314.93633,88.7551395 316.464496,86.7591973 C317.992662,84.7626753 318.756734,82.6179921 318.756734,80.3255181 Z M332.63576,97.0723317 C331.882144,90.6853541 331.505342,84.8395589 331.505342,79.5340276 C331.505342,74.2284963 331.903078,68.4861566 332.698561,62.3060941 L341.867511,63.2851618 C339.774133,71.8862904 338.371591,83.2170249 337.659843,97.2788713 L332.63576,97.0723317 Z M338.601858,100.576414 C339.062401,101.402822 339.292669,102.899655 339.292669,105.066895 C339.292669,107.234136 338.957734,109.148744 338.287853,110.810613 L330.814531,109.965424 C331.233206,108.326564 331.442541,106.630077 331.442541,104.876014 C331.442541,103.121952 331.400674,101.642278 331.316939,100.436962 L338.601858,100.576414 Z"/>
    <path fill="#FFFFFF" d="M18.4035048,53.2683942 C18.947783,51.1606528 19.2199181,49.4144619 19.2199181,48.0299454 C19.2199181,46.6454289 18.8431157,45.5384771 18.0894996,44.7091641 C17.3358835,43.8799939 16.3624774,43.5230948 15.1692519,43.6383486 C13.9760264,43.7536024 12.9816868,44.4366225 12.1862031,45.6872818 C11.3907195,46.9377446 10.9929836,48.3174193 10.9929836,49.8264946 C10.9929836,52.7608075 12.6676609,55.1161176 16.0170657,56.8936033 C19.3664706,58.7564778 21.6482184,60.1134996 22.8623777,60.9637417 C24.0765369,61.8142302 24.934809,62.6146185 25.4372198,63.364809 C26.6932466,65.3036358 27.3212506,67.3649821 27.3212506,69.5485026 C27.3212506,73.3276728 26.0547759,76.4582883 23.5217884,78.9395464 C20.988801,81.4196091 18.1313829,82.806243 14.9494483,83.1003865 C11.1813678,83.4487142 8.02041444,82.1485275 5.46649325,79.2010715 C3.62432059,77.0685475 1.92870983,74.3579035 0.379610087,71.0692285 L6.47130968,67.543665 C7.43426357,69.967175 8.63793788,71.980971 10.0823687,73.5851279 C11.5267996,75.1898136 13.0654093,75.9162409 14.6982442,75.7640349 C15.7449332,75.6664669 16.6869392,75.2431111 17.5242904,74.4938661 C18.3616416,73.7445029 18.7803109,72.6880549 18.7803109,71.3245789 C18.7803109,69.961103 18.2569743,68.741192 17.2102853,67.6650033 C16.1635962,66.5890731 14.761054,65.5260051 13.0026165,64.4759108 C11.2441789,63.4262664 9.88350362,62.5594761 8.92054972,61.8752943 C7.95759583,61.1912698 6.88998905,60.2973701 5.71769736,59.1936756 C3.49871665,57.0589873 2.38924294,54.1598124 2.38924294,50.4952419 C2.38924294,46.8306713 3.66618438,43.6289876 6.22010557,40.8890892 C8.77402676,38.1478502 11.8093794,36.6055422 15.3262545,36.2631242 C18.8431295,35.9207062 21.805215,36.996194 24.2125997,39.4906553 C26.6199845,41.986497 27.8236588,44.6731553 27.8236588,47.5496755 C27.8236588,50.4261957 27.2793887,52.9452194 26.1908321,55.1064691 L18.4035048,53.2683942 Z M46.1615586,41.9070069 C44.3193859,42.0846989 42.707509,44.5218244 41.3258795,49.2174648 C39.94425,53.9117828 39.2534456,58.0242074 39.2534456,61.555854 C39.2534456,68.9554945 41.1793245,72.4755712 45.0311401,72.1161898 C46.1196967,72.0146255 47.0721694,71.4523888 47.8885868,70.4293412 C48.7050042,69.4061317 49.2911413,68.3727745 49.6470156,67.3293038 C50.0028898,66.2857578 50.4320259,64.8564384 50.9344366,63.0412195 L58.910167,62.9218939 C57.8216104,68.2057722 56.1992668,72.3166489 54.0430874,75.2546059 C51.8869081,78.1913266 48.8829557,79.8372582 45.0311401,80.1933776 C40.5094436,80.6114308 37.0240214,79.2208326 34.5747691,76.0228622 C32.1255169,72.8266527 30.9009091,68.5828582 30.9009091,63.2900304 C30.9009091,57.1150647 32.1150501,50.9920874 34.5433686,44.9186815 C35.7156603,41.9059188 37.3589374,39.3617843 39.4732492,37.2861143 C41.587561,35.2096143 44.0053764,34.0386685 46.7267678,33.7738642 C50.0761727,33.4479513 52.5044547,34.3273506 54.0116869,36.4126169 C54.765303,37.4344584 55.3828403,38.4906756 55.8643172,39.5812563 C56.3457942,40.6719517 56.6911964,42.0917554 56.9005342,43.840682 C57.2773422,46.6266883 57.5076103,49.6374943 57.5913454,52.8730657 L49.490013,52.8866745 C49.490013,47.4572497 48.9876098,44.0964582 47.9827884,42.8044185 C47.5222452,42.1334317 46.9151747,41.8343147 46.1615586,41.9070069 Z M74.1708165,31.7996827 C73.7940085,38.5032518 73.6056073,46.0320251 73.6056073,54.3866226 C73.6056073,62.7412201 73.8777423,70.331927 74.4220206,77.1595582 L65.943882,77.1847877 C65.3996037,68.634787 65.1274687,60.8928124 65.1274687,53.9578971 C65.1274687,47.0229817 65.3158699,39.6589598 65.6926779,31.8651518 L74.1708165,31.7996827 Z M82.397751,75.0915432 C82.2302808,68.4342447 82.1465469,62.1283785 82.1465469,56.1735805 C82.1465469,50.2187825 82.4814824,42.4370487 83.1513633,32.827144 C90.3107162,31.0334631 97.3024939,29.8043401 104.126906,29.1409698 L104.126906,36.9507353 C99.3958719,37.4067676 94.999844,37.9785185 90.9386906,38.6658169 C90.7712204,43.416265 90.6665531,47.0614794 90.6246855,49.601677 C93.8066201,48.833609 97.574644,48.1997325 101.92887,47.7002023 L103.12209,54.5701083 C100.316963,54.8776894 96.1093366,55.5927691 90.4990835,56.7148678 C90.4990835,61.7872021 90.5200169,65.4414965 90.5618845,67.6778752 C94.2043622,67.0419525 98.5585232,66.0009149 103.624498,64.554129 L104.692116,71.4390398 C101.133373,73.419602 96.9257461,74.6341085 92.0691091,75.0835142 L82.397751,75.0915432 Z M137.160246,24.9105467 L137.223047,54.5309825 C137.223047,59.4156706 137.05558,64.6769273 136.720639,70.3146179 L129.686924,70.2656488 C124.286009,58.3375534 119.869047,49.4461549 116.435908,43.5840329 C116.477775,49.8528696 116.498709,59.8533884 116.498709,73.5858482 L109.150988,73.4393266 C109.025386,70.8251774 108.962585,68.2899907 108.962585,65.8336389 C108.962585,55.5847226 109.527789,43.58789 110.658213,29.8403731 L119.01075,29.8563239 C123.155638,41.0332355 126.881795,49.480437 130.189332,55.1938028 C129.938127,42.3995636 129.645058,32.3264975 129.310118,24.9741861 L137.160246,24.9105467 Z M149.02964,68.7920516 C148.610965,61.3037747 148.40163,54.7639702 148.40163,49.1719515 C148.40163,43.5799329 148.527231,37.7314429 148.778436,31.6260685 L141.116711,33.4489651 L139.735088,26.1894963 C143.838109,25.068297 147.899202,24.141922 151.918488,23.4105921 L163.66228,21.6288309 L164.855499,28.6050675 C162.552783,28.9553861 159.957033,29.3978186 157.068172,29.9323092 C156.816966,36.0854977 156.691366,41.7155731 156.691366,46.8229438 C156.691366,51.9303145 156.7751,59.2429355 156.94257,68.7612745 L149.02964,68.7920516 Z M178.860128,21.620537 C178.48332,28.3970669 178.294919,36.0080354 178.294919,44.4540647 C178.294919,52.900094 178.567054,60.5741505 179.111332,67.4770513 L170.633194,67.4939688 C170.088915,58.8497657 169.81678,51.0227099 169.81678,44.0118322 C169.81678,37.0009545 170.005181,29.5564692 170.381989,21.6776942 L178.860128,21.620537 Z M201.342896,35.7894911 C201.887174,33.6422101 202.159309,31.8629354 202.159309,30.4517901 C202.159309,29.0406448 201.782507,27.9117045 201.028891,27.0650424 C200.275274,26.2185232 199.301868,25.8529496 198.108643,25.9682035 C196.915417,26.0834573 195.921078,26.7777742 195.125594,28.0510277 C194.33011,29.3240846 193.932374,30.7295808 193.932374,32.2677056 C193.932374,35.2585038 195.607052,37.6622291 198.956457,39.4800615 C202.305861,41.3848965 204.587609,42.7721778 205.801769,43.6409793 C207.015928,44.5100273 207.8742,45.3273609 208.376611,46.0928831 C209.632637,48.0712496 210.260641,50.1733454 210.260641,52.3988264 C210.260641,56.2506205 208.994167,59.4391326 206.461179,61.9635616 C203.928192,64.4867951 201.070774,65.8950142 197.888839,66.1891576 C194.120759,66.5374854 190.959805,65.2066357 188.405884,62.1978529 C186.563711,60.0209475 184.868101,57.2550295 183.319001,53.900186 L189.410701,50.317734 C190.373654,52.78966 191.577329,54.8444072 193.02176,56.4820518 C194.46619,58.1202253 196.0048,58.8633961 197.637635,58.7111901 C198.684324,58.6136221 199.62633,58.1838109 200.463681,57.421655 C201.301032,56.6593809 201.719702,55.5833651 201.719702,54.1936638 C201.719702,52.8039625 201.196365,51.5596422 200.149676,50.4608594 C199.102987,49.3623351 197.700445,48.2762698 195.942007,47.2027745 C194.18357,46.1297291 192.822895,45.2437744 191.859941,44.5446644 C190.896987,43.8457116 189.82938,42.9326476 188.657088,41.805552 C186.438108,39.6256755 185.328634,36.6686041 185.328634,32.9334269 C185.328634,29.1982497 186.605575,25.9372573 189.159496,23.1493465 C191.713418,20.360095 194.74877,18.7937811 198.265645,18.4513631 C201.78252,18.1089451 204.744606,19.2106579 207.151991,21.7575697 C209.559375,24.305862 210.76305,27.0463823 210.76305,29.9781774 C210.76305,32.9099725 210.21878,35.4764027 209.130223,37.6771922 L201.342896,35.7894911 Z M221.313622,62.0956495 C220.894947,54.550938 220.685612,47.9619533 220.685612,42.3280072 C220.685612,36.6940612 220.811213,30.8018111 221.062418,24.6508427 L213.400693,26.4818696 L212.01907,19.1669231 C216.122091,18.0403035 220.183184,17.109943 224.202469,16.3760625 L235.946261,14.5895187 L237.139481,21.6188418 C234.836765,21.9701169 232.241015,22.4139841 229.352154,22.9503878 C229.100948,29.1494892 228.975347,34.8216508 228.975347,39.9672822 C228.975347,45.1129136 229.059081,52.4803742 229.226552,62.0701332 L221.313622,62.0956495 Z M255.477381,30.6172239 C256.021659,28.4582424 256.293794,26.6691778 256.293794,25.2501527 C256.293794,23.8311275 255.916992,22.6956804 255.163376,21.8438845 C254.409759,20.9922315 253.436353,20.624091 252.243128,20.7393449 C251.049902,20.8545987 250.055563,21.5522585 249.260079,22.8321979 C248.464595,24.1119408 248.06686,25.5250779 248.06686,27.0717989 C248.06686,30.079312 249.741537,32.497364 253.090942,34.3271356 C256.440347,36.2443873 258.722094,37.6406229 259.936254,38.5149164 C261.150413,39.3894564 262.008685,40.2118044 262.511096,40.9818635 C263.767123,42.9719303 264.395126,45.0860845 264.395126,47.3239823 C264.395126,51.1972669 263.128652,54.4029114 260.595664,56.9401153 C258.062677,59.4761238 255.205259,60.8907302 252.023324,61.1848737 C248.255244,61.5332014 245.09429,60.1932781 242.540369,57.1663477 C240.698197,54.9763093 239.002586,52.1940349 237.453486,48.8196111 L243.545186,45.220325 C244.50814,47.7065779 245.711814,49.7734433 247.156245,51.4209974 C248.600675,53.0690803 250.139285,53.8172058 251.77212,53.6649998 C252.818809,53.5674318 253.760815,53.1357104 254.598166,52.369734 C255.435518,51.6036394 255.854187,50.5218331 255.854187,49.1243714 C255.854187,47.7269097 255.33085,46.4753662 254.284161,45.3698975 C253.237472,44.2646873 251.83493,43.1718168 250.076492,42.0913967 C248.318055,41.0114266 246.95738,40.1198009 245.994426,39.4162734 C245.031472,38.7129031 243.963865,37.794168 242.791573,36.6601478 C240.572593,34.4668994 239.463119,31.4926955 239.463119,27.7366248 C239.463119,23.9805541 240.74006,20.7020114 243.293982,17.8998929 C245.847903,15.0964339 248.883255,13.5230162 252.40013,13.1805982 C255.917005,12.8381802 258.879091,13.9476533 261.286476,16.5100861 C263.69386,19.0738993 264.897535,21.8303581 264.897535,24.7785099 C264.897535,27.7266616 264.353265,30.3071202 263.264708,32.51961 L255.477381,30.6172239 Z M312.94032,7.80515148 L313.003121,37.9663936 C313.003121,42.9402473 312.835653,48.2972587 312.500713,54.0372959 L305.466998,53.9755336 C300.066083,41.8202597 295.649121,32.7586737 292.215981,26.7833501 C292.257849,33.1669391 292.278782,43.3504385 292.278782,57.3341127 L284.931062,57.1724719 C284.80546,54.5102508 284.742659,51.9285436 284.742659,49.4272212 C284.742659,38.9906694 285.307863,26.7751905 286.438287,12.7780098 L294.790823,12.8090799 C298.935712,24.1976629 302.661869,32.8057479 305.969406,38.6292139 C305.718201,25.600818 305.425132,15.3432206 305.090192,7.85599761 L312.94032,7.80515148 Z M320.413642,53.0448545 C320.246172,46.2216764 320.162438,39.7588569 320.162438,33.656027 C320.162438,27.5531971 320.497374,19.5788149 321.167255,9.73163935 C328.326608,7.91066178 335.318385,6.66789069 342.142798,6.0045204 L342.142798,14.0079862 C337.411763,14.4640185 333.015735,15.0394438 328.954582,15.7340913 C328.787112,20.602125 328.682444,24.3376269 328.640577,26.9408168 C331.822511,26.1612002 335.590535,25.5204996 339.944762,25.0188697 L341.137981,32.0620035 C338.332855,32.3706345 334.125228,33.0935881 328.514975,34.230385 C328.514975,39.4287039 328.535908,43.1738107 328.577776,45.4658326 C332.220254,44.8225608 336.574415,43.7657754 341.640389,42.2948425 L342.708007,49.3529811 C339.149264,51.3744883 334.941637,52.609467 330.085,53.0588727 L320.413642,53.0448545 Z M348.485701,50.444625 C348.318231,43.6018827 348.234497,37.1205518 348.234497,31.0002628 C348.234497,24.8799737 348.569433,16.8828702 349.239314,7.00771043 C356.398666,5.18351344 363.390444,3.93913267 370.214857,3.27576238 L370.214857,11.3020735 C365.483822,11.7581058 361.087794,12.3339645 357.026641,13.0294788 C356.859171,17.9113807 356.754503,21.6575314 356.712636,24.2681507 C359.89457,23.4871721 363.662594,22.8456666 368.016821,22.3437891 L369.21004,29.4073537 C366.404914,29.7161085 362.197287,30.4399908 356.587034,31.5785212 C356.587034,36.7916989 356.607967,40.5475164 356.649835,42.846101 C360.292313,42.2019624 364.646474,41.1433197 369.712448,39.6695388 L370.780066,46.7481082 C367.221323,48.7744445 363.013696,50.0118378 358.157059,50.4612435 L348.485701,50.444625 Z M386.794328,0.814411553 C391.692832,0.337828722 395.471323,1.97645814 398.129913,5.73196727 C400.788503,9.48963414 402.117778,14.2278864 402.117778,19.9452478 C402.117778,24.3532898 401.447907,28.5735134 400.108145,32.6052517 C398.768383,36.6359322 396.675037,40.1032182 393.828043,43.0068674 C390.981048,45.908997 387.652627,47.535781 383.842679,47.8884076 C383.089063,47.9581579 380.242112,47.9168273 375.30174,47.7648722 C375.887886,38.351987 376.180954,30.5764091 376.180954,24.438739 C376.180954,18.3010689 375.992553,11.5287024 375.615745,4.12186266 C379.676898,2.24713071 383.403055,1.14435351 386.794328,0.814411553 Z M391.158999,33.9037484 C393.063973,30.1711406 394.016446,26.2438923 394.016446,22.122913 C394.016446,18.0019338 393.336108,14.6766368 391.975412,12.1474714 C390.614717,9.61903831 388.992373,8.44601655 387.108333,8.62782178 C386.103511,8.72478457 385.161505,8.98995996 384.282287,9.42330936 C384.449757,15.8549329 384.533491,21.259958 384.533491,25.638383 C384.533491,30.0168079 384.40789,34.592115 384.156684,39.3642603 C384.449757,39.6854115 384.868427,39.8205855 385.412705,39.7697709 C387.338613,39.5899655 389.254025,37.6349867 391.158999,33.9037484 Z M73.7312093,117.803253 L73.7312093,112.929698 C68.2465589,101.735041 65.2112063,93.5977774 64.6250604,88.5080834 L72.4751888,88.5500333 C73.3962751,93.1916529 75.322154,98.6717921 78.2528832,104.992958 C81.7278908,97.0380277 84.4283079,89.8874951 86.3542157,83.5434466 L93.6391348,83.5730443 C90.5409353,92.7758368 86.8147783,102.176986 82.460552,111.774818 C82.3768169,115.583279 82.33495,118.923372 82.33495,121.795246 C82.33495,124.66712 82.4186838,127.55277 82.5861541,130.45236 L74.2964186,130.286114 C73.9196105,126.394615 73.7312093,122.23378 73.7312093,117.803253 Z M97.752602,124.534995 C95.0102768,121.158724 93.6391348,115.782226 93.6391348,108.40379 C93.6391348,101.025354 95.1358776,94.8752779 98.1294082,89.9511997 C101.122939,85.0242166 104.650228,82.3735662 108.711381,82.0013476 C112.772535,81.629129 116.153289,83.1416963 118.853747,86.5406313 C121.554205,89.9416151 122.904413,95.3114665 122.904413,102.64881 C122.904413,109.986154 121.397204,116.141229 118.382739,121.112007 C115.368275,126.079833 111.861919,128.736043 107.863567,129.082929 C103.865215,129.429815 100.494927,127.913335 97.752602,124.534995 Z M104.001304,94.9094555 C102.661542,98.3105477 101.991671,102.496996 101.991671,107.469613 C101.991671,112.44223 102.567342,116.073276 103.7187,118.36329 C104.870058,120.653877 106.304,121.724238 108.02057,121.573972 C109.73714,121.423707 111.254816,119.638798 112.573644,116.218512 C113.892473,112.797318 114.551877,108.59688 114.551877,103.617753 C114.551877,98.6386263 113.99714,95.0126668 112.887649,92.7401771 C111.778159,90.4682355 110.407017,89.4066708 108.774182,89.5550401 C106.93201,89.7224311 105.341066,91.5074474 104.001304,94.9094555 Z M136.218231,109.485945 C136.218231,111.694443 136.699701,113.626901 137.662655,115.28364 C138.625608,116.940726 139.766482,117.711591 141.08531,117.595995 C142.404139,117.480399 143.461279,116.792706 144.256762,115.532748 C145.052246,114.272594 145.61745,112.649937 145.95239,110.664775 C146.538536,107.169156 146.831604,103.157169 146.831604,98.6290095 C146.831604,94.1008498 146.559469,87.4822121 146.015191,78.7736397 L154.556131,78.8845906 C155.142277,87.5971796 155.435345,93.5283523 155.435345,96.6774875 C155.435345,99.8266228 155.393478,102.032588 155.309743,103.295434 C155.226008,104.558258 155.05854,106.030602 154.807335,107.712461 C154.556129,109.394233 154.221194,110.976905 153.802518,112.460495 C153.383843,113.943959 152.818639,115.440136 152.106891,116.949005 C151.395142,118.45766 150.557804,119.764378 149.59485,120.869205 C147.459604,123.394109 144.560319,124.815271 140.896907,125.133511 C137.233496,125.451751 134.103943,124.067629 131.508154,120.982445 C128.912365,117.899047 127.61449,114.321279 127.61449,110.247695 C127.61449,101.294297 128.09596,91.703424 129.058914,81.4732656 L137.599854,81.5199475 C136.678767,90.9057804 136.218231,100.227241 136.218231,109.485945 Z M161.966652,122.792173 C162.51093,112.523961 162.783065,103.38626 162.783065,95.3796614 C162.783065,87.3730625 162.762132,82.115395 162.720264,79.6065174 C167.325696,76.9699996 172.11946,75.4224542 177.101699,74.9654194 C180.786045,74.6274441 183.873731,75.539261 186.364851,77.7018206 C188.855971,79.8656109 190.101512,83.126067 190.101512,87.4823637 C190.101512,92.5220012 186.605623,97.6815445 179.61374,102.956106 C183.423688,107.48317 187.317313,112.497647 191.294731,118.00042 L185.265833,123.072057 C182.628176,119.246497 177.897213,113.047161 171.072801,104.481913 C170.947198,111.057201 170.758797,117.232791 170.507592,123.00877 L161.966652,122.792173 Z M179.174133,93.8764938 C181.351246,91.4835658 182.439787,89.3905873 182.439787,87.5982375 C182.439787,85.8058876 181.926917,84.465491 180.901161,83.5771633 C179.875406,82.6890438 178.525198,82.321232 176.850495,82.4735608 C175.175793,82.6258895 173.333648,83.1558392 171.324005,84.0631998 C171.324005,91.266988 171.303071,96.6183409 171.261204,100.117397 C174.359403,98.3487046 176.99702,96.2684326 179.174133,93.8764938 Z M218.864382,85.0773498 L218.927183,92.4608417 L228.347337,91.0385539 C228.347337,84.3496653 228.452004,77.2440207 228.661342,69.7211647 L236.951078,69.7327593 C236.57427,76.590606 236.385869,83.999396 236.385869,91.959748 C236.385869,99.9201 236.616137,107.892302 237.07668,115.877164 L229.038148,115.868688 C228.66134,112.213901 228.431072,106.316973 228.347337,98.1776206 L219.115586,99.5762595 C219.241189,105.648006 219.42959,111.821414 219.680795,118.096796 L211.139856,118.06849 C210.679313,109.077836 210.449045,100.795284 210.449045,93.2199418 C210.449045,85.6445997 210.616512,79.0812826 210.951453,73.5295078 L219.241188,73.5415611 C218.989983,77.376965 218.864382,81.2221402 218.864382,85.0773498 Z M244.801206,115.269845 C244.633736,108.498413 244.550002,102.08498 244.550002,96.0291763 C244.550002,89.9733729 244.884938,82.0620903 245.554818,72.2940895 C252.714171,70.5223854 259.705949,69.3236015 266.530361,68.6989336 L266.530361,76.6408651 C261.799327,77.0700669 257.403299,77.6193943 253.342146,78.2886757 C253.174676,83.1184052 253.070008,86.8246313 253.028141,89.4075724 C256.210075,88.6496698 259.978099,88.0325062 264.332325,87.5562369 L265.525545,94.5511069 C262.720418,94.843496 258.512792,95.5400862 252.902539,96.6403971 C252.902539,101.798693 252.923472,105.51507 252.96534,107.789653 C256.607817,107.169372 260.961978,106.142283 266.027953,104.707751 L267.095571,111.716914 C263.536828,113.705231 259.329201,114.909844 254.472564,115.331707 L244.801206,115.269845 Z M273.501275,112.128061 C272.956997,103.302127 272.684862,95.1961379 272.684862,87.8091079 C272.684862,80.4220779 272.91513,73.6926034 273.375673,67.6200558 L281.72821,67.6311545 C281.100196,75.1035695 280.786194,82.2233534 280.786194,88.9914343 C280.786194,95.7595152 280.890862,100.729283 281.1002,103.900989 C282.607432,103.553076 286.312655,102.796365 292.215981,101.630297 L293.472002,109.030486 C290.331935,109.692535 285.89404,110.72613 280.158184,112.130692 L273.501275,112.128061 Z M296.863257,111.584748 C296.695787,106.720072 296.612053,100.865981 296.612053,94.0221723 C296.612053,87.1783638 296.821388,78.0165292 297.240063,66.5356594 C300.756939,64.8748739 304.367961,63.874298 308.073241,63.5346229 C311.77852,63.1949479 315.086007,64.3084864 317.995803,66.8765329 C320.905598,69.4462607 322.360474,72.8854893 322.360474,77.1930609 C322.360474,81.5006325 320.779997,85.3648878 317.618997,88.7844264 C314.457996,92.2019433 310.323636,94.8710679 305.215794,96.7922474 C305.215794,101.632501 305.278594,106.596848 305.404197,111.685533 L296.863257,111.584748 Z M313.756734,78.3255181 C313.756734,76.0330442 313.181063,74.2252588 312.029705,72.9023592 C310.878347,71.5797948 309.590939,70.9833445 308.167442,71.1127392 C307.790634,71.1469907 306.932362,71.3330656 305.5926,71.6709251 C305.383262,77.7835849 305.257661,83.6939158 305.215794,89.4022539 C307.85345,88.302781 309.93633,86.7551395 311.464496,84.7591973 C312.992662,82.7626753 313.756734,80.6179921 313.756734,78.3255181 Z M327.63576,95.0723317 C326.882144,88.6853541 326.505342,82.8395589 326.505342,77.5340276 C326.505342,72.2284963 326.903078,66.4861566 327.698561,60.3060941 L336.867511,61.2851618 C334.774133,69.8862904 333.371591,81.2170249 332.659843,95.2788713 L327.63576,95.0723317 Z M333.601858,98.5764139 C334.062401,99.4028223 334.292669,100.899655 334.292669,103.066895 C334.292669,105.234136 333.957734,107.148744 333.287853,108.810613 L325.814531,107.965424 C326.233206,106.326564 326.442541,104.630077 326.442541,102.876014 C326.442541,101.121952 326.400674,99.6422775 326.316939,98.4369619 L333.601858,98.5764139 Z"/>
  </g>
</svg>
