<svg xmlns="http://www.w3.org/2000/svg" aria-labelledby="scientistsSVG" width="409" height="134" viewBox="0 0 409 134" xmlns:xlink="http://www.w3.org/1999/xlink">
  <title id="scientistsSVG">Scientists Need Your Help</title>
  <defs>
    <path id="b1" d="M51.4035048,99.2683942 C51.947783,97.1606528 52.2199181,95.4144619 52.2199181,94.0299454 C52.2199181,92.6454289 51.8431157,91.5384771 51.0894996,90.7091641 C50.3358835,89.8799939 49.3624774,89.5230948 48.1692519,89.6383486 C46.9760264,89.7536024 45.9816868,90.4366225 45.1862031,91.6872818 C44.3907195,92.9377446 43.9929836,94.3174193 43.9929836,95.8264946 C43.9929836,98.7608075 45.6676609,101.116118 49.0170657,102.893603 C52.3664706,104.756478 54.6482184,106.1135 55.8623777,106.963742 C57.0765369,107.81423 57.934809,108.614618 58.4372198,109.364809 C59.6932466,111.303636 60.3212506,113.364982 60.3212506,115.548503 C60.3212506,119.327673 59.0547759,122.458288 56.5217884,124.939546 C53.988801,127.419609 51.1313829,128.806243 47.9494483,129.100386 C44.1813678,129.448714 41.0204144,128.148528 38.4664933,125.201072 C36.6243206,123.068547 34.9287098,120.357904 33.3796101,117.069229 L39.4713097,113.543665 C40.4342636,115.967175 41.6379379,117.980971 43.0823687,119.585128 C44.5267996,121.189814 46.0654093,121.916241 47.6982442,121.764035 C48.7449332,121.666467 49.6869392,121.243111 50.5242904,120.493866 C51.3616416,119.744503 51.7803109,118.688055 51.7803109,117.324579 C51.7803109,115.961103 51.2569743,114.741192 50.2102853,113.665003 C49.1635962,112.589073 47.761054,111.526005 46.0026165,110.475911 C44.2441789,109.426266 42.8835036,108.559476 41.9205497,107.875294 C40.9575958,107.19127 39.8899891,106.29737 38.7176974,105.193676 C36.4987167,103.058987 35.3892429,100.159812 35.3892429,96.4952419 C35.3892429,92.8306713 36.6661844,89.6289876 39.2201056,86.8890892 C41.7740268,84.1478502 44.8093794,82.6055422 48.3262545,82.2631242 C51.8431295,81.9207062 54.805215,82.996194 57.2125997,85.4906553 C59.6199845,87.986497 60.8236588,90.6731553 60.8236588,93.5496755 C60.8236588,96.4261957 60.2793887,98.9452194 59.1908321,101.106469 L51.4035048,99.2683942 Z M79.1615586,87.9070069 C77.3193859,88.0846989 75.707509,90.5218244 74.3258795,95.2174648 C72.94425,99.9117828 72.2534456,104.024207 72.2534456,107.555854 C72.2534456,114.955495 74.1793245,118.475571 78.0311401,118.11619 C79.1196967,118.014625 80.0721694,117.452389 80.8885868,116.429341 C81.7050042,115.406132 82.2911413,114.372775 82.6470156,113.329304 C83.0028898,112.285758 83.4320259,110.856438 83.9344366,109.04122 L91.910167,108.921894 C90.8216104,114.205772 89.1992668,118.316649 87.0430874,121.254606 C84.8869081,124.191327 81.8829557,125.837258 78.0311401,126.193378 C73.5094436,126.611431 70.0240214,125.220833 67.5747691,122.022862 C65.1255169,118.826653 63.9009091,114.582858 63.9009091,109.29003 C63.9009091,103.115065 65.1150501,96.9920874 67.5433686,90.9186815 C68.7156603,87.9059188 70.3589374,85.3617843 72.4732492,83.2861143 C74.587561,81.2096143 77.0053764,80.0386685 79.7267678,79.7738642 C83.0761727,79.4479513 85.5044547,80.3273506 87.0116869,82.4126169 C87.765303,83.4344584 88.3828403,84.4906756 88.8643172,85.5812563 C89.3457942,86.6719517 89.6911964,88.0917554 89.9005342,89.840682 C90.2773422,92.6266883 90.5076103,95.6374943 90.5913454,98.8730657 L82.490013,98.8866745 C82.490013,93.4572497 81.9876098,90.0964582 80.9827884,88.8044185 C80.5222452,88.1334317 79.9151747,87.8343147 79.1615586,87.9070069 Z M107.170817,77.7996827 C106.794008,84.5032518 106.605607,92.0320251 106.605607,100.386623 C106.605607,108.74122 106.877742,116.331927 107.422021,123.159558 L98.943882,123.184788 C98.3996037,114.634787 98.1274687,106.892812 98.1274687,99.9578971 C98.1274687,93.0229817 98.3158699,85.6589598 98.6926779,77.8651518 L107.170817,77.7996827 Z M115.397751,121.091543 C115.230281,114.434245 115.146547,108.128379 115.146547,102.173581 C115.146547,96.2187825 115.481482,88.4370487 116.151363,78.827144 C123.310716,77.0334631 130.302494,75.8043401 137.126906,75.1409698 L137.126906,82.9507353 C132.395872,83.4067676 127.999844,83.9785185 123.938691,84.6658169 C123.77122,89.416265 123.666553,93.0614794 123.624686,95.601677 C126.80662,94.833609 130.574644,94.1997325 134.92887,93.7002023 L136.12209,100.570108 C133.316963,100.877689 129.109337,101.592769 123.499083,102.714868 C123.499083,107.787202 123.520017,111.441496 123.561884,113.677875 C127.204362,113.041952 131.558523,112.000915 136.624498,110.554129 L137.692116,117.43904 C134.133373,119.419602 129.925746,120.634109 125.069109,121.083514 L115.397751,121.091543 Z M170.160246,70.9105467 L170.223047,100.530983 C170.223047,105.415671 170.05558,110.676927 169.720639,116.314618 L162.686924,116.265649 C157.286009,104.337553 152.869047,95.4461549 149.435908,89.5840329 C149.477775,95.8528696 149.498709,105.853388 149.498709,119.585848 L142.150988,119.439327 C142.025386,116.825177 141.962585,114.289991 141.962585,111.833639 C141.962585,101.584723 142.527789,89.58789 143.658213,75.8403731 L152.01075,75.8563239 C156.155638,87.0332355 159.881795,95.480437 163.189332,101.193803 C162.938127,88.3995636 162.645058,78.3264975 162.310118,70.9741861 L170.160246,70.9105467 Z M182.02964,114.792052 C181.610965,107.303775 181.40163,100.76397 181.40163,95.1719515 C181.40163,89.5799329 181.527231,83.7314429 181.778436,77.6260685 L174.116711,79.4489651 L172.735088,72.1894963 C176.838109,71.068297 180.899202,70.141922 184.918488,69.4105921 L196.66228,67.6288309 L197.855499,74.6050675 C195.552783,74.9553861 192.957033,75.3978186 190.068172,75.9323092 C189.816966,82.0854977 189.691366,87.7155731 189.691366,92.8229438 C189.691366,97.9303145 189.7751,105.242935 189.94257,114.761274 L182.02964,114.792052 Z M211.860128,67.620537 C211.48332,74.3970669 211.294919,82.0080354 211.294919,90.4540647 C211.294919,98.900094 211.567054,106.574151 212.111332,113.477051 L203.633194,113.493969 C203.088915,104.849766 202.81678,97.0227099 202.81678,90.0118322 C202.81678,83.0009545 203.005181,75.5564692 203.381989,67.6776942 L211.860128,67.620537 Z M234.342896,81.7894911 C234.887174,79.6422101 235.159309,77.8629354 235.159309,76.4517901 C235.159309,75.0406448 234.782507,73.9117045 234.028891,73.0650424 C233.275274,72.2185232 232.301868,71.8529496 231.108643,71.9682035 C229.915417,72.0834573 228.921078,72.7777742 228.125594,74.0510277 C227.33011,75.3240846 226.932374,76.7295808 226.932374,78.2677056 C226.932374,81.2585038 228.607052,83.6622291 231.956457,85.4800615 C235.305861,87.3848965 237.587609,88.7721778 238.801769,89.6409793 C240.015928,90.5100273 240.8742,91.3273609 241.376611,92.0928831 C242.632637,94.0712496 243.260641,96.1733454 243.260641,98.3988264 C243.260641,102.250621 241.994167,105.439133 239.461179,107.963562 C236.928192,110.486795 234.070774,111.895014 230.888839,112.189158 C227.120759,112.537485 223.959805,111.206636 221.405884,108.197853 C219.563711,106.020947 217.868101,103.25503 216.319001,99.900186 L222.410701,96.317734 C223.373654,98.78966 224.577329,100.844407 226.02176,102.482052 C227.46619,104.120225 229.0048,104.863396 230.637635,104.71119 C231.684324,104.613622 232.62633,104.183811 233.463681,103.421655 C234.301032,102.659381 234.719702,101.583365 234.719702,100.193664 C234.719702,98.8039625 234.196365,97.5596422 233.149676,96.4608594 C232.102987,95.3623351 230.700445,94.2762698 228.942007,93.2027745 C227.18357,92.1297291 225.822895,91.2437744 224.859941,90.5446644 C223.896987,89.8457116 222.82938,88.9326476 221.657088,87.805552 C219.438108,85.6256755 218.328634,82.6686041 218.328634,78.9334269 C218.328634,75.1982497 219.605575,71.9372573 222.159496,69.1493465 C224.713418,66.360095 227.74877,64.7937811 231.265645,64.4513631 C234.78252,64.1089451 237.744606,65.2106579 240.151991,67.7575697 C242.559375,70.305862 243.76305,73.0463823 243.76305,75.9781774 C243.76305,78.9099725 243.21878,81.4764027 242.130223,83.6771922 L234.342896,81.7894911 Z M254.313622,108.095649 C253.894947,100.550938 253.685612,93.9619533 253.685612,88.3280072 C253.685612,82.6940612 253.811213,76.8018111 254.062418,70.6508427 L246.400693,72.4818696 L245.01907,65.1669231 C249.122091,64.0403035 253.183184,63.109943 257.202469,62.3760625 L268.946261,60.5895187 L270.139481,67.6188418 C267.836765,67.9701169 265.241015,68.4139841 262.352154,68.9503878 C262.100948,75.1494892 261.975347,80.8216508 261.975347,85.9672822 C261.975347,91.1129136 262.059081,98.4803742 262.226552,108.070133 L254.313622,108.095649 Z M288.477381,76.6172239 C289.021659,74.4582424 289.293794,72.6691778 289.293794,71.2501527 C289.293794,69.8311275 288.916992,68.6956804 288.163376,67.8438845 C287.409759,66.9922315 286.436353,66.624091 285.243128,66.7393449 C284.049902,66.8545987 283.055563,67.5522585 282.260079,68.8321979 C281.464595,70.1119408 281.06686,71.5250779 281.06686,73.0717989 C281.06686,76.079312 282.741537,78.497364 286.090942,80.3271356 C289.440347,82.2443873 291.722094,83.6406229 292.936254,84.5149164 C294.150413,85.3894564 295.008685,86.2118044 295.511096,86.9818635 C296.767123,88.9719303 297.395126,91.0860845 297.395126,93.3239823 C297.395126,97.1972669 296.128652,100.402911 293.595664,102.940115 C291.062677,105.476124 288.205259,106.89073 285.023324,107.184874 C281.255244,107.533201 278.09429,106.193278 275.540369,103.166348 C273.698197,100.976309 272.002586,98.1940349 270.453486,94.8196111 L276.545186,91.220325 C277.50814,93.7065779 278.711814,95.7734433 280.156245,97.4209974 C281.600675,99.0690803 283.139285,99.8172058 284.77212,99.6649998 C285.818809,99.5674318 286.760815,99.1357104 287.598166,98.369734 C288.435518,97.6036394 288.854187,96.5218331 288.854187,95.1243714 C288.854187,93.7269097 288.33085,92.4753662 287.284161,91.3698975 C286.237472,90.2646873 284.83493,89.1718168 283.076492,88.0913967 C281.318055,87.0114266 279.95738,86.1198009 278.994426,85.4162734 C278.031472,84.7129031 276.963865,83.794168 275.791573,82.6601478 C273.572593,80.4668994 272.463119,77.4926955 272.463119,73.7366248 C272.463119,69.9805541 273.74006,66.7020114 276.293982,63.8998929 C278.847903,61.0964339 281.883255,59.5230162 285.40013,59.1805982 C288.917005,58.8381802 291.879091,59.9476533 294.286476,62.5100861 C296.69386,65.0738993 297.897535,67.8303581 297.897535,70.7785099 C297.897535,73.7266616 297.353265,76.3071202 296.264708,78.51961 L288.477381,76.6172239 Z M345.94032,53.8051515 L346.003121,83.9663936 C346.003121,88.9402473 345.835653,94.2972587 345.500713,100.037296 L338.466998,99.9755336 C333.066083,87.8202597 328.649121,78.7586737 325.215981,72.7833501 C325.257849,79.1669391 325.278782,89.3504385 325.278782,103.334113 L317.931062,103.172472 C317.80546,100.510251 317.742659,97.9285436 317.742659,95.4272212 C317.742659,84.9906694 318.307863,72.7751905 319.438287,58.7780098 L327.790823,58.8090799 C331.935712,70.1976629 335.661869,78.8057479 338.969406,84.6292139 C338.718201,71.600818 338.425132,61.3432206 338.090192,53.8559976 L345.94032,53.8051515 Z M353.413642,99.0448545 C353.246172,92.2216764 353.162438,85.7588569 353.162438,79.656027 C353.162438,73.5531971 353.497374,65.5788149 354.167255,55.7316393 C361.326608,53.9106618 368.318385,52.6678907 375.142798,52.0045204 L375.142798,60.0079862 C370.411763,60.4640185 366.015735,61.0394438 361.954582,61.7340913 C361.787112,66.602125 361.682444,70.3376269 361.640577,72.9408168 C364.822511,72.1612002 368.590535,71.5204996 372.944762,71.0188697 L374.137981,78.0620035 C371.332855,78.3706345 367.125228,79.0935881 361.514975,80.230385 C361.514975,85.4287039 361.535908,89.1738107 361.577776,91.4658326 C365.220254,90.8225608 369.574415,89.7657754 374.640389,88.2948425 L375.708007,95.3529811 C372.149264,97.3744883 367.941637,98.609467 363.085,99.0588727 L353.413642,99.0448545 Z M381.485701,96.444625 C381.318231,89.6018827 381.234497,83.1205518 381.234497,77.0002628 C381.234497,70.8799737 381.569433,62.8828702 382.239314,53.0077104 C389.398666,51.1835134 396.390444,49.9391327 403.214857,49.2757624 L403.214857,57.3020735 C398.483822,57.7581058 394.087794,58.3339645 390.026641,59.0294788 C389.859171,63.9113807 389.754503,67.6575314 389.712636,70.2681507 C392.89457,69.4871721 396.662594,68.8456666 401.016821,68.3437891 L402.21004,75.4073537 C399.404914,75.7161085 395.197287,76.4399908 389.587034,77.5785212 C389.587034,82.7916989 389.607967,86.5475164 389.649835,88.846101 C393.292313,88.2019624 397.646474,87.1433197 402.712448,85.6695388 L403.780066,92.7481082 C400.221323,94.7744445 396.013696,96.0118378 391.157059,96.4612435 L381.485701,96.444625 Z M419.794328,46.8144116 C424.692832,46.3378287 428.471323,47.9764581 431.129913,51.7319673 C433.788503,55.4896341 435.117778,60.2278864 435.117778,65.9452478 C435.117778,70.3532898 434.447907,74.5735134 433.108145,78.6052517 C431.768383,82.6359322 429.675037,86.1032182 426.828043,89.0068674 C423.981048,91.908997 420.652627,93.535781 416.842679,93.8884076 C416.089063,93.9581579 413.242112,93.9168273 408.30174,93.7648722 C408.887886,84.351987 409.180954,76.5764091 409.180954,70.438739 C409.180954,64.3010689 408.992553,57.5287024 408.615745,50.1218627 C412.676898,48.2471307 416.403055,47.1443535 419.794328,46.8144116 Z M424.158999,79.9037484 C426.063973,76.1711406 427.016446,72.2438923 427.016446,68.122913 C427.016446,64.0019338 426.336108,60.6766368 424.975412,58.1474714 C423.614717,55.6190383 421.992373,54.4460166 420.108333,54.6278218 C419.103511,54.7247846 418.161505,54.98996 417.282287,55.4233094 C417.449757,61.8549329 417.533491,67.259958 417.533491,71.638383 C417.533491,76.0168079 417.40789,80.592115 417.156684,85.3642603 C417.449757,85.6854115 417.868427,85.8205855 418.412705,85.7697709 C420.338613,85.5899655 422.254025,83.6349867 424.158999,79.9037484 Z M106.731209,163.803253 L106.731209,158.929698 C101.246559,147.735041 98.2112063,139.597777 97.6250604,134.508083 L105.475189,134.550033 C106.396275,139.191653 108.322154,144.671792 111.252883,150.992958 C114.727891,143.038028 117.428308,135.887495 119.354216,129.543447 L126.639135,129.573044 C123.540935,138.775837 119.814778,148.176986 115.460552,157.774818 C115.376817,161.583279 115.33495,164.923372 115.33495,167.795246 C115.33495,170.66712 115.418684,173.55277 115.586154,176.45236 L107.296419,176.286114 C106.919611,172.394615 106.731209,168.23378 106.731209,163.803253 Z M130.752602,170.534995 C128.010277,167.158724 126.639135,161.782226 126.639135,154.40379 C126.639135,147.025354 128.135878,140.875278 131.129408,135.9512 C134.122939,131.024217 137.650228,128.373566 141.711381,128.001348 C145.772535,127.629129 149.153289,129.141696 151.853747,132.540631 C154.554205,135.941615 155.904413,141.311467 155.904413,148.64881 C155.904413,155.986154 154.397204,162.141229 151.382739,167.112007 C148.368275,172.079833 144.861919,174.736043 140.863567,175.082929 C136.865215,175.429815 133.494927,173.913335 130.752602,170.534995 Z M137.001304,140.909456 C135.661542,144.310548 134.991671,148.496996 134.991671,153.469613 C134.991671,158.44223 135.567342,162.073276 136.7187,164.36329 C137.870058,166.653877 139.304,167.724238 141.02057,167.573972 C142.73714,167.423707 144.254816,165.638798 145.573644,162.218512 C146.892473,158.797318 147.551877,154.59688 147.551877,149.617753 C147.551877,144.638626 146.99714,141.012667 145.887649,138.740177 C144.778159,136.468236 143.407017,135.406671 141.774182,135.55504 C139.93201,135.722431 138.341066,137.507447 137.001304,140.909456 Z M169.218231,155.485945 C169.218231,157.694443 169.699701,159.626901 170.662655,161.28364 C171.625608,162.940726 172.766482,163.711591 174.08531,163.595995 C175.404139,163.480399 176.461279,162.792706 177.256762,161.532748 C178.052246,160.272594 178.61745,158.649937 178.95239,156.664775 C179.538536,153.169156 179.831604,149.157169 179.831604,144.62901 C179.831604,140.10085 179.559469,133.482212 179.015191,124.77364 L187.556131,124.884591 C188.142277,133.59718 188.435345,139.528352 188.435345,142.677488 C188.435345,145.826623 188.393478,148.032588 188.309743,149.295434 C188.226008,150.558258 188.05854,152.030602 187.807335,153.712461 C187.556129,155.394233 187.221194,156.976905 186.802518,158.460495 C186.383843,159.943959 185.818639,161.440136 185.106891,162.949005 C184.395142,164.45766 183.557804,165.764378 182.59485,166.869205 C180.459604,169.394109 177.560319,170.815271 173.896907,171.133511 C170.233496,171.451751 167.103943,170.067629 164.508154,166.982445 C161.912365,163.899047 160.61449,160.321279 160.61449,156.247695 C160.61449,147.294297 161.09596,137.703424 162.058914,127.473266 L170.599854,127.519947 C169.678767,136.90578 169.218231,146.227241 169.218231,155.485945 Z M194.966652,168.792173 C195.51093,158.523961 195.783065,149.38626 195.783065,141.379661 C195.783065,133.373063 195.762132,128.115395 195.720264,125.606517 C200.325696,122.97 205.11946,121.422454 210.101699,120.965419 C213.786045,120.627444 216.873731,121.539261 219.364851,123.701821 C221.855971,125.865611 223.101512,129.126067 223.101512,133.482364 C223.101512,138.522001 219.605623,143.681544 212.61374,148.956106 C216.423688,153.48317 220.317313,158.497647 224.294731,164.00042 L218.265833,169.072057 C215.628176,165.246497 210.897213,159.047161 204.072801,150.481913 C203.947198,157.057201 203.758797,163.232791 203.507592,169.00877 L194.966652,168.792173 Z M212.174133,139.876494 C214.351246,137.483566 215.439787,135.390587 215.439787,133.598237 C215.439787,131.805888 214.926917,130.465491 213.901161,129.577163 C212.875406,128.689044 211.525198,128.321232 209.850495,128.473561 C208.175793,128.625889 206.333648,129.155839 204.324005,130.0632 C204.324005,137.266988 204.303071,142.618341 204.261204,146.117397 C207.359403,144.348705 209.99702,142.268433 212.174133,139.876494 Z M251.864382,131.07735 L251.927183,138.460842 L261.347337,137.038554 C261.347337,130.349665 261.452004,123.244021 261.661342,115.721165 L269.951078,115.732759 C269.57427,122.590606 269.385869,129.999396 269.385869,137.959748 C269.385869,145.9201 269.616137,153.892302 270.07668,161.877164 L262.038148,161.868688 C261.66134,158.213901 261.431072,152.316973 261.347337,144.177621 L252.115586,145.57626 C252.241189,151.648006 252.42959,157.821414 252.680795,164.096796 L244.139856,164.06849 C243.679313,155.077836 243.449045,146.795284 243.449045,139.219942 C243.449045,131.6446 243.616512,125.081283 243.951453,119.529508 L252.241188,119.541561 C251.989983,123.376965 251.864382,127.22214 251.864382,131.07735 Z M277.801206,161.269845 C277.633736,154.498413 277.550002,148.08498 277.550002,142.029176 C277.550002,135.973373 277.884938,128.06209 278.554818,118.29409 C285.714171,116.522385 292.705949,115.323602 299.530361,114.698934 L299.530361,122.640865 C294.799327,123.070067 290.403299,123.619394 286.342146,124.288676 C286.174676,129.118405 286.070008,132.824631 286.028141,135.407572 C289.210075,134.64967 292.978099,134.032506 297.332325,133.556237 L298.525545,140.551107 C295.720418,140.843496 291.512792,141.540086 285.902539,142.640397 C285.902539,147.798693 285.923472,151.51507 285.96534,153.789653 C289.607817,153.169372 293.961978,152.142283 299.027953,150.707751 L300.095571,157.716914 C296.536828,159.705231 292.329201,160.909844 287.472564,161.331707 L277.801206,161.269845 Z M306.501275,158.128061 C305.956997,149.302127 305.684862,141.196138 305.684862,133.809108 C305.684862,126.422078 305.91513,119.692603 306.375673,113.620056 L314.72821,113.631154 C314.100196,121.10357 313.786194,128.223353 313.786194,134.991434 C313.786194,141.759515 313.890862,146.729283 314.1002,149.900989 C315.607432,149.553076 319.312655,148.796365 325.215981,147.630297 L326.472002,155.030486 C323.331935,155.692535 318.89404,156.72613 313.158184,158.130692 L306.501275,158.128061 Z M329.863257,157.584748 C329.695787,152.720072 329.612053,146.865981 329.612053,140.022172 C329.612053,133.178364 329.821388,124.016529 330.240063,112.535659 C333.756939,110.874874 337.367961,109.874298 341.073241,109.534623 C344.77852,109.194948 348.086007,110.308486 350.995803,112.876533 C353.905598,115.446261 355.360474,118.885489 355.360474,123.193061 C355.360474,127.500633 353.779997,131.364888 350.618997,134.784426 C347.457996,138.201943 343.323636,140.871068 338.215794,142.792247 C338.215794,147.632501 338.278594,152.596848 338.404197,157.685533 L329.863257,157.584748 Z M346.756734,124.325518 C346.756734,122.033044 346.181063,120.225259 345.029705,118.902359 C343.878347,117.579795 342.590939,116.983345 341.167442,117.112739 C340.790634,117.146991 339.932362,117.333066 338.5926,117.670925 C338.383262,123.783585 338.257661,129.693916 338.215794,135.402254 C340.85345,134.302781 342.93633,132.75514 344.464496,130.759197 C345.992662,128.762675 346.756734,126.617992 346.756734,124.325518 Z M360.63576,141.072332 C359.882144,134.685354 359.505342,128.839559 359.505342,123.534028 C359.505342,118.228496 359.903078,112.486157 360.698561,106.306094 L369.867511,107.285162 C367.774133,115.88629 366.371591,127.217025 365.659843,141.278871 L360.63576,141.072332 Z M366.601858,144.576414 C367.062401,145.402822 367.292669,146.899655 367.292669,149.066895 C367.292669,151.234136 366.957734,153.148744 366.287853,154.810613 L358.814531,153.965424 C359.233206,152.326564 359.442541,150.630077 359.442541,148.876014 C359.442541,147.121952 359.400674,145.642278 359.316939,144.436962 L366.601858,144.576414 Z"/>
    <filter id="a1" width="103%" height="106.9%" x="-.7%" y="-2.3%" filterUnits="objectBoundingBox">
      <feMorphology radius=".5" operator="dilate" in="SourceAlpha" result="shadowSpreadOuter1"/>
      <feOffset dx="5" dy="2" in="shadowSpreadOuter1" result="shadowOffsetOuter1"/>
      <feColorMatrix values="0 0 0 0 0.409727697 0 0 0 0 0.507732781 0 0 0 0 0.152886786 0 0 0 1 0" in="shadowOffsetOuter1"/>
    </filter>
  </defs>
  <g fill="none" fill-rule="evenodd" transform="translate(-33 -46)">
    <use fill="black" filter="url(#a1)" xlink:href="#b1"/>
    <use fill="#FFFFFF" xlink:href="#b1"/>
  </g>
</svg>
