<svg xmlns="http://www.w3.org/2000/svg" width="511" height="351" viewBox="0 0 511 351" xmlns:xlink="http://www.w3.org/1999/xlink">
  <defs>
    <path id="b5" d="M0.280814857,55.8913869 C40.7435473,56.8562371 64.610581,54.9704957 71.8819158,50.2341627 C79.1532506,45.4978297 93.7293345,28.7531088 115.610167,0 C163.826627,28.6471364 192.65994,42.0230414 202.110104,40.127715 C234.354835,33.6607073 261.374368,20.2848023 283.168704,0 C315.649703,28.15752 339.312012,41.533425 354.15563,40.127715 C404.45049,35.3647264 440.492218,25.5069274 462.280815,10.554318 C436.729458,53.6092367 423.95378,92.2623527 423.95378,126.513666 C423.95378,139.068797 441.30252,159.568799 476,188.013671 C420.752518,202.930782 393.128777,216.706078 393.128777,229.339558 C393.128777,241.973037 416.179456,277.859852 462.280815,337 C404.181369,305.321987 354.115778,287.455524 312.084041,283.400609 C297.647229,282.007851 275.855307,291.739012 246.708277,312.594091 C213.526142,288.586128 186.047144,275.724924 164.271284,274.010478 C142.495424,272.296032 102.165268,279.818522 43.2808149,296.577946 C60.5463778,268.035877 68.490422,247.845456 67.1129474,236.006683 C65.7354727,224.167911 53.5808418,208.17024 30.6490546,188.013671 C64.9930208,163.365129 82.1650039,146.147235 82.1650039,136.359989 C82.1650039,107.163505 54.8702742,80.340638 0.280814857,55.8913869 Z"/>
    <filter id="a5" width="112.4%" height="109.9%" x="-9%" y="-4.6%" filterUnits="objectBoundingBox">
      <feMorphology radius="1" operator="dilate" in="SourceAlpha" result="shadowSpreadOuter1"/>
      <feOffset dx="-28" dy="3" in="shadowSpreadOuter1" result="shadowOffsetOuter1"/>
      <feComposite in="shadowOffsetOuter1" in2="SourceAlpha" operator="out" result="shadowOffsetOuter1"/>
      <feColorMatrix values="0 0 0 0 0 0 0 0 0 0.0117647059 0 0 0 0 0.28627451 0 0 0 0.1 0" in="shadowOffsetOuter1"/>
    </filter>
  </defs>
  <g fill="none" fill-rule="evenodd" transform="matrix(-1 0 0 1 478.28 4)">
    <use fill="black" filter="url(#a5)" xlink:href="#b5"/>
    <use fill="#9AB83C" xlink:href="#b5"/>
    <path stroke="#688127" d="M0.292734171,55.391529 C40.626594,56.3533062 64.4628675,54.4699952 71.6090181,49.8152035 C78.811621,45.1236404 93.3723741,28.3965312 115.212276,-0.302791306 L115.482268,-0.657581679 L115.865559,-0.429854508 C163.920118,28.1210903 192.749425,41.4951373 202.011782,39.6374776 C234.168059,33.1882101 261.103309,19.8540292 282.828053,-0.366001222 L283.156835,-0.672010813 L283.496218,-0.377802397 C315.87601,27.6919822 339.45024,41.0180975 354.10849,39.6299421 C404.326346,34.8742459 440.293602,25.0368159 461.997898,10.1420583 L463.868884,8.85807814 L462.710797,10.8094951 C437.201783,53.7930653 424.45378,92.3624487 424.45378,126.513666 C424.45378,138.852968 441.744997,159.284997 476.316993,187.626999 L477.068494,188.243077 L476.130335,188.496385 C421.164531,203.337442 393.628777,217.06886 393.628777,229.339558 C393.628777,241.801192 416.679409,277.687933 462.675156,336.6926 L464.155519,338.591651 L462.041462,337.438988 C403.996359,305.790605 353.991659,287.945871 312.036027,283.898298 C297.755869,282.520653 276.054193,292.211515 246.999226,313.000722 L246.706652,313.210063 L246.415186,312.999181 C213.300729,289.040184 185.898134,276.214739 164.23204,274.508935 C142.534465,272.800653 102.246356,280.3153 43.4176868,297.058848 L42.1950458,297.40683 L42.8529991,296.319154 C60.0627359,267.869371 67.9766003,247.755655 66.6162979,236.06447 C65.2576375,224.387397 53.1629381,208.468607 30.3189567,188.389218 L29.8466747,187.974092 L30.3575188,187.607461 C64.5415861,163.073678 81.6650039,145.904478 81.6650039,136.359989 C81.6650039,107.415424 54.5048974,80.7248525 0.0764392526,56.3477098 L-2.19071052,55.3323103 L0.292734171,55.391529 Z"/>
    <path stroke="#E0F0C2" stroke-width="14" d="M117.395774,9.18849926 C118.632371,7.57967804 119.893926,5.92992667 121.180645,4.23907828 L112.034679,6.01796312 C113.849544,7.09623999 115.636502,8.15307349 117.395774,9.18849926 Z M283.269493,9.3022638 C284.850145,7.94223816 286.406268,6.54948793 287.937818,5.12401711 L278.583509,5.28923355 C280.165048,6.66025692 281.72699,7.99794761 283.269493,9.3022638 Z M444.70949,27.8032827 C452.904623,24.377402 460.080896,20.5538238 466.241649,16.3259546 L456.261064,6.98183913 C452.077973,14.0304933 448.227199,20.9708985 444.70949,27.8032827 Z M461.323323,184.839876 C464.558823,187.622101 467.971703,190.48369 471.562102,193.427086 L474.175306,181.255677 C469.719624,182.458734 465.435838,183.652769 461.323318,184.839878 Z M437.612277,316.334854 C443.48255,324.138153 449.863636,332.456703 456.760033,341.3036 L465.631753,330.854171 C456.083084,325.647876 446.743431,320.807974 437.612277,316.334854 Z M246.733261,304.007311 C245.38231,304.948288 244.016248,305.912952 242.634984,306.901264 L250.811549,306.922834 C249.443155,305.932773 248.083733,304.960928 246.733261,304.007311 Z M57.8910341,285.250961 C52.5516201,286.697687 47.0430123,288.229166 41.3646077,289.845328 L49.2702355,300.201045 C52.4437209,294.954888 55.3178712,289.973721 57.8910341,285.250961 Z M41.7462568,188.597786 C39.6851131,186.685966 37.5264521,184.739018 35.270425,182.756016 L34.7305553,193.700617 C37.1510366,191.963446 39.4895189,190.262854 41.7462568,188.597786 Z M30.224918,63.0500638 C22.0354643,58.4346016 13.0052105,53.920318 3.14207332,49.502866 L0.113944465,62.8893977 C11.4193209,63.1589789 21.4391182,63.2191076 30.224918,63.0500638 Z M30.224918,63.0500638 C54.2862297,62.5871106 69.0922459,60.4053059 75.7024835,56.0995922 C83.4642394,51.0438133 97.0531483,35.6543815 117.395774,9.18849926 C164.573182,36.9549277 191.841402,49.3266047 203.486614,46.9910394 C234.717428,40.7273829 261.351562,28.1609132 283.269493,9.3022638 C314.788211,35.9539944 338.190444,48.670958 354.815586,47.0965354 C392.409126,43.5363783 422.351158,37.1499259 444.70949,27.8032827 C426.241664,63.6730166 416.95378,96.5654719 416.95378,126.513666 C416.95378,140.556243 431.707944,159.373445 461.323323,184.839876 C410.803559,199.42277 386.128777,212.96045 386.128777,229.339558 C386.128777,242.199021 402.982113,270.3013 437.612277,316.334854 C390.456849,293.234607 348.861944,279.916173 312.756228,276.432958 C296.880974,274.90143 275.150297,284.214015 246.733261,304.007311 C214.401079,281.176409 187.198597,268.793917 164.820704,267.032073 C144.125585,265.402715 108.655122,271.496325 57.8910341,285.250961 C69.9510586,263.116102 75.39943,246.657555 74.0660402,235.197671 C72.5783817,222.411918 61.7590655,207.160727 41.7462568,188.597786 C73.5972926,165.097432 89.1650039,148.673384 89.1650039,136.359989 C89.1650039,109.314601 69.233127,85.0345477 30.224918,63.0500638 Z"/>
  </g>
</svg>
