<svg xmlns="http://www.w3.org/2000/svg" width="480" height="342" preserveAspectRatio="none" viewBox="0 0 480 342">
  <g fill="none" fill-rule="evenodd" transform="matrix(-1 0 0 1 480.28 1)">
    <path fill="#000000" fill-rule="nonzero" d="M0.280814857,55.8913869 C40.7435473,56.8562371 64.610581,54.9704957 71.8819158,50.2341627 C79.1532506,45.4978297 93.7293345,28.7531088 115.610167,0 C163.826627,28.6471364 192.65994,42.0230414 202.110104,40.127715 C234.354835,33.6607073 261.374368,20.2848023 283.168704,0 C315.649703,28.15752 339.312012,41.533425 354.15563,40.127715 C404.45049,35.3647264 440.492218,25.5069274 462.280815,10.554318 C436.729458,53.6092367 423.95378,92.2623527 423.95378,126.513666 C423.95378,139.068797 441.30252,159.568799 476,188.013671 C420.752518,202.930782 393.128777,216.706078 393.128777,229.339558 C393.128777,241.973037 416.179456,277.859852 462.280815,337 C404.181369,305.321987 354.115778,287.455524 312.084041,283.400609 C297.647229,282.007851 275.855307,291.739012 246.708277,312.594091 C213.526142,288.586128 186.047144,275.724924 164.271284,274.010478 C142.495424,272.296032 102.165268,279.818522 43.2808149,296.577946 C60.5463778,268.035877 68.490422,247.845456 67.1129474,236.006683 C65.7354727,224.167911 53.5808418,208.17024 30.6490546,188.013671 C64.9930208,163.365129 82.1650039,146.147235 82.1650039,136.359989 C82.1650039,107.163505 54.8702742,80.340638 0.280814857,55.8913869 Z" transform="translate(3 1)"/>
    <path fill="#9AB83C" fill-rule="nonzero" d="M0.280814857,55.8913869 C40.7435473,56.8562371 64.610581,54.9704957 71.8819158,50.2341627 C79.1532506,45.4978297 93.7293345,28.7531088 115.610167,0 C163.826627,28.6471364 192.65994,42.0230414 202.110104,40.127715 C234.354835,33.6607073 261.374368,20.2848023 283.168704,0 C315.649703,28.15752 339.312012,41.533425 354.15563,40.127715 C404.45049,35.3647264 440.492218,25.5069274 462.280815,10.554318 C436.729458,53.6092367 423.95378,92.2623527 423.95378,126.513666 C423.95378,139.068797 441.30252,159.568799 476,188.013671 C420.752518,202.930782 393.128777,216.706078 393.128777,229.339558 C393.128777,241.973037 416.179456,277.859852 462.280815,337 C404.181369,305.321987 354.115778,287.455524 312.084041,283.400609 C297.647229,282.007851 275.855307,291.739012 246.708277,312.594091 C213.526142,288.586128 186.047144,275.724924 164.271284,274.010478 C142.495424,272.296032 102.165268,279.818522 43.2808149,296.577946 C60.5463778,268.035877 68.490422,247.845456 67.1129474,236.006683 C65.7354727,224.167911 53.5808418,208.17024 30.6490546,188.013671 C64.9930208,163.365129 82.1650039,146.147235 82.1650039,136.359989 C82.1650039,107.163505 54.8702742,80.340638 0.280814857,55.8913869 Z" transform="translate(3 1)"/>
    <path stroke="#688127" d="M3.29273417,56.391529 C43.626594,57.3533062 67.4628675,55.4699952 74.6090181,50.8152035 C81.811621,46.1236404 96.3723741,29.3965312 118.212276,0.697208694 L118.482268,0.342418321 L118.865559,0.570145492 C166.920118,29.1210903 195.749425,42.4951373 205.011782,40.6374776 C237.168059,34.1882101 264.103309,20.8540292 285.828053,0.633998778 L286.156835,0.327989187 L286.496218,0.622197603 C318.87601,28.6919822 342.45024,42.0180975 357.10849,40.6299421 C407.326346,35.8742459 443.293602,26.0368159 464.997898,11.1420583 L466.868884,9.85807814 L465.710797,11.8094951 C440.201783,54.7930653 427.45378,93.3624487 427.45378,127.513666 C427.45378,139.852968 444.744997,160.284997 479.316993,188.626999 L480.068494,189.243077 L479.130335,189.496385 C424.164531,204.337442 396.628777,218.06886 396.628777,230.339558 C396.628777,242.801192 419.679409,278.687933 465.675156,337.6926 L467.155519,339.591651 L465.041462,338.438988 C406.996359,306.790605 356.991659,288.945871 315.036027,284.898298 C300.755869,283.520653 279.054193,293.211515 249.999226,314.000722 L249.706652,314.210063 L249.415186,313.999181 C216.300729,290.040184 188.898134,277.214739 167.23204,275.508935 C145.534465,273.800653 105.246356,281.3153 46.4176868,298.058848 L45.1950458,298.40683 L45.8529991,297.319154 C63.0627359,268.869371 70.9766003,248.755655 69.6162979,237.06447 C68.2576375,225.387397 56.1629381,209.468607 33.3189567,189.389218 L32.8466747,188.974092 L33.3575188,188.607461 C67.5415861,164.073678 84.6650039,146.904478 84.6650039,137.359989 C84.6650039,108.415424 57.5048974,81.7248525 3.07643925,57.3477098 L0.80928948,56.3323103 L3.29273417,56.391529 Z"/>
    <path stroke="#E0F0C2" stroke-width="14" d="M33.224918,64.0500638 C57.2862297,63.5871106 72.0922459,61.4053059 78.7024835,57.0995922 C86.4642394,52.0438133 100.053148,36.6543815 120.395774,10.1884993 C167.573182,37.9549277 194.841402,50.3266047 206.486614,47.9910394 C237.717428,41.7273829 264.351562,29.1609132 286.269493,10.3022638 C317.788211,36.9539944 341.190444,49.670958 357.815586,48.0965354 C395.409126,44.5363783 425.351158,38.1499259 447.70949,28.8032827 C429.241664,64.6730166 419.95378,97.5654719 419.95378,127.513666 C419.95378,141.556243 434.707944,160.373445 464.323323,185.839876 C413.803559,200.42277 389.128777,213.96045 389.128777,230.339558 C389.128777,243.199021 405.982113,271.3013 440.612277,317.334854 C393.456849,294.234607 351.861944,280.916173 315.756228,277.432958 C299.880974,275.90143 278.150297,285.214015 249.733261,305.007311 C217.401079,282.176409 190.198597,269.793917 167.820704,268.032073 C147.125585,266.402715 111.655122,272.496325 60.8910341,286.250961 C72.9510586,264.116102 78.39943,247.657555 77.0660402,236.197671 C75.5783817,223.411918 64.7590655,208.160727 44.7462568,189.597786 C76.5972926,166.097432 92.1650039,149.673384 92.1650039,137.359989 C92.1650039,110.314601 72.233127,86.0345477 33.224918,64.0500638 Z"/>
  </g>
</svg>
